<svg width="116" height="18" viewBox="0 0 116 18" fill="none" xmlns="http://www.w3.org/2000/svg">
<path d="M8.25 6.75H9.75C9.94892 6.75 10.1397 6.82902 10.2803 6.96967C10.421 7.11032 10.5 7.30109 10.5 7.5C10.5 7.69891 10.579 7.88968 10.7197 8.03033C10.8603 8.17098 11.0511 8.25 11.25 8.25C11.4489 8.25 11.6397 8.17098 11.7803 8.03033C11.921 7.88968 12 7.69891 12 7.5C12 6.90326 11.7629 6.33097 11.341 5.90901C10.919 5.48705 10.3467 5.25 9.75 5.25H8.25C7.65327 5.25 7.08097 5.48705 6.65901 5.90901C6.23706 6.33097 6 6.90326 6 7.5V10.5C6 11.0967 6.23706 11.669 6.65901 12.091C7.08097 12.5129 7.65327 12.75 8.25 12.75H9.75C10.3467 12.75 10.919 12.5129 11.341 12.091C11.7629 11.669 12 11.0967 12 10.5C12 10.3011 11.921 10.1103 11.7803 9.96967C11.6397 9.82902 11.4489 9.75 11.25 9.75C11.0511 9.75 10.8603 9.82902 10.7197 9.96967C10.579 10.1103 10.5 10.3011 10.5 10.5C10.5 10.6989 10.421 10.8897 10.2803 11.0303C10.1397 11.171 9.94892 11.25 9.75 11.25H8.25C8.05109 11.25 7.86033 11.171 7.71967 11.0303C7.57902 10.8897 7.5 10.6989 7.5 10.5V7.5C7.5 7.30109 7.57902 7.11032 7.71967 6.96967C7.86033 6.82902 8.05109 6.75 8.25 6.75ZM9 1.5C7.51664 1.5 6.0666 1.93987 4.83323 2.76398C3.59986 3.58809 2.63856 4.75943 2.07091 6.12987C1.50325 7.50032 1.35472 9.00832 1.64411 10.4632C1.9335 11.918 2.64781 13.2544 3.6967 14.3033C4.7456 15.3522 6.08197 16.0665 7.53683 16.3559C8.99168 16.6453 10.4997 16.4968 11.8701 15.9291C13.2406 15.3614 14.4119 14.4001 15.236 13.1668C16.0601 11.9334 16.5 10.4834 16.5 9C16.5 8.01509 16.306 7.03982 15.9291 6.12987C15.5522 5.21993 14.9997 4.39314 14.3033 3.6967C13.6069 3.00026 12.7801 2.44781 11.8701 2.0709C10.9602 1.69399 9.98492 1.5 9 1.5ZM9 15C7.81332 15 6.65328 14.6481 5.66658 13.9888C4.67989 13.3295 3.91085 12.3925 3.45673 11.2961C3.0026 10.1997 2.88378 8.99334 3.11529 7.82946C3.3468 6.66557 3.91825 5.59647 4.75736 4.75736C5.59648 3.91824 6.66558 3.3468 7.82946 3.11529C8.99335 2.88378 10.1997 3.0026 11.2961 3.45672C12.3925 3.91085 13.3295 4.67988 13.9888 5.66658C14.6481 6.65327 15 7.81331 15 9C15 10.5913 14.3679 12.1174 13.2426 13.2426C12.1174 14.3679 10.5913 15 9 15Z" fill="#A6A6A6"/>
<path d="M115.115 12.9863C114.891 13.0703 114.672 13.1123 114.457 13.1123C113.776 13.1123 113.402 12.7343 113.337 11.9783C112.964 12.3423 112.539 12.6223 112.063 12.8183C111.587 13.0143 111.134 13.1123 110.705 13.1123C109.968 13.1123 109.38 12.9303 108.941 12.5663C108.512 12.2023 108.297 11.703 108.297 11.0683C108.297 10.387 108.535 9.869 109.011 9.51434C109.487 9.15967 110.192 8.98234 111.125 8.98234C111.816 8.98234 112.548 9.03834 113.323 9.15034V8.50634C113.323 7.853 113.16 7.36767 112.833 7.05034C112.516 6.72367 112.054 6.56034 111.447 6.56034C110.71 6.56034 110.066 6.705 109.515 6.99434V8.33834H108.885V6.63034C109.678 6.173 110.537 5.94434 111.461 5.94434C112.338 5.94434 112.978 6.159 113.379 6.58834C113.79 7.00834 113.995 7.643 113.995 8.49234V11.7123C113.995 12.2163 114.219 12.4683 114.667 12.4683C114.798 12.4683 114.928 12.445 115.059 12.3983L115.115 12.9863ZM110.789 12.4963C111.181 12.4963 111.615 12.3937 112.091 12.1883C112.576 11.983 112.987 11.7077 113.323 11.3623V9.71034C112.931 9.65434 112.576 9.617 112.259 9.59834C111.942 9.57034 111.559 9.55634 111.111 9.55634C110.411 9.55634 109.874 9.68234 109.501 9.93434C109.128 10.1863 108.941 10.555 108.941 11.0403C108.941 11.507 109.104 11.8663 109.431 12.1183C109.758 12.3703 110.21 12.4963 110.789 12.4963Z" fill="#A6A6A6"/>
<path d="M105.567 13.0005V6.60246H104.545V6.05646C104.974 6.03779 105.539 6.02846 106.239 6.02846V13.0005H105.567ZM105.749 4.51646C105.59 4.51646 105.46 4.46979 105.357 4.37646C105.254 4.28313 105.203 4.16179 105.203 4.01246C105.203 3.87246 105.254 3.75579 105.357 3.66246C105.46 3.56913 105.59 3.52246 105.749 3.52246C105.898 3.52246 106.024 3.56913 106.127 3.66246C106.239 3.75579 106.295 3.87246 106.295 4.01246C106.295 4.16179 106.244 4.28313 106.141 4.37646C106.038 4.46979 105.908 4.51646 105.749 4.51646Z" fill="#A6A6A6"/>
<path d="M103.488 12.9862C103.264 13.0702 103.049 13.1122 102.844 13.1122C102.19 13.1122 101.822 12.7669 101.738 12.0762C101.43 12.4029 101.08 12.6595 100.688 12.8462C100.305 13.0235 99.8384 13.1122 99.2877 13.1122C98.6717 13.1122 98.1304 12.9722 97.6637 12.6922C97.197 12.4122 96.833 12.0062 96.5717 11.4742C96.3104 10.9329 96.1797 10.2842 96.1797 9.5282C96.1797 8.76287 96.3104 8.1142 96.5717 7.5822C96.833 7.04087 97.197 6.63487 97.6637 6.3642C98.1397 6.0842 98.681 5.9442 99.2877 5.9442C100.258 5.9442 101.066 6.28487 101.71 6.9662V3.7322H100.688V3.1862C101.108 3.16754 101.672 3.1582 102.382 3.1582V11.7122C102.382 12.2162 102.606 12.4682 103.054 12.4682C103.184 12.4682 103.315 12.4449 103.446 12.3982L103.488 12.9862ZM99.3297 12.4962C99.8897 12.4962 100.352 12.3935 100.716 12.1882C101.08 11.9735 101.411 11.6749 101.71 11.2922V7.7922C101.439 7.40954 101.112 7.11087 100.73 6.8962C100.356 6.6722 99.8897 6.5602 99.3297 6.5602C98.5737 6.5602 97.9717 6.8122 97.5237 7.3162C97.085 7.8202 96.8657 8.55754 96.8657 9.5282C96.8657 10.4989 97.085 11.2362 97.5237 11.7402C97.9717 12.2442 98.5737 12.4962 99.3297 12.4962Z" fill="#A6A6A6"/>
<path d="M89.5102 9.66834C89.5289 10.5643 89.7622 11.2597 90.2102 11.7543C90.6676 12.2397 91.3116 12.4823 92.1422 12.4823C93.0382 12.4823 93.8316 12.2443 94.5222 11.7683L94.7182 12.3003C93.9622 12.8417 93.0989 13.1123 92.1282 13.1123C91.1109 13.1123 90.3036 12.8043 89.7062 12.1883C89.1182 11.5723 88.8242 10.6857 88.8242 9.52834C88.8242 8.41767 89.0996 7.545 89.6502 6.91034C90.2102 6.26634 90.9849 5.94434 91.9742 5.94434C92.8889 5.94434 93.6076 6.229 94.1302 6.79834C94.6529 7.36767 94.9142 8.189 94.9142 9.26234L94.8862 9.66834H89.5102ZM91.9742 6.57434C91.2556 6.57434 90.6816 6.79367 90.2522 7.23234C89.8322 7.66167 89.5896 8.28234 89.5242 9.09434H94.2702C94.2422 8.25434 94.0369 7.62434 93.6542 7.20434C93.2809 6.78434 92.7209 6.57434 91.9742 6.57434Z" fill="#A6A6A6"/>
<path d="M87.9479 12.9863C87.7239 13.0703 87.5093 13.1123 87.3039 13.1123C86.5386 13.1123 86.1559 12.641 86.1559 11.6983V8.85634C86.1559 7.335 85.5446 6.57434 84.3219 6.57434C83.8553 6.57434 83.4446 6.67234 83.0899 6.86834C82.7353 7.055 82.3993 7.335 82.0819 7.70834C82.1566 8.035 82.1939 8.38034 82.1939 8.74434V13.0003H81.5219V8.85634C81.5219 7.335 80.9106 6.57434 79.6879 6.57434C79.2213 6.57434 78.8153 6.67234 78.4699 6.86834C78.1339 7.055 77.7933 7.33967 77.4479 7.72234V13.0003H76.7759V7.34434C76.7759 6.831 76.5566 6.57434 76.1179 6.57434C76.0059 6.57434 75.8706 6.60234 75.7119 6.65834L75.6699 6.07034C75.8939 5.98634 76.1086 5.94434 76.3139 5.94434C76.9766 5.94434 77.3499 6.30834 77.4339 7.03634C77.7606 6.68167 78.1199 6.411 78.5119 6.22434C78.9039 6.03767 79.3566 5.94434 79.8699 5.94434C80.3459 5.94434 80.7566 6.05167 81.1019 6.26634C81.4566 6.47167 81.7226 6.775 81.8999 7.17634C82.5999 6.355 83.4679 5.94434 84.5039 5.94434C85.2413 5.94434 85.8153 6.187 86.2259 6.67234C86.6366 7.14834 86.8419 7.839 86.8419 8.74434V11.7123C86.8419 12.2163 87.0613 12.4683 87.4999 12.4683C87.6399 12.4683 87.7753 12.445 87.9059 12.3983L87.9479 12.9863Z" fill="#A6A6A6"/>
<path d="M74.8697 12.9862C74.6457 13.0702 74.4263 13.1122 74.2117 13.1122C73.4557 13.1122 73.0777 12.6409 73.0777 11.6982V8.8282C73.0777 8.02554 72.9143 7.45154 72.5877 7.1062C72.2703 6.75154 71.7757 6.5742 71.1037 6.5742C70.637 6.5742 70.161 6.6862 69.6757 6.9102C69.1997 7.12487 68.8217 7.40954 68.5417 7.7642V13.0002H67.8697V3.7462H66.8477V3.1862C67.277 3.16754 67.8417 3.1582 68.5417 3.1582V7.0362C68.887 6.7002 69.2977 6.4342 69.7737 6.2382C70.2497 6.0422 70.7397 5.9442 71.2437 5.9442C72.121 5.9442 72.7557 6.17754 73.1477 6.6442C73.549 7.11087 73.7497 7.8062 73.7497 8.7302V11.7122C73.7497 12.2162 73.9737 12.4682 74.4217 12.4682C74.5523 12.4682 74.683 12.4449 74.8137 12.3982L74.8697 12.9862Z" fill="#A6A6A6"/>
<path d="M65.7768 12.3143C65.0488 12.8463 64.1715 13.1123 63.1448 13.1123C62.1088 13.1123 61.2922 12.8043 60.6948 12.1883C60.0975 11.5723 59.7988 10.6857 59.7988 9.52834C59.7988 8.427 60.0882 7.55434 60.6668 6.91034C61.2455 6.26634 62.0715 5.94434 63.1448 5.94434C63.6768 5.94434 64.1575 6.01434 64.5868 6.15434C65.0162 6.285 65.3988 6.509 65.7348 6.82634V8.70234H65.1048V7.12034C64.6102 6.747 63.9615 6.56034 63.1588 6.56034C62.3282 6.56034 61.6748 6.81234 61.1988 7.31634C60.7228 7.82034 60.4848 8.55767 60.4848 9.52834C60.4848 10.471 60.7135 11.2037 61.1708 11.7263C61.6282 12.2397 62.3002 12.4963 63.1868 12.4963C64.1108 12.4963 64.9088 12.2537 65.5808 11.7683L65.7768 12.3143Z" fill="#A6A6A6"/>
<path d="M58.9235 12.9863C58.6995 13.0703 58.4801 13.1123 58.2655 13.1123C57.5841 13.1123 57.2108 12.7343 57.1455 11.9783C56.7721 12.3423 56.3475 12.6223 55.8715 12.8183C55.3955 13.0143 54.9428 13.1123 54.5135 13.1123C53.7761 13.1123 53.1881 12.9303 52.7495 12.5663C52.3201 12.2023 52.1055 11.703 52.1055 11.0683C52.1055 10.387 52.3435 9.869 52.8195 9.51434C53.2955 9.15967 54.0001 8.98234 54.9335 8.98234C55.6241 8.98234 56.3568 9.03834 57.1315 9.15034V8.50634C57.1315 7.853 56.9681 7.36767 56.6415 7.05034C56.3241 6.72367 55.8621 6.56034 55.2555 6.56034C54.5181 6.56034 53.8741 6.705 53.3235 6.99434V8.33834H52.6935V6.63034C53.4868 6.173 54.3455 5.94434 55.2695 5.94434C56.1468 5.94434 56.7861 6.159 57.1875 6.58834C57.5981 7.00834 57.8035 7.643 57.8035 8.49234V11.7123C57.8035 12.2163 58.0275 12.4683 58.4755 12.4683C58.6061 12.4683 58.7368 12.445 58.8675 12.3983L58.9235 12.9863ZM54.5975 12.4963C54.9895 12.4963 55.4235 12.3937 55.8995 12.1883C56.3848 11.983 56.7955 11.7077 57.1315 11.3623V9.71034C56.7395 9.65434 56.3848 9.617 56.0675 9.59834C55.7501 9.57034 55.3675 9.55634 54.9195 9.55634C54.2195 9.55634 53.6828 9.68234 53.3095 9.93434C52.9361 10.1863 52.7495 10.555 52.7495 11.0403C52.7495 11.507 52.9128 11.8663 53.2395 12.1183C53.5661 12.3703 54.0188 12.4963 54.5975 12.4963Z" fill="#A6A6A6"/>
<path d="M45.2544 9.66834C45.273 10.5643 45.5064 11.2597 45.9544 11.7543C46.4117 12.2397 47.0557 12.4823 47.8864 12.4823C48.7824 12.4823 49.5757 12.2443 50.2664 11.7683L50.4624 12.3003C49.7064 12.8417 48.843 13.1123 47.8724 13.1123C46.855 13.1123 46.0477 12.8043 45.4504 12.1883C44.8624 11.5723 44.5684 10.6857 44.5684 9.52834C44.5684 8.41767 44.8437 7.545 45.3944 6.91034C45.9544 6.26634 46.729 5.94434 47.7184 5.94434C48.633 5.94434 49.3517 6.229 49.8744 6.79834C50.397 7.36767 50.6584 8.189 50.6584 9.26234L50.6304 9.66834H45.2544ZM47.7184 6.57434C46.9997 6.57434 46.4257 6.79367 45.9964 7.23234C45.5764 7.66167 45.3337 8.28234 45.2684 9.09434H50.0144C49.9864 8.25434 49.781 7.62434 49.3984 7.20434C49.025 6.78434 48.465 6.57434 47.7184 6.57434Z" fill="#A6A6A6"/>
<path d="M43.6468 6.08434V8.11434H43.0168V6.60234C42.8021 6.57434 42.6108 6.56034 42.4428 6.56034C41.9481 6.56034 41.5374 6.65834 41.2108 6.85434C40.8841 7.041 40.5901 7.335 40.3288 7.73634V13.0003H39.6568V7.34434C39.6568 6.831 39.4374 6.57434 38.9988 6.57434C38.8868 6.57434 38.7514 6.60234 38.5928 6.65834L38.5508 6.07034C38.7748 5.98634 38.9894 5.94434 39.1948 5.94434C39.8294 5.94434 40.1981 6.26634 40.3008 6.91034C40.5994 6.58367 40.9214 6.341 41.2668 6.18234C41.6214 6.02367 42.0274 5.94434 42.4848 5.94434C42.8488 5.94434 43.2314 5.991 43.6328 6.08434H43.6468Z" fill="#A6A6A6"/>
<path d="M36.0728 13.0005V6.60246H35.0508V6.05646C35.4801 6.03779 36.0448 6.02846 36.7448 6.02846V13.0005H36.0728ZM36.2548 4.51646C36.0961 4.51646 35.9654 4.46979 35.8628 4.37646C35.7601 4.28313 35.7088 4.16179 35.7088 4.01246C35.7088 3.87246 35.7601 3.75579 35.8628 3.66246C35.9654 3.56913 36.0961 3.52246 36.2548 3.52246C36.4041 3.52246 36.5301 3.56913 36.6328 3.66246C36.7448 3.75579 36.8008 3.87246 36.8008 4.01246C36.8008 4.16179 36.7494 4.28313 36.6468 4.37646C36.5441 4.46979 36.4134 4.51646 36.2548 4.51646Z" fill="#A6A6A6"/>
<path d="M28.4516 9.66834C28.4703 10.5643 28.7036 11.2597 29.1516 11.7543C29.609 12.2397 30.253 12.4823 31.0836 12.4823C31.9796 12.4823 32.773 12.2443 33.4636 11.7683L33.6596 12.3003C32.9036 12.8417 32.0403 13.1123 31.0696 13.1123C30.0523 13.1123 29.245 12.8043 28.6476 12.1883C28.0596 11.5723 27.7656 10.6857 27.7656 9.52834C27.7656 8.41767 28.041 7.545 28.5916 6.91034C29.1516 6.26634 29.9263 5.94434 30.9156 5.94434C31.8303 5.94434 32.549 6.229 33.0716 6.79834C33.5943 7.36767 33.8556 8.189 33.8556 9.26234L33.8276 9.66834H28.4516ZM30.9156 6.57434C30.197 6.57434 29.623 6.79367 29.1936 7.23234C28.7736 7.66167 28.531 8.28234 28.4656 9.09434H33.2116C33.1836 8.25434 32.9783 7.62434 32.5956 7.20434C32.2223 6.78434 31.6623 6.57434 30.9156 6.57434Z" fill="#A6A6A6"/>
<path d="M26.895 12.9862C26.671 13.0702 26.4517 13.1122 26.237 13.1122C25.481 13.1122 25.103 12.6409 25.103 11.6982V8.8282C25.103 8.02554 24.9397 7.45154 24.613 7.1062C24.2957 6.75154 23.801 6.5742 23.129 6.5742C22.6624 6.5742 22.1864 6.6862 21.701 6.9102C21.225 7.12487 20.847 7.40954 20.567 7.7642V13.0002H19.895V3.7462H18.873V3.1862C19.3024 3.16754 19.867 3.1582 20.567 3.1582V7.0362C20.9124 6.7002 21.323 6.4342 21.799 6.2382C22.275 6.0422 22.765 5.9442 23.269 5.9442C24.1464 5.9442 24.781 6.17754 25.173 6.6442C25.5744 7.11087 25.775 7.8062 25.775 8.7302V11.7122C25.775 12.2162 25.999 12.4682 26.447 12.4682C26.5777 12.4682 26.7084 12.4449 26.839 12.3982L26.895 12.9862Z" fill="#A6A6A6"/>
</svg>
