<svg width="348" height="45" viewBox="0 0 348 45" fill="none" xmlns="http://www.w3.org/2000/svg">
<path d="M327.347 0.135742L341.619 39.5597H347.315V44.9997H336.947L333.107 34.2477H314.035L310.195 44.9997H299.955V39.5597H305.523L317.811 5.57574H312.371V0.135742H327.347ZM323.571 7.75174L316.019 28.7437H331.123L323.571 7.75174Z" fill="url(#paint0_linear_79_8914)"/>
<path d="M252.688 5.57574H247.76V0.135742H264.144V5.57574H259.216V39.5597H264.144V44.9997H247.76V39.5597H252.688V5.57574Z" fill="url(#paint1_linear_79_8914)"/>
<path d="M173.178 44.9997V5.57574H167.93V0.135742H188.026C195.322 0.135742 200.996 2.09841 205.05 6.02374C209.103 9.94908 211.13 15.4531 211.13 22.5357C211.13 27.1864 210.212 31.1971 208.378 34.5677C206.586 37.9384 203.962 40.5197 200.506 42.3117C197.05 44.1037 192.911 44.9997 188.09 44.9997H173.178ZM187.77 39.5597C193.018 39.5597 197.114 38.1091 200.058 35.2077C203.002 32.2637 204.474 28.0611 204.474 22.5997C204.474 17.2664 203.044 13.1064 200.186 10.1197C197.327 7.09041 193.167 5.57574 187.706 5.57574H179.706V39.5597H187.77Z" fill="url(#paint2_linear_79_8914)"/>
<path d="M125.048 39.5597V31.4957H130.808V44.9997H94.1362V39.5597H99.3203V5.57574H94.0723V0.135742H130.232V13.1917H124.472V5.57574H105.848V19.1437H123.256V24.6477H105.848V39.5597H125.048Z" fill="url(#paint3_linear_79_8914)"/>
<path d="M50.7617 5.57574V39.5597H55.9458V44.9997H45.1298H38.9857V39.5597H44.1698V11.5277L29.3218 37.3197H26.6338L11.7858 11.5277V39.5597H16.9698V44.9997H10.8258H0.073761V39.5597H5.25778V5.57574H0.00976562V0.135742H11.9778L27.9778 28.1037L43.9778 0.135742H55.8818V5.57574H50.7617Z" fill="url(#paint4_linear_79_8914)"/>
<defs>
<linearGradient id="paint0_linear_79_8914" x1="172.5" y1="-18.0002" x2="172.5" y2="61.9998" gradientUnits="userSpaceOnUse">
<stop stop-color="white"/>
<stop offset="1" stop-color="#A6A6A6"/>
</linearGradient>
<linearGradient id="paint1_linear_79_8914" x1="172.5" y1="-18.0002" x2="172.5" y2="61.9998" gradientUnits="userSpaceOnUse">
<stop stop-color="white"/>
<stop offset="1" stop-color="#A6A6A6"/>
</linearGradient>
<linearGradient id="paint2_linear_79_8914" x1="172.501" y1="-18.0002" x2="172.501" y2="61.9998" gradientUnits="userSpaceOnUse">
<stop stop-color="white"/>
<stop offset="1" stop-color="#A6A6A6"/>
</linearGradient>
<linearGradient id="paint3_linear_79_8914" x1="172.5" y1="-18.0002" x2="172.5" y2="61.9998" gradientUnits="userSpaceOnUse">
<stop stop-color="white"/>
<stop offset="1" stop-color="#A6A6A6"/>
</linearGradient>
<linearGradient id="paint4_linear_79_8914" x1="172.5" y1="-18.0002" x2="172.5" y2="61.9998" gradientUnits="userSpaceOnUse">
<stop stop-color="white"/>
<stop offset="1" stop-color="#A6A6A6"/>
</linearGradient>
</defs>
</svg>
