<svg width="1326" height="180" viewBox="0 0 1326 180" fill="none" xmlns="http://www.w3.org/2000/svg">
<path d="M184.202 7V40.6098H168.003V143.358H183.951V176.237H107.318V142.399H123.518V107.098H60.4335V143.358H76.3818V176.237H0V142.399H16.1993V39.9015H0.251297V7.02287H76.8844V40.6327H60.4335V72.3003H123.518V39.9015H107.798V7.02287H184.18L184.202 7Z" fill="url(#paint0_linear_79_8902)"/>
<path d="M314.005 141.645V120.122H348.322V176.214H203.533V142.376H219.733V39.8786H203.785V7H346.175V62.5898H311.605V41.3181H263.99V74.9279H310.874V105.384H263.99V141.645H314.028H314.005Z" fill="url(#paint1_linear_79_8902)"/>
<path d="M383.395 39.6273H367.195V7H444.308V39.6273H427.88V42.7804L428.132 140.434V143.587H444.331V176.214H367.218V143.587H383.418V39.6502L383.395 39.6273Z" fill="url(#paint2_linear_79_8902)"/>
<path d="M622.454 174.272C618.753 175.894 614.846 177.082 610.733 177.905C606.62 178.727 601.434 179.116 595.15 179.116C585.805 179.116 578.265 177.174 572.553 173.312C566.841 169.451 562.112 163.236 558.41 154.691L544.382 123.503H522.379V176.214H477.665V39.8786H461.945V7H541.708C564.579 7 582.63 12.0038 595.859 21.9884C609.065 31.9731 615.691 46.2534 615.691 64.7833C615.691 74.4481 613.04 83.4274 607.717 91.7442C602.393 100.038 595.059 106.847 585.714 112.17L592.957 128.37C595.379 133.854 597.755 137.509 600.086 139.36C602.416 141.211 605.523 142.147 609.385 142.147C612.606 142.147 615.92 141.668 619.301 140.708L622.454 174.318V174.272ZM522.379 89.9163H541C550.825 89.9163 558.273 87.9741 563.368 84.1128C568.441 80.2514 570.977 74.1282 570.977 65.7429C570.977 49.9547 560.992 42.0492 541 42.0492H522.379V89.9163Z" fill="url(#paint3_linear_79_8902)"/>
<path d="M745.493 141.645V120.122H779.811V176.214H635.021V142.376H651.221V39.8786H635.273V7H777.663V62.5898H743.093V41.3181H695.478V74.9279H742.362V105.384H695.478V141.645H745.516H745.493Z" fill="url(#paint4_linear_79_8902)"/>
<path d="M908.424 7L953.138 143.587H970.297V176.214H920.008L909.612 143.335H851.6L841.204 176.214H791.646V143.587H808.326L842.644 39.6502H828.135V7.02287H908.401L908.424 7ZM880.869 51.9654L862.248 110.457H899.467L880.846 51.9654H880.869Z" fill="url(#paint5_linear_79_8902)"/>
<path d="M1123.34 162.954C1115.75 166.975 1106.38 170.174 1095.16 172.504C1083.97 174.835 1072.73 176 1061.44 176C1033.88 176 1012.32 168.414 996.779 153.266C981.219 138.118 973.451 116.206 973.451 87.5088C973.451 60.4337 980.854 39.0933 995.682 23.4423C1010.51 7.81412 1031.94 0 1059.98 0C1071.1 0 1082.35 1.37101 1093.7 4.11279C1105.06 6.85458 1114.45 10.396 1121.87 14.7371V74.9194H1082.46V41.8124C1075.7 39.0706 1068.93 37.6996 1062.15 37.6996C1047.96 37.6996 1037.08 41.9723 1029.52 50.5175C1021.93 59.0628 1018.17 71.4008 1018.17 87.5088C1018.17 103.617 1022.07 116.686 1029.89 125.231C1037.7 133.776 1049.9 138.049 1066.51 138.049C1074.42 138.049 1082.6 137.135 1091.05 135.262C1099.5 133.411 1108.9 130.623 1119.22 126.922L1123.34 162.931V162.954Z" fill="url(#paint6_linear_79_8902)"/>
<path d="M1325.17 7V40.6098H1308.97V143.358H1324.92V176.237H1248.29V142.399H1264.49V107.098H1201.4V143.358H1217.35V176.237H1140.97V142.399H1157.17V39.9015H1141.22V7.02287H1217.85V40.6327H1201.43V72.3003H1264.51V39.9015H1248.79V7.02287H1325.17V7Z" fill="url(#paint7_linear_79_8902)"/>
<defs>
<linearGradient id="paint0_linear_79_8902" x1="92.1012" y1="7" x2="92.1012" y2="176.237" gradientUnits="userSpaceOnUse">
<stop stop-color="white"/>
<stop offset="1" stop-color="#A6A6A6"/>
</linearGradient>
<linearGradient id="paint1_linear_79_8902" x1="275.928" y1="7" x2="275.928" y2="176.214" gradientUnits="userSpaceOnUse">
<stop stop-color="white"/>
<stop offset="1" stop-color="#A6A6A6"/>
</linearGradient>
<linearGradient id="paint2_linear_79_8902" x1="405.763" y1="7" x2="405.763" y2="176.214" gradientUnits="userSpaceOnUse">
<stop stop-color="white"/>
<stop offset="1" stop-color="#A6A6A6"/>
</linearGradient>
<linearGradient id="paint3_linear_79_8902" x1="542.2" y1="7" x2="542.2" y2="179.116" gradientUnits="userSpaceOnUse">
<stop stop-color="white"/>
<stop offset="1" stop-color="#A6A6A6"/>
</linearGradient>
<linearGradient id="paint4_linear_79_8902" x1="707.416" y1="7" x2="707.416" y2="176.214" gradientUnits="userSpaceOnUse">
<stop stop-color="white"/>
<stop offset="1" stop-color="#A6A6A6"/>
</linearGradient>
<linearGradient id="paint5_linear_79_8902" x1="880.972" y1="7" x2="880.972" y2="176.214" gradientUnits="userSpaceOnUse">
<stop stop-color="white"/>
<stop offset="1" stop-color="#A6A6A6"/>
</linearGradient>
<linearGradient id="paint6_linear_79_8902" x1="1048.39" y1="0" x2="1048.39" y2="176" gradientUnits="userSpaceOnUse">
<stop stop-color="white"/>
<stop offset="1" stop-color="#A6A6A6"/>
</linearGradient>
<linearGradient id="paint7_linear_79_8902" x1="1233.07" y1="7" x2="1233.07" y2="176.237" gradientUnits="userSpaceOnUse">
<stop stop-color="white"/>
<stop offset="1" stop-color="#A6A6A6"/>
</linearGradient>
</defs>
</svg>
