<svg width="26" height="26" viewBox="0 0 26 26" fill="none" xmlns="http://www.w3.org/2000/svg">
<path d="M24.9171 10.5193C24.9707 8.96865 24.6316 7.42962 23.9313 6.0451C23.4561 5.477 22.7967 5.09362 22.0679 4.96177C19.0536 4.68826 16.0268 4.57615 13.0004 4.62594C9.98514 4.57389 6.9692 4.68238 3.96544 4.95094C3.37157 5.05896 2.822 5.33752 2.38377 5.7526C1.40877 6.65177 1.30044 8.19011 1.1921 9.49011C1.03492 11.8275 1.03492 14.1727 1.1921 16.5101C1.22344 17.2418 1.33239 17.9681 1.5171 18.6768C1.64773 19.2239 1.912 19.7301 2.28627 20.1501C2.72748 20.5872 3.28985 20.8816 3.90044 20.9951C6.23601 21.2834 8.58934 21.4029 10.9421 21.3526C14.7338 21.4068 18.0596 21.3526 21.9921 21.0493C22.6177 20.9427 23.1959 20.6479 23.6496 20.2043C23.9529 19.9008 24.1794 19.5295 24.3104 19.1209C24.6979 17.9321 24.8882 16.6879 24.8738 15.4376C24.9171 14.8309 24.9171 11.1693 24.9171 10.5193ZM10.5521 16.0876V9.38177L16.9654 12.7509C15.1671 13.7476 12.7946 14.8743 10.5521 16.0876Z" fill="#A6A6A6"/>
</svg>
