<svg width="316" height="95" viewBox="0 0 316 95" fill="none" xmlns="http://www.w3.org/2000/svg">
<g clip-path="url(#clip0_527_15728)">
<path d="M314.262 0.926305C313.923 0.577505 313.507 0.313597 313.047 0.156044C312.587 -0.00150834 312.096 -0.0482649 311.614 0.0195758L307.874 0.524446C264.702 6.35633 218.984 9.2002 168.043 9.2002C143.468 9.2002 114.34 8.98384 84.8404 7.54132C58.123 6.21214 32.0237 3.85254 7.30517 0.524446L3.56493 0.0195758C3.08009 -0.0547301 2.58458 -0.0126455 2.11924 0.14246C1.65391 0.297566 1.23218 0.561247 0.888888 0.911589C0.545592 1.26193 0.290534 1.6889 0.144915 2.15729C-0.000704882 2.62568 -0.0326791 3.12201 0.0514621 3.60524L0.649031 7.34548C1.80249 13.8714 3.43136 20.3044 5.52265 26.5928C7.28458 32.1362 9.19075 37.6899 11.0454 43.0787L12.591 47.5196C15.1257 54.8764 17.5573 62.1096 19.5356 69.4871C20.9369 74.7008 22.5444 81.4805 22.6886 87.8482C22.732 89.1262 23.0856 90.3746 23.719 91.4854L24.7494 93.2473C25.1448 93.894 25.7298 94.4031 26.4249 94.7055C27.1199 95.0078 27.8912 95.0887 28.6339 94.9371L30.2928 94.6178C49.9376 90.7894 69.7729 88.0137 89.714 86.3027C111.805 84.3037 134.886 83.3146 158.357 83.3146C181.582 83.3146 204.446 84.345 226.269 86.2306C246.055 87.9076 265.738 90.628 285.237 94.3807L287.215 94.7619C287.858 94.8805 288.522 94.7989 289.117 94.528C289.713 94.2571 290.21 93.8101 290.543 93.2473L291.574 91.4854C292.202 90.3727 292.556 89.1255 292.604 87.8482C292.748 81.4805 294.366 74.7008 295.757 69.4871C297.715 62.1096 300.177 54.8764 302.712 47.5196L304.227 43.0787C306.081 37.7105 308.008 32.1568 309.749 26.5928C311.848 20.305 313.484 13.872 314.644 7.34548L315.251 3.60524C315.308 3.11241 315.248 2.61323 315.077 2.14786C314.905 1.68249 314.626 1.264 314.262 0.926305ZM286.556 87.6833C286.543 87.9795 286.462 88.2688 286.319 88.5283C250.328 81.4806 206.105 77.3385 158.306 77.3385C109.971 77.3385 65.284 81.5733 29.0872 88.7652C29.0222 88.6913 28.9637 88.6121 28.9121 88.5283H28.8399C28.7083 88.2653 28.6346 87.9772 28.6236 87.6833C28.1393 65.1285 10.149 29.2202 6.51177 6.40781C62.1517 13.9295 111.609 15.1351 168.043 15.1351C221.509 15.1351 267.741 11.9306 308.667 6.40781C305.03 29.2408 287.04 65.1492 286.556 87.7039V87.6833Z" fill="#AAAAAA"/>
<path fill-rule="evenodd" clip-rule="evenodd" d="M308.667 6.42969C305.03 29.2421 287.03 65.1607 286.556 87.7052C286.543 88.0014 286.462 88.2906 286.319 88.5502C250.328 81.5024 206.105 77.3604 158.306 77.3604C109.971 77.3604 65.2841 81.5951 29.0873 88.7871C29.0223 88.7132 28.9638 88.6339 28.9122 88.5502H28.84C28.7084 88.2872 28.6347 87.999 28.6236 87.7052C28.1394 65.1504 10.149 29.2421 6.51184 6.42969C62.1518 13.9514 111.609 15.157 168.043 15.157C221.509 15.157 267.772 11.9525 308.667 6.42969Z" fill="#6B6B6B"/>
<path fill-rule="evenodd" clip-rule="evenodd" d="M288.534 33.1773C287.866 33.3919 287.174 33.5266 286.473 33.579C279.261 33.579 274.374 33.5413 271.811 33.4657C271.626 33.4657 271.43 33.5379 271.234 33.7749C271.218 33.816 271.212 33.86 271.214 33.904C271.217 33.948 271.228 33.991 271.249 34.0301C271.269 34.0691 271.298 34.1032 271.333 34.1303C271.368 34.1574 271.408 34.1768 271.451 34.187H273.017C273.443 34.2345 273.847 34.4025 274.181 34.6713C274.358 34.9811 274.468 35.3241 274.506 35.6789C274.543 36.0336 274.506 36.3923 274.398 36.732L271.162 54.8665C271.162 55.0313 271.09 55.2787 271.039 55.5466C270.894 56.3915 270.585 57.6691 270.122 59.4001C269.761 60.3172 269.359 60.8015 268.916 60.8736L267.061 61.0899C266.938 61.0899 266.896 61.2342 266.896 61.4505L267.113 61.6875H273.14L282.331 61.904C282.521 61.9452 282.714 61.9693 282.908 61.976C283.681 61.976 284.258 61.4917 284.567 60.5026C285.052 58.957 285.412 57.6588 285.68 56.5975V56.0927C285.653 56.0615 285.62 56.0362 285.583 56.0185C285.545 56.0007 285.505 55.9909 285.464 55.9895C285.319 55.9895 285.175 56.0926 285.01 56.309L284.578 57.6073L283.877 58.6377L282.981 59.3074C281.279 59.8564 279.474 60.0079 277.705 59.7504C277.05 59.7639 276.408 59.5692 275.871 59.1941C275.67 58.9375 275.525 58.6418 275.445 58.326C275.366 58.0102 275.353 57.6812 275.407 57.36L277.149 47.6848C278.086 47.6848 278.931 47.6848 279.652 47.6848C280.838 47.6361 282.026 47.7085 283.197 47.9012C283.6 48.0223 283.94 48.2958 284.145 48.6636C284.315 49.3714 284.315 50.1095 284.145 50.8172L284.505 50.9099C284.629 50.9099 284.742 50.7863 284.866 50.5287C285.347 48.3031 285.831 46.3968 286.319 44.8101C286.319 44.6658 286.195 44.5937 285.979 44.5937L285.041 45.3665L283.877 45.655L277.561 45.7065L279.251 35.6913L279.374 35.578L283.64 35.6501C284.413 35.6468 285.183 35.7509 285.927 35.9592C286.272 36.1054 286.561 36.3581 286.752 36.6804C286.918 37.3573 286.918 38.0643 286.752 38.7412L287.092 38.9061C287.195 38.8708 287.288 38.8112 287.363 38.7322C287.439 38.6533 287.494 38.5575 287.524 38.4528L288.009 36.3302L288.874 33.3627C288.823 33.1978 288.73 33.1258 288.534 33.1773Z" fill="white"/>
<path fill-rule="evenodd" clip-rule="evenodd" d="M265.711 33.1981L263.589 33.5072H246.299C244.486 33.5072 243.569 33.3939 243.548 33.126C243.359 33.0049 243.143 32.9307 242.92 32.9097C242.803 32.9058 242.689 32.9463 242.6 33.023C242.176 33.8075 241.83 34.6325 241.57 35.4856C241.144 36.3823 240.869 37.3431 240.756 38.3294C240.756 38.4737 240.828 38.5251 240.952 38.5251C241.111 38.5088 241.266 38.4596 241.405 38.3809L241.941 37.3505L242.775 36.4128C243.391 36.0157 244.104 35.7981 244.836 35.7843L251.42 35.6401L247.752 56.3093C247.299 58.844 246.784 60.2865 246.258 60.6265C245.99 60.915 245.228 61.0593 243.991 61.0593C243.911 61.0983 243.845 61.1605 243.801 61.2377C243.757 61.3148 243.737 61.4035 243.744 61.4921C243.816 61.6879 244.043 61.7806 244.424 61.7806C245.001 61.7806 246.485 61.6878 248.958 61.6878H255.14C255.258 61.6647 255.365 61.6023 255.444 61.5107C255.523 61.4191 255.568 61.3035 255.573 61.1829C255.521 61.0593 255.336 60.9872 254.996 60.9666H253.429L252.626 60.7193C252.448 60.6149 252.303 60.4633 252.207 60.2814C252.111 60.0995 252.067 59.8944 252.08 59.689C252.128 58.2145 252.297 56.7465 252.585 55.2996L256.078 35.7226C258.344 35.7226 260.302 35.7226 261.92 35.8668C263.527 36.1347 264.372 36.6911 264.475 37.5567L264.403 38.7312V38.9579L264.743 39.0506C264.821 39.0287 264.893 38.9881 264.952 38.9325C265.011 38.8769 265.056 38.8078 265.083 38.7312L266.113 33.4557C266.009 33.3311 265.868 33.2413 265.711 33.1981Z" fill="white"/>
<path fill-rule="evenodd" clip-rule="evenodd" d="M209.556 67.1502L209.402 66.9853L207.238 66.841C206.541 66.7454 205.866 66.5329 205.239 66.2125C204.415 65.6561 204.054 64.2857 204.147 62.091L205.353 28.2537C205.384 27.8867 205.282 27.5207 205.064 27.2234C204.93 27.1552 204.782 27.1199 204.631 27.1204C204.478 27.1328 204.329 27.1756 204.193 27.2464C204.057 27.3172 203.936 27.4144 203.838 27.5324L184.261 58.1859L177.244 34.2401C176.677 31.9456 175.989 29.6826 175.183 27.4603C175.125 27.3492 175.035 27.2577 174.925 27.1972C174.815 27.1368 174.69 27.1101 174.565 27.1204C174.452 27.106 174.338 27.106 174.225 27.1204C174.101 27.1204 173.865 27.4294 173.504 28.0579L162.335 62.5445C161.583 64.904 160.717 66.3052 159.728 66.7174L157.193 67.0059C157.141 67.0355 157.097 67.0772 157.065 67.1274C157.033 67.1776 157.013 67.235 157.008 67.2944C156.994 67.359 156.994 67.4256 157.008 67.4901L157.327 67.8714C159.089 67.8714 160.913 67.7993 162.87 67.7993C164.828 67.7993 166.899 67.7993 169.053 67.8714L169.588 67.5623C169.631 67.5035 169.663 67.437 169.681 67.3665C169.685 67.2819 169.667 67.1977 169.63 67.1219C169.592 67.0461 169.535 66.9814 169.465 66.9338C168.296 66.9274 167.138 66.7145 166.044 66.3052C165.488 65.9961 165.436 65.1204 165.869 63.6985L172.556 41.7309L172.741 41.8031L175.977 53.7451L179.233 64.1105C180.078 66.7173 180.655 67.9744 180.943 67.8508H181.067C181.376 67.8508 181.84 67.3974 182.468 66.4598L198.676 41.154H198.892L197.862 64.2651L197.542 65.8313C197.518 65.9444 197.468 66.0505 197.397 66.1416C197.326 66.2326 197.234 66.3062 197.13 66.3568L196.512 66.7689L196.44 67.1502C196.357 67.6344 200.561 67.8508 208.928 67.8508C209.077 67.829 209.218 67.7692 209.337 67.6772C209.456 67.5851 209.549 67.4639 209.608 67.3253C209.628 67.2651 209.652 67.2067 209.68 67.1502H209.556Z" fill="white"/>
<path fill-rule="evenodd" clip-rule="evenodd" d="M156.616 33.353C155.947 33.5697 155.256 33.708 154.555 33.7652C147.343 33.7652 142.417 33.7652 139.862 33.6415C139.697 33.6415 139.501 33.7137 139.306 33.9507C139.286 33.9914 139.276 34.0362 139.276 34.0815C139.277 34.1268 139.288 34.1714 139.309 34.2116C139.331 34.2517 139.361 34.2863 139.398 34.3125C139.435 34.3388 139.477 34.356 139.522 34.3627H141.099C141.515 34.4126 141.908 34.5807 142.232 34.8471C142.562 35.2077 142.613 35.8775 142.448 36.9078L139.213 55.0423C139.213 55.2175 139.141 55.4545 139.089 55.7224C138.945 56.5673 138.636 57.8449 138.172 59.576C137.843 60.493 137.431 60.9772 136.967 61.0493L135.112 61.2658C135.019 61.2658 134.947 61.41 134.947 61.6264L135.164 61.8737L141.212 61.8221L150.403 62.0386C150.584 62.0865 150.771 62.1107 150.959 62.1106C151.753 62.1106 152.309 61.6263 152.618 60.6371C153.123 59.1019 153.494 57.7934 153.731 56.7321V56.2273C153.661 56.1701 153.574 56.1374 153.484 56.1344C153.339 56.1344 153.195 56.2272 153.051 56.4436L152.597 57.7522L151.897 58.7826L151 59.4626C149.299 60.0137 147.493 60.1617 145.725 59.8953C145.076 59.9163 144.437 59.7205 143.912 59.3389C143.706 59.0851 143.559 58.7893 143.481 58.4724C143.402 58.1554 143.395 57.8252 143.458 57.5049L145.169 47.84C146.106 47.84 146.951 47.84 147.672 47.84C148.868 47.7933 150.066 47.8657 151.248 48.0564C151.536 48.0564 151.825 48.3449 152.165 48.8292C152.346 49.5321 152.346 50.2694 152.165 50.9723L152.546 51.0754C152.649 51.0754 152.762 50.9518 152.886 50.6839C153.37 48.4686 153.855 46.5623 154.36 44.9653C154.36 44.821 154.215 44.7489 153.999 44.7489L153.082 45.5217L151.897 45.8102H145.601L147.291 35.8053L147.384 35.6816L151.66 35.7538C152.44 35.755 153.216 35.8589 153.968 36.0629C154.313 36.2135 154.602 36.4697 154.792 36.7945C154.957 37.4716 154.957 38.1782 154.792 38.8553L155.153 39.0303C155.255 38.9936 155.346 38.932 155.418 38.851C155.49 38.77 155.54 38.6723 155.565 38.5667L156.049 36.4441L156.915 33.4766C156.925 33.3736 156.812 33.3015 156.616 33.353Z" fill="white"/>
<path fill-rule="evenodd" clip-rule="evenodd" d="M125.066 36.8661C126.889 35.1729 129.224 34.136 131.702 33.9193L131.897 33.5071C131.897 33.4144 131.794 33.3216 131.537 33.2495C129.991 33.3216 128.518 33.3422 127.096 33.3422C125.674 33.3422 124.293 33.3422 122.974 33.2495L122.614 33.4144C122.521 33.6514 122.521 33.8265 122.614 33.9193L123.139 34.0842L123.366 34.3314L123.294 34.929C122.733 35.7691 122.084 36.5464 121.357 37.2473C120.708 37.9274 117.575 40.7712 111.929 45.8303H111.764C111.98 44.4084 112.197 43.1102 112.413 41.9459C112.755 39.662 113.237 37.4012 113.856 35.1763C114.041 34.836 114.306 34.546 114.629 34.3314C115.282 34.0619 115.982 33.9219 116.689 33.9193L116.916 33.5071C116.988 33.4144 116.844 33.3216 116.452 33.2495C114.979 33.3216 113.361 33.3422 111.682 33.3422C110.002 33.3422 108.178 33.3422 106.272 33.2495C106.087 33.2495 105.891 33.3216 105.726 33.5792C105.561 33.8368 105.726 33.8986 105.912 33.9913L107.478 34.0429C107.746 33.9914 108.137 34.1872 108.642 34.5478C108.951 34.8878 109.023 35.5782 108.858 36.6085L105.602 54.9079C105.551 55.0727 105.53 55.3201 105.479 55.588C105.335 56.4329 104.995 57.731 104.521 59.493C104.181 60.3791 103.768 60.8634 103.305 60.9355L101.502 61.1519C101.378 61.1519 101.306 61.3476 101.306 61.564L101.553 61.7805H106.252L111.898 61.9041C112.032 61.9084 112.165 61.885 112.289 61.8353C112.413 61.7857 112.526 61.7109 112.619 61.6156C112.764 61.2756 112.619 61.1107 112.259 61.0901H110.713L109.961 60.8428C109.796 60.8428 109.631 60.5749 109.487 60.0288C109.437 59.4168 109.461 58.8009 109.559 58.1947L111.414 47.479C111.537 47.4378 111.609 47.479 111.63 47.6026C111.63 48.0663 113.691 51.1264 117.534 56.7934C118.495 58.3423 119.691 59.7327 121.079 60.9149C121.849 61.502 122.789 61.8238 123.758 61.8319L129.26 61.9041L130.084 61.7805C130.151 61.7157 130.202 61.6366 130.235 61.5492C130.267 61.4618 130.279 61.3682 130.27 61.2755C130.27 61.1828 129.672 61.0901 128.538 60.9149C127.799 60.6886 127.102 60.3403 126.478 59.8845L124.747 58.2978L122.109 55.1345C120.613 53.338 119.213 51.4636 117.915 49.5191C117.462 48.839 116.586 47.4583 115.309 45.3976C115.48 45.1366 118.733 42.2927 125.066 36.8661Z" fill="white"/>
<path fill-rule="evenodd" clip-rule="evenodd" d="M64.2228 52.8987C64.0201 51.3959 63.4521 49.9657 62.5683 48.7334C61.6845 47.5011 60.5119 46.5043 59.1534 45.8304L56.8865 44.728C60.1425 42.4818 62.2651 40.0501 63.213 37.4124L63.8415 34.8879C64.0991 31.2404 62.3167 28.8809 58.5352 27.8196C57.4172 27.4779 56.2523 27.3145 55.0834 27.3353L53.0226 27.4074L50.6632 27.5002L40.3595 27.3353C40.1019 27.2632 39.834 27.4281 39.5455 27.8196C39.4527 28.0875 39.5455 28.273 39.8546 28.3967H42.1008C42.7093 28.458 43.2828 28.7104 43.739 29.1179C44.2027 29.6021 44.2954 30.5604 44.0276 32.0133L39.4218 57.9579C39.4218 58.2258 39.3291 58.5453 39.2569 58.9265C39.0406 60.132 38.577 62.0176 37.9072 64.4493C37.4229 65.7269 36.8768 66.4276 36.1658 66.51L33.559 66.85C33.4979 66.8765 33.4453 66.9194 33.4072 66.974C33.369 67.0285 33.3466 67.0926 33.3426 67.1591C33.3325 67.2309 33.3325 67.3037 33.3426 67.3755L33.6827 67.7154L42.5542 67.6227L48.3242 67.9833C48.7055 67.9833 49.0867 67.9833 49.4576 67.9833C49.8285 67.9833 50.0759 67.9833 50.3953 67.9833L51.3328 67.9113C51.9407 67.8391 52.5178 67.7464 53.0948 67.6227L53.4348 67.5507C53.7103 67.4825 53.982 67.3999 54.2489 67.3034C54.9123 67.1136 55.56 66.8724 56.186 66.5821C56.5658 66.4144 56.9341 66.2217 57.2884 66.0051L57.5357 65.8609L57.9685 65.5723C58.252 65.3978 58.5239 65.2051 58.7825 64.9954C58.8546 64.9954 58.9061 64.8717 58.9782 64.8511C59.3698 64.5111 59.751 64.1711 60.1116 63.8207C60.512 63.4215 60.884 62.9946 61.2245 62.5431C61.5336 62.1825 61.8014 61.7703 62.0899 61.3581C62.2342 61.1418 62.3579 60.9254 62.5021 60.709C62.7391 60.3175 62.9555 59.9156 63.1719 59.5034C63.6325 58.3486 63.9776 57.151 64.2023 55.9281C64.3943 54.9281 64.4012 53.9013 64.2228 52.8987ZM50.6013 30.1379L50.9825 29.7257H53.0433H53.744C54.4555 29.8576 55.1284 30.1473 55.7133 30.5735C56.2981 30.9996 56.7801 31.5514 57.1236 32.1883C58.0581 34.2815 58.2366 36.6344 57.6285 38.8446C57.1291 40.7128 56.0768 42.3864 54.6095 43.646C54.3963 43.8075 54.1601 43.936 53.9088 44.0273C53.77 44.0956 53.6252 44.1508 53.4761 44.1922C53.3363 44.2476 53.1913 44.289 53.0433 44.3158C52.1802 44.5009 51.2984 44.5839 50.4159 44.5631C49.9832 44.5631 49.5194 44.5631 49.0351 44.5631L48.2417 44.4188L48.1181 44.1715L50.6013 30.1379ZM57.1133 59.6064C56.9469 60.1381 56.7365 60.6551 56.4847 61.152C56.3273 61.5139 56.1341 61.8591 55.9077 62.1824C55.6973 62.5535 55.445 62.8993 55.1556 63.2127C54.9109 63.4732 54.653 63.7209 54.3828 63.9547L54.187 64.099C53.9008 64.3149 53.5936 64.5012 53.2699 64.6553C53.2024 64.7041 53.1299 64.7456 53.0536 64.7789C52.6459 64.9772 52.2174 65.1293 51.7759 65.2323C51.5488 65.3074 51.3136 65.3558 51.0752 65.3766C50.9495 65.403 50.8197 65.403 50.694 65.3766C50.2855 65.4449 49.8717 65.4759 49.4576 65.4693C49.0547 65.4701 48.652 65.4459 48.252 65.3971C46.6138 65.088 45.5525 64.5831 45.0992 63.8825C44.8431 63.1854 44.8071 62.4266 44.9962 61.7084L47.6545 46.8093L50.3025 46.7372C51.6522 46.9741 52.5693 47.1699 53.0536 47.2833L53.2494 47.3555C53.3628 47.407 53.4348 47.4276 53.4348 47.4585C54.602 48.1605 55.5621 49.1595 56.2169 50.3538C57.577 52.7339 57.9067 55.7941 57.1133 59.658V59.6064Z" fill="white"/>
<path fill-rule="evenodd" clip-rule="evenodd" d="M96.1745 61.1221C95.5192 61.1254 94.8657 61.0527 94.2271 60.9056C93.7543 60.6717 93.3524 60.316 93.0628 59.8752C92.6063 59.1187 92.2954 58.2835 92.1459 57.4126L87.3237 34.4561C87.1794 33.807 86.9218 33.5184 86.5096 33.6318C86.1772 33.8569 85.9105 34.1662 85.7369 34.5282L82.79 39.68L72.8573 57.3302C72.3167 58.5159 71.5258 59.5704 70.5389 60.4213C69.7903 60.9123 68.8941 61.1272 68.0043 61.0292L67.623 61.1426L67.4994 61.5033L67.6746 61.699H76.3296C76.5254 61.6269 76.6181 61.5342 76.6388 61.39C76.6698 61.3104 76.6698 61.2221 76.6388 61.1426C76.1271 61.015 75.5973 60.9767 75.0726 61.0292L74.6707 60.8541C74.4234 60.7099 74.3719 60.2771 74.5471 59.5249L75.0005 58.3709L78.0916 52.7039L78.4316 52.2711H86.3654L86.5303 52.3639L88.0244 60.4213C87.9799 60.6407 87.8501 60.8334 87.6637 60.9572C87.4336 60.9637 87.2123 61.0471 87.0351 61.1941V61.5033C87.0351 61.7506 88.4055 61.8948 91.1566 61.8948C92.187 61.8948 93.3719 61.8947 94.6496 61.7917L95.8345 61.699C95.9613 61.7046 96.0852 61.6604 96.1797 61.5756C96.2741 61.4908 96.3314 61.3723 96.3394 61.2457L96.1745 61.1221ZM79.4413 50.4886V50.3237L82.79 43.9973L84.2635 41.2256L84.5314 41.0402L86.149 50.4886H79.4413Z" fill="white"/>
<path fill-rule="evenodd" clip-rule="evenodd" d="M238.18 61.1221C237.532 61.126 236.885 61.0533 236.253 60.9056C235.775 60.6798 235.371 60.3223 235.089 59.8752C234.632 59.1187 234.321 58.2835 234.172 57.4126L229.35 34.4561C229.205 33.807 228.917 33.5184 228.505 33.6318C228.188 33.8652 227.933 34.1731 227.763 34.5282L224.816 39.68L214.883 57.3302C214.329 58.5073 213.54 59.5591 212.565 60.4213C211.815 60.9099 210.92 61.1246 210.03 61.0292L209.649 61.1426L209.556 61.359V61.5547L209.701 61.699H218.356C218.552 61.6269 218.644 61.5342 218.665 61.39V61.1426C218.153 61.0174 217.623 60.9791 217.099 61.0292L216.687 60.8541C216.429 60.7099 216.377 60.2771 216.542 59.5249L217.027 58.3709L220.118 52.7039L220.447 52.2711H228.392L228.556 52.3639L230.03 60.4213C230.011 60.5287 229.972 60.6314 229.913 60.7233C229.855 60.8153 229.779 60.8947 229.69 60.9572C229.459 60.9577 229.235 61.0419 229.061 61.1941L228.989 61.5033C228.989 61.7506 230.36 61.8948 233.111 61.8948C234.141 61.8948 235.326 61.8947 236.583 61.7917L237.789 61.699C238.077 61.699 238.221 61.5342 238.293 61.2457L238.18 61.1221ZM221.468 50.4886V50.3237L224.847 43.9973L226.321 41.2462L226.588 41.0607L228.196 50.5092L221.468 50.4886Z" fill="white"/>
</g>
<defs>
<clipPath id="clip0_527_15728">
<rect width="315.169" height="95" fill="white"/>
</clipPath>
</defs>
</svg>
