<svg width="184" height="95" viewBox="0 0 184 95" fill="none" xmlns="http://www.w3.org/2000/svg">
<g clip-path="url(#clip0_527_15686)">
<path d="M34.7028 61.2572L21.8209 60.4893C12.9754 60.007 11.6315 58.0825 11.6315 56.2607C11.6315 54.622 12.7835 53.6621 14.4177 52.6038C17.4036 53.7046 20.5631 54.2597 23.7453 54.2426C31.6263 54.2426 43.1597 46.7411 43.1597 35.9757C43.1597 29.4968 40.2127 25.2013 35.9753 22.6741C37.3653 20.8253 39.2843 19.4424 41.4779 18.7088C43.6716 17.9752 46.0363 17.9255 48.2589 18.5662C46.8146 18.1534 45.466 17.4598 44.2901 16.5251C43.1143 15.5904 42.1343 14.4329 41.4064 13.119C40.6785 11.805 40.2169 10.3604 40.0481 8.86779C39.8793 7.37521 40.0066 5.86399 40.4226 4.42065C40.0103 5.86475 39.3172 7.21332 38.3829 8.38912C37.4486 9.56493 36.2915 10.5449 34.9779 11.2728C33.6643 12.0007 32.2201 12.4624 30.7278 12.6313C29.2355 12.8001 27.7246 12.6729 26.2815 12.257C28.4423 12.8786 30.3723 14.1225 31.8309 15.8336C33.2895 17.5448 34.2122 19.6473 34.484 21.8793C33.7437 21.5323 32.9814 21.234 32.2023 20.9863L30.7645 20.504C28.4704 19.9227 26.112 19.6331 23.7453 19.6423C13.2657 19.6423 4.1345 27.9072 4.1345 38.0028C4.1345 45.3078 8.07721 49.6122 13.0648 52.0368C7.87181 55.1132 5.37135 57.7119 5.37135 61.2662C5.37135 65.2848 7.77808 67.5173 11.8145 68.6649C4.3176 73.188 -0.00909424 78.1845 -0.00909424 83.3998C-0.00909424 92.4327 9.31409 95.0091 15.1723 95.0091C32.8632 95.0091 49.3975 80.9707 49.3975 70.4956C49.3975 63.6684 44.593 61.8422 34.6894 61.2662M20.5572 21.0801C29.2107 20.2138 34.3054 32.8993 34.3054 41.4544C34.3054 47.1296 32.2871 52.6172 25.7502 52.6172C16.9048 52.6172 13.0603 40.6016 13.0603 32.7206C13.0603 26.9517 14.7883 21.7587 20.5572 21.1113M21.9995 89.267C14.4981 89.267 7.86734 86.3825 7.86734 78.6935C7.86734 75.5188 9.11757 72.1566 13.4443 69.0802C15.5132 69.4256 17.6004 69.6507 19.6955 69.7544L35.1716 70.5224C42.7623 70.9064 44.7895 72.7549 44.7895 75.8091C44.7895 82.538 35.4618 89.267 22.0173 89.267" fill="#6E6E6E"/>
<path d="M53.287 70.1822C55.3543 69.4901 55.7919 67.6147 55.7919 63.1005V29.9068C55.7919 26.2096 54.8542 25.5845 53.287 24.8924V23.9994L61.5564 20.3647L62.1815 20.8649V63.0826C62.1815 67.5969 62.628 69.4722 64.6864 70.1643V71.0573H53.287V70.1822Z" fill="#6E6E6E"/>
<path d="M68.7586 56.2258C68.7326 54.0135 69.1461 51.8179 69.9752 49.7666C70.8043 47.7153 72.0325 45.849 73.5884 44.276C75.1444 42.703 76.9972 41.4546 79.0394 40.6032C81.0816 39.7519 83.2725 39.3145 85.485 39.3164C93.2498 39.3164 102.144 43.8887 102.144 54.9131C102.144 65.6294 92.8748 71.6975 85.485 71.6975C77.3406 71.6975 68.7586 66.8752 68.7586 56.2258ZM95.8173 59.6729C95.8173 51.7161 90.3698 39.754 82.288 40.5667C76.8405 41.1337 75.0232 46.1436 75.0232 51.5285C75.0232 58.9228 79.408 70.3222 87.6729 70.3222C93.8125 70.3222 95.8173 64.9953 95.8173 59.6729Z" fill="#6E6E6E"/>
<path d="M102.394 40.5974V39.7043H113.11V40.5974C111.043 41.2895 111.543 43.0398 112.735 47.362L117.495 64.1509L125.889 39.7222H129.707L137.976 63.9008L142.924 47.3799C144.179 43.0576 143.486 41.1287 141.357 40.6152V39.7222H148.054V40.6152C146.237 41.2448 145.232 43.0576 143.982 47.3799L136.838 71.045H133.645L124.938 45.4286L116.044 71.045H112.851L105.962 47.3799C104.707 43.0576 103.769 41.2448 102.389 40.6152" fill="#6E6E6E"/>
<path d="M131.663 31.8225V25.5713C131.663 23.5218 131.14 23.1736 130.269 22.7896V22.2895L134.864 20.2712L135.212 20.5481V31.3671C135.212 35.091 135.802 36.9351 138.481 36.9351C140.048 36.9351 141.754 35.9974 143.455 34.2917V25.5579C143.455 23.5084 142.933 23.1602 142.066 22.7762V22.2895L146.657 20.2712L147.005 20.5481V33.5595C147.005 36.0644 147.25 37.1316 148.398 37.4933V37.9799H144.826C144.637 38.0031 144.446 37.9829 144.266 37.9211C144.087 37.8592 143.924 37.7573 143.79 37.623C143.655 37.4888 143.553 37.3257 143.492 37.1461C143.43 36.9666 143.41 36.7753 143.433 36.5868V35.0196C141.45 36.9351 139.052 38.3282 136.86 38.3282C133.172 38.3282 131.64 36.0644 131.64 31.8225" fill="#6E6E6E"/>
<path d="M155.596 37.145V42.9496C155.596 45.4546 155.842 46.5217 156.989 46.8789V47.3656H150.658V46.8789C151.805 46.4994 152.051 45.4546 152.051 42.9496V25.5356C152.051 23.4861 151.528 23.1379 150.658 22.7539V22.2895L155.248 20.2712L155.596 20.5481V22.8119C157.44 21.5215 159.704 20.3427 162.102 20.3427C166.419 20.3427 169.166 23.9595 169.166 28.7237C169.166 34.0462 165.593 38.2925 159.878 38.2925C158.375 38.2899 156.899 37.8943 155.596 37.145ZM161.267 37.6316C165.026 37.6316 165.897 34.5329 165.897 31.3805C165.897 28.2281 164.852 21.7805 159.668 21.7805C158.137 21.7805 156.815 22.477 155.596 23.4147V32.1842C155.596 34.582 158.695 37.6451 161.267 37.6451" fill="#6E6E6E"/>
<path d="M126.139 9.56464L126.39 9.33691L129.319 12.5652L131.306 10.7613L131.511 10.989L129.27 13.0206L126.139 9.56464Z" fill="#6E6E6E"/>
<path d="M131.374 5.95052L131.084 6.12427L133.471 10.1051L133.761 9.93136L131.374 5.95052Z" fill="#6E6E6E"/>
<path d="M136.611 5.24301L136.102 6.65399L136.607 7.77027L136.299 7.90869L134.37 3.66682L134.678 3.52394L135.919 6.25213L137.33 2.32282L137.705 2.14868L136.714 4.92599L139.764 6.33697L139.384 6.50664L136.611 5.24301Z" fill="#6E6E6E"/>
<path d="M145 4.6877L145.067 4.98687L141.928 5.69682L140.901 1.14686L143.947 0.459229L144.014 0.758392L141.303 1.37011L141.705 3.16509L144.13 2.62035L144.197 2.91058L141.772 3.45979L142.192 5.32175L145 4.6877Z" fill="#6E6E6E"/>
<path d="M155.105 0.392931L154.618 5.0322L154.341 5.0054L151.6 0.647443L151.18 4.67499L150.841 4.63926L151.327 0L151.613 0.0312559L154.346 4.38922L154.765 0.361675L155.105 0.392931Z" fill="#6E6E6E"/>
<path d="M160.682 6.42971L160.583 6.71995L157.529 5.71083L158.989 1.28589L161.95 2.26375L161.856 2.55398L159.217 1.68328L158.641 3.42915L160.999 4.21055L160.905 4.49185L158.547 3.71492L157.949 5.52776L160.682 6.42971Z" fill="#6E6E6E"/>
<path d="M168.447 5.58601L164.335 8.60443L164.04 8.43476L164.545 3.35791L164.866 3.54098L164.411 8.14452L168.139 5.41187L168.447 5.58601Z" fill="#6E6E6E"/>
<path d="M170.452 12.8241L170.251 13.0518L167.826 10.9354L170.894 7.42578L173.243 9.47527L173.042 9.70746L170.948 7.87676L169.742 9.26541L171.613 10.8996L171.412 11.1229L169.541 9.48867L168.282 10.9309L170.452 12.8241Z" fill="#6E6E6E"/>
<path d="M173.961 17.5616L174.533 15.7353C174.426 15.6283 174.326 15.515 174.233 15.396L173.43 14.3333L172.215 15.2531L172.01 14.9807L175.729 12.1721L176.738 13.5117C177.444 14.4493 177.404 15.3647 176.613 15.9585C176.357 16.1705 176.035 16.2866 175.702 16.2866C175.37 16.2866 175.048 16.1705 174.792 15.9585L174.193 17.8696L173.961 17.5616ZM174.474 15.2129C175.073 16.0122 175.769 16.155 176.408 15.6594C177.046 15.1638 177.096 14.4717 176.493 13.6769L175.689 12.6142L173.671 14.1368L174.474 15.2129Z" fill="#6E6E6E"/>
<path d="M179.194 26.1652C178.448 26.4152 177.854 26.0134 177.479 24.9283L176.818 22.9592L181.239 21.4768L181.855 23.3209C182.177 24.2675 181.971 24.973 181.239 25.2186C181.015 25.3049 180.768 25.3125 180.54 25.2403C180.311 25.1681 180.113 25.0203 179.98 24.8212C180.047 25.1027 180.003 25.3994 179.856 25.6491C179.71 25.8988 179.472 26.0822 179.194 26.1607M179.109 25.8303C179.743 25.6204 179.864 25.0667 179.582 24.2183L179.029 22.5707L177.202 23.1825L177.756 24.8301C178.042 25.6784 178.475 26.0446 179.096 25.8303M181.056 21.8876L179.292 22.477L179.801 23.9862C180.056 24.7497 180.502 25.0936 181.087 24.8792C181.672 24.6649 181.819 24.1424 181.56 23.3789L181.056 21.8876Z" fill="#6E6E6E"/>
<path d="M179.185 32.2519L178.882 32.2876L178.516 29.0906L183.146 28.5637L183.499 31.6625L183.195 31.6938L182.882 28.9388L181.056 29.1442L181.338 31.6134L181.038 31.6447L180.757 29.1799L178.859 29.3942L179.185 32.2519Z" fill="#6E6E6E"/>
<path d="M183.181 35.6052L181.199 35.44L180.993 37.9182L180.69 37.8914L180.895 35.4132L178.841 35.248L178.873 34.9087L183.516 35.2927L183.262 38.396L182.954 38.3736L183.181 35.6052Z" fill="#6E6E6E"/>
<path d="M180.543 40.6191C181.007 40.747 181.424 41.0105 181.738 41.3759C182.052 41.7414 182.25 42.1922 182.307 42.6708C182.364 43.1495 182.277 43.6342 182.057 44.0631C181.837 44.492 181.494 44.8456 181.072 45.0788C180.651 45.312 180.169 45.4141 179.689 45.3722C179.208 45.3302 178.752 45.1461 178.377 44.8433C178.001 44.5406 177.725 44.1329 177.583 43.6724C177.441 43.2119 177.439 42.7193 177.578 42.2578C177.658 41.9511 177.799 41.6638 177.993 41.4134C178.188 41.1631 178.431 40.955 178.708 40.8017C178.986 40.6484 179.291 40.5531 179.607 40.5217C179.922 40.4903 180.241 40.5235 180.543 40.6191ZM179.239 44.9324C179.633 45.0628 180.056 45.0729 180.455 44.9614C180.855 44.8499 181.212 44.6218 181.481 44.3063C181.75 43.9909 181.919 43.6024 181.966 43.1904C182.014 42.7785 181.937 42.3618 181.746 41.9937C181.555 41.6255 181.259 41.3226 180.895 41.1236C180.532 40.9246 180.117 40.8386 179.704 40.8765C179.291 40.9144 178.899 41.0746 178.577 41.3366C178.256 41.5985 178.02 41.9504 177.899 42.3471C177.812 42.6046 177.777 42.8771 177.798 43.1483C177.818 43.4195 177.893 43.6838 178.018 43.9252C178.143 44.1667 178.316 44.3804 178.526 44.5535C178.735 44.7266 178.978 44.8554 179.239 44.9324Z" fill="#6E6E6E"/>
<path d="M174.22 49.6968L176.126 49.5003C176.181 49.3593 176.245 49.2221 176.318 49.0896L176.979 47.9331L175.64 47.1785L175.809 46.8838L179.864 49.1878L179.033 50.6434C178.453 51.6615 177.595 51.983 176.738 51.4963C176.441 51.3468 176.205 51.0979 176.072 50.7928C175.939 50.4878 175.917 50.1459 176.01 49.8263L174.014 50.0317L174.22 49.6968ZM176.582 49.2503C176.086 50.1434 176.229 50.8131 176.921 51.2105C177.613 51.6079 178.287 51.3712 178.783 50.505L179.439 49.3441L177.238 48.0939L176.582 49.2503Z" fill="#6E6E6E"/>
<path d="M170.599 54.6756L170.367 54.4702L172.501 52.0635L175.993 55.1533L173.926 57.4841L173.698 57.2832L175.538 55.2025L174.162 53.9835L172.515 55.8454L172.292 55.649L173.935 53.787L172.506 52.5189L170.599 54.6756Z" fill="#6E6E6E"/>
</g>
<defs>
<clipPath id="clip0_527_15686">
<rect width="183.517" height="95" fill="white"/>
</clipPath>
</defs>
</svg>
