<svg width="162" height="95" viewBox="0 0 162 95" fill="none" xmlns="http://www.w3.org/2000/svg">
<g clip-path="url(#clip0_527_15710)">
<mask id="mask0_527_15710" style="mask-type:luminance" maskUnits="userSpaceOnUse" x="0" y="-1" width="78" height="79">
<path d="M0.0930786 -0.0273438V77.3993H77.5197L39.1935 38.4924L77.5197 -0.0273438H0.0930786Z" fill="white"/>
</mask>
<g mask="url(#mask0_527_15710)">
<path d="M28.8163 -37.4099L-37.3055 48.6995L48.8039 114.821L114.926 28.7119L28.8163 -37.4099Z" fill="#A6A6A6"/>
</g>
<mask id="mask1_527_15710" style="mask-type:luminance" maskUnits="userSpaceOnUse" x="83" y="-1" width="79" height="79">
<path d="M122.234 38.2988L83.7139 -0.0273438V77.3993H161.141V-0.0273438L122.234 38.2988Z" fill="white"/>
</mask>
<g mask="url(#mask1_527_15710)">
<path d="M161.141 -0.0273438H83.7139V77.3993H161.141V-0.0273438Z" fill="#6E6E6E"/>
</g>
<mask id="mask2_527_15710" style="mask-type:luminance" maskUnits="userSpaceOnUse" x="0" y="82" width="161" height="13">
<path d="M9.55499 82.217L4.13512 87.7143V82.217H0.147644V94.7524H4.13512V89.2164L9.63241 94.7524H14.5025L7.92902 88.357L14.2703 82.217H9.55499ZM30.1969 82.217L25.6597 90.8965L21.0683 82.217H16.3608V94.7524H20.3405V87.2188L24.026 94.7524H27.2392L30.9015 87.2343V94.7524H34.8812V82.217H30.1969ZM42.6858 94.7524H46.6733V82.217H42.6858V94.7524ZM60.2307 82.217V89.9597L53.572 82.217H49.5846V94.7524H53.572V87.0097L60.2307 94.7524H64.2182V82.217H60.2307ZM66.2235 82.217V84.6637H70.5517V94.7292H74.5392V84.6637H78.875V82.217H66.2235ZM80.8804 82.217V94.7524H90.8994V92.3057H84.8601V89.5571H90.1948V87.1956H84.8601V84.6637H90.8994V82.217H80.8804ZM97.4652 84.7489H99.9351C100.512 84.7091 101.086 84.8528 101.577 85.1592C101.755 85.2874 101.898 85.4577 101.994 85.655C102.09 85.8523 102.135 86.0704 102.126 86.2896C102.137 86.5135 102.093 86.7366 101.997 86.9392C101.901 87.1418 101.757 87.3176 101.577 87.451C101.086 87.7575 100.512 87.9012 99.9351 87.8614H97.4652V84.7489ZM93.4855 82.217V94.7524H97.4652V90.0216H98.4253L101.824 94.7524H106.323L102.544 89.7893C103.57 89.6103 104.518 89.1244 105.262 88.3957C105.849 87.8012 106.179 87.0009 106.183 86.1658C106.189 85.4373 105.949 84.7282 105.502 84.1527C104.974 83.4938 104.267 83.0017 103.466 82.7358C102.407 82.3634 101.289 82.1876 100.167 82.217H93.4855ZM108.677 94.7524H112.656V82.217H108.677V94.7524ZM137.843 84.7489H140.313C140.892 84.7091 141.469 84.8527 141.962 85.1592C142.138 85.2892 142.279 85.4601 142.374 85.6571C142.468 85.8541 142.513 86.0713 142.504 86.2896C142.515 86.5127 142.471 86.7349 142.376 86.9372C142.282 87.1395 142.14 87.3158 141.962 87.451C141.469 87.7576 140.892 87.9012 140.313 87.8614H137.843V84.7489ZM133.863 82.217V94.7524H137.843V90.0216H138.803L142.202 94.7524H146.701L142.922 89.7893C143.948 89.6103 144.896 89.1244 145.64 88.3957C146.227 87.8012 146.557 87.0009 146.561 86.1658C146.566 85.4387 146.329 84.7306 145.888 84.1527C145.361 83.4891 144.654 82.9916 143.851 82.7203C142.795 82.3485 141.68 82.1727 140.561 82.2015L133.863 82.217ZM120.128 91.1056C119.757 90.7689 119.461 90.3583 119.258 89.9003C119.055 89.4422 118.951 88.9469 118.951 88.446C118.951 87.9451 119.055 87.4497 119.258 86.9917C119.461 86.5337 119.757 86.1231 120.128 85.7864C121.031 85.0934 122.151 84.7448 123.287 84.8031C124.404 84.7551 125.502 85.1064 126.384 85.7941C126.754 86.1287 127.05 86.5373 127.253 86.9935C127.455 87.4496 127.56 87.9431 127.56 88.4421C127.56 88.9412 127.455 89.4347 127.253 89.8908C127.05 90.3469 126.754 90.7555 126.384 91.0901C125.507 91.7883 124.407 92.1458 123.287 92.0966C122.149 92.1562 121.028 91.8044 120.128 91.1056ZM119.052 82.8597C117.855 83.3451 116.804 84.132 116.001 85.1437C115.27 86.0921 114.873 87.2561 114.873 88.4538C114.873 89.6514 115.27 90.8153 116.001 91.7637C116.795 92.7935 117.848 93.5949 119.052 94.0865C120.393 94.6463 121.834 94.9256 123.287 94.9072C124.732 94.9263 126.166 94.6469 127.499 94.0865C128.698 93.5945 129.746 92.7929 130.534 91.7637C131.254 90.8106 131.644 89.6485 131.644 88.4538C131.644 87.259 131.254 86.0969 130.534 85.1437C129.743 84.1293 128.699 83.3414 127.507 82.8597C124.792 81.7655 121.759 81.7655 119.044 82.8597M150.278 83.03C149.776 83.2894 149.356 83.683 149.065 84.167C148.774 84.6509 148.623 85.2062 148.629 85.7709C148.614 86.1217 148.671 86.4718 148.794 86.8003C148.918 87.1289 149.107 87.4291 149.349 87.6833C149.836 88.1742 150.426 88.5522 151.075 88.7906C151.922 89.0984 152.785 89.357 153.661 89.5648C154.389 89.7274 154.954 89.8745 155.349 90.0061C155.707 90.12 156.044 90.2899 156.348 90.5094C156.475 90.5943 156.58 90.7095 156.651 90.8447C156.723 90.9798 156.76 91.1307 156.759 91.2837C156.761 91.4612 156.715 91.636 156.625 91.7889C156.534 91.9419 156.404 92.0671 156.247 92.1509C155.817 92.3793 155.333 92.4863 154.846 92.4606C154.355 92.4853 153.869 92.3582 153.452 92.0966C153.274 91.9785 153.124 91.8219 153.015 91.6383C152.905 91.4547 152.837 91.2489 152.817 91.0359H148.582C148.602 91.8269 148.923 92.5804 149.48 93.1419C150.117 93.7626 150.896 94.2173 151.749 94.4659C152.792 94.7733 153.875 94.9221 154.962 94.9072C156.05 94.9305 157.133 94.7574 158.16 94.3962C158.956 94.119 159.666 93.6386 160.219 93.0026C160.678 92.4555 160.93 91.7651 160.932 91.0514C160.945 90.7117 160.887 90.373 160.762 90.057C160.637 89.741 160.446 89.4546 160.204 89.2164C159.719 88.7337 159.135 88.3614 158.493 88.1247C157.65 87.8215 156.792 87.563 155.922 87.3504C155.128 87.176 154.351 86.9325 153.6 86.6226C153.096 86.3903 152.825 86.0806 152.825 85.6702C152.818 85.5023 152.856 85.3356 152.935 85.1873C153.014 85.0389 153.131 84.9143 153.274 84.8263C153.623 84.6131 154.028 84.5105 154.436 84.5321C154.919 84.5129 155.398 84.6339 155.814 84.8805C155.981 84.9804 156.12 85.1192 156.222 85.2851C156.323 85.451 156.382 85.639 156.395 85.8329H160.7C160.666 85.2607 160.486 84.7066 160.177 84.224C159.868 83.7413 159.44 83.3461 158.934 83.0764C157.598 82.3574 156.091 82.0148 154.575 82.0854C153.074 82.0178 151.583 82.3604 150.262 83.0764" fill="white"/>
</mask>
<g mask="url(#mask2_527_15710)">
<path d="M160.917 82.0391H0.124573V94.8842H160.917V82.0391Z" fill="url(#paint0_linear_527_15710)"/>
</g>
</g>
<defs>
<linearGradient id="paint0_linear_527_15710" x1="0.124573" y1="88.4616" x2="160.917" y2="88.4616" gradientUnits="userSpaceOnUse">
<stop stop-color="#A6A6A6"/>
<stop offset="1" stop-color="#6E6E6E"/>
</linearGradient>
<clipPath id="clip0_527_15710">
<rect width="161.212" height="95" fill="white"/>
</clipPath>
</defs>
</svg>
