<svg width="150" height="150" viewBox="0 0 150 150" fill="none" xmlns="http://www.w3.org/2000/svg">
<path d="M0.5407 150H0V106.252H0.5407C12.253 106.252 21.7763 96.3141 21.7763 84.0916V68.7476H0V10.7935H55.5351V92.61C55.5351 124.254 30.8635 150 0.5407 150ZM1.09012 107.381V148.862C30.5583 148.553 54.445 123.444 54.445 92.6191V11.9311H1.09012V67.61H22.8664V84.0916C22.8664 96.7509 13.1425 107.08 1.09012 107.381Z" fill="white"/>
<path d="M139.657 150H84.1221V68.1834C84.1221 36.5397 108.794 10.7935 139.116 10.7935H139.657V54.5412H139.116C127.404 54.5412 117.881 64.4793 117.881 76.7017V92.0458H139.657V150ZM85.2122 148.862H138.567V93.1834H116.791V76.7017C116.791 64.0425 126.515 53.713 138.567 53.4127V11.9311C109.099 12.2405 85.2122 37.3497 85.2122 68.1743V148.853V148.862Z" fill="white"/>
<path d="M95.5547 138.069V56.8165C95.5547 25.4368 119.93 0 150 0V42.6101C137.973 42.6101 128.223 52.7849 128.223 65.3349V81.2432H150V138.06H95.5547V138.069Z" fill="#0066FF"/>
<path d="M65.8781 0V81.2523C65.8781 112.632 41.503 138.069 11.4331 138.069V95.4587C23.4593 95.4587 33.2094 85.284 33.2094 72.7339V56.8256H11.4331V0H65.8781Z" fill="#0066FF"/>
</svg>
