<svg width="52" height="52" viewBox="0 0 52 52" fill="none" xmlns="http://www.w3.org/2000/svg">
<path d="M0.187442 52.0004H0V36.8345H0.187442C4.24767 36.8345 7.54907 33.3893 7.54907 29.1522V23.833H0V3.74219H19.2521V32.1053C19.2521 43.075 10.6993 52.0004 0.187442 52.0004ZM0.377907 37.2258V51.6061C10.5935 51.4988 18.8742 42.7943 18.8742 32.1084V4.13656H0.377907V23.4386H7.92698V29.1522C7.92698 33.5408 4.55605 37.1216 0.377907 37.2258Z" fill="white"/>
<path d="M48.4142 52.0004H29.1621V23.6374C29.1621 12.6676 37.7149 3.74219 48.2268 3.74219H48.4142V18.9081H48.2268C44.1665 18.9081 40.8651 22.3533 40.8651 26.5904V31.9097H48.4142V52.0004ZM29.54 51.6061H48.0363V32.304H40.4872V26.5904C40.4872 22.2018 43.8582 18.621 48.0363 18.5169V4.13656C37.8207 4.24383 29.54 12.9484 29.54 23.6342V51.6029V51.6061Z" fill="white"/>
<path d="M33.126 47.8639V19.6964C33.126 8.81811 41.576 0 52.0002 0V14.7715C47.8311 14.7715 44.4511 18.2988 44.4511 22.6494V28.1643H52.0002V47.8607H33.126V47.8639Z" fill="white"/>
<path d="M22.8371 0V28.1675C22.8371 39.0457 14.3871 47.8639 3.96289 47.8639V33.0923C8.13196 33.0923 11.512 29.5651 11.512 25.2144V19.6996H3.96289V0H22.8371Z" fill="white"/>
</svg>
