<svg width="211" height="27" viewBox="0 0 211 27" fill="none" xmlns="http://www.w3.org/2000/svg">
<g opacity="0.4">
<path d="M18.0507 1.43555V4.54663H16.5513V14.0576H18.0275V17.101H10.934V13.9688H12.4334V10.7012H6.59407V14.0576H8.0703V17.101H1V13.9688H2.49952V4.48107H1.02326V1.43766H8.11682V4.54875H6.59407V7.48008H12.4334V4.48107H10.9784V1.43766H18.0486L18.0507 1.43555Z" stroke="black" stroke-width="0.211495" stroke-miterlimit="10"/>
<path d="M30.0656 13.899V11.9067H33.2423V17.0989H19.8398V13.9666H21.3393V4.47897H19.8631V1.43555H33.0435V6.58123H29.8436V4.6122H25.436V7.7233H29.7759V10.5425H25.436V13.899H30.0678H30.0656Z" stroke="black" stroke-width="0.211495" stroke-miterlimit="10"/>
<path d="M36.4888 4.45569H34.9893V1.43555H42.1272V4.45569H40.6066V4.74756L40.6298 13.7869V14.0787H42.1293V17.0989H34.9914V14.0787H36.4909V4.45781L36.4888 4.45569Z" stroke="black" stroke-width="0.211495" stroke-miterlimit="10"/>
<path d="M58.6173 16.9191C58.2747 17.0693 57.913 17.1793 57.5323 17.2554C57.1516 17.3315 56.6716 17.3675 56.0899 17.3675C55.2249 17.3675 54.527 17.1877 53.9983 16.8303C53.4695 16.4729 53.0317 15.8976 52.6891 15.1066L51.3905 12.2197H49.3538V17.0989H45.2149V4.47897H43.7598V1.43555H51.1431C53.2601 1.43555 54.9309 1.89872 56.1555 2.82296C57.3779 3.74719 57.9913 5.06903 57.9913 6.78426C57.9913 7.67888 57.746 8.51006 57.2532 9.2799C56.7604 10.0476 56.0815 10.6779 55.2165 11.1707L55.8869 12.6702C56.1111 13.1778 56.331 13.5162 56.5468 13.6875C56.7625 13.8588 57.0501 13.9455 57.4076 13.9455C57.7058 13.9455 58.0124 13.9011 58.3254 13.8122L58.6173 16.9233V16.9191ZM49.3538 9.1107H51.0775C51.9869 9.1107 52.6764 8.93094 53.148 8.57351C53.6176 8.21608 53.8523 7.64927 53.8523 6.87308C53.8523 5.41165 52.9281 4.67988 51.0775 4.67988H49.3538V9.1107Z" stroke="black" stroke-width="0.211495" stroke-miterlimit="10"/>
<path d="M70.007 13.899V11.9067H73.1837V17.0989H59.7812V13.9666H61.2807V4.47897H59.8045V1.43555H72.9849V6.58123H69.785V4.6122H65.3774V7.7233H69.7173V10.5425H65.3774V13.899H70.0092H70.007Z" stroke="black" stroke-width="0.211495" stroke-miterlimit="10"/>
<path d="M85.0888 1.43555L89.2278 14.0787H90.8161V17.0989H86.1611L85.1988 14.0555H79.8289L78.8666 17.0989H74.2793V14.0787H75.8232L78.9999 4.45781H77.6569V1.43766H85.0867L85.0888 1.43555ZM82.5382 5.59777L80.8145 11.012H84.2597L82.5361 5.59777H82.5382Z" stroke="black" stroke-width="0.211495" stroke-miterlimit="10"/>
<path d="M104.982 16.203C104.279 16.5752 103.412 16.8713 102.374 17.087C101.337 17.3028 100.297 17.4106 99.2521 17.4106C96.7015 17.4106 94.7049 16.7085 93.2668 15.3062C91.8265 13.904 91.1074 11.8758 91.1074 9.21941C91.1074 6.71319 91.7927 4.73783 93.1653 3.28908C94.5379 1.84246 96.5217 1.11914 99.1167 1.11914C100.147 1.11914 101.187 1.24604 102.238 1.49983C103.29 1.75362 104.159 2.08145 104.846 2.48329V8.05407H101.198V4.9895C100.572 4.73571 99.9458 4.60881 99.3177 4.60881C98.0043 4.60881 96.9976 5.00431 96.2975 5.7953C95.5954 6.58629 95.2464 7.72837 95.2464 9.21941C95.2464 10.7104 95.608 11.9202 96.3313 12.7112C97.0547 13.5022 98.184 13.8977 99.7216 13.8977C100.453 13.8977 101.211 13.8131 101.993 13.6397C102.776 13.4684 103.645 13.2103 104.601 12.8677L104.982 16.2009V16.203Z" stroke="black" stroke-width="0.211495" stroke-miterlimit="10"/>
<path d="M123.665 1.43555V4.54663H122.166V14.0576H123.642V17.101H116.548V13.9688H118.048V10.7012H112.208V14.0576H113.685V17.101H106.614V13.9688H108.114V4.48107H106.638V1.43766H113.731V4.54875H112.21V7.48008H118.05V4.48107H116.595V1.43766H123.665V1.43555Z" stroke="black" stroke-width="0.211495" stroke-miterlimit="10"/>
<path d="M151.254 1.43555V4.54663H149.755V14.0576H151.21V17.101H145.684V7.97074L142.08 14.8401H140.513L136.888 7.97074V17.101H131.338V13.9688H132.837V4.48107H131.361V1.43766H137.023L141.297 9.35815L145.572 1.43766H151.254V1.43555Z" stroke="black" stroke-width="0.211495" stroke-miterlimit="10"/>
<path d="M163.248 13.899V11.9067H166.425V17.0989H153.022V13.9666H154.522V4.47897H153.046V1.43555H166.226V6.58123H163.026V4.6122H158.619V7.7233H162.959V10.5425H158.619V13.899H163.25H163.248Z" stroke="black" stroke-width="0.211495" stroke-miterlimit="10"/>
<path d="M169.335 17.0989V4.47897H167.88V1.43555H175.331C178 1.43555 180.051 2.12502 181.485 3.50608C182.917 4.88503 183.634 6.79272 183.634 9.2228C183.634 10.8936 183.298 12.3191 182.627 13.4971C181.957 14.6751 181.001 15.5719 179.764 16.1831C178.524 16.7943 177.057 17.101 175.356 17.101H169.337L169.335 17.0989ZM175.174 13.7192C176.562 13.7192 177.623 13.3322 178.364 12.556C179.102 11.7798 179.472 10.6758 179.472 9.24395C179.472 7.81213 179.102 6.7483 178.364 5.96577C177.626 5.18324 176.555 4.79198 175.153 4.79198H173.453V13.7192H175.176H175.174Z" stroke="black" stroke-width="0.211495" stroke-miterlimit="10"/>
<path d="M186.43 4.45569H184.931V1.43555H192.069V4.45569H190.546V4.74756L190.569 13.7869V14.0787H192.069V17.0989H184.931V14.0787H186.43V4.45781V4.45569Z" stroke="black" stroke-width="0.211495" stroke-miterlimit="10"/>
<path d="M204.154 1.43555L208.293 14.0787H209.882V17.0989H205.227L204.264 14.0555H198.894L197.932 17.0989H193.345V14.0787H194.889L198.065 4.45781H196.722V1.43766H204.152L204.154 1.43555ZM201.602 5.59777L199.878 11.012H203.323L201.599 5.59777H201.602Z" stroke="black" stroke-width="0.211495" stroke-miterlimit="10"/>
</g>
<path d="M19.1699 0.316406V3.42751H17.6704V12.9385H19.1466V15.9819H12.0531V12.8496H13.5526V9.58201H7.71318V12.9385H9.18944V15.9819H2.11914V12.8496H3.61863V3.36194H2.1424V0.318523H9.23596V3.42962H7.71318V6.36094H13.5526V3.36194H12.0975V0.318523H19.1678L19.1699 0.316406Z" fill="white"/>
<path d="M31.1848 12.7798V10.7875H34.3614V15.9797H20.959V12.8475H22.4585V3.35983H20.9823V0.316406H34.1626V5.46209H30.9627V3.49307H26.5552V6.60417H30.8951V9.42339H26.5552V12.7798H31.1869H31.1848Z" fill="white"/>
<path d="M37.6079 3.33656H36.1084V0.316406H43.2464V3.33656H41.7257V3.62843L41.749 12.6677V12.9596H43.2485V15.9797H36.1105V12.9596H37.61V3.33868L37.6079 3.33656Z" fill="white"/>
<path d="M59.7364 15.8C59.3938 15.9501 59.0322 16.0601 58.6515 16.1363C58.2708 16.2124 57.7907 16.2483 57.2091 16.2483C56.344 16.2483 55.6461 16.0686 55.1174 15.7112C54.5886 15.3537 54.1509 14.7785 53.8082 13.9875L52.5096 11.1006H50.4729V15.9797H46.334V3.35983H44.8789V0.316406H52.2622C54.3793 0.316406 56.0501 0.77958 57.2746 1.70381C58.4971 2.62805 59.1104 3.9499 59.1104 5.66513C59.1104 6.55975 58.8651 7.39093 58.3723 8.16077C57.8795 8.9285 57.2006 9.55875 56.3356 10.0515L57.006 11.551C57.2302 12.0586 57.4502 12.397 57.6659 12.5683C57.8816 12.7396 58.1692 12.8264 58.5267 12.8264C58.8249 12.8264 59.1316 12.7819 59.4446 12.6931L59.7364 15.8042V15.8ZM50.4729 7.99158H52.1966C53.1061 7.99158 53.7955 7.8118 54.2672 7.45437C54.7367 7.09694 54.9715 6.53014 54.9715 5.75395C54.9715 4.29252 54.0472 3.56075 52.1966 3.56075H50.4729V7.99158Z" fill="white"/>
<path d="M71.1262 12.7798V10.7875H74.3028V15.9797H60.9004V12.8475H62.3999V3.35983H60.9237V0.316406H74.104V5.46209H70.9041V3.49307H66.4965V6.60417H70.8364V9.42339H66.4965V12.7798H71.1283H71.1262Z" fill="white"/>
<path d="M86.208 0.316406L90.3469 12.9596H91.9353V15.9797H87.2803L86.3179 12.9363H80.9481L79.9858 15.9797H75.3984V12.9596H76.9424L80.119 3.33868H78.776V0.318523H86.2058L86.208 0.316406ZM83.6573 4.47864L81.9336 9.89292H85.3789L83.6552 4.47864H83.6573Z" fill="white"/>
<path d="M106.101 15.0838C105.398 15.4561 104.531 15.7522 103.493 15.9679C102.457 16.1836 101.416 16.2915 100.371 16.2915C97.8206 16.2915 95.8241 15.5893 94.3859 14.1871C92.9456 12.7849 92.2266 10.7567 92.2266 8.10028C92.2266 5.59406 92.9118 3.61869 94.2844 2.16994C95.657 0.723316 97.6408 0 100.236 0C101.266 0 102.306 0.126907 103.358 0.380702C104.409 0.634496 105.278 0.962306 105.965 1.36415V6.93494H102.317V3.87037C101.691 3.61658 101.065 3.48967 100.437 3.48967C99.1234 3.48967 98.1167 3.88518 97.4166 4.67617C96.7145 5.46716 96.3655 6.60924 96.3655 8.10028C96.3655 9.59132 96.7272 10.8011 97.4505 11.5921C98.1738 12.383 99.3032 12.7786 100.841 12.7786C101.573 12.7786 102.33 12.6939 103.112 12.5205C103.895 12.3492 104.764 12.0912 105.72 11.7486L106.101 15.0817V15.0838Z" fill="white"/>
<path d="M124.784 0.316406V3.42751H123.285V12.9385H124.761V15.9819H117.667V12.8496H119.167V9.58201H113.327V12.9385H114.804V15.9819H107.733V12.8496H109.233V3.36194H107.757V0.318523H114.85V3.42962H113.33V6.36094H119.169V3.36194H117.714V0.318523H124.784V0.316406Z" fill="white"/>
<path d="M152.374 0.316406V3.42751H150.874V12.9385H152.329V15.9819H146.803V6.85161L143.199 13.721H141.632L138.007 6.85161V15.9819H132.457V12.8496H133.957V3.36194H132.48V0.318523H138.142L142.416 8.23902L146.691 0.318523H152.374V0.316406Z" fill="white"/>
<path d="M164.367 12.7798V10.7875H167.544V15.9797H154.142V12.8475H155.641V3.35983H154.165V0.316406H167.345V5.46209H164.145V3.49307H159.738V6.60417H164.078V9.42339H159.738V12.7798H164.37H164.367Z" fill="white"/>
<path d="M170.454 15.9797V3.35983H168.999V0.316406H176.45C179.119 0.316406 181.171 1.00589 182.605 2.38695C184.036 3.7659 184.753 5.67358 184.753 8.10366C184.753 9.77448 184.417 11.2 183.747 12.378C183.076 13.556 182.12 14.4528 180.883 15.064C179.644 15.6752 178.176 15.9819 176.475 15.9819H170.456L170.454 15.9797ZM176.293 12.6001C177.681 12.6001 178.743 12.213 179.483 11.4368C180.221 10.6606 180.591 9.55664 180.591 8.12482C180.591 6.693 180.221 5.62918 179.483 4.84664C178.745 4.06411 177.675 3.67285 176.272 3.67285H174.572V12.6001H176.296H176.293Z" fill="white"/>
<path d="M187.549 3.33656H186.05V0.316406H193.188V3.33656H191.665V3.62843L191.688 12.6677V12.9596H193.188V15.9797H186.05V12.9596H187.549V3.33868V3.33656Z" fill="white"/>
<path d="M205.273 0.316406L209.412 12.9596H211.001V15.9797H206.346L205.383 12.9363H200.014L199.051 15.9797H194.464V12.9596H196.008L199.184 3.33868H197.841V0.318523H205.271L205.273 0.316406ZM202.721 4.47864L200.997 9.89292H204.442L202.719 4.47864H202.721Z" fill="white"/>
<path d="M82.2103 20.0995V24.5514H82.8977V25.2642H80.677V24.5514H81.3558V22.5887H78.2215V24.5514H78.9088V25.2642H76.6881V24.5514H77.367V20.0995H76.6797V19.3867H78.9004V20.0995H78.2215V21.876H81.3558V20.0995H80.6685V19.3867H82.8892V20.0995H82.2103Z" fill="white"/>
<path d="M84.1963 25.2656V21.7104H83.6338V21.0484C83.9912 21.0252 84.4544 21.0146 85.0254 21.0146V25.2656H84.1963ZM84.1371 20.1876C84.042 20.1073 83.9954 19.9931 83.9954 19.8471C83.9954 19.7181 84.042 19.6103 84.1371 19.5235C84.2323 19.4368 84.3571 19.3945 84.5136 19.3945C84.6701 19.3945 84.7885 19.4368 84.8858 19.5193C84.9831 19.6039 85.0318 19.7118 85.0318 19.8471C85.0318 19.9825 84.9831 20.0988 84.8901 20.1834C84.7949 20.268 84.668 20.3082 84.5136 20.3082C84.3592 20.3082 84.2323 20.268 84.1371 20.1855V20.1876Z" fill="white"/>
<path d="M90.1726 21.1814C90.1007 21.2871 90.0478 21.395 90.0182 21.505C89.9865 21.6128 89.9696 21.7588 89.9632 21.9364V24.6689C89.9632 26.2002 89.3055 26.9658 87.9921 26.9658C87.3661 26.9658 86.7908 26.8114 86.2642 26.5047L86.4397 25.8258C86.6978 25.9654 86.9367 26.0648 87.1609 26.124C87.3851 26.1832 87.6368 26.2128 87.916 26.2128C88.3411 26.2128 88.6498 26.0965 88.8465 25.8639C89.0432 25.6312 89.1405 25.259 89.1405 24.7451V24.7197C88.8 25.0433 88.358 25.2061 87.8165 25.2061C87.4528 25.2061 87.1313 25.1215 86.8521 24.9502C86.573 24.7789 86.3551 24.5357 86.1986 24.2163C86.0421 23.897 85.9639 23.5226 85.9639 23.0933C85.9639 22.664 86.0442 22.2621 86.2028 21.9407C86.3615 21.6192 86.5835 21.376 86.8648 21.211C87.1461 21.046 87.4655 20.9635 87.8165 20.9635C88.3643 20.9635 88.819 21.1454 89.1828 21.5092C89.2547 21.2575 89.4155 21.0735 89.6608 20.9551L90.1726 21.1814ZM89.1426 23.897L89.1342 22.2706C88.8444 21.9068 88.4616 21.7249 87.9857 21.7249C87.622 21.7249 87.3344 21.8391 87.1229 22.0697C86.9092 22.2981 86.8035 22.6428 86.8035 23.1018C86.8035 23.9964 87.1969 24.4426 87.9857 24.4426C88.4658 24.4426 88.8529 24.2608 89.1426 23.897Z" fill="white"/>
<path d="M95.8246 25.2479C95.6343 25.3156 95.4481 25.3494 95.262 25.3494C94.949 25.3494 94.7164 25.2606 94.5662 25.0808C94.416 24.9032 94.3399 24.6028 94.3399 24.1841V22.8094C94.3399 22.4181 94.2637 22.141 94.1094 21.9761C93.955 21.8111 93.7223 21.7286 93.4093 21.7286C93.2021 21.7286 92.9779 21.7815 92.7346 21.8872C92.4914 21.993 92.2947 22.1241 92.1446 22.2806V25.2648H91.3155V20.0578H90.7529V19.3874C91.1104 19.3641 91.5735 19.3535 92.1446 19.3535V21.4664C92.3455 21.3098 92.5739 21.1872 92.8277 21.0984C93.0815 21.0095 93.3395 20.9651 93.6039 20.9651C94.158 20.9651 94.5556 21.111 94.8031 21.4008C95.0484 21.6905 95.1711 22.1156 95.1711 22.674V24.2158C95.1711 24.3448 95.1986 24.4358 95.2557 24.4886C95.3128 24.5415 95.4058 24.569 95.5412 24.569C95.6427 24.569 95.7231 24.5605 95.7844 24.5436L95.8267 25.2479H95.8246Z" fill="white"/>
<path d="M98.1723 25.2477C97.9819 25.3154 97.7958 25.3492 97.6097 25.3492C97.2967 25.3492 97.064 25.2604 96.9139 25.0806C96.7637 24.903 96.6876 24.6027 96.6876 24.1839V20.0598H96.125V19.3893C96.4824 19.3661 96.9456 19.3555 97.5167 19.3555V24.2177C97.5167 24.3468 97.5441 24.4377 97.6012 24.4906C97.6583 24.5435 97.7514 24.5709 97.8868 24.5709C97.9883 24.5709 98.0686 24.5625 98.13 24.5456L98.1723 25.2498V25.2477Z" fill="white"/>
<path d="M99.2442 25.2656V21.7104H98.6816V21.0484C99.0391 21.0252 99.5023 21.0146 100.073 21.0146V25.2656H99.2442ZM99.1871 20.1876C99.0919 20.1073 99.0454 19.9931 99.0454 19.8471C99.0454 19.7181 99.0919 19.6103 99.1871 19.5235C99.2823 19.4368 99.4071 19.3945 99.5636 19.3945C99.7201 19.3945 99.8385 19.4368 99.9358 19.5193C100.033 19.6039 100.082 19.7118 100.082 19.8471C100.082 19.9825 100.033 20.0988 99.9401 20.1834C99.8449 20.268 99.718 20.3082 99.5636 20.3082C99.4092 20.3082 99.2823 20.268 99.1871 20.1855V20.1876Z" fill="white"/>
<path d="M105.223 21.1814C105.152 21.2871 105.099 21.395 105.069 21.505C105.037 21.6128 105.02 21.7588 105.014 21.9364V24.6689C105.014 26.2002 104.356 26.9658 103.043 26.9658C102.417 26.9658 101.842 26.8114 101.315 26.5047L101.491 25.8258C101.749 25.9654 101.988 26.0648 102.212 26.124C102.436 26.1832 102.688 26.2128 102.967 26.2128C103.392 26.2128 103.701 26.0965 103.897 25.8639C104.094 25.6312 104.191 25.259 104.191 24.7451V24.7197C103.851 25.0433 103.409 25.2061 102.867 25.2061C102.504 25.2061 102.182 25.1215 101.903 24.9502C101.624 24.7789 101.406 24.5357 101.249 24.2163C101.093 23.897 101.015 23.5226 101.015 23.0933C101.015 22.664 101.095 22.2621 101.254 21.9407C101.412 21.6192 101.634 21.376 101.916 21.211C102.197 21.046 102.516 20.9635 102.867 20.9635C103.415 20.9635 103.87 21.1454 104.234 21.5092C104.306 21.2575 104.466 21.0735 104.712 20.9551L105.223 21.1814ZM104.191 23.897L104.183 22.2706C103.893 21.9068 103.51 21.7249 103.034 21.7249C102.671 21.7249 102.383 21.8391 102.172 22.0697C101.958 22.2981 101.852 22.6428 101.852 23.1018C101.852 23.9964 102.246 24.4426 103.034 24.4426C103.515 24.4426 103.902 24.2608 104.191 23.897Z" fill="white"/>
<path d="M110.872 25.2479C110.682 25.3156 110.496 25.3494 110.31 25.3494C109.997 25.3494 109.764 25.2606 109.614 25.0808C109.464 24.9032 109.388 24.6028 109.388 24.1841V22.8094C109.388 22.4181 109.312 22.141 109.157 21.9761C109.003 21.8111 108.77 21.7286 108.457 21.7286C108.25 21.7286 108.026 21.7815 107.782 21.8872C107.539 21.993 107.343 22.1241 107.192 22.2806V25.2648H106.363V20.0578H105.801V19.3874C106.158 19.3641 106.621 19.3535 107.192 19.3535V21.4664C107.393 21.3098 107.622 21.1872 107.876 21.0984C108.129 21.0095 108.387 20.9651 108.652 20.9651C109.206 20.9651 109.603 21.111 109.851 21.4008C110.096 21.6905 110.219 22.1156 110.219 22.674V24.2158C110.219 24.3448 110.246 24.4358 110.304 24.4886C110.361 24.5415 110.454 24.569 110.589 24.569C110.691 24.569 110.771 24.5605 110.832 24.5436L110.875 25.2479H110.872Z" fill="white"/>
<path d="M114.042 25.1048C113.879 25.1894 113.727 25.2507 113.585 25.2888C113.443 25.329 113.276 25.348 113.086 25.348C112.661 25.348 112.339 25.2423 112.117 25.0287C111.895 24.8172 111.785 24.4915 111.785 24.0558V21.7589H111.005V21.0462H111.802L111.861 19.9316H112.616V21.0462H113.881V21.7589H112.616V23.9226C112.616 24.1573 112.659 24.3286 112.741 24.4344C112.826 24.5401 112.976 24.593 113.194 24.593C113.412 24.593 113.64 24.538 113.864 24.4259L114.04 25.1048H114.042Z" fill="white"/>
<path d="M115.132 25.2656V21.7104H114.569V21.0484C114.927 21.0252 115.39 21.0146 115.961 21.0146V25.2656H115.132ZM115.073 20.1876C114.977 20.1073 114.931 19.9931 114.931 19.8471C114.931 19.7181 114.977 19.6103 115.073 19.5235C115.168 19.4368 115.293 19.3945 115.449 19.3945C115.606 19.3945 115.724 19.4368 115.821 19.5193C115.919 19.6039 115.967 19.7118 115.967 19.8471C115.967 19.9825 115.919 20.0988 115.826 20.1834C115.73 20.268 115.604 20.3082 115.449 20.3082C115.295 20.3082 115.168 20.268 115.073 20.1855V20.1876Z" fill="white"/>
<path d="M122.031 25.2478C121.84 25.3155 121.654 25.3493 121.468 25.3493C121.161 25.3493 120.931 25.2605 120.776 25.0807C120.622 24.903 120.546 24.6027 120.546 24.184V22.8092C120.546 22.418 120.47 22.1409 120.32 21.9759C120.169 21.811 119.935 21.7285 119.615 21.7285C119.408 21.7285 119.182 21.7835 118.936 21.8913C118.691 21.9992 118.492 22.1325 118.342 22.289V25.2647H117.513V22.0965C117.513 21.9675 117.486 21.8765 117.428 21.8237C117.371 21.7708 117.278 21.7433 117.143 21.7433C117.041 21.7433 116.961 21.7518 116.9 21.7687L116.857 21.0644C117.048 20.9967 117.234 20.9629 117.42 20.9629C117.644 20.9629 117.826 21.0073 117.966 21.0961C118.105 21.1849 118.207 21.3309 118.268 21.5318C118.48 21.352 118.721 21.2124 118.989 21.113C119.258 21.0115 119.531 20.9629 119.81 20.9629C120.364 20.9629 120.764 21.1088 121.009 21.3986C121.254 21.6883 121.377 22.1134 121.377 22.6718V24.2136C121.377 24.3426 121.405 24.4335 121.462 24.4864C121.519 24.5393 121.612 24.5668 121.747 24.5668C121.849 24.5668 121.929 24.5583 121.99 24.5414L122.033 25.2457L122.031 25.2478Z" fill="white"/>
<path d="M126.667 21.1814C126.595 21.2871 126.542 21.395 126.512 21.505C126.481 21.6128 126.464 21.7588 126.457 21.9364V24.6689C126.457 26.2002 125.8 26.9658 124.486 26.9658C123.86 26.9658 123.285 26.8114 122.758 26.5047L122.934 25.8258C123.192 25.9654 123.431 26.0648 123.655 26.124C123.879 26.1832 124.131 26.2128 124.41 26.2128C124.835 26.2128 125.144 26.0965 125.341 25.8639C125.535 25.6312 125.635 25.259 125.635 24.7451V24.7197C125.294 25.0433 124.852 25.2061 124.311 25.2061C123.947 25.2061 123.625 25.1215 123.346 24.9502C123.067 24.7789 122.849 24.5357 122.693 24.2163C122.536 23.897 122.458 23.5226 122.458 23.0933C122.458 22.664 122.538 22.2621 122.697 21.9407C122.856 21.6192 123.078 21.376 123.359 21.211C123.64 21.046 123.96 20.9635 124.311 20.9635C124.858 20.9635 125.313 21.1454 125.677 21.5092C125.749 21.2575 125.91 21.0735 126.155 20.9551L126.667 21.1814ZM125.637 23.897L125.628 22.2706C125.339 21.9068 124.956 21.7249 124.48 21.7249C124.116 21.7249 123.828 21.8391 123.617 22.0697C123.403 22.2981 123.298 22.6428 123.298 23.1018C123.298 23.9964 123.691 24.4426 124.48 24.4426C124.96 24.4426 125.347 24.2608 125.637 23.897Z" fill="white"/>
<path d="M134.363 22.7157C134.591 22.9779 134.705 23.2994 134.705 23.6801C134.705 24.1729 134.521 24.5599 134.151 24.8412C133.783 25.1246 133.284 25.2642 132.658 25.2642H130.26V20.0995H129.572V19.3867H132.531C133.117 19.3867 133.578 19.5178 133.914 19.7801C134.251 20.0424 134.418 20.3998 134.418 20.8524C134.418 21.176 134.329 21.4551 134.153 21.6899C133.978 21.9247 133.732 22.0917 133.419 22.1933C133.817 22.2779 134.13 22.4513 134.358 22.7135L134.363 22.7157ZM131.118 20.0995V21.8929H132.459C132.812 21.8929 133.083 21.8168 133.273 21.6624C133.464 21.508 133.559 21.2859 133.559 20.9962C133.559 20.7064 133.457 20.4759 133.257 20.3258C133.056 20.1756 132.77 20.0995 132.402 20.0995H131.118ZM132.569 24.5514C132.971 24.5514 133.284 24.4711 133.504 24.3124C133.724 24.1538 133.836 23.9106 133.836 23.587C133.836 23.2634 133.726 23.0244 133.504 22.8574C133.284 22.6903 132.975 22.6057 132.578 22.6057H131.118V24.5514H132.569Z" fill="white"/>
<path d="M138.798 21.0813V22.5406H138.043V21.72C137.74 21.7137 137.495 21.7602 137.304 21.8533C137.114 21.9485 136.947 22.1028 136.801 22.3143V25.2647H135.972V22.0965C135.972 21.9675 135.945 21.8765 135.887 21.8237C135.83 21.7708 135.737 21.7433 135.602 21.7433C135.5 21.7433 135.42 21.7518 135.359 21.7687L135.316 21.0644C135.507 20.9967 135.693 20.9629 135.879 20.9629C136.09 20.9629 136.266 21.0031 136.403 21.0813C136.541 21.1596 136.642 21.2886 136.71 21.4662C137.091 21.13 137.524 20.9629 138.011 20.9629C138.263 20.9629 138.523 21.0031 138.791 21.0813H138.8H138.798Z" fill="white"/>
<path d="M143.627 25.2479C143.436 25.3156 143.25 25.3495 143.064 25.3495C142.823 25.3495 142.633 25.2987 142.489 25.1993C142.347 25.0978 142.25 24.937 142.199 24.7129C141.975 24.9307 141.73 25.0914 141.461 25.1951C141.192 25.2987 140.922 25.3495 140.649 25.3495C140.23 25.3495 139.89 25.2374 139.629 25.0132C139.369 24.789 139.24 24.476 139.24 24.0741C139.24 23.6385 139.384 23.3106 139.672 23.0886C139.959 22.8686 140.416 22.7565 141.042 22.7565C141.383 22.7565 141.749 22.7798 142.14 22.8242V22.6233C142.14 22.3272 142.057 22.103 141.892 21.9486C141.727 21.7942 141.491 21.7181 141.184 21.7181C140.837 21.7181 140.535 21.7815 140.279 21.9105V22.5133H139.524V21.4728L139.515 21.4643C140.04 21.128 140.604 20.9609 141.209 20.9609C141.863 20.9609 142.32 21.1005 142.576 21.3797C142.834 21.6589 142.96 22.0692 142.96 22.6127V24.2137C142.96 24.3427 142.99 24.4337 143.049 24.4866C143.108 24.5394 143.204 24.5669 143.339 24.5669C143.441 24.5669 143.521 24.5585 143.582 24.5416L143.625 25.2458L143.627 25.2479ZM140.219 24.4675C140.357 24.5563 140.537 24.6008 140.761 24.6008C140.985 24.6008 141.224 24.55 141.482 24.4464C141.74 24.3427 141.96 24.1989 142.144 24.0149V23.5031C141.776 23.4587 141.4 23.4354 141.021 23.4354C140.702 23.4354 140.454 23.4883 140.279 23.594C140.103 23.6998 140.014 23.8478 140.014 24.0382C140.014 24.2285 140.082 24.3766 140.219 24.4654V24.4675Z" fill="white"/>
<path d="M149.178 25.2478C148.988 25.3155 148.802 25.3493 148.615 25.3493C148.309 25.3493 148.078 25.2605 147.924 25.0807C147.77 24.903 147.693 24.6027 147.693 24.184V22.8092C147.693 22.418 147.617 22.1409 147.467 21.9759C147.317 21.811 147.082 21.7285 146.763 21.7285C146.556 21.7285 146.329 21.7835 146.084 21.8913C145.839 21.9992 145.64 22.1325 145.49 22.289V25.2647H144.661V22.0965C144.661 21.9675 144.633 21.8765 144.576 21.8237C144.519 21.7708 144.426 21.7433 144.29 21.7433C144.189 21.7433 144.109 21.7518 144.047 21.7687L144.005 21.0644C144.195 20.9967 144.381 20.9629 144.567 20.9629C144.792 20.9629 144.974 21.0073 145.113 21.0961C145.253 21.1849 145.354 21.3309 145.416 21.5318C145.627 21.352 145.868 21.2124 146.137 21.113C146.405 21.0115 146.678 20.9629 146.957 20.9629C147.511 20.9629 147.911 21.1088 148.157 21.3986C148.402 21.6883 148.525 22.1134 148.525 22.6718V24.2136C148.525 24.3426 148.552 24.4335 148.609 24.4864C148.666 24.5393 148.759 24.5668 148.895 24.5668C148.996 24.5668 149.077 24.5583 149.138 24.5414L149.18 25.2457L149.178 25.2478Z" fill="white"/>
<path d="M154.292 25.2479C154.102 25.3156 153.918 25.3494 153.738 25.3494C153.52 25.3494 153.343 25.3071 153.205 25.2246C153.068 25.14 152.966 25.0047 152.899 24.8143C152.715 24.9772 152.514 25.1062 152.296 25.2035C152.078 25.3008 151.82 25.3494 151.524 25.3494C151.139 25.3494 150.801 25.2606 150.513 25.085C150.225 24.9095 150.001 24.6557 149.843 24.3258C149.684 23.9958 149.604 23.6025 149.604 23.1435C149.604 22.6846 149.686 22.2912 149.851 21.9613C150.016 21.6313 150.244 21.3839 150.534 21.2147C150.824 21.0476 151.154 20.963 151.524 20.963C152.004 20.963 152.435 21.1216 152.816 21.441V20.024H152.254V19.3874C152.611 19.3641 153.072 19.3535 153.637 19.3535V24.2158C153.637 24.3448 153.666 24.4358 153.726 24.4886C153.785 24.5415 153.88 24.569 154.015 24.569C154.117 24.569 154.197 24.5605 154.259 24.5436L154.292 25.2479ZM152.292 24.4294C152.484 24.3194 152.66 24.1756 152.816 23.998V22.3208C152.653 22.1368 152.478 21.9887 152.287 21.8809C152.097 21.773 151.869 21.718 151.6 21.718C151.243 21.718 150.959 21.8365 150.754 22.0734C150.547 22.3102 150.443 22.6677 150.443 23.1414C150.443 23.6152 150.547 23.998 150.754 24.2348C150.961 24.4717 151.243 24.5901 151.6 24.5901C151.869 24.5901 152.099 24.5351 152.292 24.4273V24.4294Z" fill="white"/>
<path d="M158.173 23.2125C158.442 23.4219 158.575 23.7074 158.575 24.0712C158.575 24.49 158.421 24.8051 158.11 25.0187C157.799 25.2302 157.367 25.3381 156.815 25.3381C156.139 25.3381 155.553 25.1964 155.056 24.9109V23.7709H155.811L155.802 24.4075C156.098 24.5259 156.413 24.583 156.75 24.583C157.086 24.583 157.342 24.5429 157.505 24.4604C157.668 24.38 157.748 24.2489 157.748 24.0712C157.748 23.9041 157.678 23.7772 157.539 23.6905C157.399 23.6038 157.133 23.5319 156.741 23.4769C156.126 23.3881 155.692 23.2443 155.438 23.0455C155.185 22.8467 155.058 22.559 155.058 22.1783C155.058 21.7977 155.214 21.5016 155.527 21.2901C155.84 21.0786 156.229 20.9707 156.693 20.9707C157.039 20.9707 157.359 21.0088 157.649 21.0849C157.938 21.161 158.188 21.2626 158.395 21.3916V22.4892H157.64V21.8442C157.35 21.7659 157.063 21.7257 156.777 21.7257C156.185 21.7257 155.889 21.8738 155.889 22.1699C155.889 22.32 155.965 22.4385 156.115 22.521C156.265 22.6056 156.521 22.6775 156.879 22.7388C157.477 22.8445 157.911 23.0032 158.177 23.2125H158.173Z" fill="white"/>
<path d="M161.225 19.3867H166.449V21.1146H165.694V20.0995H164.26V24.5514H165.114V25.2642H162.557V24.5514H163.403V20.0995H161.978V21.1146H161.223V19.3867H161.225Z" fill="white"/>
<path d="M171.996 25.2479C171.806 25.3156 171.62 25.3494 171.434 25.3494C171.121 25.3494 170.888 25.2606 170.738 25.0808C170.588 24.9032 170.512 24.6028 170.512 24.1841V22.8094C170.512 22.4181 170.436 22.141 170.281 21.9761C170.127 21.8111 169.894 21.7286 169.581 21.7286C169.374 21.7286 169.15 21.7815 168.907 21.8872C168.663 21.993 168.467 22.1241 168.316 22.2806V25.2648H167.487V20.0578H166.925V19.3874C167.282 19.3641 167.745 19.3535 168.316 19.3535V21.4664C168.517 21.3098 168.746 21.1872 169 21.0984C169.253 21.0095 169.511 20.9651 169.776 20.9651C170.33 20.9651 170.727 21.111 170.975 21.4008C171.22 21.6905 171.343 22.1156 171.343 22.674V24.2158C171.343 24.3448 171.37 24.4358 171.428 24.4886C171.485 24.5415 171.578 24.569 171.713 24.569C171.815 24.569 171.895 24.5605 171.956 24.5436L171.999 25.2479H171.996Z" fill="white"/>
<path d="M177.153 25.2479C176.963 25.3156 176.777 25.3495 176.59 25.3495C176.349 25.3495 176.159 25.2987 176.015 25.1993C175.873 25.0978 175.776 24.937 175.725 24.7129C175.501 24.9307 175.256 25.0914 174.987 25.1951C174.719 25.2987 174.448 25.3495 174.175 25.3495C173.756 25.3495 173.416 25.2374 173.156 25.0132C172.896 24.789 172.767 24.476 172.767 24.0741C172.767 23.6385 172.91 23.3106 173.198 23.0886C173.486 22.8686 173.943 22.7565 174.569 22.7565C174.909 22.7565 175.275 22.7798 175.666 22.8242V22.6233C175.666 22.3272 175.584 22.103 175.419 21.9486C175.254 21.7942 175.017 21.7181 174.71 21.7181C174.363 21.7181 174.061 21.7815 173.805 21.9105V22.5133H173.05V21.4728L173.042 21.4643C173.566 21.128 174.131 20.9609 174.736 20.9609C175.389 20.9609 175.846 21.1005 176.102 21.3797C176.36 21.6589 176.487 22.0692 176.487 22.6127V24.2137C176.487 24.3427 176.516 24.4337 176.576 24.4866C176.635 24.5394 176.73 24.5669 176.865 24.5669C176.967 24.5669 177.047 24.5585 177.109 24.5416L177.151 25.2458L177.153 25.2479ZM173.746 24.4675C173.883 24.5563 174.063 24.6008 174.287 24.6008C174.511 24.6008 174.75 24.55 175.008 24.4464C175.266 24.3427 175.486 24.1989 175.67 24.0149V23.5031C175.302 23.4587 174.926 23.4354 174.547 23.4354C174.228 23.4354 173.981 23.4883 173.805 23.594C173.63 23.6998 173.541 23.8478 173.541 24.0382C173.541 24.2285 173.608 24.3766 173.746 24.4654V24.4675Z" fill="white"/>
<path d="M180.314 25.1048C180.152 25.1894 179.999 25.2507 179.858 25.2888C179.716 25.329 179.549 25.348 179.358 25.348C178.933 25.348 178.612 25.2423 178.39 25.0287C178.168 24.8172 178.058 24.4915 178.058 24.0558V21.7589H177.277V21.0462H178.075L178.134 19.9316H178.889V21.0462H180.154V21.7589H178.889V23.9226C178.889 24.1573 178.931 24.3286 179.014 24.4344C179.098 24.5401 179.248 24.593 179.466 24.593C179.684 24.593 179.913 24.538 180.137 24.4259L180.312 25.1048H180.314Z" fill="white"/>
<path d="M189.836 20.0995V24.5514H190.515V25.2642H188.294V24.5514H188.973V20.8799L187.027 24.2574H186.676L184.73 20.8799V24.5514H185.409V25.2642H183.197V24.5514H183.876V20.0995H183.188V19.3867H184.756L186.852 23.0498L188.947 19.3867H190.506V20.0995H189.836Z" fill="white"/>
<path d="M195.781 25.2479C195.591 25.3156 195.404 25.3495 195.218 25.3495C194.977 25.3495 194.787 25.2987 194.643 25.1993C194.501 25.0978 194.404 24.937 194.353 24.7129C194.129 24.9307 193.884 25.0914 193.615 25.1951C193.347 25.2987 193.076 25.3495 192.803 25.3495C192.384 25.3495 192.044 25.2374 191.784 25.0132C191.524 24.789 191.395 24.476 191.395 24.0741C191.395 23.6385 191.538 23.3106 191.826 23.0886C192.114 22.8686 192.57 22.7565 193.196 22.7565C193.537 22.7565 193.903 22.7798 194.294 22.8242V22.6233C194.294 22.3272 194.212 22.103 194.047 21.9486C193.882 21.7942 193.645 21.7181 193.338 21.7181C192.991 21.7181 192.689 21.7815 192.433 21.9105V22.5133H191.678V21.4728L191.669 21.4643C192.194 21.128 192.759 20.9609 193.364 20.9609C194.017 20.9609 194.474 21.1005 194.73 21.3797C194.988 21.6589 195.115 22.0692 195.115 22.6127V24.2137C195.115 24.3427 195.144 24.4337 195.204 24.4866C195.263 24.5394 195.358 24.5669 195.493 24.5669C195.595 24.5669 195.675 24.5585 195.737 24.5416L195.779 25.2458L195.781 25.2479ZM192.374 24.4675C192.511 24.5563 192.691 24.6008 192.915 24.6008C193.139 24.6008 193.378 24.55 193.636 24.4464C193.894 24.3427 194.114 24.1989 194.298 24.0149V23.5031C193.93 23.4587 193.554 23.4354 193.175 23.4354C192.856 23.4354 192.608 23.4883 192.433 23.594C192.257 23.6998 192.169 23.8478 192.169 24.0382C192.169 24.2285 192.236 24.3766 192.374 24.4654V24.4675Z" fill="white"/>
<path d="M198.94 25.1048C198.778 25.1894 198.625 25.2507 198.484 25.2888C198.342 25.329 198.175 25.348 197.984 25.348C197.559 25.348 197.238 25.2423 197.016 25.0287C196.794 24.8172 196.684 24.4915 196.684 24.0558V21.7589H195.903V21.0462H196.701L196.76 19.9316H197.515V21.0462H198.78V21.7589H197.515V23.9226C197.515 24.1573 197.557 24.3286 197.64 24.4344C197.724 24.5401 197.874 24.593 198.092 24.593C198.31 24.593 198.539 24.538 198.763 24.4259L198.938 25.1048H198.94Z" fill="white"/>
<path d="M202.253 25.1048C202.09 25.1894 201.938 25.2507 201.796 25.2888C201.654 25.329 201.487 25.348 201.297 25.348C200.872 25.348 200.55 25.2423 200.328 25.0287C200.106 24.8172 199.996 24.4915 199.996 24.0558V21.7589H199.216V21.0462H200.013L200.072 19.9316H200.827V21.0462H202.092V21.7589H200.827V23.9226C200.827 24.1573 200.87 24.3286 200.952 24.4344C201.037 24.5401 201.187 24.593 201.405 24.593C201.623 24.593 201.851 24.538 202.075 24.4259L202.251 25.1048H202.253Z" fill="white"/>
<path d="M203.603 23.4525C203.647 23.8269 203.78 24.1103 204.004 24.3027C204.229 24.4952 204.525 24.5925 204.893 24.5925C205.189 24.5925 205.449 24.5607 205.673 24.4994C205.897 24.4381 206.119 24.345 206.344 24.2224L206.553 24.8843C206.301 25.0345 206.045 25.1508 205.781 25.227C205.519 25.3052 205.216 25.3454 204.876 25.3454C204.222 25.3454 203.704 25.155 203.321 24.7744C202.939 24.3937 202.746 23.8522 202.746 23.148C202.746 22.4437 202.926 21.9319 203.288 21.5427C203.647 21.1536 204.15 20.959 204.791 20.959C205.362 20.959 205.819 21.1324 206.166 21.4793C206.513 21.8261 206.686 22.3041 206.686 22.9132C206.686 23.0422 206.676 23.2199 206.652 23.4504H203.601L203.603 23.4525ZM203.611 22.7567H205.908C205.885 22.3929 205.783 22.1286 205.601 21.9636C205.419 21.7986 205.147 21.7161 204.785 21.7161C204.114 21.7161 203.723 22.063 203.611 22.7546V22.7567Z" fill="white"/>
<path d="M210.704 21.0813V22.5406H209.949V21.72C209.646 21.7137 209.401 21.7602 209.211 21.8533C209.02 21.9485 208.853 22.1028 208.707 22.3143V25.2647H207.878V22.0965C207.878 21.9675 207.851 21.8765 207.794 21.8237C207.737 21.7708 207.644 21.7433 207.508 21.7433C207.407 21.7433 207.326 21.7518 207.265 21.7687L207.223 21.0644C207.413 20.9967 207.599 20.9629 207.785 20.9629C207.997 20.9629 208.172 21.0031 208.31 21.0813C208.447 21.1596 208.549 21.2886 208.616 21.4662C208.997 21.13 209.431 20.9629 209.917 20.9629C210.169 20.9629 210.429 21.0031 210.698 21.0813H210.706H210.704Z" fill="white"/>
</svg>
