<svg width="150" height="149" viewBox="0 0 150 149" fill="none" xmlns="http://www.w3.org/2000/svg">
<path d="M71.5209 45.7463L67.7152 41.7177L62.4952 44.812C61.4571 44.0436 60.356 43.364 59.2037 42.7806L59.6152 36.7291L54.2837 35.1349L51.318 40.432C50.0345 40.2921 48.7418 40.2549 47.4523 40.3206L44.778 34.8691L39.3695 36.1549L39.4466 42.2234C38.2528 42.7378 37.1057 43.3544 36.0181 44.0663L30.9781 40.6806L26.941 44.4949L30.0438 49.7234C29.2727 50.7614 28.5903 51.8624 28.0038 53.0149L22.0038 52.6034L20.418 57.9349L25.7066 60.9091C25.5694 62.1929 25.535 63.4856 25.6038 64.7749L20.1523 67.4406L21.4381 72.8491L27.5066 72.7806C28.021 73.9744 28.6376 75.1215 29.3495 76.2091L25.9724 81.2492L29.7866 85.2949L35.0066 82.192C36.0438 82.9643 37.145 83.6467 38.2981 84.232L37.8952 90.2834L43.2181 91.8691L46.1923 86.5806C47.4758 86.7221 48.7689 86.7565 50.0581 86.6834L52.7238 92.1434L58.1323 90.8577L58.0552 84.7891C59.2473 84.2713 60.3942 83.6549 61.4837 82.9463L66.5238 86.332L70.5609 82.5092L67.4666 77.2891C68.2331 76.2497 68.9126 75.1489 69.498 73.9977L75.5495 74.4091L77.1352 69.0777L71.8381 66.1034C71.9838 64.8202 72.0182 63.5268 71.941 62.2377L77.3924 59.5634L76.1067 54.1549L70.0466 54.232C69.5269 53.0391 68.9077 51.8922 68.1952 50.8034L71.5209 45.7463ZM58.5609 73.8777C56.505 75.8248 53.9179 77.1183 51.1268 77.5948C48.3356 78.0713 45.4658 77.7093 42.8804 76.5545C40.2951 75.3998 38.1102 73.5042 36.6023 71.1076C35.0944 68.711 34.3312 65.921 34.4091 63.0906C34.4871 60.2601 35.4028 57.5163 37.0403 55.2064C38.6779 52.8964 40.9637 51.1239 43.6087 50.1133C46.2537 49.1026 49.1391 48.8991 51.8998 49.5285C54.6605 50.1579 57.1724 51.5919 59.118 53.6491C60.4116 55.0146 61.4235 56.6217 62.0956 58.3784C62.7678 60.1352 63.0872 62.0072 63.0354 63.8875C62.9837 65.7677 62.5619 67.6193 61.7941 69.3365C61.0263 71.0536 59.9276 72.6026 58.5609 73.8949V73.8777Z" fill="white"/>
<path d="M52.6893 92.2966C52.6552 92.2966 52.6217 92.287 52.5929 92.2688C52.5641 92.2506 52.5411 92.2246 52.5265 92.1938L49.955 86.8452C48.7342 86.9053 47.5105 86.8709 46.295 86.7423L43.3807 91.9366C43.361 91.9719 43.33 91.9996 43.2927 92.0151C43.2554 92.0307 43.2139 92.0332 43.175 92.0223L37.8522 90.428C37.8115 90.4165 37.7758 90.3917 37.7509 90.3575C37.726 90.3233 37.7134 90.2817 37.715 90.2395L38.1178 84.3166C37.0314 83.7569 35.991 83.112 35.0064 82.388L29.8635 85.4223C29.8325 85.4489 29.793 85.4635 29.7521 85.4635C29.7112 85.4635 29.6717 85.4489 29.6407 85.4223L25.8179 81.3852C25.7906 81.3528 25.7757 81.3118 25.7757 81.2695C25.7757 81.2272 25.7906 81.1862 25.8179 81.1538L29.135 76.2166C28.4795 75.1922 27.9063 74.1174 27.4207 73.0023L21.4808 73.0709C21.4384 73.0717 21.3971 73.0575 21.3642 73.0308C21.3313 73.0042 21.3088 72.9668 21.3007 72.9252L20.0064 67.5166C19.9999 67.4759 20.0063 67.4341 20.0247 67.3972C20.0432 67.3603 20.0727 67.3301 20.1093 67.3109L25.4492 64.6966C25.3893 63.4758 25.4237 62.2521 25.5522 61.0366L20.3579 58.1223C20.3219 58.1012 20.2939 58.0686 20.2783 58.0298C20.2628 57.9911 20.2607 57.9482 20.2722 57.908L21.8579 52.5852C21.8696 52.5453 21.8947 52.5106 21.9291 52.4872C21.9635 52.4638 22.005 52.453 22.0464 52.4566L27.9779 52.8595C28.5344 51.7731 29.1765 50.7327 29.8979 49.748L26.8635 44.6052C26.8385 44.5734 26.8249 44.5342 26.8249 44.4938C26.8249 44.4533 26.8385 44.4141 26.8635 44.3823L30.9008 40.5681C30.9344 40.5437 30.9749 40.5305 31.0165 40.5305C31.058 40.5305 31.0984 40.5437 31.1321 40.5681L36.0692 43.8938C37.0937 43.2383 38.1685 42.665 39.2835 42.1795L39.215 36.2309C39.2157 36.1912 39.2296 36.1529 39.2544 36.1219C39.2792 36.0909 39.3136 36.0689 39.3522 36.0595L44.7607 34.7652C44.8015 34.7572 44.8439 34.763 44.8811 34.7816C44.9183 34.8002 44.9483 34.8306 44.9664 34.868L47.5893 40.2166C48.8073 40.1565 50.0281 40.1909 51.2407 40.3195L54.155 35.1252C54.1735 35.0887 54.2043 35.0601 54.242 35.0444C54.2797 35.0286 54.3219 35.0269 54.3608 35.0395L59.6922 36.6338C59.7314 36.6437 59.7658 36.6673 59.7894 36.7003C59.8129 36.7332 59.824 36.7734 59.8207 36.8138L59.4178 42.7452C60.506 43.3066 61.5491 43.9514 62.5378 44.6738L67.6807 41.6395C67.7131 41.6123 67.7541 41.5974 67.7964 41.5974C67.8387 41.5974 67.8797 41.6123 67.9121 41.6395L71.7265 45.6766C71.753 45.7077 71.7676 45.7472 71.7676 45.788C71.7676 45.8289 71.753 45.8684 71.7265 45.8995L68.4178 50.8452C69.0701 51.8715 69.6432 52.946 70.1321 54.0595L76.0721 53.9909C76.1129 53.9954 76.1516 54.0115 76.1835 54.0374C76.2154 54.0632 76.2392 54.0976 76.2521 54.1366L77.5378 59.5452C77.5465 59.5851 77.542 59.6267 77.5249 59.6638C77.5079 59.7008 77.4794 59.7314 77.4435 59.7509L72.095 62.3652C72.1621 63.5857 72.1306 64.8097 72.0007 66.0252L77.1436 68.9395C77.18 68.9579 77.2087 68.9888 77.2244 69.0265C77.2402 69.0642 77.2418 69.1063 77.2293 69.1452L75.6436 74.4766C75.6305 74.5157 75.605 74.5494 75.571 74.5727C75.5369 74.5959 75.4962 74.6073 75.455 74.6052L69.5321 74.2023C68.9724 75.2888 68.3276 76.3292 67.6036 77.3138L70.6465 82.4566C70.6715 82.4884 70.6851 82.5276 70.6851 82.568C70.6851 82.6085 70.6715 82.6477 70.6465 82.6795L66.6093 86.4938C66.5756 86.5182 66.5351 86.5313 66.4935 86.5313C66.452 86.5313 66.4115 86.5182 66.3778 86.4938L61.4408 83.168C60.4163 83.8235 59.3415 84.3968 58.2265 84.8823L58.295 90.8223C58.2962 90.8635 58.2832 90.9038 58.2583 90.9366C58.2333 90.9693 58.1978 90.9925 58.1578 91.0023L52.7493 92.288L52.6893 92.2966ZM50.0236 86.4766C50.0574 86.4775 50.0904 86.4876 50.1191 86.5057C50.1477 86.5238 50.1711 86.5493 50.1865 86.5795L52.7579 91.9023L57.9008 90.6852L57.8235 84.7623C57.8242 84.7273 57.8352 84.6932 57.855 84.6643C57.8748 84.6353 57.9026 84.6128 57.935 84.5995C59.1096 84.0827 60.2393 83.4692 61.3122 82.7652C61.341 82.7449 61.3754 82.734 61.4107 82.734C61.446 82.734 61.4804 82.7449 61.5093 82.7652L66.4293 86.0737L70.2521 82.4566L67.2265 77.3566C67.2075 77.3257 67.1975 77.2901 67.1975 77.2538C67.1975 77.2175 67.2075 77.1819 67.2265 77.1509C67.9903 76.1221 68.6642 75.0295 69.2407 73.8852C69.2568 73.8537 69.2814 73.8274 69.3117 73.8092C69.342 73.791 69.3768 73.7817 69.4121 73.7823L75.3178 74.1938L76.8178 69.1452L71.675 66.2395C71.643 66.2225 71.6169 66.1962 71.6001 66.1641C71.5833 66.1319 71.5765 66.0955 71.5807 66.0595C71.7178 64.7843 71.7522 63.5002 71.6836 62.2195C71.6829 62.1841 71.6922 62.1493 71.7104 62.119C71.7285 62.0887 71.7549 62.0641 71.7864 62.048L77.1092 59.4766L75.8836 54.3338L69.9693 54.4023C69.9333 54.4012 69.8982 54.3902 69.868 54.3706C69.8378 54.3509 69.8136 54.3234 69.7979 54.2909C69.2812 53.1163 68.6676 51.9867 67.9636 50.9138C67.9444 50.8845 67.9342 50.8502 67.9342 50.8152C67.9342 50.7802 67.9444 50.7459 67.9636 50.7166L71.2636 45.7966L67.6379 41.9652L62.5721 44.9738C62.5428 44.9929 62.5086 45.0032 62.4736 45.0032C62.4386 45.0032 62.4043 44.9929 62.375 44.9738C61.3434 44.2071 60.2479 43.5303 59.1007 42.9509C59.0694 42.933 59.0439 42.9066 59.0272 42.8747C59.0105 42.8428 59.0033 42.8068 59.0064 42.7709L59.4008 36.8652L54.3608 35.3652L51.455 40.508C51.4368 40.5385 51.4099 40.5628 51.3779 40.5781C51.3459 40.5933 51.3101 40.5988 51.275 40.5938C50.0026 40.4567 48.7214 40.4223 47.4436 40.4909C47.408 40.4926 47.3728 40.4838 47.3423 40.4655C47.3118 40.4472 47.2874 40.4202 47.2722 40.388L44.6578 35.0652L39.515 36.2823L39.5836 42.1966C39.5846 42.2331 39.5744 42.2691 39.5545 42.2997C39.5346 42.3303 39.506 42.3541 39.4722 42.368C38.3002 42.8847 37.1734 43.4982 36.1036 44.2023C36.0734 44.2233 36.0375 44.2346 36.0007 44.2346C35.9639 44.2346 35.928 44.2233 35.8979 44.2023L30.9779 40.8938L27.155 44.5109L30.1807 49.6109C30.1999 49.6402 30.2101 49.6745 30.2101 49.7095C30.2101 49.7445 30.1999 49.7788 30.1807 49.8081C29.417 50.8417 28.7405 51.9369 28.1578 53.0823C28.1423 53.1137 28.1175 53.1395 28.0869 53.1563C28.0563 53.1732 28.0212 53.1803 27.9865 53.1766L22.0807 52.7738L20.5807 57.8223L25.7236 60.728C25.7533 60.747 25.777 60.774 25.7921 60.8058C25.8073 60.8376 25.8132 60.873 25.8093 60.908C25.6721 62.1832 25.6378 63.4674 25.7064 64.748C25.7094 64.7838 25.701 64.8196 25.6826 64.8503C25.6641 64.8811 25.6365 64.9052 25.6036 64.9195L20.2893 67.4909L21.5064 72.6338L27.4207 72.5652C27.4572 72.5642 27.4931 72.5743 27.5238 72.5942C27.5544 72.6141 27.5782 72.6428 27.5921 72.6766C28.1105 73.8504 28.724 74.9799 29.4264 76.0538C29.4467 76.0826 29.4576 76.1171 29.4576 76.1523C29.4576 76.1876 29.4467 76.222 29.4264 76.2509L26.1264 81.1709L29.7435 85.0023L34.835 81.9766C34.866 81.9577 34.9016 81.9476 34.9379 81.9476C34.9742 81.9476 35.0098 81.9577 35.0407 81.9766C36.0693 82.7432 37.1619 83.42 38.3064 83.9995C38.3379 84.0155 38.3643 84.0401 38.3824 84.0704C38.4006 84.1008 38.41 84.1355 38.4093 84.1709L38.0064 90.0766L43.055 91.5852L45.9521 86.4423C45.9703 86.4119 45.9972 86.3875 46.0292 86.3723C46.0613 86.357 46.097 86.3516 46.1321 86.3566C47.4044 86.4936 48.6858 86.528 49.9636 86.4595L50.0236 86.4766ZM48.7464 77.9823H48.3264C44.3759 77.9269 40.6075 76.3115 37.8433 73.4885C35.0791 70.6655 33.5433 66.864 33.5711 62.9131C33.5988 58.9622 35.1877 55.1826 37.9912 52.3987C40.7948 49.6147 44.5855 48.0524 48.5364 48.0524C52.4874 48.0524 56.2781 49.6147 59.0816 52.3987C61.8852 55.1826 63.4741 58.9622 63.5018 62.9131C63.5295 66.864 61.9938 70.6655 59.2296 73.4885C56.4654 76.3115 52.697 77.9269 48.7464 77.9823ZM48.7464 49.3623C44.9478 49.4166 41.3247 50.9707 38.6674 53.6857C36.01 56.4007 34.5339 60.0562 34.5611 63.8551C34.5882 67.6541 36.1164 71.2882 38.8123 73.9649C41.5082 76.6416 45.1531 78.1437 48.9521 78.1437C52.7512 78.1437 56.3961 76.6416 59.092 73.9649C61.7879 71.2882 63.316 67.6541 63.3432 63.8551C63.3703 60.0562 61.8943 56.4007 59.2369 53.6857C56.5795 50.9707 52.9565 49.4166 49.1578 49.3623H48.7464Z" fill="black"/>
<path d="M104.307 16.5169L101.127 14.3483L98.0494 17.2112C97.2178 16.8539 96.3577 16.5671 95.478 16.3541L94.8695 12.2055L91.0294 11.9141L89.8037 15.9255C88.9142 16.0174 88.0339 16.1837 87.1722 16.4226L84.6008 13.1312L81.1722 14.7941L82.1152 18.8826C81.3908 19.3957 80.7112 19.9691 80.0837 20.5969L76.1751 19.0455L74.0065 22.2169L76.8695 25.2941C76.5157 26.1123 76.229 26.9579 76.0123 27.8226L71.8637 28.4398L71.5723 32.2712L75.5922 33.5055C75.6849 34.3949 75.8513 35.275 76.0894 36.1369L72.798 38.7083L74.5123 42.1369L78.6008 41.1941C79.1136 41.9186 79.6871 42.5982 80.3151 43.2255L78.7723 47.1341L81.9523 49.3026L85.0208 46.4398C85.8514 46.7996 86.7118 47.0864 87.5922 47.2969L88.2094 51.4541L92.0408 51.7455L93.2751 47.7255C94.1644 47.6328 95.0447 47.4665 95.9066 47.2283L98.478 50.5283L101.907 48.8569L100.964 44.7683C101.688 44.2556 102.368 43.6821 102.995 43.0541L106.895 44.6055L109.064 41.4255L106.201 38.3483C106.556 37.5306 106.843 36.6849 107.058 35.8198L111.207 35.2112L111.498 31.3712L107.478 30.1369C107.384 29.2477 107.218 28.3676 106.981 27.5055L110.272 24.9341L108.609 21.4626L104.521 22.4055C104.008 21.6811 103.434 21.0016 102.807 20.3741L104.307 16.5169ZM99.678 37.4569C98.571 39.0747 97.009 40.3278 95.1896 41.0576C93.3703 41.7875 91.3754 41.9613 89.4573 41.557C87.5391 41.1528 85.784 40.1887 84.4139 38.7867C83.0439 37.3847 82.1204 35.6078 81.7605 33.6809C81.4005 31.7539 81.6203 29.7635 82.3918 27.9615C83.1634 26.1594 84.4521 24.6267 86.0949 23.5573C87.7378 22.4879 89.6609 21.9298 91.6211 21.9536C93.5812 21.9774 95.4902 22.5821 97.1066 23.6912C98.1804 24.4253 99.0989 25.364 99.8095 26.4535C100.52 27.543 101.009 28.762 101.248 30.0407C101.486 31.3193 101.471 32.6325 101.201 33.9051C100.932 35.1777 100.414 36.3847 99.678 37.4569Z" fill="#0066EE"/>
<path d="M91.9209 52.0464L88.0809 51.7549C88.0397 51.7531 88.0006 51.7365 87.9707 51.7081C87.9408 51.6798 87.9221 51.6416 87.918 51.6007L87.318 47.5635C86.5187 47.3423 85.7389 47.0556 84.9866 46.7064L82.0038 49.4921C81.972 49.5171 81.9328 49.5307 81.8923 49.5307C81.8519 49.5307 81.8127 49.5171 81.7809 49.4921L78.6008 47.3235C78.5661 47.2994 78.5404 47.2644 78.528 47.2239C78.5156 47.1835 78.5171 47.1401 78.5323 47.1007L80.0323 43.3121C79.447 42.7294 78.9082 42.1018 78.4209 41.4349L74.4437 42.3521C74.403 42.3586 74.3612 42.3522 74.3243 42.3338C74.2874 42.3153 74.2572 42.2857 74.238 42.2492L72.5752 38.8207C72.5582 38.783 72.554 38.7408 72.5633 38.7005C72.5726 38.6603 72.5948 38.6242 72.6266 38.5978L75.8237 36.0264C75.6073 35.2313 75.4555 34.4201 75.3695 33.6007L71.4609 32.4092C71.4218 32.3962 71.388 32.3707 71.3648 32.3366C71.3416 32.3025 71.3302 32.2618 71.3323 32.2207L71.6238 28.3807C71.6256 28.3395 71.6422 28.3004 71.6706 28.2705C71.6989 28.2406 71.737 28.2219 71.778 28.2178L75.8065 27.6178C76.0342 26.8233 76.3207 26.0469 76.6637 25.2949L73.878 22.3035C73.8548 22.2694 73.8424 22.2291 73.8424 22.1878C73.8424 22.1465 73.8548 22.1062 73.878 22.0721L76.0466 18.9006C76.0706 18.8659 76.1058 18.8402 76.1462 18.8278C76.1866 18.8154 76.23 18.8169 76.2694 18.8321L80.0666 20.3407C80.6465 19.753 81.2712 19.2114 81.9351 18.7207L81.018 14.7521C81.0078 14.7122 81.0117 14.67 81.0288 14.6326C81.046 14.5951 81.0754 14.5647 81.1123 14.5464L84.5409 12.8835C84.5773 12.864 84.6194 12.8576 84.66 12.8654C84.7005 12.8732 84.7372 12.8947 84.7637 12.9264L87.3352 16.1321C88.1275 15.9166 88.9358 15.7647 89.7523 15.6778L90.9523 11.7692C90.9665 11.7309 90.9923 11.6979 91.0261 11.6749C91.0598 11.6518 91.1 11.6399 91.1408 11.6407L94.9723 11.9321C95.0135 11.9365 95.0522 11.9538 95.0829 11.9815C95.1137 12.0092 95.135 12.0459 95.1437 12.0864L95.7351 16.1235C96.5324 16.3512 97.3117 16.6377 98.0666 16.9807L101.049 14.2035C101.082 14.1763 101.123 14.1614 101.165 14.1614C101.208 14.1614 101.248 14.1763 101.281 14.2035L104.461 16.3721C104.494 16.3957 104.518 16.4293 104.531 16.4679C104.543 16.5065 104.543 16.548 104.529 16.5864L103.021 20.3835C103.604 20.9673 104.146 21.5917 104.641 22.2521L108.609 21.3435C108.649 21.3316 108.692 21.3345 108.73 21.3519C108.768 21.3692 108.798 21.3998 108.815 21.4378L110.487 24.9092C110.502 24.9471 110.506 24.9889 110.496 25.0289C110.487 25.0688 110.466 25.1049 110.435 25.1321L107.229 27.7035C107.443 28.4996 107.598 29.3104 107.692 30.1292L111.592 31.3292C111.632 31.3409 111.667 31.3661 111.69 31.4005C111.714 31.4349 111.725 31.4763 111.721 31.5178L111.438 35.3492C111.434 35.3904 111.416 35.4291 111.389 35.4599C111.361 35.4906 111.324 35.5119 111.284 35.5207L107.247 36.1121C107.023 36.9106 106.736 37.6902 106.389 38.4435L109.175 41.4349C109.202 41.466 109.216 41.5055 109.216 41.5464C109.216 41.5872 109.202 41.6267 109.175 41.6578L107.007 44.8378C106.984 44.8717 106.95 44.8963 106.911 44.9073C106.871 44.9183 106.829 44.9149 106.792 44.8978L102.995 43.3978C102.414 43.981 101.789 44.5196 101.127 45.0092L102.044 48.9864C102.05 49.0271 102.044 49.0689 102.025 49.1058C102.007 49.1427 101.977 49.1729 101.941 49.1921L98.5124 50.8549C98.4747 50.872 98.4325 50.8762 98.3922 50.8669C98.352 50.8576 98.3159 50.8353 98.2895 50.8035L95.7181 47.5978C94.9219 47.8114 94.1111 47.966 93.2923 48.0606L92.1008 51.9607C92.0818 51.9903 92.0549 52.0141 92.0231 52.0292C91.9913 52.0444 91.9559 52.0503 91.9209 52.0464ZM88.2437 51.4035L91.7923 51.6692L92.9837 47.7949C92.9926 47.76 93.0124 47.7288 93.0401 47.7057C93.0678 47.6826 93.1021 47.6689 93.1381 47.6664C94.0066 47.571 94.8664 47.4076 95.7095 47.1778C95.7433 47.1683 95.7792 47.1689 95.8127 47.1796C95.8463 47.1902 95.8759 47.2105 95.898 47.2378L98.4266 50.4178L101.624 48.8835L100.715 44.9321C100.709 44.8974 100.712 44.8616 100.724 44.8284C100.736 44.7952 100.756 44.7659 100.784 44.7435C101.5 44.2309 102.172 43.6574 102.789 43.0292C102.815 43.0041 102.847 42.9868 102.882 42.9792C102.917 42.9716 102.953 42.9741 102.987 42.9864L106.767 44.4864L108.764 41.5464L106.004 38.5807C105.984 38.55 105.973 38.5143 105.973 38.4778C105.973 38.4413 105.984 38.4055 106.004 38.3749C106.362 37.57 106.648 36.7354 106.861 35.8807C106.872 35.8462 106.893 35.8154 106.92 35.7913C106.947 35.7672 106.98 35.7508 107.015 35.7435L111.027 35.1521L111.292 31.6121L107.41 30.4207C107.376 30.4088 107.347 30.3883 107.324 30.3611C107.301 30.334 107.287 30.3012 107.281 30.2664C107.186 29.3977 107.022 28.5379 106.792 27.6949C106.78 27.6613 106.78 27.6246 106.79 27.5905C106.801 27.5564 106.823 27.5269 106.852 27.5064L110.032 24.9864L108.489 21.7806L104.572 22.6035C104.537 22.6101 104.5 22.6063 104.467 22.5926C104.433 22.5789 104.405 22.5559 104.384 22.5264C103.872 21.8094 103.298 21.1383 102.669 20.5207C102.649 20.4918 102.638 20.4574 102.638 20.4221C102.638 20.3868 102.649 20.3524 102.669 20.3235L104.161 16.5521L101.221 14.5464L98.2552 17.3149C98.2255 17.3331 98.1914 17.3428 98.1566 17.3428C98.1218 17.3428 98.0877 17.3331 98.058 17.3149C97.2482 16.9622 96.4112 16.6756 95.5551 16.4578C95.5207 16.4464 95.4899 16.4262 95.4658 16.3991C95.4417 16.372 95.4252 16.339 95.418 16.3035L94.8266 12.2921L91.278 12.0264L90.0952 15.9092C90.0833 15.9425 90.0628 15.972 90.0356 15.9946C90.0085 16.0173 89.9758 16.0322 89.9409 16.0378C89.0712 16.1255 88.2108 16.2889 87.3695 16.5264C87.3348 16.535 87.2983 16.533 87.2648 16.5208C87.2312 16.5086 87.2019 16.4867 87.1808 16.4578L84.6609 13.2778L81.4552 14.8207L82.3637 18.7721C82.3723 18.8068 82.3704 18.8432 82.3582 18.8768C82.3459 18.9104 82.324 18.9396 82.2952 18.9607C81.58 19.4752 80.9091 20.0486 80.2895 20.6749C80.2654 20.702 80.2333 20.7207 80.1978 20.7284C80.1624 20.7361 80.1254 20.7324 80.0923 20.7178L76.3209 19.2264L74.3151 22.1578L77.0838 25.1321C77.103 25.1614 77.1131 25.1956 77.1131 25.2307C77.1131 25.2657 77.103 25.2999 77.0838 25.3292C76.7249 26.1366 76.438 26.9742 76.2266 27.8321C76.2182 27.8657 76.1997 27.8961 76.1737 27.919C76.1477 27.942 76.1153 27.9565 76.0809 27.9607L72.0009 28.6035L71.7351 32.1521L75.618 33.3435C75.6527 33.3514 75.6837 33.3711 75.7056 33.3992C75.7274 33.4274 75.7389 33.4622 75.738 33.4978C75.8322 34.3672 75.9984 35.2273 76.2351 36.0692C76.2433 36.1052 76.2413 36.1428 76.2291 36.1776C76.217 36.2125 76.1953 36.2432 76.1666 36.2664L72.9952 38.7864L74.5294 41.9921L78.4809 41.0835C78.5156 41.0749 78.552 41.0769 78.5856 41.0891C78.6191 41.1013 78.6484 41.1232 78.6695 41.1521C79.1817 41.8691 79.7553 42.5402 80.3838 43.1578C80.4019 43.1875 80.4116 43.2216 80.4116 43.2564C80.4116 43.2912 80.4019 43.3253 80.3838 43.3549L78.8923 47.1264L81.8237 49.1321L84.7981 46.3721C84.8269 46.3518 84.8613 46.3409 84.8966 46.3409C84.9319 46.3409 84.9663 46.3518 84.9952 46.3721C85.8016 46.7259 86.6358 47.0126 87.4894 47.2292C87.5246 47.2361 87.5569 47.2538 87.5815 47.28C87.6061 47.3061 87.6219 47.3393 87.6266 47.3749L88.2437 51.4035ZM91.4837 41.9749C88.8992 41.9655 86.4177 40.9612 84.5541 39.1705C82.6905 37.3797 81.588 34.9401 81.4756 32.358C81.3632 29.776 82.2494 27.2498 83.9503 25.3038C85.6513 23.3579 88.0361 22.1417 90.61 21.9077C93.1839 21.6737 95.7492 22.4399 97.7731 24.0472C99.7971 25.6545 101.124 27.9795 101.479 30.5395C101.834 33.0995 101.19 35.6979 99.6798 37.7954C98.1697 39.8928 95.9099 41.3282 93.3695 41.8035C92.7472 41.9142 92.1157 41.9659 91.4837 41.9578V41.9749ZM91.4837 22.1578C90.8741 22.16 90.2659 22.2174 89.6666 22.3292C88.4112 22.5613 87.2145 23.0407 86.1461 23.7397C85.0778 24.4387 84.1591 25.3432 83.4437 26.4006C82.0576 28.5317 81.5608 31.1206 82.0594 33.6134C82.5581 36.1062 84.0126 38.3047 86.1118 39.7386C88.211 41.1724 90.7882 41.7276 93.2915 41.2853C95.7949 40.843 98.0257 39.4384 99.5066 37.3721C100.498 35.9098 101.073 34.2055 101.171 32.4415C101.268 30.6776 100.884 28.9203 100.06 27.3576C99.2363 25.7949 98.003 24.4856 96.4923 23.5697C94.9816 22.6538 93.2504 22.1658 91.4837 22.1578Z" fill="black"/>
<path d="M60.4369 125.888L49.294 133.148L21.5911 133.08C21.5911 133.08 21.5311 133.08 21.5911 133.02L32.734 125.828H60.5397C60.5397 125.828 60.4712 125.871 60.4369 125.888Z" fill="white"/>
<path d="M49.2265 133.336L21.5236 133.268C21.4761 133.268 21.4297 133.254 21.3911 133.226C21.3526 133.198 21.3239 133.159 21.3093 133.114C21.2966 133.071 21.2981 133.025 21.3136 132.984C21.329 132.942 21.3576 132.906 21.395 132.882L32.5378 125.682C32.5786 125.655 32.6262 125.64 32.675 125.639H60.4465C60.4957 125.635 60.5448 125.649 60.5854 125.677C60.626 125.705 60.6557 125.746 60.6693 125.794C60.682 125.836 60.6805 125.882 60.665 125.924C60.6496 125.965 60.621 126.001 60.5836 126.025L49.3979 133.276C49.3748 133.298 49.3477 133.314 49.3183 133.324C49.2888 133.334 49.2576 133.339 49.2265 133.336ZM22.0293 132.899L49.1922 132.968L59.9065 126.025H32.6664L22.0293 132.899Z" fill="black"/>
<path d="M60.4633 125.846V140.743L49.3204 147.951H49.209V133.174C49.209 133.174 60.309 125.854 60.4633 125.846Z" fill="#0066EE"/>
<path d="M49.2428 147.961L21.4629 147.892V133.098L49.2258 133.158L49.2428 147.961Z" fill="white"/>
<path d="M49.2434 148.149L21.4635 148.081C21.4391 148.081 21.415 148.076 21.3925 148.066C21.3701 148.057 21.3498 148.043 21.333 148.025C21.3162 148.008 21.3031 147.987 21.2946 147.964C21.2861 147.941 21.2822 147.917 21.2834 147.892V133.098C21.2875 133.051 21.3055 133.006 21.3349 132.969C21.3723 132.935 21.4214 132.917 21.4721 132.918L49.2263 132.969C49.2507 132.969 49.2748 132.974 49.2972 132.984C49.3196 132.993 49.3399 133.008 49.3567 133.025C49.3735 133.043 49.3866 133.064 49.3951 133.086C49.4036 133.109 49.4075 133.134 49.4063 133.158V147.961C49.4072 147.985 49.403 148.008 49.3942 148.031C49.3853 148.053 49.3719 148.073 49.3548 148.089C49.3262 148.122 49.2866 148.144 49.2434 148.149ZM21.6434 147.712L49.072 147.781V133.338L21.6434 133.287V147.712Z" fill="black"/>
<path d="M101.427 98.4256L90.2841 105.643L59.3412 105.574C59.3412 105.574 59.2898 105.574 59.3412 105.531L70.4841 98.3398H101.453C101.436 98.357 101.47 98.3998 101.427 98.4256Z" fill="white"/>
<path d="M90.2497 105.822L59.3067 105.754C59.26 105.756 59.2138 105.743 59.1751 105.717C59.1364 105.691 59.1074 105.653 59.0925 105.608C59.0798 105.566 59.0814 105.52 59.0968 105.478C59.1123 105.436 59.1409 105.401 59.1782 105.377L70.3211 98.1939C70.3545 98.1828 70.3906 98.1828 70.424 98.1939H101.393C101.444 98.1916 101.494 98.2063 101.536 98.2358C101.578 98.2653 101.609 98.3078 101.624 98.3567C101.637 98.4006 101.636 98.4476 101.621 98.4909C101.605 98.5341 101.576 98.5712 101.538 98.5967L90.3953 105.814L90.2497 105.822ZM59.8297 105.394L90.1982 105.462L100.912 98.5367H70.4668L59.8297 105.394Z" fill="black"/>
<path d="M101.479 98.3652V140.734L90.3357 147.934H90.25V105.642C90.25 105.642 101.316 98.3738 101.479 98.3652Z" fill="#0066EE"/>
<path d="M90.2494 147.977L59.2637 147.909C59.3322 147.952 59.2637 105.592 59.2637 105.592L90.2237 105.643L90.2494 147.977Z" fill="white"/>
<path d="M90.2498 148.157L59.2641 148.088C59.2229 148.089 59.1826 148.076 59.1498 148.051C59.117 148.026 59.0939 147.991 59.0841 147.951V147.874C59.1441 146.957 59.0841 106.002 59.0841 105.591C59.0833 105.567 59.0874 105.543 59.0962 105.521C59.1051 105.499 59.1184 105.479 59.1355 105.462C59.1517 105.444 59.1715 105.429 59.1936 105.419C59.2157 105.409 59.2397 105.403 59.2641 105.402L90.2241 105.462C90.2484 105.461 90.2727 105.465 90.2955 105.473C90.3184 105.482 90.3393 105.495 90.3569 105.512C90.3746 105.529 90.3886 105.549 90.3982 105.571C90.4077 105.594 90.4126 105.618 90.4126 105.642V147.977C90.4118 148.001 90.4062 148.025 90.3959 148.047C90.3855 148.069 90.3708 148.089 90.3526 148.105C90.3253 148.134 90.289 148.152 90.2498 148.157ZM59.4526 147.728L90.0697 147.797V105.797L59.4698 105.745C59.4698 107.185 59.4698 116.948 59.4698 126.711C59.4698 131.999 59.4698 137.288 59.4698 141.282C59.4698 143.271 59.4698 144.925 59.4698 146.082C59.4612 146.982 59.4612 147.462 59.4526 147.745V147.728Z" fill="black"/>
<path d="M80.6245 144.103C80.5957 144.103 80.5672 144.097 80.5417 144.083C80.5162 144.07 80.4946 144.05 80.4787 144.026C80.4645 144.006 80.4544 143.983 80.4493 143.959C80.4442 143.935 80.444 143.91 80.4488 143.886C80.4536 143.862 80.4634 143.839 80.4774 143.819C80.4913 143.799 80.5092 143.782 80.5301 143.769L83.3501 141.951C83.3697 141.936 83.3923 141.925 83.4164 141.919C83.4404 141.913 83.4654 141.912 83.4898 141.917C83.5142 141.921 83.5376 141.93 83.5583 141.943C83.5791 141.957 83.5968 141.974 83.6104 141.995C83.6241 142.016 83.6333 142.039 83.6374 142.064C83.6416 142.088 83.6408 142.113 83.6348 142.137C83.6289 142.161 83.6181 142.184 83.603 142.203C83.588 142.223 83.5689 142.239 83.5472 142.251L80.7273 144.077L80.6245 144.103Z" fill="black"/>
<path d="M141.763 68.1609L130.483 76.8695L99.9515 76.7923C99.9 76.7923 99.8829 76.7495 99.9515 76.7238L111.094 68.1523L141.763 68.1609Z" fill="white"/>
<path d="M130.483 77.0494L99.952 76.9722C99.9031 76.9746 99.8547 76.9607 99.8144 76.9329C99.7742 76.905 99.7442 76.8646 99.7292 76.8179C99.7136 76.775 99.7127 76.7282 99.7267 76.6847C99.7406 76.6413 99.7686 76.6037 99.8063 76.5779L110.949 68.0065C110.985 67.9926 111.025 67.9926 111.061 68.0065H141.798C141.836 68.0052 141.874 68.0164 141.906 68.0383C141.938 68.0602 141.962 68.0917 141.974 68.1281C141.986 68.1646 141.987 68.2041 141.975 68.2409C141.964 68.2776 141.94 68.3096 141.909 68.3322L130.629 77.0408C130.608 77.0541 130.583 77.0619 130.557 77.0634C130.532 77.0649 130.507 77.0601 130.483 77.0494ZM100.363 76.6036L130.424 76.6894L141.232 68.3408H111.086L100.363 76.6036Z" fill="black"/>
<path d="M141.764 68.168V139.362L130.621 147.934H130.51V76.868C130.51 76.868 141.61 68.1765 141.764 68.168Z" fill="#0066EE"/>
<path d="M130.544 147.96L99.875 147.883C99.9436 147.934 99.875 76.8086 99.875 76.8086L130.518 76.8686L130.544 147.96Z" fill="white"/>
<path d="M130.544 148.15L99.8753 148.064C99.8329 148.065 99.7916 148.051 99.7587 148.024C99.7258 147.997 99.7034 147.96 99.6953 147.918V147.858C99.7553 146.744 99.6953 77.5125 99.6953 76.8097C99.6992 76.761 99.7203 76.7152 99.7548 76.6807C99.7894 76.6461 99.8352 76.625 99.8839 76.6211L130.527 76.6897C130.55 76.6897 130.574 76.6943 130.596 76.7034C130.617 76.7124 130.637 76.7257 130.654 76.7424C130.671 76.7591 130.684 76.7789 130.693 76.8008C130.702 76.8226 130.707 76.846 130.707 76.8697V147.961C130.708 147.985 130.703 148.009 130.695 148.031C130.686 148.053 130.672 148.073 130.655 148.09C130.626 148.121 130.587 148.142 130.544 148.15ZM100.064 147.704L130.364 147.781V77.0497L100.081 76.9897C100.081 78.9097 100.081 95.6154 100.081 112.33C100.081 121.218 100.081 130.098 100.081 136.767C100.081 140.093 100.081 142.878 100.081 144.824C100.081 145.793 100.081 146.538 100.081 147.078C100.064 147.37 100.064 147.567 100.064 147.747V147.704Z" fill="black"/>
<path d="M112.921 139.389C112.865 139.386 112.813 139.362 112.775 139.321C112.743 139.286 112.725 139.24 112.725 139.192C112.725 139.144 112.743 139.098 112.775 139.064L121.655 132.206C121.672 132.189 121.692 132.176 121.714 132.166C121.736 132.157 121.76 132.152 121.784 132.152C121.808 132.152 121.831 132.157 121.854 132.166C121.876 132.176 121.896 132.189 121.912 132.206C121.929 132.223 121.943 132.243 121.952 132.265C121.962 132.287 121.966 132.311 121.966 132.335C121.966 132.359 121.962 132.383 121.952 132.405C121.943 132.427 121.929 132.447 121.912 132.464L113.032 139.321C113.006 139.357 112.966 139.382 112.921 139.389Z" fill="black"/>
<path d="M112.611 134.228C112.582 134.229 112.554 134.222 112.528 134.208C112.503 134.195 112.481 134.175 112.465 134.151C112.449 134.135 112.435 134.116 112.426 134.094C112.417 134.073 112.412 134.05 112.412 134.027C112.412 134.003 112.417 133.98 112.426 133.959C112.435 133.938 112.449 133.918 112.465 133.902L115.286 131.717C115.32 131.684 115.366 131.666 115.414 131.666C115.462 131.666 115.508 131.684 115.543 131.717C115.575 131.752 115.593 131.798 115.593 131.845C115.593 131.893 115.575 131.939 115.543 131.974L112.723 134.151C112.695 134.189 112.656 134.216 112.611 134.228Z" fill="black"/>
<path d="M9.17225 137.375L8.41797 144.078L11.2637 145.261L12.318 137.958L9.17225 137.375Z" fill="white"/>
<path d="M11.2628 145.448H11.1942L8.34846 144.265C8.31256 144.249 8.28253 144.223 8.26255 144.189C8.24258 144.155 8.23365 144.116 8.23702 144.077L8.99131 137.374C8.99198 137.348 8.99856 137.324 9.01046 137.301C9.02236 137.279 9.03922 137.26 9.05985 137.245C9.10693 137.228 9.15852 137.228 9.2056 137.245L12.3514 137.828C12.3961 137.836 12.4359 137.861 12.4629 137.898C12.4899 137.935 12.5021 137.98 12.497 138.025L11.4427 145.337C11.4378 145.363 11.4277 145.388 11.413 145.41C11.3983 145.432 11.3792 145.451 11.357 145.465C11.3246 145.469 11.2919 145.463 11.2628 145.448ZM8.61422 143.965L11.117 145.011L12.1113 138.111L9.32561 137.597L8.61422 143.965Z" fill="black"/>
<path d="M7.71467 143.461C7.57876 144.412 7.49859 145.371 7.47465 146.332C7.47216 146.654 7.5878 146.965 7.79953 147.206C8.01126 147.448 8.30442 147.604 8.6233 147.644C11.8365 148.004 15.0764 148.062 18.3004 147.815C18.5056 147.789 18.6961 147.695 18.8408 147.547C18.9855 147.399 19.076 147.206 19.0976 147.001C19.509 144.935 15.9175 144.429 11.9832 142.938C11.9071 142.908 11.8241 142.901 11.7438 142.916C11.6635 142.931 11.5891 142.968 11.5289 143.024L11.1089 143.435C10.9022 143.636 10.6408 143.772 10.3571 143.826C10.0735 143.879 9.78041 143.848 9.51465 143.735L8.22036 143.178C8.16885 143.156 8.11315 143.147 8.05745 143.15C8.00175 143.153 7.94752 143.169 7.89883 143.196C7.85013 143.224 7.80831 143.262 7.77641 143.307C7.74451 143.353 7.72336 143.406 7.71467 143.461Z" fill="white"/>
<path d="M14.5713 148.132C12.5666 148.14 10.5632 148.031 8.57126 147.806C8.20767 147.762 7.87311 147.586 7.63125 147.311C7.38939 147.036 7.25713 146.681 7.25981 146.315C7.28844 145.348 7.37146 144.384 7.50841 143.426C7.52121 143.343 7.55251 143.264 7.59996 143.194C7.64742 143.124 7.7098 143.066 7.78265 143.023C7.85705 142.986 7.93929 142.966 8.02268 142.966C8.10606 142.966 8.1883 142.986 8.2627 143.023L9.55699 143.572C9.78917 143.672 10.0459 143.701 10.2946 143.656C10.5434 143.61 10.7729 143.491 10.9541 143.315L11.3827 142.903C11.4651 142.824 11.5686 142.769 11.681 142.746C11.7934 142.724 11.91 142.733 12.017 142.775C12.9341 143.118 13.817 143.409 14.6741 143.692C17.4255 144.592 19.5941 145.303 19.2512 147.043C19.2218 147.289 19.11 147.518 18.9342 147.692C18.7583 147.867 18.5287 147.976 18.2826 148.003C17.1427 148.089 15.8313 148.132 14.5713 148.132ZM8.09121 143.315C8.06315 143.307 8.03357 143.307 8.00552 143.315C7.98098 143.328 7.95972 143.346 7.94336 143.368C7.92701 143.39 7.91603 143.416 7.91124 143.443C7.77404 144.389 7.69387 145.342 7.67122 146.298C7.67101 146.573 7.77095 146.838 7.95236 147.045C8.13377 147.252 8.38426 147.385 8.65695 147.421C11.8585 147.784 15.0874 147.842 18.2998 147.592C18.4658 147.569 18.6191 147.491 18.7343 147.369C18.8496 147.248 18.9201 147.09 18.9341 146.923C19.2169 145.501 17.2798 144.866 14.6484 143.983C13.7912 143.701 12.9341 143.418 11.9741 143.058C11.9303 143.045 11.884 143.043 11.8392 143.052C11.7944 143.061 11.7525 143.08 11.717 143.109L11.297 143.521C11.0638 143.748 10.7682 143.902 10.4477 143.961C10.1273 144.021 9.79635 143.984 9.49694 143.855L8.21122 143.306L8.09121 143.315Z" fill="black"/>
<path d="M7.5098 146.16V146.314C7.50732 146.636 7.62296 146.947 7.83469 147.189C8.04642 147.43 8.33947 147.586 8.65835 147.626C11.8715 147.986 15.1116 148.044 18.3355 147.797C18.5408 147.771 18.7311 147.677 18.8758 147.529C19.0206 147.381 19.111 147.189 19.1326 146.983C19.1524 146.806 19.1524 146.628 19.1326 146.452H18.8755C15.2425 146.633 11.6011 146.544 7.98128 146.186L7.5098 146.16Z" fill="white"/>
<path d="M14.5713 148.132C12.5666 148.14 10.5632 148.032 8.57126 147.807C8.20767 147.763 7.87311 147.586 7.63125 147.311C7.38939 147.036 7.25713 146.682 7.25981 146.315V146.152C7.25946 146.128 7.26469 146.104 7.27508 146.081C7.28547 146.059 7.30081 146.039 7.31986 146.024C7.33753 146.006 7.35917 145.993 7.38306 145.986C7.40695 145.978 7.43231 145.977 7.45693 145.981L7.94556 146.024C11.5573 146.374 15.1895 146.463 18.8141 146.29H19.0713C19.1184 146.289 19.164 146.307 19.1989 146.339C19.2338 146.37 19.2555 146.414 19.2598 146.461C19.2797 146.652 19.2797 146.844 19.2598 147.035C19.2304 147.281 19.1186 147.51 18.9428 147.684C18.7669 147.858 18.5373 147.968 18.2912 147.995C17.1427 148.09 15.8313 148.132 14.5713 148.132ZM7.71412 146.358C7.72034 146.628 7.82338 146.886 8.00436 147.086C8.18535 147.286 8.43222 147.414 8.69985 147.447C11.9014 147.81 15.1303 147.868 18.3427 147.618C18.5087 147.595 18.6618 147.517 18.7771 147.395C18.8924 147.274 18.963 147.117 18.977 146.95C18.9905 146.85 18.9905 146.749 18.977 146.65H18.9085C15.267 146.83 11.6173 146.744 7.98836 146.392L7.71412 146.358Z" fill="black"/>
<path d="M12.9174 145.329C12.8696 145.328 12.8237 145.31 12.7889 145.277C12.7564 145.242 12.7383 145.196 12.7383 145.149C12.7383 145.101 12.7564 145.055 12.7889 145.02L14.1689 143.631C14.203 143.597 14.2493 143.578 14.2975 143.578C14.3457 143.578 14.3919 143.597 14.426 143.631C14.4601 143.665 14.4792 143.712 14.4792 143.76C14.4792 143.808 14.4601 143.854 14.426 143.889L13.046 145.277C13.0112 145.31 12.9652 145.328 12.9174 145.329Z" fill="black"/>
<path d="M14.2717 145.474C14.2264 145.473 14.1833 145.455 14.1516 145.423C14.1345 145.406 14.121 145.386 14.1117 145.364C14.1024 145.342 14.0977 145.318 14.0977 145.294C14.0977 145.27 14.1024 145.246 14.1117 145.224C14.121 145.202 14.1345 145.182 14.1516 145.165L15.2574 144.017C15.2742 144 15.2941 143.986 15.3162 143.977C15.3383 143.968 15.3619 143.963 15.3859 143.963C15.4098 143.963 15.4336 143.968 15.4557 143.977C15.4777 143.986 15.4977 144 15.5145 144.017C15.547 144.052 15.5651 144.098 15.5651 144.145C15.5651 144.193 15.547 144.239 15.5145 144.274L14.4173 145.423C14.3764 145.457 14.3248 145.475 14.2717 145.474Z" fill="black"/>
<path d="M19.5261 93.2137C19.5261 93.2137 17.8118 94.2166 17.1089 100.122C16.4061 106.028 16.6546 112.979 11.9661 119.888C8.20322 125.408 8.53749 134.708 7.98892 140.802C7.98183 140.873 7.98932 140.944 8.0109 141.011C8.03247 141.078 8.06773 141.14 8.11438 141.193C8.16102 141.247 8.21803 141.289 8.282 141.319C8.34596 141.349 8.41549 141.366 8.48613 141.368L12.0947 141.488C12.2059 141.493 12.3158 141.462 12.4072 141.398C12.4986 141.335 12.5665 141.243 12.6004 141.137C13.2432 139.139 16.4576 129.497 20.0576 123.908C23.8718 117.994 28.5004 102.668 28.5004 102.668C27.973 100.167 27.6462 97.6271 27.5232 95.0737C27.3775 91.3623 19.5261 93.2137 19.5261 93.2137Z" fill="#0066EE"/>
<path d="M39.3441 120.609L37.8184 127.175L40.5098 128.684L42.3955 121.552L39.3441 120.609Z" fill="white"/>
<path d="M40.5094 128.888C40.4813 128.896 40.4517 128.896 40.4237 128.888L37.7322 127.38C37.696 127.363 37.6668 127.334 37.6496 127.298C37.6323 127.262 37.6283 127.221 37.6379 127.182L39.1636 120.608C39.1697 120.585 39.1805 120.563 39.1952 120.544C39.2099 120.525 39.2283 120.509 39.2494 120.497C39.2722 120.486 39.297 120.48 39.3222 120.48C39.3474 120.48 39.3722 120.486 39.395 120.497L42.4465 121.44C42.4915 121.452 42.5301 121.481 42.5541 121.521C42.578 121.561 42.5856 121.608 42.5751 121.654L40.6893 128.794C40.6809 128.82 40.6675 128.844 40.6499 128.864C40.6322 128.885 40.6107 128.902 40.5865 128.914L40.5094 128.888ZM38.0236 127.105L40.3979 128.434L42.1722 121.688L39.4722 120.831L38.0236 127.105Z" fill="black"/>
<path d="M37.4929 126.789C37.187 127.734 36.9633 128.703 36.8243 129.686C36.8218 130.008 36.9374 130.319 37.1491 130.561C37.3609 130.802 37.654 130.958 37.9729 130.998C41.3276 131.347 44.7066 131.395 48.07 131.144C48.2762 131.118 48.4678 131.024 48.6139 130.876C48.7601 130.728 48.8523 130.536 48.8757 130.329C49.2872 128.264 45.6957 127.758 41.7614 126.258C41.6841 126.232 41.6014 126.227 41.5216 126.244C41.4418 126.261 41.3678 126.298 41.3071 126.352L40.8871 126.764C40.6791 126.966 40.416 127.102 40.1309 127.155C39.8458 127.209 39.5513 127.177 39.2843 127.064L37.9985 126.507C37.947 126.485 37.8913 126.476 37.8356 126.479C37.7799 126.482 37.7257 126.498 37.677 126.525C37.6283 126.552 37.5865 126.59 37.5546 126.636C37.5227 126.682 37.5015 126.734 37.4929 126.789Z" fill="white"/>
<path d="M44.0399 131.461C42.0043 131.47 39.9698 131.367 37.9456 131.152C37.5828 131.108 37.2492 130.931 37.0087 130.656C36.7683 130.381 36.6379 130.026 36.6427 129.661C36.6859 128.961 36.8302 128.271 37.0713 127.612C37.174 127.333 37.2543 127.047 37.3113 126.755C37.3253 126.673 37.3571 126.596 37.4045 126.527C37.4519 126.459 37.5137 126.402 37.5855 126.361C37.6599 126.323 37.7422 126.304 37.8256 126.304C37.909 126.304 37.9912 126.323 38.0656 126.361L39.3599 126.909C39.5921 127.01 39.8487 127.039 40.0974 126.993C40.3462 126.947 40.5758 126.829 40.757 126.652L41.1856 126.241C41.2674 126.16 41.3709 126.105 41.4836 126.082C41.5962 126.059 41.7131 126.07 41.8199 126.112C42.737 126.455 43.6199 126.747 44.477 127.029C47.2284 127.929 49.397 128.641 49.0541 130.381C49.0232 130.626 48.9111 130.854 48.7355 131.028C48.5599 131.202 48.3311 131.312 48.0855 131.341C46.8427 131.461 45.4284 131.461 44.0399 131.461ZM37.8513 126.635C37.8232 126.627 37.7937 126.627 37.7656 126.635C37.7411 126.648 37.7197 126.666 37.7034 126.688C37.687 126.711 37.676 126.736 37.6712 126.764C37.6109 127.081 37.5279 127.393 37.4227 127.698C37.1962 128.322 37.0549 128.973 37.0027 129.635C37.0007 129.913 37.1008 130.182 37.2842 130.39C37.4676 130.599 37.7212 130.733 37.997 130.767C41.3405 131.11 44.7077 131.159 48.0598 130.912C48.2258 130.889 48.379 130.811 48.4943 130.689C48.6096 130.568 48.6802 130.411 48.6942 130.244C48.977 128.821 47.0399 128.187 44.4085 127.304C43.5513 127.021 42.6941 126.729 41.7341 126.378C41.6906 126.363 41.6437 126.359 41.5985 126.368C41.5532 126.378 41.5113 126.399 41.477 126.429L41.057 126.841C40.8238 127.069 40.5282 127.222 40.2077 127.281C39.8873 127.341 39.5564 127.304 39.257 127.175L37.9627 126.627L37.8513 126.635Z" fill="black"/>
<path d="M36.9258 129.488C36.9258 129.488 36.9258 129.591 36.9258 129.643C36.9233 129.964 37.039 130.275 37.2507 130.517C37.4624 130.758 37.7556 130.914 38.0745 130.954C41.3961 131.321 44.7442 131.384 48.0773 131.143C48.2835 131.117 48.4751 131.023 48.6212 130.875C48.7674 130.727 48.8596 130.535 48.883 130.328C48.8982 130.151 48.8982 129.974 48.883 129.797H48.6258C44.9928 129.974 41.3517 129.885 37.7316 129.531L36.9258 129.488Z" fill="white"/>
<path d="M44.3926 131.46C42.2736 131.465 40.1559 131.351 38.0497 131.118C37.6869 131.072 37.3533 130.895 37.1118 130.62C36.8703 130.345 36.7375 129.992 36.7383 129.626V129.463C36.7391 129.439 36.7448 129.415 36.7551 129.393C36.7654 129.371 36.7802 129.351 36.7983 129.335C36.8366 129.302 36.8851 129.284 36.9354 129.283L37.7926 129.352C41.4043 129.703 45.0369 129.789 48.6612 129.609H48.9183C48.9419 129.608 48.9656 129.611 48.9878 129.619C49.0101 129.627 49.0306 129.64 49.0481 129.656C49.0656 129.671 49.0799 129.691 49.09 129.712C49.1 129.734 49.1058 129.757 49.1069 129.78C49.1267 129.971 49.1267 130.164 49.1069 130.355C49.076 130.6 48.9638 130.828 48.7882 131.002C48.6126 131.176 48.3838 131.286 48.1383 131.315C46.904 131.46 45.6269 131.46 44.3926 131.46ZM37.1069 129.669C37.1149 129.938 37.2185 130.195 37.3991 130.395C37.5798 130.594 37.8256 130.723 38.0925 130.757C41.4028 131.122 44.7394 131.185 48.0611 130.946C48.2271 130.923 48.3804 130.845 48.4956 130.723C48.6109 130.602 48.6815 130.444 48.6955 130.277C48.7048 130.178 48.7048 130.077 48.6955 129.977H48.6269C44.989 130.17 41.3419 130.093 37.7154 129.746L37.1069 129.669Z" fill="black"/>
<path d="M42.6597 128.674C42.635 128.675 42.6105 128.67 42.5881 128.66C42.5658 128.649 42.5462 128.634 42.5311 128.614C42.4986 128.579 42.4805 128.533 42.4805 128.486C42.4805 128.438 42.4986 128.392 42.5311 128.357L43.9111 126.977C43.928 126.96 43.948 126.947 43.9701 126.938C43.9922 126.929 44.0158 126.924 44.0397 126.924C44.0636 126.924 44.0872 126.929 44.1093 126.938C44.1313 126.947 44.1514 126.96 44.1683 126.977C44.1852 126.994 44.1985 127.014 44.2076 127.036C44.2168 127.058 44.2215 127.082 44.2215 127.106C44.2215 127.13 44.2168 127.153 44.2076 127.175C44.1985 127.197 44.1852 127.217 44.1683 127.234L42.7883 128.614C42.7728 128.633 42.7531 128.649 42.7309 128.659C42.7086 128.669 42.6843 128.675 42.6597 128.674Z" fill="black"/>
<path d="M44.0151 128.811C43.9676 128.809 43.9221 128.791 43.8865 128.76C43.8539 128.725 43.8359 128.679 43.8359 128.631C43.8359 128.583 43.8539 128.538 43.8865 128.503L44.9922 127.363C45.009 127.346 45.0289 127.332 45.051 127.323C45.0731 127.313 45.0969 127.309 45.1208 127.309C45.1448 127.309 45.1684 127.313 45.1905 127.323C45.2126 127.332 45.2326 127.346 45.2494 127.363C45.2819 127.398 45.3 127.443 45.3 127.491C45.3 127.539 45.2819 127.585 45.2494 127.62L44.1437 128.768C44.1263 128.784 44.1059 128.796 44.0838 128.803C44.0617 128.81 44.0383 128.813 44.0151 128.811Z" fill="black"/>
<path d="M25.5859 103.097C31.5286 104.489 37.7751 103.66 43.1488 100.766C43.2063 100.732 43.2737 100.718 43.3398 100.728C43.4059 100.738 43.4667 100.77 43.5119 100.819C43.5571 100.868 43.584 100.932 43.5881 100.998C43.5923 101.065 43.5734 101.131 43.5346 101.186C42.5646 102.536 41.748 103.991 41.1002 105.523C40.2431 107.794 38.5288 119.546 37.9117 123.197C37.8995 123.275 37.904 123.355 37.9248 123.431C37.9457 123.507 37.9825 123.577 38.0327 123.638C38.0829 123.699 38.1455 123.748 38.2162 123.783C38.287 123.818 38.3643 123.837 38.4431 123.84L41.9231 123.96C42.0313 123.962 42.1377 123.933 42.2302 123.877C42.3227 123.821 42.3975 123.739 42.446 123.643C43.6974 121.028 52.6374 100.5 52.3289 96.6599C51.986 92.5113 46.5174 92.7256 44.5374 92.597C42.5574 92.4685 26.2031 92.8456 26.2031 92.8456L25.5859 103.097Z" fill="#0066EE"/>
<path d="M1.80078 97.6453C2.08364 97.311 2.44363 96.9253 2.76078 96.6168C3.39561 95.6484 3.9682 94.6407 4.47506 93.5996L6.83221 94.2596C6.83221 94.2596 5.72649 96.1882 5.97506 97.1482C6.1923 97.856 6.22762 98.6072 6.07781 99.3322C5.928 100.057 5.59788 100.733 5.11792 101.297C4.95125 101.43 4.73861 101.492 4.52654 101.468C4.18368 101.391 4.17504 100.92 4.34647 100.611L4.81794 99.7539C4.82871 99.7366 4.83403 99.7164 4.83332 99.6961C4.83261 99.6757 4.82591 99.6559 4.81396 99.6394C4.80202 99.6229 4.78538 99.6102 4.76625 99.6032C4.74712 99.5961 4.72634 99.5948 4.70651 99.5996C3.92131 99.7621 3.22813 100.219 2.76936 100.877C2.14364 101.648 0.900852 103.371 0.480852 103.088C-0.222005 102.565 0.266495 99.4796 1.80078 97.6453Z" fill="white"/>
<path d="M0.626315 103.286C0.553385 103.286 0.481937 103.265 0.420609 103.226C0.30394 103.123 0.208953 102.998 0.141243 102.859C0.073532 102.719 0.0344972 102.567 0.0263571 102.412C-0.0383657 100.641 0.543495 98.9074 1.66342 97.5345C1.94628 97.2002 2.30629 96.8059 2.632 96.4888C3.26789 95.5359 3.84055 94.5423 4.34629 93.5145C4.36616 93.4769 4.39821 93.4471 4.43711 93.43C4.476 93.4129 4.51945 93.4094 4.56057 93.4202L6.90924 94.0887C6.93633 94.0943 6.96149 94.1066 6.98248 94.1246C7.00348 94.1426 7.01952 94.1657 7.02915 94.1916C7.04195 94.2168 7.04861 94.2447 7.04861 94.273C7.04861 94.3013 7.04195 94.3292 7.02915 94.3545C6.73772 94.8687 6.00915 96.3687 6.172 97.0973C6.3798 97.8323 6.40488 98.607 6.24504 99.3539C6.0852 100.101 5.74532 100.797 5.25491 101.383C5.15074 101.472 5.02888 101.538 4.89738 101.576C4.76588 101.615 4.62772 101.625 4.49204 101.606C4.41121 101.586 4.33607 101.548 4.27221 101.494C4.20835 101.441 4.15751 101.373 4.12353 101.297C4.07375 101.165 4.05401 101.023 4.06587 100.882C4.07773 100.742 4.12086 100.605 4.19206 100.483L4.58631 99.7545C3.89887 99.9464 3.29541 100.363 2.87203 100.937L2.55489 101.332C1.76632 102.48 1.09774 103.286 0.626315 103.286ZM4.60347 93.8144C4.10324 94.8315 3.53032 95.8112 2.88918 96.7459C2.57204 97.0545 2.21206 97.4487 1.94635 97.7659C0.896159 99.0629 0.342959 100.692 0.38629 102.36C0.39362 102.572 0.479145 102.773 0.626315 102.926C0.89203 102.994 1.95489 101.657 2.3406 101.152L2.65774 100.749C3.14765 100.055 3.88316 99.5741 4.7149 99.403C4.76727 99.3954 4.82075 99.4026 4.86924 99.4238C4.91772 99.445 4.95923 99.4794 4.98914 99.523C5.01828 99.5676 5.03382 99.6198 5.03382 99.673C5.03382 99.7263 5.01828 99.7784 4.98914 99.823L4.51778 100.68C4.47645 100.755 4.45054 100.838 4.44171 100.924C4.43288 101.009 4.44125 101.095 4.4663 101.177C4.47716 101.202 4.49363 101.225 4.51443 101.243C4.53522 101.26 4.5598 101.273 4.58631 101.28C4.73671 101.285 4.88448 101.24 5.0063 101.152C5.4675 100.612 5.78728 99.9654 5.9369 99.2712C6.08651 98.577 6.06127 97.8565 5.86345 97.1745C5.63202 96.3173 6.32629 94.8945 6.60058 94.363L4.60347 93.8144Z" fill="black"/>
<path d="M58.2351 68.0308L56.718 65.4594C56.5508 65.2507 56.3136 65.1096 56.0504 65.0623C55.7873 65.0151 55.5159 65.0648 55.2865 65.2022C46.7151 71.6051 37.5437 68.9994 36.1294 68.6308C33.495 67.9803 30.801 67.6012 28.0894 67.4994C24.0437 67.2594 18.2151 69.5994 14.298 73.4994C11.178 76.6194 5.85512 86.7336 3.44655 93.7622C3.39706 93.9052 3.40101 94.0613 3.45774 94.2015C3.51447 94.3418 3.62014 94.4567 3.7551 94.5251L6.1722 95.7765C6.32005 95.8557 6.4933 95.8731 6.65393 95.8249C6.81455 95.7767 6.94949 95.6668 7.02934 95.5194C8.25506 93.1965 13.5951 83.5708 19.1751 80.3994C19.5865 80.1594 20.2037 80.3994 20.178 80.8794C20.1094 82.3622 19.1923 87.8479 18.9094 92.9222C18.8914 93.2464 18.9918 93.566 19.1922 93.8215C19.3925 94.077 19.6788 94.2509 19.9979 94.3108L22.4409 94.7651C25.7824 95.4528 29.2495 95.1945 32.4522 94.0194C32.6988 93.906 32.9093 93.7268 33.0606 93.5014C33.2118 93.2761 33.2979 93.0134 33.3094 92.7422C33.4465 91.8079 35.3408 84.2737 38.7865 79.2937C38.9895 78.9795 39.262 78.7164 39.5831 78.5246C39.9042 78.3328 40.2652 78.2176 40.638 78.1879C43.7151 78.0079 52.4665 76.7737 58.1837 68.7594C58.2556 68.6532 58.2982 68.5299 58.3072 68.402C58.3163 68.2741 58.2914 68.146 58.2351 68.0308Z" fill="white"/>
<path d="M6.45433 96.112C6.32597 96.1085 6.19996 96.0763 6.08572 96.0177L3.66862 94.7662C3.49461 94.6776 3.35872 94.5288 3.28619 94.3475C3.21367 94.1662 3.20937 93.9647 3.27426 93.7805C5.75998 86.5291 11.16 76.4577 14.1686 73.4491C17.94 69.6691 23.8029 67.1234 28.0972 67.3805C30.821 67.478 33.5271 67.8601 36.1714 68.5205L36.3686 68.5634C43.3115 70.2777 49.8172 69.0862 55.1743 65.092C55.3113 65.0001 55.4657 64.9375 55.6279 64.908C55.7901 64.8785 55.9566 64.8828 56.1171 64.9205C56.2692 64.9441 56.4147 64.9989 56.5446 65.0816C56.6744 65.1642 56.7857 65.2728 56.8714 65.4005L58.3886 67.9719C58.49 68.1163 58.5445 68.2884 58.5445 68.4648C58.5445 68.6412 58.49 68.8133 58.3886 68.9577C52.7057 76.9291 44.1343 78.2577 40.7057 78.4548C40.3603 78.4835 40.0261 78.5912 39.7289 78.7695C39.4317 78.9479 39.1793 79.1921 38.9914 79.4834C35.7086 84.2234 33.7286 91.6291 33.5486 92.8548C33.5332 93.1625 33.4307 93.4596 33.2532 93.7115C33.0757 93.9633 32.8304 94.1597 32.5457 94.2777C29.3104 95.4665 25.8073 95.7278 22.4315 95.0319L19.9971 94.5777C19.6349 94.5095 19.31 94.3119 19.0829 94.0217C18.8557 93.7314 18.742 93.3685 18.7629 93.0005C18.9429 89.7348 19.38 86.3405 19.6971 83.872C19.8686 82.5348 20.0057 81.4805 20.0314 80.9577C20.0329 80.8968 20.0177 80.8367 19.9875 80.7838C19.9573 80.7309 19.9132 80.6873 19.8601 80.6577C19.7751 80.6096 19.6791 80.5843 19.5814 80.5843C19.4838 80.5843 19.3879 80.6096 19.3029 80.6577C13.86 83.752 8.67435 92.9577 7.2172 95.7091C7.13701 95.8377 7.02414 95.9427 6.89013 96.0135C6.75612 96.0843 6.60575 96.1182 6.45433 96.112ZM27.4801 67.7234C23.3401 67.7234 17.9571 70.1748 14.4257 73.7234C11.4428 76.7062 6.09428 86.7005 3.61714 93.9177C3.58051 94.0183 3.58214 94.1289 3.62164 94.2284C3.66114 94.3279 3.73577 94.4095 3.83143 94.4577L6.25721 95.7177C6.36223 95.7697 6.48325 95.7791 6.59506 95.744C6.70688 95.7089 6.8008 95.6318 6.85717 95.5291C8.32288 92.7605 13.5515 83.4777 19.08 80.332C19.2213 80.2523 19.3808 80.2105 19.5429 80.2105C19.7051 80.2105 19.8644 80.2523 20.0057 80.332C20.1151 80.3951 20.2054 80.4865 20.2673 80.5966C20.3291 80.7067 20.3602 80.8314 20.3572 80.9577C20.3572 81.4977 20.1943 82.552 20.0143 83.8977C19.6971 86.3662 19.26 89.7434 19.08 93.0005C19.063 93.2813 19.1495 93.5586 19.3233 93.7797C19.4971 94.0009 19.746 94.1507 20.0229 94.2005L22.4657 94.6548C25.7754 95.3406 29.211 95.0852 32.3829 93.9177C32.6022 93.818 32.7896 93.6595 32.9243 93.4598C33.0589 93.2601 33.1356 93.0269 33.1458 92.7862C33.2658 91.9291 35.1086 84.3691 38.6486 79.2605C38.8679 78.9229 39.1623 78.6405 39.5087 78.4353C39.8552 78.2301 40.2443 78.1077 40.6458 78.0777C44.0143 77.8805 52.4571 76.5691 58.0457 68.7348C58.1022 68.6465 58.1322 68.5439 58.1322 68.4391C58.1322 68.3343 58.1022 68.2317 58.0457 68.1434L56.52 65.572C56.4602 65.4897 56.3847 65.4201 56.2979 65.3672C56.2112 65.3142 56.1148 65.279 56.0143 65.2634C55.903 65.2355 55.7873 65.2302 55.6739 65.2479C55.5606 65.2655 55.4518 65.3058 55.3543 65.3662C52.6411 67.3554 49.514 68.7068 46.206 69.3197C42.898 69.9327 39.4944 69.7913 36.2486 68.9062L36.0515 68.8548C33.4283 68.2081 30.7456 67.8319 28.0457 67.7319C27.8829 67.7319 27.6772 67.7234 27.4801 67.7234Z" fill="black"/>
<path d="M56.1439 66.2667C56.1265 66.1728 56.134 66.0759 56.1656 65.9857C56.1972 65.8955 56.2517 65.8151 56.3239 65.7525L57.3268 64.8953C58.1839 64.1582 59.2211 62.6925 60.1382 62.2553C61.0554 61.8182 64.381 60.541 64.9125 60.7896C65.4439 61.0382 65.1782 61.6896 64.424 62.0496C63.6697 62.4096 62.7097 62.7867 62.7097 62.7867C62.9079 62.7953 63.1005 62.8551 63.2687 62.9603C63.437 63.0654 63.5751 63.2123 63.6697 63.3867C64.0725 64.021 63.5068 64.2439 63.7468 64.5953C63.8823 64.7425 63.9575 64.9352 63.9575 65.1353C63.9575 65.3354 63.8823 65.5281 63.7468 65.6753C63.1982 66.1382 62.5296 65.2125 62.0325 66.1725C61.6896 66.8325 60.8753 67.2696 59.221 67.5867C58.7801 67.6712 58.3587 67.8369 57.9782 68.0753C57.8997 68.1239 57.8091 68.1496 57.7167 68.1496C57.6244 68.1496 57.5339 68.1239 57.4554 68.0753C57.1148 67.8919 56.8201 67.634 56.593 67.3209C56.3659 67.0077 56.2124 66.6474 56.1439 66.2667Z" fill="white"/>
<path d="M57.6429 68.3315C57.5264 68.3285 57.4121 68.2992 57.3086 68.2458C56.9511 68.043 56.6442 67.7618 56.4111 67.4233C56.178 67.0848 56.0248 66.6978 55.9629 66.2915C55.9426 66.1675 55.954 66.0405 55.996 65.9221C56.0379 65.8037 56.109 65.6979 56.2028 65.6143L57.2057 64.7572C57.5474 64.4446 57.8708 64.1126 58.1743 63.7629C58.701 63.1037 59.3358 62.5385 60.0515 62.0915C60.4458 61.9029 64.3371 60.2658 64.9971 60.6258C65.1072 60.6768 65.2009 60.7577 65.2676 60.8591C65.3342 60.9606 65.3712 61.0787 65.3743 61.2C65.3333 61.4293 65.2324 61.6435 65.0819 61.8212C64.9313 61.9988 64.7365 62.1335 64.5172 62.2115C64.1057 62.4172 63.66 62.6143 63.2658 62.7601C63.4892 62.8899 63.6774 63.0723 63.8142 63.2915C63.9101 63.4303 63.9691 63.5913 63.9856 63.7593C64.0021 63.9272 63.9757 64.0966 63.9086 64.2515C63.8486 64.4058 63.8486 64.44 63.9086 64.4829C64.0656 64.6716 64.147 64.9118 64.1376 65.157C64.1281 65.4023 64.0282 65.6354 63.8571 65.8115C63.735 65.8999 63.5934 65.9577 63.4443 65.9801C63.2951 66.0025 63.1427 65.9887 63 65.94C62.6571 65.8715 62.4514 65.8286 62.2285 66.2572C61.8514 66.9943 60.9686 67.44 59.2886 67.7658C58.8689 67.845 58.4678 68.002 58.1057 68.2286C57.9692 68.3183 57.8045 68.3549 57.6429 68.3315ZM56.3228 66.2315C56.3736 66.5872 56.5051 66.9265 56.7071 67.2237C56.9092 67.5208 57.1764 67.7678 57.4885 67.9458C57.5393 67.9751 57.597 67.9906 57.6557 67.9906C57.7144 67.9906 57.772 67.9751 57.8228 67.9458C58.2242 67.6942 58.6689 67.5198 59.1343 67.4315C60.6943 67.1315 61.5 66.7372 61.8171 66.1115C61.8614 66.0016 61.9269 65.9015 62.01 65.817C62.093 65.7325 62.192 65.6652 62.3011 65.619C62.4102 65.5729 62.5272 65.5487 62.6457 65.5479C62.7642 65.547 62.8817 65.5696 62.9914 65.6143C63.2486 65.6658 63.42 65.6915 63.5743 65.5543C63.6874 65.4403 63.7508 65.2863 63.7508 65.1258C63.7508 64.9652 63.6874 64.8112 63.5743 64.6972C63.5203 64.6112 63.4917 64.5116 63.4917 64.41C63.4917 64.3085 63.5203 64.2089 63.5743 64.1229C63.6228 64.0202 63.6427 63.9063 63.6322 63.7933C63.6216 63.6802 63.5809 63.572 63.5143 63.48C63.4365 63.3326 63.3225 63.2073 63.1831 63.1158C63.0437 63.0244 62.8834 62.9698 62.7172 62.9572C62.6738 62.9583 62.6313 62.9444 62.597 62.9179C62.5626 62.8914 62.5384 62.8538 62.5285 62.8115C62.5218 62.7686 62.5301 62.7248 62.552 62.6873C62.5738 62.6498 62.6079 62.621 62.6485 62.6058C62.6485 62.6058 63.6257 62.2372 64.3628 61.8772C64.8171 61.6629 65.0228 61.3715 65.0228 61.1829C65.0228 61.1829 65.0229 61.0372 64.8429 60.9429C64.4572 60.7372 61.4143 61.8 60.2314 62.4086C59.5569 62.8396 58.9575 63.3781 58.4571 64.0029C58.1057 64.3886 57.7715 64.7486 57.4629 65.0229L56.46 65.8801C56.4061 65.9195 56.3646 65.9736 56.3403 66.0358C56.316 66.098 56.3099 66.1659 56.3228 66.2315Z" fill="black"/>
<path d="M33.9169 60.6094L29.3655 68.1522C28.8759 68.2389 28.3799 68.2848 27.8827 68.2894C27.5313 68.2894 27.1627 68.3751 26.8627 68.4265C26.8062 68.4333 26.7532 68.4575 26.711 68.4957C26.6689 68.5339 26.6398 68.5843 26.6275 68.6398C26.6153 68.6954 26.6205 68.7534 26.6427 68.8058C26.6649 68.8582 26.7028 68.9024 26.7512 68.9322L27.6084 69.4722C29.3094 70.6164 31.339 71.1705 33.3855 71.0494C33.9265 71.0211 34.4621 70.9261 34.9799 70.7665L36.6942 70.2265C36.7517 70.2085 36.802 70.1727 36.8377 70.1241C36.8734 70.0755 36.8926 70.0168 36.8926 69.9565C36.8926 69.8962 36.8734 69.8375 36.8377 69.7889C36.802 69.7404 36.7517 69.7045 36.6942 69.6865L34.4741 69.0179L36.3513 65.0408L33.9169 60.6094Z" fill="white"/>
<path d="M32.7605 71.2554C30.8742 71.2381 29.0337 70.6723 27.4634 69.6269L26.6063 69.0869C26.5301 69.0349 26.4708 68.9618 26.4357 68.8765C26.4007 68.7911 26.3915 68.6974 26.4092 68.6069C26.4286 68.5159 26.4749 68.4329 26.5421 68.3687C26.6094 68.3045 26.6945 68.2621 26.7862 68.2469C27.172 68.1869 27.5234 68.1355 27.8234 68.1097C28.1234 68.084 28.4319 68.0583 28.6805 68.0497C28.8556 68.0493 29.0305 68.035 29.2033 68.0069L33.7291 60.5155C33.7453 60.4891 33.768 60.4674 33.795 60.4524C33.822 60.4374 33.8525 60.4296 33.8834 60.4297C33.9166 60.4289 33.9494 60.4373 33.9781 60.4539C34.0068 60.4705 34.0304 60.4948 34.0462 60.524L36.4548 64.9555C36.4691 64.9802 36.4766 65.0083 36.4766 65.0369C36.4766 65.0655 36.4691 65.0936 36.4548 65.1183L34.7148 68.8897L36.7291 69.4983C36.8142 69.5331 36.8872 69.5924 36.9385 69.6687C36.9898 69.745 37.0171 69.8349 37.0171 69.9269C37.0171 70.0189 36.9898 70.1087 36.9385 70.1851C36.8872 70.2614 36.8142 70.3207 36.7291 70.3555L35.0148 70.904C34.4823 71.063 33.9326 71.158 33.3776 71.1869C33.1662 71.2326 32.9605 71.2554 32.7605 71.2554ZM33.9092 60.9697L29.5205 68.2383C29.4262 68.3669 29.2548 68.3755 28.732 68.4097L27.8748 68.4612C27.5834 68.4612 27.2405 68.5383 26.8634 68.5983C26.8435 68.6002 26.825 68.6089 26.8109 68.623C26.7969 68.6371 26.7881 68.6556 26.7862 68.6755C26.7751 68.6903 26.7691 68.7083 26.7691 68.7269C26.7691 68.7454 26.7751 68.7635 26.7862 68.7783L27.6434 69.3183C29.3121 70.432 31.2974 70.9735 33.3005 70.8612C33.8295 70.8311 34.3531 70.739 34.8606 70.5869L36.5749 70.0383C36.5952 70.0326 36.613 70.0201 36.6254 70.003C36.6378 69.9859 36.6442 69.9652 36.6434 69.944C36.6438 69.924 36.6372 69.9044 36.6247 69.8888C36.6121 69.8731 36.5945 69.8623 36.5749 69.8583L34.3548 69.1812C34.3299 69.1759 34.3067 69.1645 34.2873 69.148C34.2679 69.1316 34.2527 69.1106 34.2433 69.0869C34.2306 69.0632 34.224 69.0367 34.224 69.0097C34.224 68.9828 34.2306 68.9563 34.2433 68.9326L36.0776 65.0412L33.9092 60.9697Z" fill="black"/>
<path d="M35.9484 65.1952C36.1937 65.2169 36.4404 65.2169 36.6857 65.1952H37.1313C37.1313 65.1952 39.7028 64.8523 40.1228 64.2094C40.5428 63.5666 39.6599 61.2523 39.6599 61.2523C40.0628 60.9437 40.1485 60.558 40.0628 60.3952C39.9771 60.2323 39.4028 60.0694 39.2056 59.898C38.874 59.3596 38.6066 58.7842 38.4085 58.1837C38.4085 58.1837 38.0742 56.3066 35.0485 56.5466C28.1314 57.1123 33.1114 63.5066 33.1114 63.5066C33.2132 63.6325 33.322 63.7527 33.4371 63.8666L35.9484 65.1952Z" fill="white"/>
<path d="M36.463 65.4085C36.0841 65.407 35.7068 65.3581 35.34 65.2628C35.2937 65.247 35.2549 65.2146 35.2311 65.1718C35.2074 65.1291 35.2003 65.079 35.2115 65.0313C35.2272 64.9854 35.26 64.9472 35.3031 64.9249C35.3462 64.9025 35.3963 64.8977 35.4429 64.9113C35.8441 65.0235 36.2615 65.0669 36.6772 65.0399H37.123C38.0744 64.9113 39.6944 64.5513 39.9686 64.1399C40.2429 63.7285 39.8143 62.2113 39.4886 61.3456C39.4752 61.3094 39.4739 61.2699 39.4847 61.2329C39.4955 61.1958 39.5179 61.1632 39.5487 61.1399C39.6512 61.0748 39.7372 60.9867 39.7997 60.8825C39.8622 60.7784 39.8995 60.661 39.9087 60.5399L39.5401 60.3513C39.3736 60.2783 39.213 60.1923 39.06 60.0942C38.6688 59.5473 38.3785 58.9348 38.2029 58.2856C38.2029 58.2856 37.8429 56.5713 35.0401 56.7942C33.3258 56.9399 32.2458 57.4285 31.8086 58.2513C31.0629 59.657 32.2457 61.757 32.9572 63.0085L33.0172 63.1199C33.0294 63.1406 33.0372 63.1636 33.0403 63.1874C33.0435 63.2113 33.0417 63.2355 33.0353 63.2586C33.0289 63.2818 33.018 63.3035 33.0031 63.3223C32.9882 63.3412 32.9696 63.3569 32.9486 63.3685C32.9052 63.39 32.8552 63.394 32.8089 63.3797C32.7626 63.3653 32.7237 63.3337 32.7001 63.2913L32.64 63.1885C31.8943 61.8685 30.6515 59.6656 31.4829 58.0885C31.9886 57.137 33.1972 56.5799 35.0143 56.4342C37.98 56.1942 38.5029 57.9856 38.5543 58.1999C38.7255 58.7762 38.9734 59.3269 39.2915 59.837C39.4228 59.9192 39.5603 59.9908 39.7029 60.0513C39.9014 60.1193 40.0808 60.234 40.2258 60.3856C40.363 60.5999 40.2258 61.0285 39.8829 61.3713C40.0715 61.9028 40.6886 63.7456 40.2858 64.3713C39.8829 64.997 37.4401 65.3999 37.1658 65.4342H36.7029L36.463 65.4085Z" fill="black"/>
<path d="M33.6093 55.7496C34.3636 55.5953 35.2208 55.7496 35.5894 55.5867C36.1808 55.3896 36.1637 54.7296 37.0037 54.6353C37.3312 54.5719 37.6697 54.5982 37.9835 54.7113C38.2974 54.8245 38.5748 55.0203 38.7865 55.2782C38.8559 55.3754 38.9108 55.4822 38.9493 55.5953C39.1696 56.0234 39.2328 56.5152 39.1279 56.985C39.023 57.4549 38.7566 57.8731 38.3751 58.1668C38.3751 58.1668 36.1379 59.2467 35.7436 59.5553C35.4764 59.7994 35.2833 60.1137 35.1863 60.4623C35.0893 60.8109 35.0924 61.1798 35.1951 61.5268C35.2076 61.5894 35.2002 61.6545 35.1741 61.7128C35.148 61.7711 35.1044 61.8199 35.0494 61.8525C34.9847 61.8898 34.9085 61.9016 34.8356 61.8858C34.7627 61.8699 34.6984 61.8275 34.6551 61.7667C34.3723 61.3639 33.7979 60.5839 33.3093 60.7639C33.1557 60.8791 33.0359 61.0336 32.9624 61.211C32.8889 61.3885 32.8644 61.5824 32.8915 61.7726C32.9187 61.9627 32.9965 62.142 33.1167 62.2918C33.237 62.4416 33.3953 62.5563 33.5751 62.6239C33.6443 62.6485 33.7062 62.6899 33.7556 62.7443C33.8049 62.7987 33.8401 62.8644 33.8579 62.9357C33.8757 63.0069 33.8757 63.0815 33.8577 63.1527C33.8398 63.2239 33.8045 63.2896 33.7551 63.3439C33.6496 63.4607 33.5122 63.544 33.3599 63.5837C33.2075 63.6233 33.0469 63.6174 32.8979 63.5667C32.8979 63.5667 30.4893 61.8525 30.1979 59.5896C29.9065 57.3267 32.5722 55.9467 33.6093 55.7496Z" fill="black"/>
<path d="M123.619 53.7695H117.293V70.6467H123.619V53.7695Z" fill="white"/>
<path d="M123.626 70.825H117.291C117.244 70.825 117.198 70.8061 117.164 70.7723C117.13 70.7386 117.111 70.6928 117.111 70.645V53.7679C117.111 53.7202 117.13 53.6744 117.164 53.6406C117.198 53.6069 117.244 53.5879 117.291 53.5879H123.626C123.673 53.5879 123.719 53.6069 123.753 53.6406C123.787 53.6744 123.806 53.7202 123.806 53.7679V70.645C123.806 70.6928 123.787 70.7386 123.753 70.7723C123.719 70.8061 123.673 70.825 123.626 70.825ZM117.48 70.465H123.48V53.9479H117.48V70.465Z" fill="black"/>
<path d="M124.321 66.1719H116.521C115.499 66.1719 114.67 67.0008 114.67 68.0233V69.0519C114.67 70.0744 115.499 70.9033 116.521 70.9033H124.321C125.344 70.9033 126.173 70.0744 126.173 69.0519V68.0233C126.173 67.0008 125.344 66.1719 124.321 66.1719Z" fill="white"/>
<path d="M124.954 71.0836H115.894C115.521 71.0836 115.164 70.9355 114.9 70.6719C114.636 70.4083 114.488 70.0507 114.488 69.6779V67.3894C114.491 67.018 114.64 66.6627 114.903 66.4009C115.166 66.1391 115.523 65.9922 115.894 65.9922H124.954C125.138 65.9911 125.321 66.0264 125.491 66.0961C125.662 66.1658 125.817 66.2685 125.948 66.3984C126.078 66.5282 126.182 66.6826 126.253 66.8527C126.323 67.0228 126.36 67.2052 126.36 67.3894V69.6779C126.361 69.8628 126.325 70.0462 126.255 70.2172C126.185 70.3883 126.081 70.5437 125.951 70.6745C125.82 70.8052 125.664 70.9087 125.493 70.979C125.322 71.0492 125.139 71.0848 124.954 71.0836ZM115.894 66.3179C115.619 66.3179 115.355 66.4272 115.161 66.6217C114.966 66.8162 114.857 67.08 114.857 67.3551V69.6437C114.857 69.9187 114.966 70.1825 115.161 70.377C115.355 70.5715 115.619 70.6808 115.894 70.6808H124.954C125.23 70.6808 125.495 70.5718 125.69 70.3775C125.886 70.1833 125.997 69.9195 126 69.6437V67.3551C125.997 67.0792 125.886 66.8154 125.69 66.6212C125.495 66.4269 125.23 66.3179 124.954 66.3179H115.894Z" fill="black"/>
<path d="M111.31 70.1316H129.542C130.312 70.1316 131.051 70.4378 131.596 70.9827C132.141 71.5276 132.447 72.2667 132.447 73.0373V73.843H108.447V73.0288C108.447 72.2581 108.753 71.519 109.298 70.9741C109.843 70.4292 110.582 70.123 111.353 70.123L111.31 70.1316Z" fill="white"/>
<path d="M132.446 74.0312H108.446C108.398 74.0312 108.351 74.0125 108.316 73.979C108.281 73.9455 108.26 73.8997 108.258 73.8512V72.1369C108.258 71.8498 108.314 71.5656 108.424 71.3004C108.534 71.0353 108.695 70.7943 108.898 70.5913C109.101 70.3884 109.342 70.2274 109.607 70.1175C109.872 70.0077 110.156 69.9512 110.443 69.9512H130.475C131.055 69.9512 131.611 70.1814 132.02 70.5913C132.43 71.0012 132.661 71.5572 132.661 72.1369V73.8512C132.66 73.8775 132.653 73.9034 132.642 73.9271C132.63 73.9508 132.614 73.9718 132.593 73.9888C132.573 74.0057 132.55 74.0183 132.524 74.0256C132.499 74.0329 132.472 74.0348 132.446 74.0312ZM108.592 73.6712H132.258V72.1455C132.258 71.6627 132.067 71.1996 131.726 70.8575C131.386 70.5154 130.923 70.322 130.441 70.3197H110.409C109.927 70.322 109.464 70.5154 109.124 70.8575C108.783 71.1996 108.592 71.6627 108.592 72.1455V73.6712Z" fill="black"/>
<path d="M115.57 52.9456C108.614 48.9517 102.445 43.7234 97.3641 37.517C94.3298 33.7799 89.4955 26.7942 91.1755 21.9513C91.6555 20.5542 92.8898 18.797 96.0012 18.3684C98.2641 18.0599 101.324 18.4884 105.095 19.6456L104.238 22.9713C100.861 21.9341 98.2384 21.5399 96.3527 21.797C95.0755 21.9684 94.2955 22.4399 94.0298 23.1942C93.4126 24.977 94.8869 29.3827 99.6269 35.1942C104.459 41.093 110.323 46.0651 116.933 49.8684L115.57 52.9456Z" fill="white"/>
<path d="M115.569 53.1251H115.483C108.509 49.1116 102.32 43.8668 97.2177 37.6451C94.1662 33.8736 89.2977 26.8279 91.0034 21.8993C91.5005 20.4593 92.769 18.6422 95.9833 18.1965C98.2719 17.8879 101.358 18.3165 105.146 19.4822C105.191 19.4943 105.23 19.5234 105.254 19.5634C105.278 19.6034 105.285 19.6511 105.275 19.6965L104.418 23.0222C104.405 23.0714 104.374 23.1142 104.332 23.1422C104.309 23.1529 104.284 23.1584 104.259 23.1584C104.234 23.1584 104.209 23.1529 104.186 23.1422C100.835 22.1222 98.1861 21.7279 96.3776 21.9765C95.169 22.1393 94.4405 22.5679 94.2005 23.2536C93.6005 24.9679 95.0576 29.3222 99.7719 35.0908C104.587 40.9727 110.434 45.9279 117.026 49.7136C117.064 49.7368 117.093 49.7728 117.107 49.8152C117.121 49.8576 117.12 49.9036 117.103 49.945L115.706 53.0308C115.682 53.0748 115.642 53.1083 115.595 53.1251H115.569ZM97.569 18.4451C97.0647 18.4447 96.5608 18.4762 96.0604 18.5393C93.0433 18.9593 91.8433 20.6565 91.3805 21.9679C89.7347 26.7251 94.5262 33.6508 97.5348 37.3965C102.567 43.5345 108.664 48.7145 115.535 52.6879L116.778 49.9365C110.206 46.1389 104.376 41.185 99.5662 35.3136C94.8005 29.4336 93.3004 24.9593 93.9347 23.1251C94.2176 22.2679 95.049 21.7965 96.4033 21.6079C98.2547 21.3508 100.869 21.7279 104.186 22.7308L104.923 19.7565C102.536 18.9672 100.048 18.5256 97.5348 18.4451H97.569Z" fill="black"/>
<path d="M125.477 52.7581C132.337 48.747 138.407 43.5186 143.391 37.3295C146.374 33.5924 151.105 26.6067 149.477 21.7638C149.005 20.3667 147.763 18.6095 144.728 18.1809C142.5 17.8724 139.491 18.3009 135.788 19.4581L136.594 22.7838C139.92 21.7467 142.525 21.3524 144.351 21.6095C145.611 21.7809 146.383 22.2524 146.631 23.0067C147.24 24.7895 145.774 29.1952 141.128 35.0067C136.394 40.8907 130.625 45.8608 124.105 49.6724L125.477 52.7581Z" fill="white"/>
<path d="M125.478 52.9383H125.427C125.402 52.9309 125.378 52.9177 125.359 52.8999C125.34 52.882 125.325 52.86 125.315 52.8354L123.935 49.7583C123.919 49.7168 123.917 49.6708 123.932 49.6284C123.946 49.5861 123.974 49.5501 124.013 49.5269C130.514 45.7251 136.268 40.7698 140.993 34.904C145.595 29.1355 147.053 24.7983 146.461 23.0583C146.23 22.3812 145.518 21.9526 144.335 21.7897C142.535 21.5326 139.947 21.9269 136.621 22.9554C136.598 22.9656 136.573 22.9709 136.548 22.9709C136.523 22.9709 136.498 22.9656 136.475 22.9554C136.436 22.9285 136.406 22.8894 136.39 22.844L135.584 19.5183C135.573 19.4729 135.579 19.4249 135.601 19.3838C135.623 19.3426 135.66 19.3111 135.704 19.2954C139.441 18.1383 142.475 17.7012 144.73 18.0183C147.884 18.4554 149.135 20.2726 149.633 21.7212C151.347 26.6497 146.513 33.7212 143.513 37.4583C138.507 43.6727 132.406 48.919 125.513 52.9383C125.501 52.9393 125.49 52.9393 125.478 52.9383ZM124.338 49.7497L125.564 52.5012C132.337 48.5016 138.331 43.3093 143.255 37.1754C146.213 33.4726 150.927 26.5469 149.307 21.7897C148.853 20.4354 147.678 18.7383 144.704 18.3612C142.535 18.0612 139.613 18.464 136.004 19.5783L136.724 22.5526C139.99 21.5497 142.561 21.1726 144.378 21.4297C145.715 21.6097 146.53 22.124 146.813 22.9469C147.43 24.7726 145.955 29.2554 141.275 35.1269C136.557 40.9816 130.819 45.9355 124.338 49.7497Z" fill="black"/>
<path d="M120.472 55.9452C137.366 56.1338 137.546 32.1338 141.18 13.0195L99.6348 12.8652C102.995 32.5281 103.603 56.2624 120.472 55.9452Z" fill="white"/>
<path d="M120.146 56.1263C113.76 56.1263 109.166 52.6206 106.097 45.4206C103.337 38.9406 102.043 30.1206 100.8 21.5834C100.38 18.712 99.9427 15.7377 99.4541 12.892C99.4444 12.8689 99.4395 12.8442 99.4395 12.8192C99.4395 12.7942 99.4444 12.7694 99.4541 12.7463C99.4705 12.7255 99.4913 12.7085 99.515 12.6967C99.5387 12.6848 99.5647 12.6784 99.5912 12.6777L141.137 12.832C141.165 12.8314 141.193 12.8372 141.218 12.8491C141.243 12.861 141.265 12.8786 141.283 12.9006C141.293 12.9249 141.299 12.9511 141.299 12.9777C141.299 13.0043 141.293 13.0306 141.283 13.0549C140.665 16.312 140.134 19.7663 139.628 23.1092C138.386 31.2434 137.057 39.652 134.391 45.8492C131.374 52.7577 126.857 56.1349 120.591 56.1349H120.068L120.146 56.1263ZM99.8484 13.0463C100.32 15.8235 100.706 18.7292 101.16 21.532C102.403 30.0434 103.731 38.8377 106.431 45.2835C109.474 52.4235 113.837 55.7663 120.146 55.7663H120.694C126.874 55.7663 131.16 52.5606 134.16 45.6949C136.843 39.5492 138.12 31.1663 139.363 23.0577C139.86 19.7834 140.374 16.3977 140.983 13.2006L99.8484 13.0463Z" fill="black"/>
<path d="M136.081 35.1775C136.057 35.1734 136.035 35.1646 136.014 35.1515C135.994 35.1384 135.976 35.1213 135.963 35.1013C135.949 35.0813 135.94 35.0588 135.935 35.0351C135.93 35.0113 135.93 34.9869 135.935 34.9632C136.707 31.2175 137.23 27.1204 137.735 23.1604C137.924 21.6947 138.113 20.1775 138.318 18.7032C138.321 18.6795 138.329 18.6566 138.341 18.636C138.354 18.6153 138.37 18.5972 138.389 18.5829C138.408 18.5685 138.43 18.5581 138.453 18.5523C138.476 18.5465 138.5 18.5453 138.524 18.549C138.548 18.5521 138.571 18.5599 138.591 18.572C138.612 18.5841 138.63 18.6002 138.644 18.6194C138.659 18.6386 138.669 18.6604 138.675 18.6836C138.681 18.7068 138.682 18.731 138.678 18.7547C138.481 20.2289 138.284 21.7461 138.095 23.2032C137.59 27.1718 137.067 31.2775 136.295 35.0404C136.285 35.087 136.257 35.1276 136.217 35.1533C136.176 35.179 136.128 35.1877 136.081 35.1775Z" fill="black"/>
<path d="M120.859 54.8236C120.814 54.8238 120.77 54.8072 120.737 54.7771C120.704 54.747 120.683 54.7055 120.679 54.6608C120.676 54.6364 120.679 54.6119 120.686 54.5886C120.694 54.5653 120.706 54.5438 120.722 54.5253C120.738 54.5069 120.758 54.4919 120.78 54.4813C120.802 54.4707 120.826 54.4647 120.85 54.4636C127.021 53.9236 131.136 49.5522 133.853 40.6979C133.869 40.652 133.901 40.6138 133.945 40.5915C133.988 40.5691 134.038 40.5643 134.084 40.5779C134.129 40.5953 134.166 40.6283 134.188 40.671C134.21 40.7136 134.216 40.7628 134.204 40.8093C132.49 46.4751 129.207 54.1036 120.876 54.8236H120.859Z" fill="black"/>
<path d="M141.481 9.67773H99.7464C98.5629 9.67773 97.6035 10.6371 97.6035 11.8206V13.0034C97.6035 14.1869 98.5629 15.1463 99.7464 15.1463H141.481C142.664 15.1463 143.624 14.1869 143.624 13.0034V11.8206C143.624 10.6371 142.664 9.67773 141.481 9.67773Z" fill="white"/>
<path d="M142.14 15.3266H99.0769C98.8589 15.3277 98.6429 15.2858 98.4412 15.2032C98.2395 15.1205 98.0562 14.9988 97.9016 14.8451C97.7471 14.6914 97.6244 14.5086 97.5408 14.3074C97.4571 14.1061 97.4141 13.8903 97.4141 13.6723V11.1609C97.4141 10.7199 97.5893 10.2969 97.9011 9.98508C98.213 9.67324 98.6359 9.49805 99.0769 9.49805H142.14C142.581 9.49805 143.004 9.67324 143.316 9.98508C143.627 10.2969 143.803 10.7199 143.803 11.1609V13.6723C143.803 13.8903 143.76 14.1061 143.676 14.3074C143.592 14.5086 143.47 14.6914 143.315 14.8451C143.161 14.9988 142.977 15.1205 142.775 15.2032C142.574 15.2858 142.358 15.3277 142.14 15.3266ZM99.0769 9.86661C98.7336 9.86661 98.4044 10.003 98.1617 10.2457C97.9189 10.4884 97.7826 10.8176 97.7826 11.1609V13.6723C97.7848 14.0149 97.9219 14.3428 98.1642 14.585C98.4064 14.8273 98.7343 14.9644 99.0769 14.9666H142.14C142.483 14.9666 142.812 14.8303 143.055 14.5875C143.298 14.3448 143.434 14.0156 143.434 13.6723V11.1609C143.435 10.9906 143.402 10.8218 143.338 10.6642C143.273 10.5067 143.178 10.3636 143.057 10.2432C142.937 10.1227 142.794 10.0274 142.636 9.96281C142.479 9.89817 142.31 9.86547 142.14 9.86661H99.0769Z" fill="black"/>
<path d="M129.43 12.1206C129.383 12.1185 129.339 12.0989 129.305 12.0656C129.272 12.0323 129.252 11.9878 129.25 11.9408C129.249 11.9164 129.253 11.8921 129.261 11.8693C129.27 11.8465 129.283 11.8257 129.3 11.808C129.317 11.7904 129.337 11.7764 129.359 11.7669C129.382 11.7573 129.406 11.7524 129.43 11.7524L138.002 11.6582C138.025 11.6582 138.049 11.6629 138.07 11.6719C138.092 11.6809 138.112 11.6942 138.129 11.7109C138.146 11.7276 138.159 11.7474 138.168 11.7692C138.177 11.791 138.182 11.8144 138.182 11.838C138.182 11.8616 138.177 11.885 138.168 11.9068C138.159 11.9286 138.146 11.9485 138.129 11.9652C138.112 11.9819 138.092 11.9951 138.07 12.0041C138.049 12.0132 138.025 12.0178 138.002 12.0178L129.43 12.1206Z" fill="black"/>
<path d="M122.393 12.1969C122.345 12.1969 122.299 12.178 122.266 12.1442C122.232 12.1105 122.213 12.0648 122.213 12.0171C122.213 11.9686 122.232 11.9219 122.265 11.8868C122.299 11.8517 122.344 11.8309 122.393 11.8287L127.193 11.7773C127.24 11.7794 127.285 11.7991 127.318 11.8323C127.351 11.8656 127.371 11.9101 127.373 11.9572C127.374 11.9815 127.37 12.0058 127.362 12.0286C127.353 12.0514 127.34 12.0723 127.323 12.0899C127.306 12.1075 127.286 12.1215 127.264 12.1311C127.241 12.1406 127.217 12.1456 127.193 12.1455L122.393 12.1969Z" fill="black"/>
<path d="M20.7691 28.8006C20.7452 28.8014 20.7215 28.7973 20.6994 28.7884C20.6773 28.7796 20.6572 28.7662 20.6405 28.7492C20.6079 28.7142 20.5898 28.6683 20.5898 28.6206C20.5898 28.5729 20.6079 28.5269 20.6405 28.492C31.7233 16.6034 42.4806 11.6149 49.552 9.51487C57.2663 7.24344 62.4091 7.80058 62.4091 7.80058C62.4325 7.80265 62.4552 7.8095 62.4758 7.8207C62.4964 7.8319 62.5145 7.84721 62.5289 7.86569C62.5434 7.88417 62.554 7.90543 62.5599 7.92814C62.5658 7.95085 62.567 7.97454 62.5634 7.99773C62.5612 8.02141 62.5544 8.04443 62.5433 8.06546C62.5322 8.08649 62.517 8.1051 62.4987 8.12024C62.4804 8.13539 62.4593 8.14675 62.4366 8.15367C62.4138 8.1606 62.3899 8.16294 62.3662 8.16058C62.3148 8.16058 57.2234 7.61201 49.6291 9.87487C42.6005 11.9663 31.912 16.9292 20.8977 28.732C20.883 28.7526 20.8638 28.7696 20.8415 28.7815C20.8192 28.7934 20.7944 28.7999 20.7691 28.8006Z" fill="black"/>
<path d="M23.4174 21.3691C23.3686 21.3657 23.3228 21.3443 23.2889 21.3091C23.2564 21.2742 23.2383 21.2282 23.2383 21.1805C23.2383 21.1328 23.2564 21.0868 23.2889 21.0519C35.4089 10.2777 46.4317 6.30051 53.546 4.86051C61.2603 3.30051 66.1803 4.31193 66.2318 4.32051C66.2556 4.3246 66.2784 4.33346 66.2987 4.34655C66.3191 4.35964 66.3365 4.37669 66.3501 4.39669C66.3637 4.41669 66.3731 4.43924 66.3778 4.46296C66.3825 4.48669 66.3824 4.51112 66.3774 4.53479C66.3671 4.58363 66.3379 4.62639 66.2961 4.65371C66.2543 4.68102 66.2035 4.69065 66.1546 4.6805C66.1546 4.6805 61.2432 3.67765 53.5975 5.22908C46.5346 6.6605 35.5974 10.6119 23.5374 21.3176C23.5041 21.3474 23.4619 21.3654 23.4174 21.3691Z" fill="black"/>
<path d="M71.9315 2.19461H71.8715C71.3572 2.19461 71.0657 1.7746 70.7829 1.39746C70.5 1.02031 70.26 0.703171 69.8315 0.6346C69.4029 0.566028 68.9144 0.926036 68.4772 1.31175C68.2786 1.55798 68.0262 1.75549 67.7395 1.8892C67.4527 2.02291 67.1392 2.08926 66.8229 2.08317C66.5617 2.01766 66.3174 1.89744 66.1061 1.73047C65.8948 1.56351 65.7214 1.35358 65.5972 1.1146C65.323 0.720312 65.0829 0.386031 64.6629 0.368888C64.3024 0.40219 63.9668 0.566947 63.72 0.831752C63.5594 1.00916 63.3594 1.14652 63.1362 1.23284C62.9129 1.31917 62.6726 1.35205 62.4343 1.32888C62.2005 1.27314 61.985 1.158 61.8086 0.994598C61.683 0.859103 61.5125 0.773823 61.3287 0.754599C61.1101 0.774456 60.899 0.844307 60.7118 0.958749C60.5245 1.07319 60.3661 1.22916 60.2487 1.4146C60.2138 1.44714 60.1678 1.46523 60.1201 1.46523C60.0724 1.46523 60.0264 1.44714 59.9915 1.4146C59.9744 1.39784 59.9608 1.37784 59.9515 1.35576C59.9422 1.33368 59.9375 1.30998 59.9375 1.28604C59.9375 1.26209 59.9422 1.23838 59.9515 1.2163C59.9608 1.19422 59.9744 1.17422 59.9915 1.15746C60.1399 0.925531 60.3421 0.732784 60.5808 0.59552C60.8195 0.458256 61.0878 0.380518 61.3629 0.368888C61.6248 0.388097 61.8712 0.500621 62.0572 0.686026C62.1864 0.810664 62.3459 0.899318 62.52 0.943172C62.8972 1.02031 63.18 0.788895 63.5058 0.52318C63.8166 0.197532 64.2392 0.00155775 64.6886 -0.0253906C65.2886 -0.0253906 65.6058 0.446036 65.9144 0.883179C66.2229 1.32032 66.4458 1.62889 66.8915 1.69746C67.3372 1.76603 67.8172 1.40604 68.2458 1.02032C68.4466 0.7744 68.7005 0.577212 68.9886 0.443595C69.2766 0.309978 69.5912 0.243402 69.9087 0.248888C70.4061 0.381392 70.8311 0.704812 71.0914 1.14889C71.3486 1.49175 71.5714 1.78318 71.9486 1.80889C72.4286 1.80889 72.9943 1.30318 73.5686 0.283181C73.5802 0.262127 73.5959 0.243601 73.6147 0.228707C73.6336 0.213814 73.6553 0.202846 73.6785 0.196455C73.7016 0.190064 73.7259 0.188381 73.7497 0.191498C73.7736 0.194615 73.7965 0.202474 73.8172 0.214608C73.8383 0.226198 73.8568 0.241876 73.8717 0.260738C73.8866 0.279599 73.8976 0.301252 73.9039 0.324419C73.9103 0.347587 73.912 0.371804 73.9089 0.395634C73.9057 0.419464 73.8979 0.442429 73.8857 0.463174C73.1915 1.63746 72.5658 2.19461 71.9315 2.19461Z" fill="black"/>
<path d="M141.901 55.1752C141.855 55.1651 141.814 55.1387 141.786 55.101C141.757 55.0633 141.743 55.0166 141.747 54.9695L141.961 53.5724C141.964 53.5486 141.972 53.5258 141.984 53.5051C141.996 53.4844 142.012 53.4664 142.031 53.452C142.05 53.4376 142.072 53.4273 142.095 53.4214C142.119 53.4156 142.143 53.4145 142.167 53.4181C142.191 53.42 142.214 53.4271 142.236 53.4388C142.257 53.4505 142.276 53.4667 142.29 53.4861C142.305 53.5056 142.315 53.5279 142.32 53.5517C142.326 53.5754 142.326 53.6 142.321 53.6238L142.107 55.021C142.103 55.0447 142.096 55.0676 142.083 55.0882C142.071 55.1089 142.055 55.1269 142.036 55.1413C142.017 55.1557 141.995 55.1661 141.972 55.1719C141.949 55.1777 141.925 55.1789 141.901 55.1752Z" fill="black"/>
<path d="M141.429 58.4577C141.405 58.4557 141.381 58.4487 141.36 58.437C141.339 58.4252 141.32 58.4091 141.306 58.3896C141.291 58.3702 141.281 58.3478 141.276 58.3241C141.27 58.3004 141.27 58.2758 141.275 58.252L141.429 56.8891C141.439 56.843 141.466 56.8021 141.504 56.7738C141.541 56.7455 141.588 56.7317 141.635 56.7348C141.684 56.7432 141.727 56.7704 141.756 56.8104C141.785 56.8505 141.797 56.9003 141.789 56.9491L141.584 58.3462C141.57 58.3768 141.549 58.4033 141.522 58.4228C141.494 58.4424 141.463 58.4544 141.429 58.4577Z" fill="black"/>
<path d="M140.839 56.0303L139.442 55.8248C139.393 55.8164 139.35 55.7893 139.321 55.7492C139.292 55.7092 139.28 55.6595 139.287 55.6107C139.296 55.5644 139.322 55.5232 139.36 55.496C139.399 55.4688 139.446 55.4577 139.493 55.4652L140.89 55.6707C140.914 55.6738 140.937 55.6816 140.957 55.6937C140.978 55.7058 140.996 55.7219 141.01 55.741C141.025 55.7602 141.035 55.782 141.041 55.8052C141.047 55.8284 141.048 55.8525 141.045 55.8762C141.041 55.8999 141.033 55.9227 141.021 55.9434C141.009 55.964 140.993 55.982 140.974 55.9964C140.955 56.0108 140.933 56.0212 140.91 56.027C140.887 56.0328 140.862 56.0339 140.839 56.0303Z" fill="black"/>
<path d="M144.094 56.4761L142.697 56.2621C142.673 56.2602 142.649 56.2531 142.628 56.2414C142.607 56.2297 142.588 56.2136 142.573 56.1941C142.559 56.1747 142.548 56.1524 142.543 56.1287C142.538 56.1049 142.538 56.0804 142.543 56.0566C142.546 56.0329 142.554 56.01 142.566 55.9894C142.578 55.9687 142.594 55.9507 142.613 55.9363C142.632 55.922 142.654 55.9116 142.677 55.9058C142.701 55.9 142.725 55.8988 142.748 55.9025L144.145 56.1165C144.192 56.1249 144.234 56.1508 144.263 56.1889C144.292 56.2271 144.305 56.2746 144.3 56.322C144.291 56.3689 144.265 56.4109 144.227 56.4395C144.189 56.4681 144.141 56.4812 144.094 56.4761Z" fill="black"/>
<path d="M81.0006 5.88982C80.5847 5.88863 80.1809 5.75001 79.852 5.49552C79.4589 5.19012 79.2005 4.74341 79.1317 4.25038C79.0628 3.75735 79.189 3.25693 79.4834 2.85554C79.6274 2.66246 79.8085 2.50007 80.016 2.3779C80.2235 2.25574 80.4534 2.17625 80.692 2.14411C80.9383 2.11043 81.1888 2.12645 81.4287 2.19123C81.6687 2.25601 81.8933 2.36822 82.0892 2.52125C82.4836 2.82541 82.7437 3.27151 82.8142 3.7646C82.8846 4.25769 82.7598 4.7588 82.4663 5.16124C82.3217 5.35562 82.1394 5.51883 81.9302 5.64108C81.7211 5.76332 81.4895 5.84209 81.2492 5.87267C81.1671 5.88664 81.0838 5.89238 81.0006 5.88982ZM79.7748 3.07839C79.5364 3.40292 79.4344 3.80781 79.4904 4.20659C79.5465 4.60537 79.7563 4.96644 80.0749 5.21268C80.3889 5.45508 80.7861 5.56321 81.1797 5.51342C81.5733 5.46362 81.9311 5.25993 82.1749 4.94695C82.4124 4.62137 82.513 4.2158 82.4554 3.81696C82.3977 3.41811 82.1863 3.05766 81.8663 2.81268C81.7097 2.68813 81.5294 2.59658 81.3365 2.54355C81.1435 2.49052 80.9417 2.4771 80.7434 2.5041C80.5515 2.52938 80.3668 2.5933 80.2004 2.69201C80.0339 2.79072 79.8891 2.92216 79.7748 3.07839Z" fill="black"/>
</svg>
