<svg width="279" height="70" viewBox="0 0 279 70" fill="none" xmlns="http://www.w3.org/2000/svg">
<g clip-path="url(#clip0_527_15741)">
<path d="M15.7362 0.971436H0.0146484V29.1416H10.7053V10.676H15.7505C19.1378 10.676 20.9956 12.2338 20.9956 17.0932V25.1398C20.9956 29.9991 19.1378 31.557 15.7505 31.557H11.7486V41.2614H15.7362C26.4125 41.2614 31.6578 35.3301 31.6578 24.468V17.7078C31.6578 6.90277 26.4125 0.971436 15.7362 0.971436Z" fill="#6E6E6E"/>
<path d="M10.6906 42.0059H0V68.9183H10.6906V42.0059Z" fill="#A5A5A5"/>
<path d="M58.6418 0.971436V53.5814C58.6418 58.4408 56.5979 60.1844 53.1963 60.1844C49.7947 60.1844 47.7652 58.4408 47.7652 53.5814V0.971436H37.0889V52.8096C37.0889 63.6861 42.52 69.9604 53.0105 69.9604C63.5011 69.9604 68.9322 63.7575 68.9322 52.8096V0.971436H58.6418Z" fill="#6E6E6E"/>
<path d="M87.1834 59.1554V0.971436H76.5071V68.9171H104.749V59.1554H87.1834Z" fill="#6E6E6E"/>
<path d="M128.145 30.8709C121.156 24.7538 118.926 21.1664 118.926 16.2213C118.926 11.562 120.87 9.704 124.257 9.704C127.645 9.704 129.603 11.562 129.603 16.4071V19.9086H139.693V17.0502C139.693 6.17373 134.548 -0.100586 124.172 -0.100586C113.795 -0.100586 108.25 6.11658 108.25 16.7929C108.25 24.5536 111.109 30.0991 120.084 37.9598C127.073 44.0769 129.217 47.6643 129.217 53.2955C129.217 58.3407 127.073 60.0844 123.686 60.0844C120.298 60.0844 118.155 58.3407 118.155 53.4813V48.822H108.05V52.7095C108.05 63.5859 113.295 69.8602 123.771 69.8602C134.248 69.8602 139.893 63.6574 139.893 52.5809C139.893 44.177 137.077 38.7317 128.145 30.8709Z" fill="#6E6E6E"/>
<path d="M175.124 10.676V0.971436H146.01V68.9171H175.124V59.1554H156.687V38.2887H171.351V28.5842H156.687V10.676H175.124Z" fill="#6E6E6E"/>
<path d="M207.453 42.0059H196.777V68.9183H207.453V42.0059Z" fill="#6E6E6E"/>
<path d="M221.245 29.6145H208.982V39.319H221.245V29.6145Z" fill="#A6A6A6"/>
<path d="M196.777 0.971436V29.1416H207.453V10.6759H225.032V0.971436H196.777Z" fill="#6E6E6E"/>
<path d="M230.177 0.971436V68.9171H240.854V0.971436H230.177Z" fill="#6E6E6E"/>
<path d="M245.999 0.971436V10.676H257.161V68.9171H267.838V10.676H279.014V0.971436H245.999Z" fill="#6E6E6E"/>
</g>
<defs>
<clipPath id="clip0_527_15741">
<rect width="279" height="69.8894" fill="white"/>
</clipPath>
</defs>
</svg>
