<svg width="279" height="71" viewBox="0 0 279 71" fill="none" xmlns="http://www.w3.org/2000/svg">
<g clip-path="url(#clip0_527_15743)">
<path d="M15.7362 1.86084H0.0146484V30.031H10.7053V11.5654H15.7505C19.1378 11.5654 20.9956 13.1232 20.9956 17.9826V26.0292C20.9956 30.8886 19.1378 32.4464 15.7505 32.4464H11.7486V42.1508H15.7362C26.4125 42.1508 31.6578 36.2195 31.6578 25.3574V18.5972C31.6578 7.79218 26.4125 1.86084 15.7362 1.86084Z" fill="#00079E"/>
<path d="M10.6906 42.8953H0V69.8077H10.6906V42.8953Z" fill="#0055EC"/>
<path d="M58.6418 1.86084V54.4708C58.6418 59.3302 56.5979 61.0738 53.1963 61.0738C49.7947 61.0738 47.7652 59.3302 47.7652 54.4708V1.86084H37.0889V53.699C37.0889 64.5755 42.52 70.8498 53.0105 70.8498C63.5011 70.8498 68.9322 64.6469 68.9322 53.699V1.86084H58.6418Z" fill="#00079E"/>
<path d="M87.1834 60.0448V1.86084H76.5071V69.8065H104.749V60.0448H87.1834Z" fill="#00079E"/>
<path d="M128.145 31.7603C121.156 25.6432 118.926 22.0558 118.926 17.1107C118.926 12.4514 120.87 10.5934 124.257 10.5934C127.645 10.5934 129.603 12.4514 129.603 17.2965V20.798H139.693V17.9396C139.693 7.06314 134.548 0.788818 124.172 0.788818C113.795 0.788818 108.25 7.00598 108.25 17.6823C108.25 25.443 111.109 30.9885 120.084 38.8492C127.073 44.9663 129.217 48.5538 129.217 54.1849C129.217 59.2301 127.073 60.9738 123.686 60.9738C120.298 60.9738 118.155 59.2301 118.155 54.3707V49.7114H108.05V53.5989C108.05 64.4753 113.295 70.7496 123.771 70.7496C134.248 70.7496 139.893 64.5468 139.893 53.4703C139.893 45.0664 137.077 39.6211 128.145 31.7603Z" fill="#00079E"/>
<path d="M175.124 11.5654V1.86084H146.01V69.8065H175.124V60.0448H156.687V39.1781H171.351V29.4736H156.687V11.5654H175.124Z" fill="#00079E"/>
<path d="M207.453 42.8953H196.777V69.8077H207.453V42.8953Z" fill="#00079E"/>
<path d="M221.245 30.5039H208.982V40.2084H221.245V30.5039Z" fill="#0055EC"/>
<path d="M196.777 1.86084V30.031H207.453V11.5653H225.032V1.86084H196.777Z" fill="#00079E"/>
<path d="M230.177 1.86084V69.8065H240.854V1.86084H230.177Z" fill="#00079E"/>
<path d="M245.999 1.86084V11.5654H257.161V69.8065H267.838V11.5654H279.014V1.86084H245.999Z" fill="#00079E"/>
</g>
<defs>
<clipPath id="clip0_527_15743">
<rect width="279" height="69.8894" fill="white" transform="translate(0 0.889404)"/>
</clipPath>
</defs>
</svg>
