<svg width="378" height="70" viewBox="0 0 378 70" fill="none" xmlns="http://www.w3.org/2000/svg">
<g clip-path="url(#clip0_527_15757)">
<mask id="mask0_527_15757" style="mask-type:luminance" maskUnits="userSpaceOnUse" x="-1" y="-1" width="61" height="72">
<path d="M29.9204 15.0341V15.6447L30.1083 28.06L41.0675 26.7135L32.5976 47.403L30.0848 53.5246C30.0848 53.6028 30.0222 53.6811 29.9987 53.7594V55.0119L29.9048 55.0667V70.1357L54.0621 45.6965C57.032 42.6936 58.9561 38.8142 59.5496 34.6326C60.1432 30.451 59.3746 26.1894 57.3577 22.4786C56.697 21.2737 55.9097 20.1427 55.0093 19.1047C54.6648 18.6976 54.2891 18.3219 53.9055 17.9148C53.5219 17.5078 53.1227 17.1712 52.7078 16.8267C49.5661 14.187 45.6766 12.5976 41.5853 12.2817C37.4941 11.9658 33.4066 12.9393 29.8969 15.0654M5.63001 24.4591C2.15296 27.9611 0.121708 32.6438 -0.0596044 37.5755C-0.240917 42.5072 1.441 47.3264 4.6515 51.0744C5.00377 51.4893 5.37167 51.8572 5.76307 52.2721C6.15447 52.687 6.54589 53.0549 6.95295 53.3523C10.1137 56.008 14.0307 57.6006 18.1478 57.9041C22.2649 58.2077 26.3731 57.2066 29.8891 55.0432V53.9473L29.9673 53.7359L29.8891 48.6477L29.803 42.9098L18.8437 44.2562L27.9399 22.0402L29.7716 17.5704L29.8578 17.2729V-0.0583496L5.63001 24.4591Z" fill="white"/>
</mask>
<g mask="url(#mask0_527_15757)">
<path d="M30.1037 -30.7507L-36.7196 33.7798L27.9632 100.761L94.7865 36.2303L30.1037 -30.7507Z" fill="url(#paint0_linear_527_15757)"/>
</g>
<mask id="mask1_527_15757" style="mask-type:luminance" maskUnits="userSpaceOnUse" x="75" y="16" width="303" height="33">
<path d="M273.184 26.3839C272.963 27.0905 272.852 27.8273 272.856 28.5679C272.859 28.9452 272.888 29.3218 272.942 29.6951C272.989 30.08 273.07 30.4599 273.184 30.8302H276.778V47.6605C278.005 47.8223 279.242 47.906 280.48 47.911C281.737 47.9069 282.992 47.8233 284.238 47.6605V26.3839H273.184ZM264.699 27.1667C263.645 27.78 262.686 28.5419 261.849 29.429C261.779 29.0454 261.677 28.5209 261.528 27.8634C261.452 27.3566 261.271 26.8713 260.996 26.4387C260.495 26.3604 259.986 26.29 259.431 26.2352C258.911 26.1791 258.388 26.1503 257.865 26.149C257.294 26.149 256.769 26.149 256.299 26.2117C255.83 26.2743 255.305 26.3134 254.734 26.3995V47.7153C255.415 47.8014 256.072 47.8562 256.699 47.8797C257.325 47.9032 257.943 47.9267 258.546 47.9267C259.149 47.9267 259.783 47.9267 260.425 47.8797C261.067 47.8327 261.716 47.8014 262.358 47.7153V37.578C262.301 36.3822 262.532 35.1902 263.032 34.1023C263.406 33.3412 263.994 32.705 264.722 32.2706C265.382 31.8779 266.11 31.6124 266.867 31.4878C267.543 31.3841 268.226 31.3292 268.91 31.3234H269.795C270.235 31.3216 270.674 31.3504 271.11 31.4095C271.256 30.8975 271.355 30.3736 271.408 29.8439C271.454 29.2959 271.486 28.7871 271.486 28.3174C271.488 27.9462 271.469 27.5751 271.431 27.2058C271.401 26.8863 271.346 26.5695 271.267 26.2587C270.914 26.2117 270.484 26.1647 270.092 26.1412C269.701 26.1177 269.231 26.1256 268.722 26.1256C267.312 26.0926 265.919 26.4502 264.699 27.1589M189.55 31.4799C190.734 30.6341 192.176 30.2272 193.628 30.3292C194.965 30.2453 196.283 30.6798 197.307 31.5426C197.745 31.9516 198.096 32.4444 198.339 32.9917C198.583 33.539 198.714 34.1297 198.724 34.7286H187.882C187.989 33.4685 188.588 32.3013 189.55 31.4799ZM186.356 27.4015C185.017 28.0858 183.832 29.035 182.871 30.1915C181.91 31.3481 181.195 32.6878 180.768 34.1294C180.341 35.571 180.212 37.0843 180.388 38.5773C180.564 40.0704 181.042 41.5122 181.792 42.8149C182.904 44.5834 184.549 45.9538 186.489 46.729C189.155 47.7684 192.005 48.2506 194.865 48.1458C198.058 48.1905 201.24 47.7739 204.313 46.909C204.28 46.0669 204.116 45.2351 203.828 44.4432C203.575 43.7445 203.233 43.0814 202.81 42.4705C200.417 43.1517 197.941 43.4968 195.452 43.496C193.598 43.5764 191.752 43.1944 190.082 42.3844C189.427 42.0367 188.874 41.5235 188.478 40.8959C188.083 40.2683 187.859 39.5482 187.828 38.807H205.652C205.738 38.4065 205.801 38.0014 205.84 37.5936C205.894 37.0736 205.92 36.5509 205.918 36.028C205.945 34.2015 205.454 32.4047 204.501 30.8459C203.489 29.2599 202.044 27.9968 200.337 27.2058C198.268 26.261 196.011 25.8031 193.738 25.8672C191.192 25.7857 188.663 26.306 186.356 27.3859M215.32 27.3859C213.471 28.2636 211.914 29.655 210.834 31.3938C209.823 33.101 209.303 35.054 209.331 37.0378C209.302 39.0391 209.822 41.0099 210.834 42.7367C211.918 44.4915 213.51 45.8756 215.398 46.7055C217.821 47.7419 220.443 48.2336 223.077 48.1458C224.439 48.1458 225.739 48.0832 226.991 47.9658C228.359 47.8168 229.71 47.5336 231.023 47.1204C231.039 46.2427 230.893 45.3695 230.592 44.5449C230.329 43.8599 229.967 43.2166 229.52 42.6349C228.566 42.907 227.596 43.1188 226.615 43.269C225.69 43.3744 224.76 43.4214 223.829 43.4099C222.054 43.509 220.302 42.9704 218.889 41.8912C217.668 40.8736 217.065 39.261 217.065 37.0378C217.009 36.1713 217.13 35.3022 217.42 34.4839C217.711 33.6656 218.166 32.9151 218.756 32.2784C219.883 31.1746 221.551 30.611 223.774 30.611C224.697 30.6072 225.62 30.6569 226.537 30.7598C227.488 30.8831 228.429 31.0687 229.355 31.3156C229.812 30.6246 230.158 29.8666 230.381 29.0689C230.58 28.3815 230.688 27.6709 230.702 26.9553C229.427 26.574 228.123 26.2965 226.803 26.1256C225.449 25.9783 224.087 25.9103 222.725 25.922C220.163 25.8363 217.616 26.351 215.288 27.425M295.134 27.425C293.285 28.3028 291.728 29.6942 290.649 31.433C289.638 33.1401 289.118 35.0932 289.146 37.077C289.117 39.0782 289.637 41.0491 290.649 42.7758C291.733 44.5307 293.324 45.9147 295.213 46.7446C297.633 47.7821 300.252 48.2739 302.884 48.185C304.246 48.185 305.553 48.1224 306.798 48.0049C308.164 47.8559 309.511 47.5727 310.822 47.1595C310.842 46.2815 310.696 45.4077 310.391 44.5841C310.131 43.8975 309.769 43.2538 309.319 42.674C308.368 42.946 307.4 43.1578 306.422 43.3081C305.495 43.4137 304.561 43.4608 303.628 43.449C301.855 43.5483 300.106 43.0096 298.696 41.9304C297.475 40.9127 296.864 39.3001 296.864 37.077C296.808 36.2104 296.929 35.3414 297.219 34.523C297.51 33.7047 297.965 32.9543 298.555 32.3175C299.682 31.2138 301.358 30.6502 303.581 30.6502C304.504 30.6466 305.427 30.6963 306.344 30.7989C307.295 30.9222 308.236 31.1079 309.162 31.3547C309.616 30.6635 309.96 29.9054 310.18 29.108C310.379 28.4206 310.487 27.71 310.501 26.9945C309.237 26.6008 307.944 26.3102 306.634 26.1256C305.279 25.9781 303.918 25.9101 302.555 25.922C299.996 25.8358 297.451 26.3506 295.126 27.425M323.73 43.5116C322.943 43.4362 322.183 43.1847 321.507 42.7758C321.18 42.5614 320.918 42.2627 320.747 41.9113C320.576 41.56 320.503 41.169 320.536 40.7796C320.519 40.2736 320.66 39.7747 320.941 39.3534C321.222 38.9321 321.628 38.6096 322.102 38.4312C323.42 37.8963 324.837 37.6507 326.259 37.711C327.175 37.7163 328.091 37.7843 328.998 37.9146V43.3472L327.605 43.5351C327.07 43.6041 326.532 43.6381 325.992 43.6369C325.246 43.6315 324.501 43.5818 323.761 43.4881M320.114 26.1804C318.53 26.375 316.96 26.6757 315.417 27.0806C315.398 27.8542 315.526 28.6244 315.792 29.3507C316.09 30.0624 316.468 30.7375 316.92 31.3625C318.934 30.8177 321.009 30.5284 323.096 30.5014C324.55 30.4509 326.001 30.6522 327.386 31.0964C327.904 31.2828 328.345 31.638 328.638 32.105C328.93 32.5721 329.057 33.1239 328.998 33.6718V34.1649C327.785 34.0788 326.65 34.0397 325.562 34.0397C324.125 34.04 322.69 34.1578 321.272 34.392C319.921 34.5963 318.605 34.9835 317.358 35.5427C316.253 36.0167 315.278 36.7497 314.516 37.6798C313.758 38.6173 313.356 39.7931 313.381 40.9988C313.346 41.7688 313.466 42.5381 313.735 43.2605C314.004 43.9828 314.416 44.6434 314.947 45.2025C316.166 46.3376 317.67 47.1197 319.299 47.4648C321.411 47.9563 323.574 48.1903 325.742 48.1615C327.771 48.1782 329.799 48.0422 331.809 47.7544C333.593 47.4778 335.112 47.1882 336.365 46.8855V34.5329C336.365 31.5112 335.321 29.3168 333.233 27.9495C331.146 26.5822 328.239 25.896 324.513 25.8907C323.042 25.8966 321.573 25.9933 320.114 26.1804ZM360.271 27.6912C359.38 28.1601 358.636 28.8655 358.119 29.73C357.603 30.5945 357.334 31.5846 357.344 32.5915C357.288 33.3321 357.412 34.0751 357.707 34.7569C358.001 35.4387 358.457 36.0387 359.035 36.5055C360.439 37.4922 362.042 38.1601 363.731 38.4626L367.066 39.2062C367.82 39.3695 368.55 39.6328 369.234 39.989C369.488 40.1244 369.697 40.3302 369.836 40.5816C369.974 40.8331 370.038 41.1193 370.017 41.4059C370.018 41.6963 369.938 41.9812 369.786 42.2287C369.633 42.4761 369.416 42.6764 369.156 42.8071C368.532 43.1554 367.851 43.3912 367.144 43.5038C366.427 43.6399 365.699 43.7106 364.968 43.7152C363.864 43.716 362.762 43.627 361.673 43.449C360.538 43.2592 359.416 42.9978 358.314 42.6662C357.494 44.0257 356.961 45.539 356.749 47.1125C358.074 47.5213 359.43 47.8249 360.804 48.0206C362.271 48.1972 363.749 48.2783 365.227 48.2633C367.44 48.3144 369.647 47.9943 371.755 47.3161C373.346 46.8217 374.785 45.9299 375.935 44.725C376.878 43.7375 377.407 42.4267 377.415 41.0614C377.415 39.1123 376.82 37.7032 375.614 36.8265C374.171 35.8385 372.536 35.1638 370.816 34.846L367.755 34.1493C367.041 33.9956 366.347 33.7592 365.688 33.4448C365.454 33.3309 365.259 33.149 365.129 32.9228C364.999 32.6967 364.94 32.4367 364.96 32.1766C364.961 31.8676 365.06 31.5667 365.243 31.3176C365.426 31.0685 365.683 30.8841 365.978 30.7911C366.892 30.4683 367.859 30.3222 368.827 30.3605C369.926 30.3547 371.022 30.4596 372.1 30.6737C373.062 30.8589 374.014 31.0994 374.949 31.3938C375.365 30.7624 375.707 30.0846 375.967 29.3742C376.236 28.6577 376.417 27.9112 376.507 27.151C373.814 26.3934 371.03 26.0063 368.232 26.0003C364.877 26.0003 362.221 26.59 360.264 27.7695M242.311 20.278L232.275 30.0396L232.541 30.8615H236.033V40.49C236.033 43.0994 236.891 44.999 238.608 46.1888C240.325 47.3787 242.814 47.9632 246.076 47.9423C246.968 47.9423 247.837 47.8953 248.675 47.817C249.512 47.7388 250.35 47.6214 251.172 47.4883C251.172 47.2926 251.235 47.0969 251.25 46.8933C251.265 46.6326 251.265 46.3713 251.25 46.1105C251.243 45.6055 251.188 45.1022 251.086 44.6075C250.975 44.0478 250.796 43.5037 250.554 42.9872L249.184 43.1672C248.665 43.2382 248.142 43.2748 247.618 43.2768C246.551 43.3449 245.489 43.0706 244.589 42.494C243.892 41.9695 243.54 40.8736 243.54 39.1984V30.8224H250.037C250.139 30.4293 250.209 30.0288 250.248 29.6247C250.287 29.2554 250.305 28.8844 250.303 28.5131C250.305 28.1705 250.287 27.8281 250.248 27.4876C250.208 27.112 250.137 26.7403 250.037 26.3761H243.54V20.1606L242.311 20.278ZM106.886 18.1801C106.666 18.9995 106.558 19.8447 106.565 20.6929C106.559 21.5669 106.667 22.4378 106.886 23.284H113.273V39.0497C113.32 39.5552 113.26 40.0649 113.099 40.5461C112.937 41.0273 112.676 41.4694 112.334 41.8442C111.708 42.421 110.922 42.7948 110.079 42.9167C109.235 43.0484 108.382 43.1165 107.528 43.1202C107.042 43.123 106.557 43.0811 106.079 42.995C105.618 42.9167 105.187 42.8463 104.788 42.7915C104.214 43.9738 103.905 45.2665 103.88 46.5802C103.88 46.7994 103.88 47.0029 103.88 47.1908C103.88 47.3865 103.927 47.5822 103.966 47.7701C104.825 47.9408 105.692 48.0637 106.565 48.138C107.481 48.2241 108.24 48.2633 108.85 48.2633C110.967 48.2923 113.076 48.0155 115.113 47.4413C116.797 46.9896 118.314 46.0597 119.481 44.7641C120.603 43.4028 121.178 41.6727 121.094 39.9107V18.0705L106.886 18.1801ZM138.018 18.1801V47.7701H160.296C160.512 46.9233 160.62 46.0528 160.617 45.179C160.617 44.3312 160.509 43.4869 160.296 42.6662H145.854V34.7364H157.024C157.233 33.8885 157.341 33.0187 157.345 32.1453C157.343 31.2848 157.235 30.4278 157.024 29.5934H145.854V23.1744H159.944C160.16 22.3276 160.267 21.4571 160.265 20.5833C160.264 19.7355 160.157 18.8912 159.944 18.0705L138.018 18.1801ZM80.5756 19.777C79.4459 20.4109 78.5128 21.3439 77.879 22.4736C77.2451 23.6033 76.9349 24.8859 76.9825 26.1804C76.9268 27.5028 77.2617 28.8123 77.9454 29.9456C78.6396 30.9626 79.5829 31.7846 80.6852 32.3332C82.0204 33.013 83.4209 33.5559 84.8654 33.9536L88.1453 34.9008C89.0064 35.1513 89.8284 35.4253 90.6112 35.7227C91.3337 35.987 91.9925 36.4004 92.5447 36.9361C92.8085 37.2127 93.0138 37.5396 93.1483 37.8974C93.2828 38.2552 93.3437 38.6365 93.3275 39.0183C93.3375 39.6463 93.1585 40.2627 92.8137 40.7876C92.4689 41.3125 91.9743 41.7216 91.394 41.9617C89.7176 42.6798 87.9005 43.0089 86.0788 42.9245C84.6597 42.9338 83.2426 42.8185 81.8438 42.5801C80.4093 42.3178 78.9924 41.9675 77.601 41.5311C77.2171 42.3819 76.8774 43.252 76.5833 44.1379C76.3081 44.95 76.109 45.786 75.9884 46.635C77.2096 46.9873 78.3368 47.2847 79.4249 47.5196C80.541 47.753 81.6703 47.9177 82.8066 48.0127C83.9886 48.1067 85.3507 48.1537 86.885 48.1537C89.6361 48.2187 92.3783 47.8164 94.9949 46.9638C96.9516 46.3403 98.6968 45.1859 100.036 43.629C101.166 42.2475 101.775 40.5134 101.758 38.7287C101.838 37.217 101.453 35.7171 100.655 34.4311C99.8545 33.3189 98.7741 32.4384 97.5233 31.8792C95.9883 31.1595 94.3996 30.5601 92.7717 30.0865L89.5544 29.1394C88.842 28.9202 88.1297 28.6853 87.433 28.4192C86.803 28.2012 86.2266 27.8516 85.7421 27.3937C85.5209 27.1609 85.3498 26.8851 85.2394 26.5835C85.129 26.2819 85.0817 25.9609 85.1002 25.6402C85.0663 25.2578 85.119 24.8727 85.2546 24.5136C85.3901 24.1544 85.6049 23.8304 85.8831 23.5658C86.4702 23.09 87.1721 22.7769 87.9183 22.6577C88.7162 22.51 89.5257 22.434 90.3372 22.4307C91.9478 22.3946 93.5581 22.5205 95.1436 22.8065C96.293 23.0493 97.4295 23.3498 98.5488 23.7067C99.4329 22.2728 100.019 20.6754 100.271 19.0099C98.6159 18.5637 96.9383 18.2058 95.2454 17.9374C93.548 17.6855 91.834 17.5625 90.118 17.5695C86.1466 17.5695 82.9632 18.3027 80.5678 19.7692M165.22 17.5695V40.4509C165.22 43.1124 166.068 45.0198 167.764 46.1732C169.732 47.3994 172.024 48.0025 174.34 47.9032C175.021 47.9032 175.765 47.9032 176.571 47.817C177.267 47.7794 177.958 47.6825 178.637 47.5274C178.704 47.3359 178.741 47.1353 178.747 46.9325V46.3376C178.734 45.2135 178.533 44.0996 178.152 43.0419C177.831 43.0967 177.502 43.1359 177.158 43.1672C176.814 43.1985 176.508 43.2063 176.219 43.2063C175.266 43.2965 174.316 43.0161 173.565 42.4235C173.048 41.9147 172.782 40.8579 172.782 39.1514V17.546C170.27 17.2121 167.725 17.2121 165.212 17.546M341.813 17.546V40.4274C341.813 43.0889 342.661 44.9963 344.357 46.1497C346.325 47.3751 348.616 47.978 350.933 47.8797C351.614 47.8797 352.357 47.8797 353.163 47.7936C353.859 47.7559 354.551 47.659 355.23 47.5039C355.297 47.3125 355.334 47.1118 355.34 46.909V46.3141C355.327 45.19 355.126 44.0761 354.745 43.0185C354.424 43.0733 354.095 43.1124 353.751 43.1437C353.406 43.175 353.101 43.1829 352.811 43.1829C351.859 43.273 350.908 42.9926 350.158 42.4001C349.641 41.8912 349.375 40.8344 349.375 39.1279V17.5226C346.863 17.1886 344.317 17.1886 341.805 17.5226M277.615 17.045C276.918 17.092 276.269 17.1546 275.658 17.2329C275.445 18.1359 275.337 19.0606 275.337 19.9884C275.34 20.9186 275.448 21.8455 275.658 22.7517C276.269 22.83 276.926 22.8848 277.646 22.9161C278.367 22.9474 279.001 22.9161 279.572 22.9161C280.144 22.9161 280.84 22.9161 281.537 22.9161C282.234 22.9161 282.883 22.83 283.494 22.7517C283.603 22.2912 283.673 21.8225 283.705 21.3505C283.705 20.8808 283.76 20.4346 283.76 19.9884C283.76 19.5422 283.76 19.0647 283.705 18.6106C283.672 18.1464 283.602 17.6857 283.494 17.2329C282.883 17.1546 282.226 17.092 281.506 17.045C280.785 16.9981 280.128 16.9902 279.525 16.9902C278.922 16.9902 278.312 16.9902 277.615 17.045Z" fill="white"/>
</mask>
<g mask="url(#mask1_527_15757)">
<path d="M377.422 17.0452H75.9647V48.1538H377.422V17.0452Z" fill="url(#paint1_linear_527_15757)"/>
</g>
</g>
<defs>
<linearGradient id="paint0_linear_527_15757" x1="6.62425" y1="61.3067" x2="48.6823" y2="20.6917" gradientUnits="userSpaceOnUse">
<stop stop-color="#035292"/>
<stop offset="1" stop-color="#5CC9E4"/>
</linearGradient>
<linearGradient id="paint1_linear_527_15757" x1="76.1855" y1="31.6139" x2="377.643" y2="31.6139" gradientUnits="userSpaceOnUse">
<stop stop-color="#5CC9E4"/>
<stop offset="1" stop-color="#035292"/>
</linearGradient>
<clipPath id="clip0_527_15757">
<rect width="377.531" height="70" fill="white"/>
</clipPath>
</defs>
</svg>
