<svg width="45" height="45" viewBox="0 0 45 45" fill="none" xmlns="http://www.w3.org/2000/svg">
<path d="M33.5999 12.4125C33.4096 11.9543 33.0455 11.5903 32.5874 11.4C32.362 11.3039 32.1199 11.253 31.8749 11.25H13.1249C12.6276 11.25 12.1507 11.4475 11.7991 11.7992C11.4474 12.1508 11.2499 12.6277 11.2499 13.125C11.2499 13.6223 11.4474 14.0992 11.7991 14.4508C12.1507 14.8025 12.6276 15 13.1249 15H27.3561L11.7936 30.5438C11.6179 30.7181 11.4784 30.9254 11.3832 31.1539C11.288 31.3824 11.239 31.6275 11.239 31.875C11.239 32.1225 11.288 32.3676 11.3832 32.5961C11.4784 32.8246 11.6179 33.0319 11.7936 33.2062C11.9679 33.382 12.1753 33.5215 12.4038 33.6167C12.6323 33.7119 12.8774 33.7609 13.1249 33.7609C13.3724 33.7609 13.6175 33.7119 13.846 33.6167C14.0745 33.5215 14.2818 33.382 14.4561 33.2062L29.9999 17.6437V31.875C29.9999 32.3723 30.1974 32.8492 30.5491 33.2008C30.9007 33.5525 31.3776 33.75 31.8749 33.75C32.3722 33.75 32.8491 33.5525 33.2007 33.2008C33.5523 32.8492 33.7499 32.3723 33.7499 31.875V13.125C33.7469 12.88 33.696 12.6379 33.5999 12.4125Z" fill="white"/>
</svg>
