<svg width="37" height="40" viewBox="0 0 37 40" fill="none" xmlns="http://www.w3.org/2000/svg">
<path d="M15.904 8.6L21.824 26.68H24.096V31H17.44L16.064 26.648H8.384L7.008 31H0.448V26.68H2.656L7.2 12.92H5.28V8.6H15.904ZM12.256 14.552L9.792 22.296H14.72L12.256 14.552ZM36.2123 30.424C35.4016 30.7867 34.6656 31.032 34.0043 31.16C33.3643 31.3093 32.6283 31.384 31.7963 31.384C29.8549 31.384 28.3723 30.936 27.3483 30.04C26.3456 29.1227 25.8443 27.6613 25.8443 25.656V18.904H23.2843V14.552H25.9723L26.3243 10.52H31.5083V14.552H35.7963V18.904H31.5083V24.824C31.5083 25.4213 31.6363 25.8693 31.8923 26.168C32.1483 26.4453 32.5536 26.584 33.1083 26.584C34.0469 26.584 34.8683 26.4347 35.5723 26.136L36.2123 30.424Z" fill="white"/>
</svg>
