<svg width="871" height="30" viewBox="0 0 871 30" fill="none" xmlns="http://www.w3.org/2000/svg">
<path d="M25.08 7.176V9.864H23.04L19.296 24H15.48L12.672 12.576L9.888 24H6.048L2.352 9.864H0.312V7.176H5.088L8.088 20.088L11.136 7.176H14.184L17.256 20.112L20.256 7.176H25.08ZM37.6948 21.24V18.648H40.5268V24H26.4388V21.264H28.2148V9.888H26.4148V7.176H40.3108V12.408H37.4788V9.936H31.6708V14.112H37.2148V16.68H31.6708V21.24H37.6948ZM50.4034 24V9.888H48.6034V7.176H56.4274C59.2274 7.176 61.3874 7.92 62.9074 9.408C64.4434 10.88 65.2114 12.936 65.2114 15.576C65.2114 17.336 64.8594 18.848 64.1554 20.112C63.4514 21.376 62.4434 22.344 61.1314 23.016C59.8194 23.672 58.2594 24 56.4514 24H50.4034ZM56.2834 21.144C57.9954 21.144 59.3234 20.664 60.2674 19.704C61.2274 18.744 61.7074 17.376 61.7074 15.6C61.7074 13.856 61.2354 12.496 60.2914 11.52C59.3634 10.528 58.0194 10.032 56.2594 10.032H53.8594V21.144H56.2834ZM75.5486 24.312C72.8606 24.312 70.7726 23.56 69.2846 22.056C67.8126 20.536 67.0766 18.384 67.0766 15.6C67.0766 12.832 67.8126 10.688 69.2846 9.168C70.7566 7.632 72.8446 6.864 75.5486 6.864C78.2366 6.864 80.3166 7.624 81.7886 9.144C83.2766 10.664 84.0206 12.816 84.0206 15.6C84.0206 18.368 83.2846 20.512 81.8126 22.032C80.3406 23.552 78.2526 24.312 75.5486 24.312ZM75.5486 21.264C77.1486 21.264 78.3726 20.768 79.2206 19.776C80.0846 18.768 80.5166 17.376 80.5166 15.6C80.5166 13.824 80.0846 12.432 79.2206 11.424C78.3566 10.416 77.1326 9.912 75.5486 9.912C73.9486 9.912 72.7246 10.416 71.8766 11.424C71.0286 12.416 70.6046 13.808 70.6046 15.6C70.6046 17.376 71.0286 18.768 71.8766 19.776C72.7406 20.768 73.9646 21.264 75.5486 21.264ZM85.5482 24V21.264H87.3242V9.888H85.5242V7.176H90.2042L98.6042 18.576V9.912H96.8282V7.224C97.5322 7.192 98.3002 7.176 99.1322 7.176H103.836V9.912H102.06V21.288H103.86V24H99.2282L90.7802 12.768V21.264H92.5562V23.952L90.2522 24H85.5482ZM106.539 11.568C107.339 11.024 107.747 10.472 107.763 9.912C107.235 9.864 106.827 9.736 106.539 9.528C106.251 9.304 106.107 8.936 106.107 8.424C106.107 7.896 106.267 7.512 106.587 7.272C106.907 7.016 107.347 6.888 107.907 6.888C109.059 6.888 109.635 7.496 109.635 8.712C109.635 9.624 109.411 10.416 108.963 11.088C108.531 11.744 107.963 12.24 107.259 12.576L106.539 11.568ZM111.459 7.176H127.035V12.72H124.203V9.912H120.963V21.288H123.243V24H115.275V21.264H117.507V9.912H114.291V12.72H111.459V7.176ZM137.118 24.312C135.694 24.312 134.302 24.016 132.942 23.424L133.278 20.496C134.558 21.008 135.614 21.264 136.446 21.264C137.374 21.264 138.006 21.064 138.342 20.664C138.694 20.264 138.87 19.56 138.87 18.552V9.864H134.934V7.176H142.35V18.72C142.35 20.64 141.91 22.056 141.03 22.968C140.15 23.864 138.846 24.312 137.118 24.312ZM153.221 24.264C151.733 24.264 150.437 23.984 149.333 23.424C148.245 22.848 147.397 22.016 146.789 20.928C146.197 19.84 145.901 18.552 145.901 17.064V9.888H144.101V7.176H151.157V9.912H149.381V17.064C149.381 19.832 150.661 21.216 153.221 21.216C155.781 21.216 157.061 19.832 157.061 17.064V9.888H155.261V7.176H162.293V9.912H160.517V17.064C160.517 18.568 160.221 19.864 159.629 20.952C159.037 22.024 158.189 22.848 157.085 23.424C155.997 23.984 154.709 24.264 153.221 24.264ZM170.625 13.872C172.865 14.272 174.465 14.888 175.425 15.72C176.401 16.536 176.889 17.672 176.889 19.128C176.889 20.184 176.609 21.104 176.049 21.888C175.489 22.672 174.689 23.28 173.649 23.712C172.625 24.128 171.417 24.336 170.025 24.336C167.673 24.336 165.537 23.888 163.617 22.992V18.264H166.713V20.784C167.865 21.152 168.977 21.336 170.049 21.336C171.121 21.336 171.961 21.168 172.569 20.832C173.177 20.48 173.481 19.96 173.481 19.272C173.481 18.776 173.345 18.384 173.073 18.096C172.817 17.792 172.409 17.552 171.849 17.376C171.289 17.184 170.489 17 169.449 16.824C167.369 16.472 165.865 15.896 164.937 15.096C164.009 14.296 163.545 13.168 163.545 11.712C163.545 10.176 164.129 8.984 165.297 8.136C166.465 7.288 168.065 6.864 170.097 6.864C172.433 6.864 174.425 7.288 176.073 8.136V12.456H173.145V10.224C172.025 9.984 170.977 9.864 170.001 9.864C167.953 9.864 166.929 10.44 166.929 11.592C166.929 12.024 167.033 12.376 167.241 12.648C167.449 12.904 167.809 13.128 168.321 13.32C168.849 13.512 169.617 13.696 170.625 13.872ZM178.021 7.176H193.597V12.72H190.765V9.912H187.525V21.288H189.805V24H181.837V21.264H184.069V9.912H180.853V12.72H178.021V7.176ZM220.393 21.288H222.193V24H217.489C216.657 24 215.889 23.984 215.185 23.952V21.264H216.961V12.888L212.257 21.36H210.913L206.209 12.888V21.264H207.985V23.952C207.281 23.984 206.513 24 205.681 24H201.001V21.264H202.777V9.888H200.977V7.176H206.305L211.585 16.632L216.865 7.176H222.169V9.912H220.393V21.288ZM234.475 7.176L239.347 21.312H241.267V24H236.803L235.579 20.352H229.171L227.947 24H223.531V21.312H225.403L229.387 9.864H227.659V7.176H234.475ZM232.387 10.896L230.083 17.664H234.667L232.387 10.896ZM257.75 23.832C257.414 23.976 257.086 24.08 256.766 24.144C256.462 24.224 256.062 24.264 255.566 24.264C254.75 24.264 254.094 24.096 253.598 23.76C253.102 23.424 252.662 22.848 252.278 22.032L250.43 18.072C250.302 18.088 250.102 18.096 249.83 18.096H247.454V21.264H249.23V23.952C248.526 23.984 247.758 24 246.926 24H244.502C243.67 24 242.902 23.984 242.198 23.952V21.264H243.974V9.888H242.174V7.176H249.998C252.142 7.176 253.822 7.648 255.038 8.592C256.27 9.536 256.886 10.888 256.886 12.648C256.886 13.656 256.606 14.568 256.046 15.384C255.486 16.184 254.702 16.824 253.694 17.304L254.966 19.968C255.206 20.48 255.438 20.824 255.662 21C255.902 21.176 256.198 21.264 256.55 21.264C256.886 21.264 257.206 21.216 257.51 21.12L257.75 23.832ZM247.454 15.384H249.926C252.246 15.384 253.406 14.48 253.406 12.672C253.406 10.88 252.246 9.984 249.926 9.984H247.454V15.384ZM275.953 23.856C275.265 24.128 274.561 24.264 273.841 24.264C273.121 24.264 272.505 24.112 271.993 23.808C271.481 23.488 271.009 22.96 270.577 22.224L267.121 16.656L264.169 19.992V21.264H265.945V23.952C265.241 23.984 264.473 24 263.641 24H261.241C260.409 24 259.641 23.984 258.937 23.952V21.264H260.713V9.888H258.889V7.176H263.569C264.321 7.176 265.081 7.192 265.849 7.224V9.888H264.169V15.528L270.961 7.176H275.065V9.864H272.737L269.377 13.944L273.337 20.424C273.513 20.744 273.697 20.968 273.889 21.096C274.081 21.208 274.329 21.264 274.633 21.264C275.097 21.264 275.457 21.224 275.713 21.144L275.953 23.856ZM288.664 21.24V18.648H291.496V24H277.408V21.264H279.184V9.888H277.384V7.176H291.28V12.408H288.448V9.936H282.64V14.112H288.184V16.68H282.64V21.24H288.664ZM293.006 7.176H308.582V12.72H305.75V9.912H302.51V21.288H304.79V24H296.822V21.264H299.054V9.912H295.838V12.72H293.006V7.176ZM327.362 15.216C328.466 15.488 329.33 15.992 329.954 16.728C330.594 17.464 330.914 18.36 330.914 19.416C330.914 20.84 330.37 21.96 329.282 22.776C328.194 23.592 326.714 24 324.842 24H317.474V9.888H315.674V7.176H324.53C326.274 7.176 327.642 7.552 328.634 8.304C329.642 9.056 330.146 10.088 330.146 11.4C330.146 12.312 329.898 13.104 329.402 13.776C328.922 14.432 328.242 14.912 327.362 15.216ZM320.954 9.888V14.112H324.17C324.97 14.112 325.586 13.928 326.018 13.56C326.466 13.192 326.69 12.672 326.69 12C326.69 11.312 326.458 10.792 325.994 10.44C325.53 10.072 324.882 9.888 324.05 9.888H320.954ZM324.53 21.288C325.442 21.288 326.154 21.104 326.666 20.736C327.178 20.352 327.434 19.784 327.434 19.032C327.434 18.296 327.178 17.736 326.666 17.352C326.154 16.952 325.45 16.752 324.554 16.752H320.954V21.288H324.53ZM347.867 23.832C347.531 23.976 347.203 24.08 346.883 24.144C346.579 24.224 346.179 24.264 345.683 24.264C344.867 24.264 344.211 24.096 343.715 23.76C343.219 23.424 342.779 22.848 342.395 22.032L340.547 18.072C340.419 18.088 340.219 18.096 339.947 18.096H337.571V21.264H339.347V23.952C338.643 23.984 337.875 24 337.043 24H334.619C333.787 24 333.019 23.984 332.315 23.952V21.264H334.091V9.888H332.291V7.176H340.115C342.259 7.176 343.939 7.648 345.155 8.592C346.387 9.536 347.003 10.888 347.003 12.648C347.003 13.656 346.723 14.568 346.163 15.384C345.603 16.184 344.819 16.824 343.811 17.304L345.083 19.968C345.323 20.48 345.555 20.824 345.779 21C346.019 21.176 346.315 21.264 346.667 21.264C347.003 21.264 347.323 21.216 347.627 21.12L347.867 23.832ZM337.571 15.384H340.043C342.363 15.384 343.523 14.48 343.523 12.672C343.523 10.88 342.363 9.984 340.043 9.984H337.571V15.384ZM359.467 7.176L364.339 21.312H366.259V24H361.795L360.571 20.352H354.163L352.939 24H348.523V21.312H350.395L354.379 9.864H352.651V7.176H359.467ZM357.379 10.896L355.075 17.664H359.659L357.379 10.896ZM367.619 24V21.264H369.395V9.888H367.595V7.176H372.275L380.674 18.576V9.912H378.898V7.224C379.603 7.192 380.371 7.176 381.203 7.176H385.907V9.912H384.131V21.288H385.931V24H381.299L372.851 12.768V21.264H374.627V23.952L372.323 24H367.619ZM389.497 24V9.888H387.697V7.176H395.521C398.321 7.176 400.481 7.92 402.001 9.408C403.537 10.88 404.305 12.936 404.305 15.576C404.305 17.336 403.953 18.848 403.249 20.112C402.545 21.376 401.537 22.344 400.225 23.016C398.913 23.672 397.353 24 395.545 24H389.497ZM395.377 21.144C397.089 21.144 398.417 20.664 399.361 19.704C400.321 18.744 400.801 17.376 400.801 15.6C400.801 13.856 400.329 12.496 399.385 11.52C398.457 10.528 397.113 10.032 395.353 10.032H392.953V21.144H395.377ZM413.226 13.872C415.466 14.272 417.066 14.888 418.026 15.72C419.002 16.536 419.49 17.672 419.49 19.128C419.49 20.184 419.21 21.104 418.65 21.888C418.09 22.672 417.29 23.28 416.25 23.712C415.226 24.128 414.018 24.336 412.626 24.336C410.274 24.336 408.138 23.888 406.218 22.992V18.264H409.314V20.784C410.466 21.152 411.578 21.336 412.65 21.336C413.722 21.336 414.562 21.168 415.17 20.832C415.778 20.48 416.082 19.96 416.082 19.272C416.082 18.776 415.946 18.384 415.674 18.096C415.418 17.792 415.01 17.552 414.45 17.376C413.89 17.184 413.09 17 412.05 16.824C409.97 16.472 408.466 15.896 407.538 15.096C406.61 14.296 406.146 13.168 406.146 11.712C406.146 10.176 406.73 8.984 407.898 8.136C409.066 7.288 410.666 6.864 412.698 6.864C415.034 6.864 417.026 7.288 418.674 8.136V12.456H415.746V10.224C414.626 9.984 413.578 9.864 412.602 9.864C410.554 9.864 409.53 10.44 409.53 11.592C409.53 12.024 409.634 12.376 409.842 12.648C410.05 12.904 410.41 13.128 410.922 13.32C411.45 13.512 412.218 13.696 413.226 13.872ZM435.997 16.104V18.72H427.525V16.104H435.997ZM467.932 7.176V9.864H465.892L462.148 24H458.332L455.524 12.576L452.74 24H448.9L445.204 9.864H443.164V7.176H447.94L450.94 20.088L453.988 7.176H457.036L460.108 20.112L463.108 7.176H467.932ZM480.546 21.24V18.648H483.378V24H469.29V21.264H471.066V9.888H469.266V7.176H483.162V12.408H480.33V9.936H474.522V14.112H480.066V16.68H474.522V21.24H480.546ZM503.143 15.216C504.247 15.488 505.111 15.992 505.735 16.728C506.375 17.464 506.695 18.36 506.695 19.416C506.695 20.84 506.151 21.96 505.063 22.776C503.975 23.592 502.495 24 500.623 24H493.255V9.888H491.455V7.176H500.311C502.055 7.176 503.423 7.552 504.415 8.304C505.423 9.056 505.927 10.088 505.927 11.4C505.927 12.312 505.679 13.104 505.183 13.776C504.703 14.432 504.023 14.912 503.143 15.216ZM496.735 9.888V14.112H499.951C500.751 14.112 501.367 13.928 501.799 13.56C502.247 13.192 502.471 12.672 502.471 12C502.471 11.312 502.239 10.792 501.775 10.44C501.311 10.072 500.663 9.888 499.831 9.888H496.735ZM500.311 21.288C501.223 21.288 501.935 21.104 502.447 20.736C502.959 20.352 503.215 19.784 503.215 19.032C503.215 18.296 502.959 17.736 502.447 17.352C501.935 16.952 501.231 16.752 500.335 16.752H496.735V21.288H500.311ZM523.648 23.832C523.312 23.976 522.984 24.08 522.664 24.144C522.36 24.224 521.96 24.264 521.464 24.264C520.648 24.264 519.992 24.096 519.496 23.76C519 23.424 518.56 22.848 518.176 22.032L516.328 18.072C516.2 18.088 516 18.096 515.728 18.096H513.352V21.264H515.128V23.952C514.424 23.984 513.656 24 512.824 24H510.4C509.568 24 508.8 23.984 508.096 23.952V21.264H509.872V9.888H508.072V7.176H515.896C518.04 7.176 519.72 7.648 520.936 8.592C522.168 9.536 522.784 10.888 522.784 12.648C522.784 13.656 522.504 14.568 521.944 15.384C521.384 16.184 520.6 16.824 519.592 17.304L520.864 19.968C521.104 20.48 521.336 20.824 521.56 21C521.8 21.176 522.096 21.264 522.448 21.264C522.784 21.264 523.104 21.216 523.408 21.12L523.648 23.832ZM513.352 15.384H515.824C518.144 15.384 519.304 14.48 519.304 12.672C519.304 10.88 518.144 9.984 515.824 9.984H513.352V15.384ZM526.8 9.864H525.072V7.176H531.984V9.864H530.256V10.2L530.28 20.976V21.312H531.984V24H525.072V21.312H526.8V9.864ZM534.119 24V21.264H535.895V9.888H534.095V7.176H538.775L547.174 18.576V9.912H545.398V7.224C546.103 7.192 546.871 7.176 547.703 7.176H552.407V9.912H550.631V21.288H552.431V24H547.799L539.351 12.768V21.264H541.127V23.952L538.823 24H534.119ZM569.232 22.512C568.512 23.04 567.496 23.472 566.184 23.808C564.888 24.144 563.696 24.312 562.608 24.312C559.776 24.312 557.616 23.56 556.128 22.056C554.656 20.536 553.92 18.384 553.92 15.6C553.92 12.752 554.68 10.584 556.2 9.096C557.736 7.608 559.896 6.864 562.68 6.864C563.816 6.864 564.944 7 566.064 7.272C567.184 7.528 568.144 7.896 568.944 8.376V13.344H565.896V10.368C564.84 10.08 563.776 9.936 562.704 9.936C560.96 9.936 559.64 10.432 558.744 11.424C557.848 12.416 557.4 13.848 557.4 15.72C557.4 17.544 557.848 18.936 558.744 19.896C559.656 20.856 560.984 21.336 562.728 21.336C563.912 21.336 565.016 21.144 566.04 20.76V17.976H563.424V15.384H569.232V22.512ZM576.67 7.176H592.246V12.72H589.414V9.912H586.174V21.288H588.454V24H580.486V21.264H582.718V9.912H579.502V12.72H576.67V7.176ZM610.156 9.912V21.288H611.956V24H604.924V21.264H606.7V16.752H599.116V21.288H600.916V24H593.884V21.264H595.66V9.888H593.86V7.176H600.892V9.912H599.116V13.968H606.7V9.888H604.9V7.176H611.932V9.912H610.156ZM625.296 21.24V18.648H628.128V24H614.04V21.264H615.816V9.888H614.016V7.176H627.912V12.408H625.08V9.936H619.272V14.112H624.816V16.68H619.272V21.24H625.296ZM631.871 9.864H630.143V7.176H637.055V9.864H635.327V10.2L635.351 20.976V21.312H637.055V24H630.143V21.312H631.871V9.864ZM654.453 23.832C654.117 23.976 653.789 24.08 653.469 24.144C653.165 24.224 652.765 24.264 652.269 24.264C651.453 24.264 650.797 24.096 650.301 23.76C649.805 23.424 649.365 22.848 648.981 22.032L647.133 18.072C647.005 18.088 646.805 18.096 646.533 18.096H644.157V21.264H645.933V23.952C645.229 23.984 644.461 24 643.629 24H641.205C640.373 24 639.605 23.984 638.901 23.952V21.264H640.677V9.888H638.877V7.176H646.701C648.845 7.176 650.525 7.648 651.741 8.592C652.973 9.536 653.589 10.888 653.589 12.648C653.589 13.656 653.309 14.568 652.749 15.384C652.189 16.184 651.405 16.824 650.397 17.304L651.669 19.968C651.909 20.48 652.141 20.824 652.365 21C652.605 21.176 652.901 21.264 653.253 21.264C653.589 21.264 653.909 21.216 654.213 21.12L654.453 23.832ZM644.157 15.384H646.629C648.949 15.384 650.109 14.48 650.109 12.672C650.109 10.88 648.949 9.984 646.629 9.984H644.157V15.384ZM669.187 13.872C671.427 14.272 673.027 14.888 673.987 15.72C674.963 16.536 675.451 17.672 675.451 19.128C675.451 20.184 675.171 21.104 674.611 21.888C674.051 22.672 673.251 23.28 672.211 23.712C671.187 24.128 669.979 24.336 668.587 24.336C666.235 24.336 664.099 23.888 662.179 22.992V18.264H665.275V20.784C666.427 21.152 667.539 21.336 668.611 21.336C669.683 21.336 670.523 21.168 671.131 20.832C671.739 20.48 672.043 19.96 672.043 19.272C672.043 18.776 671.907 18.384 671.635 18.096C671.379 17.792 670.971 17.552 670.411 17.376C669.851 17.184 669.051 17 668.011 16.824C665.931 16.472 664.427 15.896 663.499 15.096C662.571 14.296 662.107 13.168 662.107 11.712C662.107 10.176 662.691 8.984 663.859 8.136C665.027 7.288 666.627 6.864 668.659 6.864C670.995 6.864 672.987 7.288 674.635 8.136V12.456H671.707V10.224C670.587 9.984 669.539 9.864 668.563 9.864C666.515 9.864 665.491 10.44 665.491 11.592C665.491 12.024 665.595 12.376 665.803 12.648C666.011 12.904 666.371 13.128 666.883 13.32C667.411 13.512 668.179 13.696 669.187 13.872ZM676.584 7.176H692.16V12.72H689.328V9.912H686.088V21.288H688.368V24H680.4V21.264H682.632V9.912H679.416V12.72H676.584V7.176ZM701.799 24.312C699.111 24.312 697.023 23.56 695.535 22.056C694.063 20.536 693.327 18.384 693.327 15.6C693.327 12.832 694.063 10.688 695.535 9.168C697.007 7.632 699.095 6.864 701.799 6.864C704.487 6.864 706.567 7.624 708.039 9.144C709.527 10.664 710.271 12.816 710.271 15.6C710.271 18.368 709.535 20.512 708.063 22.032C706.591 23.552 704.503 24.312 701.799 24.312ZM701.799 21.264C703.399 21.264 704.623 20.768 705.471 19.776C706.335 18.768 706.767 17.376 706.767 15.6C706.767 13.824 706.335 12.432 705.471 11.424C704.607 10.416 703.383 9.912 701.799 9.912C700.199 9.912 698.975 10.416 698.127 11.424C697.279 12.416 696.855 13.808 696.855 15.6C696.855 17.376 697.279 18.768 698.127 19.776C698.991 20.768 700.215 21.264 701.799 21.264ZM727.062 23.832C726.726 23.976 726.398 24.08 726.078 24.144C725.774 24.224 725.374 24.264 724.878 24.264C724.062 24.264 723.406 24.096 722.91 23.76C722.414 23.424 721.974 22.848 721.59 22.032L719.742 18.072C719.614 18.088 719.414 18.096 719.142 18.096H716.766V21.264H718.542V23.952C717.838 23.984 717.07 24 716.238 24H713.814C712.982 24 712.214 23.984 711.51 23.952V21.264H713.286V9.888H711.486V7.176H719.31C721.454 7.176 723.134 7.648 724.35 8.592C725.582 9.536 726.198 10.888 726.198 12.648C726.198 13.656 725.918 14.568 725.358 15.384C724.798 16.184 724.014 16.824 723.006 17.304L724.278 19.968C724.518 20.48 724.75 20.824 724.974 21C725.214 21.176 725.51 21.264 725.862 21.264C726.198 21.264 726.518 21.216 726.822 21.12L727.062 23.832ZM716.766 15.384H719.238C721.558 15.384 722.718 14.48 722.718 12.672C722.718 10.88 721.558 9.984 719.238 9.984H716.766V15.384ZM730.214 9.864H728.486V7.176H735.398V9.864H733.67V10.2L733.694 20.976V21.312H735.398V24H728.486V21.312H730.214V9.864ZM748.789 21.24V18.648H751.621V24H737.533V21.264H739.309V9.888H737.509V7.176H751.405V12.408H748.573V9.936H742.765V14.112H748.309V16.68H742.765V21.24H748.789ZM760.547 13.872C762.787 14.272 764.387 14.888 765.347 15.72C766.323 16.536 766.811 17.672 766.811 19.128C766.811 20.184 766.531 21.104 765.971 21.888C765.411 22.672 764.611 23.28 763.571 23.712C762.547 24.128 761.339 24.336 759.947 24.336C757.595 24.336 755.459 23.888 753.539 22.992V18.264H756.635V20.784C757.787 21.152 758.899 21.336 759.971 21.336C761.043 21.336 761.883 21.168 762.491 20.832C763.099 20.48 763.403 19.96 763.403 19.272C763.403 18.776 763.267 18.384 762.995 18.096C762.739 17.792 762.331 17.552 761.771 17.376C761.211 17.184 760.411 17 759.371 16.824C757.291 16.472 755.787 15.896 754.859 15.096C753.931 14.296 753.467 13.168 753.467 11.712C753.467 10.176 754.051 8.984 755.219 8.136C756.387 7.288 757.987 6.864 760.019 6.864C762.355 6.864 764.347 7.288 765.995 8.136V12.456H763.067V10.224C761.947 9.984 760.899 9.864 759.923 9.864C757.875 9.864 756.851 10.44 756.851 11.592C756.851 12.024 756.955 12.376 757.163 12.648C757.371 12.904 757.731 13.128 758.243 13.32C758.771 13.512 759.539 13.696 760.547 13.872ZM773.709 7.176H789.285V12.72H786.453V9.912H783.213V21.288H785.493V24H777.525V21.264H779.757V9.912H776.541V12.72H773.709V7.176ZM798.924 24.312C796.236 24.312 794.148 23.56 792.66 22.056C791.188 20.536 790.452 18.384 790.452 15.6C790.452 12.832 791.188 10.688 792.66 9.168C794.132 7.632 796.22 6.864 798.924 6.864C801.612 6.864 803.692 7.624 805.164 9.144C806.652 10.664 807.396 12.816 807.396 15.6C807.396 18.368 806.66 20.512 805.188 22.032C803.716 23.552 801.628 24.312 798.924 24.312ZM798.924 21.264C800.524 21.264 801.748 20.768 802.596 19.776C803.46 18.768 803.892 17.376 803.892 15.6C803.892 13.824 803.46 12.432 802.596 11.424C801.732 10.416 800.508 9.912 798.924 9.912C797.324 9.912 796.1 10.416 795.252 11.424C794.404 12.416 793.98 13.808 793.98 15.6C793.98 17.376 794.404 18.768 795.252 19.776C796.116 20.768 797.34 21.264 798.924 21.264ZM826.71 17.352H829.662V24H818.022C817.19 24 816.422 23.984 815.718 23.952V21.264H817.494V9.888H815.67V7.176H820.95V21.144H826.71V17.352ZM833.246 9.864H831.518V7.176H838.43V9.864H836.702V10.2L836.726 20.976V21.312H838.43V24H831.518V21.312H833.246V9.864ZM840.54 7.176H854.004V12.504H851.076V9.984H845.796V14.4H851.58V16.992H845.796V21.288H848.268V24H840.564V21.264H842.34V9.888H840.54V7.176ZM866.937 21.24V18.648H869.769V24H855.681V21.264H857.457V9.888H855.657V7.176H869.553V12.408H866.721V9.936H860.913V14.112H866.457V16.68H860.913V21.24H866.937Z" fill="#0022AA"/>
</svg>
