<svg width="652" height="30" viewBox="0 0 652 30" fill="none" xmlns="http://www.w3.org/2000/svg">
<path d="M25.08 7.176V9.864H23.04L19.296 24H15.48L12.672 12.576L9.888 24H6.048L2.352 9.864H0.312V7.176H5.088L8.088 20.088L11.136 7.176H14.184L17.256 20.112L20.256 7.176H25.08ZM27.1219 18.912C27.4259 20.624 28.5299 21.48 30.4339 21.48C31.2339 21.48 31.9619 21.4 32.6179 21.24C33.2899 21.064 33.9779 20.8 34.6819 20.448L35.3779 22.992C34.6259 23.408 33.8339 23.728 33.0019 23.952C32.1859 24.16 31.2819 24.264 30.2899 24.264C28.2739 24.264 26.6899 23.72 25.5379 22.632C24.4019 21.528 23.8339 19.944 23.8339 17.88C23.8339 15.88 24.3779 14.32 25.4659 13.2C26.5699 12.08 28.0739 11.52 29.9779 11.52C31.7379 11.52 33.1219 12.024 34.1299 13.032C35.1379 14.04 35.6419 15.408 35.6419 17.136C35.6419 17.664 35.6019 18.256 35.5219 18.912H27.1219ZM30.0019 14.232C28.3859 14.232 27.4259 15.04 27.1219 16.656H32.6899C32.5939 15.808 32.3299 15.192 31.8979 14.808C31.4659 14.424 30.8339 14.232 30.0019 14.232ZM47.2078 18.912C47.5118 20.624 48.6158 21.48 50.5198 21.48C51.3198 21.48 52.0478 21.4 52.7038 21.24C53.3758 21.064 54.0638 20.8 54.7678 20.448L55.4638 22.992C54.7118 23.408 53.9198 23.728 53.0878 23.952C52.2718 24.16 51.3678 24.264 50.3758 24.264C48.3598 24.264 46.7758 23.72 45.6238 22.632C44.4878 21.528 43.9198 19.944 43.9198 17.88C43.9198 15.88 44.4638 14.32 45.5518 13.2C46.6558 12.08 48.1598 11.52 50.0638 11.52C51.8238 11.52 53.2078 12.024 54.2158 13.032C55.2238 14.04 55.7278 15.408 55.7278 17.136C55.7278 17.664 55.6878 18.256 55.6078 18.912H47.2078ZM50.0878 14.232C48.4718 14.232 47.5118 15.04 47.2078 16.656H52.7758C52.6798 15.808 52.4158 15.192 51.9838 14.808C51.5518 14.424 50.9198 14.232 50.0878 14.232ZM72.5689 23.832C71.8329 24.12 71.1129 24.264 70.4089 24.264C69.3849 24.264 68.6249 23.984 68.1289 23.424C67.6329 22.848 67.3849 21.888 67.3849 20.544V17.04C67.3849 16.128 67.2089 15.48 66.8569 15.096C66.5049 14.696 65.9609 14.496 65.2249 14.496C64.7129 14.496 64.1769 14.624 63.6169 14.88C63.0569 15.136 62.5929 15.456 62.2249 15.84V24H58.8889V15.432C58.8889 15.08 58.8089 14.824 58.6489 14.664C58.4889 14.504 58.2329 14.424 57.8809 14.424C57.6089 14.424 57.3849 14.448 57.2089 14.496L57.0409 11.952C57.7769 11.664 58.4969 11.52 59.2009 11.52C59.8889 11.52 60.4489 11.64 60.8809 11.88C61.3289 12.12 61.6649 12.512 61.8889 13.056C62.4649 12.576 63.1209 12.2 63.8569 11.928C64.6089 11.656 65.3529 11.52 66.0889 11.52C67.7369 11.52 68.9209 11.952 69.6409 12.816C70.3609 13.664 70.7209 14.888 70.7209 16.488V20.352C70.7209 20.72 70.8009 20.984 70.9609 21.144C71.1209 21.288 71.3769 21.36 71.7289 21.36C72.0169 21.36 72.2489 21.336 72.4249 21.288L72.5689 23.832ZM80.0147 16.536C81.8067 16.792 83.1027 17.232 83.9027 17.856C84.7187 18.464 85.1267 19.312 85.1267 20.4C85.1267 21.664 84.6547 22.624 83.7107 23.28C82.7667 23.92 81.4387 24.24 79.7267 24.24C77.6307 24.24 75.8307 23.84 74.3267 23.04V19.656H77.2067L77.1827 21.24C77.8867 21.48 78.6547 21.6 79.4867 21.6C80.2867 21.6 80.8787 21.512 81.2627 21.336C81.6467 21.144 81.8387 20.848 81.8387 20.448C81.8387 20.064 81.6627 19.776 81.3107 19.584C80.9587 19.376 80.2947 19.208 79.3187 19.08C77.5107 18.856 76.2227 18.44 75.4547 17.832C74.6867 17.208 74.3027 16.328 74.3027 15.192C74.3027 14.024 74.7827 13.128 75.7427 12.504C76.7027 11.864 77.9267 11.544 79.4147 11.544C81.5107 11.544 83.2067 11.96 84.5027 12.792V15.984H81.7667L81.7907 14.472C81.1347 14.296 80.4307 14.208 79.6787 14.208C78.2387 14.208 77.5187 14.544 77.5187 15.216C77.5187 15.552 77.7027 15.824 78.0707 16.032C78.4387 16.224 79.0867 16.392 80.0147 16.536ZM101.881 23.832C101.145 24.12 100.425 24.264 99.7213 24.264C99.0333 24.264 98.4653 24.144 98.0173 23.904C97.5853 23.664 97.2573 23.272 97.0333 22.728C96.4573 23.208 95.7933 23.584 95.0413 23.856C94.3053 24.128 93.5693 24.264 92.8333 24.264C91.2173 24.264 90.0413 23.84 89.3053 22.992C88.5853 22.128 88.2253 20.872 88.2253 19.224V14.496H86.4253V11.856C86.9533 11.808 87.7533 11.784 88.8253 11.784H91.5373V18.696C91.5373 19.608 91.7133 20.272 92.0653 20.688C92.4333 21.088 92.9773 21.288 93.6973 21.288C94.2093 21.288 94.7453 21.168 95.3053 20.928C95.8813 20.672 96.3373 20.344 96.6733 19.944V14.52H94.8973V11.832C95.6013 11.8 96.3693 11.784 97.2013 11.784H100.033V20.352C100.033 20.72 100.113 20.984 100.273 21.144C100.433 21.288 100.681 21.36 101.017 21.36C101.305 21.36 101.537 21.336 101.713 21.288L101.881 23.832ZM113.756 11.952V16.632H110.948V14.4C110.26 14.4 109.692 14.52 109.244 14.76C108.812 14.984 108.428 15.336 108.092 15.816V24H104.756V15.432C104.756 15.08 104.676 14.824 104.516 14.664C104.356 14.504 104.1 14.424 103.748 14.424C103.476 14.424 103.252 14.448 103.076 14.496L102.908 11.952C103.644 11.664 104.364 11.52 105.068 11.52C106.332 11.52 107.188 11.952 107.636 12.816C108.724 11.952 109.924 11.52 111.236 11.52C112.02 11.52 112.852 11.664 113.732 11.952H113.756ZM118.036 18.912C118.34 20.624 119.444 21.48 121.348 21.48C122.148 21.48 122.876 21.4 123.532 21.24C124.204 21.064 124.892 20.8 125.596 20.448L126.292 22.992C125.54 23.408 124.748 23.728 123.916 23.952C123.1 24.16 122.196 24.264 121.204 24.264C119.188 24.264 117.604 23.72 116.452 22.632C115.316 21.528 114.748 19.944 114.748 17.88C114.748 15.88 115.292 14.32 116.38 13.2C117.484 12.08 118.988 11.52 120.892 11.52C122.652 11.52 124.036 12.024 125.044 13.032C126.052 14.04 126.556 15.408 126.556 17.136C126.556 17.664 126.516 18.256 126.436 18.912H118.036ZM120.916 14.232C119.3 14.232 118.34 15.04 118.036 16.656H123.604C123.508 15.808 123.244 15.192 122.812 14.808C122.38 14.424 121.748 14.232 120.916 14.232ZM148.01 11.784V22.128C148.01 24.304 147.514 25.952 146.522 27.072C145.546 28.208 143.962 28.776 141.77 28.776C139.834 28.776 138.074 28.352 136.49 27.504L137.162 24.912C137.802 25.232 138.49 25.472 139.226 25.632C139.962 25.808 140.69 25.896 141.41 25.896C142.482 25.896 143.29 25.672 143.834 25.224C144.378 24.776 144.65 23.944 144.65 22.728V21.84C144.106 22.24 143.498 22.552 142.826 22.776C142.154 22.984 141.482 23.088 140.81 23.088C139.13 23.088 137.938 22.648 137.234 21.768C136.546 20.888 136.202 19.608 136.202 17.928V14.496H134.402V11.856C134.93 11.808 135.73 11.784 136.802 11.784H139.514V17.4C139.514 18.36 139.682 19.056 140.018 19.488C140.37 19.92 140.954 20.136 141.77 20.136C142.218 20.136 142.714 20.008 143.258 19.752C143.818 19.496 144.282 19.192 144.65 18.84V14.52H142.874V11.832C143.578 11.8 144.346 11.784 145.178 11.784H148.01ZM156.711 24.264C154.631 24.264 153.039 23.696 151.935 22.56C150.847 21.408 150.303 19.848 150.303 17.88C150.303 15.928 150.855 14.384 151.959 13.248C153.063 12.096 154.655 11.52 156.735 11.52C158.815 11.52 160.399 12.088 161.487 13.224C162.591 14.36 163.143 15.904 163.143 17.856C163.143 19.824 162.591 21.384 161.487 22.536C160.383 23.688 158.791 24.264 156.711 24.264ZM156.735 21.36C157.727 21.36 158.479 21.048 158.991 20.424C159.519 19.784 159.783 18.936 159.783 17.88C159.783 16.84 159.519 16.008 158.991 15.384C158.463 14.744 157.703 14.424 156.711 14.424C155.719 14.424 154.959 14.736 154.431 15.36C153.919 15.984 153.663 16.816 153.663 17.856C153.663 18.912 153.927 19.76 154.455 20.4C154.983 21.04 155.743 21.36 156.735 21.36ZM179.577 23.832C178.841 24.12 178.121 24.264 177.417 24.264C176.729 24.264 176.161 24.144 175.713 23.904C175.281 23.664 174.953 23.272 174.729 22.728C174.153 23.208 173.489 23.584 172.737 23.856C172.001 24.128 171.265 24.264 170.529 24.264C168.913 24.264 167.737 23.84 167.001 22.992C166.281 22.128 165.921 20.872 165.921 19.224V14.496H164.121V11.856C164.649 11.808 165.449 11.784 166.521 11.784H169.233V18.696C169.233 19.608 169.409 20.272 169.761 20.688C170.129 21.088 170.673 21.288 171.393 21.288C171.905 21.288 172.441 21.168 173.001 20.928C173.577 20.672 174.033 20.344 174.369 19.944V14.52H172.593V11.832C173.297 11.8 174.065 11.784 174.897 11.784H177.729V20.352C177.729 20.72 177.809 20.984 177.969 21.144C178.129 21.288 178.377 21.36 178.713 21.36C179.001 21.36 179.233 21.336 179.409 21.288L179.577 23.832ZM191.451 11.952V16.632H188.643V14.4C187.955 14.4 187.387 14.52 186.939 14.76C186.507 14.984 186.123 15.336 185.787 15.816V24H182.451V15.432C182.451 15.08 182.371 14.824 182.211 14.664C182.051 14.504 181.795 14.424 181.443 14.424C181.171 14.424 180.947 14.448 180.771 14.496L180.603 11.952C181.339 11.664 182.059 11.52 182.763 11.52C184.027 11.52 184.883 11.952 185.331 12.816C186.419 11.952 187.619 11.52 188.931 11.52C189.715 11.52 190.547 11.664 191.427 11.952H191.451ZM206.844 11.616C207.916 11.616 208.876 11.864 209.724 12.36C210.572 12.84 211.236 13.56 211.716 14.52C212.196 15.464 212.436 16.608 212.436 17.952C212.436 19.264 212.204 20.408 211.74 21.384C211.292 22.344 210.644 23.08 209.796 23.592C208.948 24.104 207.964 24.36 206.844 24.36C205.5 24.36 204.308 23.92 203.268 23.04C202.948 23.664 202.452 24.112 201.78 24.384L199.716 23.544C199.924 23.192 200.068 22.84 200.148 22.488C200.228 22.12 200.268 21.696 200.268 21.216V9.864H198.804V7.272C200.052 7.208 201.652 7.176 203.604 7.176V12.696C204.596 11.976 205.676 11.616 206.844 11.616ZM206.34 21.48C207.204 21.48 207.876 21.192 208.356 20.616C208.836 20.04 209.076 19.152 209.076 17.952C209.076 16.784 208.836 15.92 208.356 15.36C207.876 14.784 207.204 14.496 206.34 14.496C205.316 14.496 204.412 14.936 203.628 15.816V20.208C203.98 20.592 204.372 20.904 204.804 21.144C205.236 21.368 205.748 21.48 206.34 21.48ZM224.545 11.952V16.632H221.737V14.4C221.049 14.4 220.481 14.52 220.033 14.76C219.601 14.984 219.217 15.336 218.881 15.816V24H215.545V15.432C215.545 15.08 215.465 14.824 215.305 14.664C215.145 14.504 214.889 14.424 214.537 14.424C214.265 14.424 214.041 14.448 213.865 14.496L213.697 11.952C214.433 11.664 215.153 11.52 215.857 11.52C217.121 11.52 217.977 11.952 218.425 12.816C219.513 11.952 220.713 11.52 222.025 11.52C222.809 11.52 223.641 11.664 224.521 11.952H224.545ZM238.767 23.832C238.031 24.12 237.311 24.264 236.607 24.264C235.919 24.264 235.343 24.136 234.879 23.88C234.431 23.624 234.103 23.208 233.895 22.632C232.711 23.72 231.279 24.264 229.599 24.264C228.399 24.264 227.415 23.936 226.647 23.28C225.895 22.608 225.519 21.688 225.519 20.52C225.519 19.24 225.951 18.288 226.815 17.664C227.679 17.04 229.039 16.728 230.895 16.728C231.535 16.728 232.431 16.776 233.583 16.872V16.512C233.583 15.008 232.831 14.256 231.327 14.256C230.559 14.256 229.855 14.4 229.215 14.688V16.152H226.383V13.008C227.855 12.016 229.575 11.52 231.543 11.52C232.967 11.52 234.071 11.728 234.855 12.144C235.639 12.544 236.175 13.104 236.463 13.824C236.767 14.544 236.919 15.432 236.919 16.488V20.352C236.919 20.72 236.999 20.984 237.159 21.144C237.319 21.288 237.575 21.36 237.927 21.36C238.215 21.36 238.447 21.336 238.623 21.288L238.767 23.832ZM228.615 20.232C228.615 20.696 228.775 21.04 229.095 21.264C229.431 21.488 229.879 21.6 230.439 21.6C230.967 21.6 231.511 21.488 232.071 21.264C232.631 21.04 233.135 20.728 233.583 20.328V18.96C232.847 18.864 232.015 18.816 231.087 18.816C229.439 18.816 228.615 19.288 228.615 20.232ZM254.983 23.832C254.247 24.12 253.527 24.264 252.823 24.264C251.799 24.264 251.039 23.984 250.543 23.424C250.047 22.848 249.799 21.888 249.799 20.544V17.04C249.799 16.128 249.623 15.48 249.271 15.096C248.919 14.696 248.375 14.496 247.639 14.496C247.127 14.496 246.591 14.624 246.031 14.88C245.471 15.136 245.007 15.456 244.639 15.84V24H241.303V15.432C241.303 15.08 241.223 14.824 241.063 14.664C240.903 14.504 240.647 14.424 240.295 14.424C240.023 14.424 239.799 14.448 239.623 14.496L239.455 11.952C240.191 11.664 240.911 11.52 241.615 11.52C242.303 11.52 242.863 11.64 243.295 11.88C243.743 12.12 244.079 12.512 244.303 13.056C244.879 12.576 245.535 12.2 246.271 11.928C247.023 11.656 247.767 11.52 248.503 11.52C250.151 11.52 251.335 11.952 252.055 12.816C252.775 13.664 253.135 14.888 253.135 16.488V20.352C253.135 20.72 253.215 20.984 253.375 21.144C253.535 21.288 253.791 21.36 254.143 21.36C254.431 21.36 254.663 21.336 254.839 21.288L254.983 23.832ZM270.094 23.832C269.358 24.12 268.638 24.264 267.934 24.264C267.278 24.264 266.734 24.152 266.302 23.928C265.87 23.688 265.534 23.32 265.294 22.824C264.206 23.784 262.966 24.264 261.574 24.264C260.454 24.264 259.47 24.008 258.622 23.496C257.774 22.984 257.118 22.248 256.654 21.288C256.206 20.312 255.982 19.168 255.982 17.856C255.982 16.512 256.222 15.368 256.702 14.424C257.182 13.464 257.846 12.744 258.694 12.264C259.542 11.768 260.502 11.52 261.574 11.52C262.79 11.52 263.902 11.904 264.91 12.672V9.6H263.446V7.176C264.71 7.112 266.31 7.08 268.246 7.08V20.352C268.246 20.72 268.326 20.984 268.486 21.144C268.646 21.288 268.902 21.36 269.254 21.36C269.542 21.36 269.774 21.336 269.95 21.288L270.094 23.832ZM262.078 21.384C262.686 21.384 263.214 21.256 263.662 21C264.126 20.728 264.542 20.384 264.91 19.968V15.84C264.542 15.408 264.134 15.064 263.686 14.808C263.238 14.536 262.702 14.4 262.078 14.4C261.214 14.4 260.542 14.688 260.062 15.264C259.582 15.824 259.342 16.688 259.342 17.856C259.342 19.056 259.582 19.944 260.062 20.52C260.542 21.096 261.214 21.384 262.078 21.384ZM293.327 23.832C292.591 24.12 291.871 24.264 291.167 24.264C290.143 24.264 289.383 23.984 288.887 23.424C288.391 22.848 288.143 21.888 288.143 20.544V17.04C288.143 16.128 287.967 15.48 287.615 15.096C287.263 14.696 286.719 14.496 285.983 14.496C285.471 14.496 284.935 14.624 284.375 14.88C283.815 15.136 283.351 15.456 282.983 15.84V24H279.647V15.432C279.647 15.08 279.567 14.824 279.407 14.664C279.247 14.504 278.991 14.424 278.639 14.424C278.367 14.424 278.143 14.448 277.967 14.496L277.799 11.952C278.535 11.664 279.255 11.52 279.959 11.52C280.647 11.52 281.207 11.64 281.639 11.88C282.087 12.12 282.423 12.512 282.647 13.056C283.223 12.576 283.879 12.2 284.615 11.928C285.367 11.656 286.111 11.52 286.847 11.52C288.495 11.52 289.679 11.952 290.399 12.816C291.119 13.664 291.479 14.888 291.479 16.488V20.352C291.479 20.72 291.559 20.984 291.719 21.144C291.879 21.288 292.135 21.36 292.487 21.36C292.775 21.36 293.007 21.336 293.183 21.288L293.327 23.832ZM300.734 24.264C298.654 24.264 297.062 23.696 295.958 22.56C294.87 21.408 294.326 19.848 294.326 17.88C294.326 15.928 294.878 14.384 295.982 13.248C297.086 12.096 298.678 11.52 300.758 11.52C302.838 11.52 304.422 12.088 305.51 13.224C306.614 14.36 307.166 15.904 307.166 17.856C307.166 19.824 306.614 21.384 305.51 22.536C304.406 23.688 302.814 24.264 300.734 24.264ZM300.758 21.36C301.75 21.36 302.502 21.048 303.014 20.424C303.542 19.784 303.806 18.936 303.806 17.88C303.806 16.84 303.542 16.008 303.014 15.384C302.486 14.744 301.726 14.424 300.734 14.424C299.742 14.424 298.982 14.736 298.454 15.36C297.942 15.984 297.686 16.816 297.686 17.856C297.686 18.912 297.95 19.76 298.478 20.4C299.006 21.04 299.766 21.36 300.758 21.36ZM317.306 23.544C316.746 23.816 316.242 24 315.794 24.096C315.346 24.208 314.834 24.264 314.258 24.264C311.522 24.264 310.154 22.928 310.154 20.256V14.472H308.09V11.784H310.226L310.442 8.688H313.49V11.784H316.922V14.472H313.49V19.752C313.49 20.312 313.594 20.72 313.802 20.976C314.026 21.232 314.394 21.36 314.906 21.36C315.146 21.36 315.442 21.328 315.794 21.264C316.146 21.2 316.482 21.096 316.802 20.952L317.306 23.544ZM331.554 24.264C329.474 24.264 327.882 23.696 326.778 22.56C325.69 21.408 325.146 19.848 325.146 17.88C325.146 15.928 325.698 14.384 326.802 13.248C327.906 12.096 329.498 11.52 331.578 11.52C333.658 11.52 335.242 12.088 336.33 13.224C337.434 14.36 337.986 15.904 337.986 17.856C337.986 19.824 337.434 21.384 336.33 22.536C335.226 23.688 333.634 24.264 331.554 24.264ZM331.578 21.36C332.57 21.36 333.322 21.048 333.834 20.424C334.362 19.784 334.626 18.936 334.626 17.88C334.626 16.84 334.362 16.008 333.834 15.384C333.306 14.744 332.546 14.424 331.554 14.424C330.562 14.424 329.802 14.736 329.274 15.36C328.762 15.984 328.506 16.816 328.506 17.856C328.506 18.912 328.77 19.76 329.298 20.4C329.826 21.04 330.586 21.36 331.578 21.36ZM354.78 23.832C354.044 24.12 353.324 24.264 352.62 24.264C351.596 24.264 350.836 23.984 350.34 23.424C349.844 22.848 349.596 21.888 349.596 20.544V17.04C349.596 16.128 349.42 15.48 349.068 15.096C348.716 14.696 348.172 14.496 347.436 14.496C346.924 14.496 346.388 14.624 345.828 14.88C345.268 15.136 344.804 15.456 344.436 15.84V24H341.1V15.432C341.1 15.08 341.02 14.824 340.86 14.664C340.7 14.504 340.444 14.424 340.092 14.424C339.82 14.424 339.596 14.448 339.42 14.496L339.252 11.952C339.988 11.664 340.708 11.52 341.412 11.52C342.1 11.52 342.66 11.64 343.092 11.88C343.54 12.12 343.876 12.512 344.1 13.056C344.676 12.576 345.332 12.2 346.068 11.928C346.82 11.656 347.564 11.52 348.3 11.52C349.948 11.52 351.132 11.952 351.852 12.816C352.572 13.664 352.932 14.888 352.932 16.488V20.352C352.932 20.72 353.012 20.984 353.172 21.144C353.332 21.288 353.588 21.36 353.94 21.36C354.228 21.36 354.46 21.336 354.636 21.288L354.78 23.832ZM361.996 23.832C361.276 24.12 360.564 24.264 359.86 24.264C358.852 24.264 358.092 23.968 357.58 23.376C357.084 22.768 356.836 21.824 356.836 20.544V9.768H355.372V7.176C356.62 7.096 358.22 7.056 360.172 7.056V20.352C360.172 20.72 360.244 20.984 360.388 21.144C360.548 21.288 360.804 21.36 361.156 21.36C361.444 21.36 361.676 21.336 361.852 21.288L361.996 23.832ZM376.408 11.784V22.128C376.408 24.304 375.912 25.952 374.92 27.072C373.944 28.208 372.36 28.776 370.168 28.776C368.232 28.776 366.472 28.352 364.888 27.504L365.56 24.912C366.2 25.232 366.888 25.472 367.624 25.632C368.36 25.808 369.088 25.896 369.808 25.896C370.88 25.896 371.688 25.672 372.232 25.224C372.776 24.776 373.048 23.944 373.048 22.728V21.84C372.504 22.24 371.896 22.552 371.224 22.776C370.552 22.984 369.88 23.088 369.208 23.088C367.528 23.088 366.336 22.648 365.632 21.768C364.944 20.888 364.6 19.608 364.6 17.928V14.496H362.8V11.856C363.328 11.808 364.128 11.784 365.2 11.784H367.912V17.4C367.912 18.36 368.08 19.056 368.416 19.488C368.768 19.92 369.352 20.136 370.168 20.136C370.616 20.136 371.112 20.008 371.656 19.752C372.216 19.496 372.68 19.192 373.048 18.84V14.52H371.272V11.832C371.976 11.8 372.744 11.784 373.576 11.784H376.408ZM391.148 16.536C392.94 16.792 394.236 17.232 395.036 17.856C395.852 18.464 396.26 19.312 396.26 20.4C396.26 21.664 395.788 22.624 394.844 23.28C393.9 23.92 392.572 24.24 390.86 24.24C388.764 24.24 386.964 23.84 385.46 23.04V19.656H388.34L388.316 21.24C389.02 21.48 389.788 21.6 390.62 21.6C391.42 21.6 392.012 21.512 392.396 21.336C392.78 21.144 392.972 20.848 392.972 20.448C392.972 20.064 392.796 19.776 392.444 19.584C392.092 19.376 391.428 19.208 390.452 19.08C388.644 18.856 387.356 18.44 386.588 17.832C385.82 17.208 385.436 16.328 385.436 15.192C385.436 14.024 385.916 13.128 386.876 12.504C387.836 11.864 389.06 11.544 390.548 11.544C392.644 11.544 394.34 11.96 395.636 12.792V15.984H392.9L392.924 14.472C392.268 14.296 391.564 14.208 390.812 14.208C389.372 14.208 388.652 14.544 388.652 15.216C388.652 15.552 388.836 15.824 389.204 16.032C389.572 16.224 390.22 16.392 391.148 16.536ZM406.462 23.544C405.902 23.816 405.398 24 404.95 24.096C404.502 24.208 403.99 24.264 403.414 24.264C400.678 24.264 399.31 22.928 399.31 20.256V14.472H397.246V11.784H399.382L399.598 8.688H402.646V11.784H406.078V14.472H402.646V19.752C402.646 20.312 402.75 20.72 402.958 20.976C403.182 21.232 403.55 21.36 404.062 21.36C404.302 21.36 404.598 21.328 404.95 21.264C405.302 21.2 405.638 21.096 405.958 20.952L406.462 23.544ZM421.368 23.832C420.632 24.12 419.912 24.264 419.208 24.264C418.52 24.264 417.944 24.136 417.48 23.88C417.032 23.624 416.704 23.208 416.496 22.632C415.312 23.72 413.88 24.264 412.2 24.264C411 24.264 410.016 23.936 409.248 23.28C408.496 22.608 408.12 21.688 408.12 20.52C408.12 19.24 408.552 18.288 409.416 17.664C410.28 17.04 411.64 16.728 413.496 16.728C414.136 16.728 415.032 16.776 416.184 16.872V16.512C416.184 15.008 415.432 14.256 413.928 14.256C413.16 14.256 412.456 14.4 411.816 14.688V16.152H408.984V13.008C410.456 12.016 412.176 11.52 414.144 11.52C415.568 11.52 416.672 11.728 417.456 12.144C418.24 12.544 418.776 13.104 419.064 13.824C419.368 14.544 419.52 15.432 419.52 16.488V20.352C419.52 20.72 419.6 20.984 419.76 21.144C419.92 21.288 420.176 21.36 420.528 21.36C420.816 21.36 421.048 21.336 421.224 21.288L421.368 23.832ZM411.216 20.232C411.216 20.696 411.376 21.04 411.696 21.264C412.032 21.488 412.48 21.6 413.04 21.6C413.568 21.6 414.112 21.488 414.672 21.264C415.232 21.04 415.736 20.728 416.184 20.328V18.96C415.448 18.864 414.616 18.816 413.688 18.816C412.04 18.816 411.216 19.288 411.216 20.232ZM437.585 23.832C436.849 24.12 436.129 24.264 435.424 24.264C434.401 24.264 433.641 23.984 433.145 23.424C432.649 22.848 432.401 21.888 432.401 20.544V17.04C432.401 16.128 432.225 15.48 431.873 15.096C431.521 14.696 430.977 14.496 430.241 14.496C429.729 14.496 429.193 14.624 428.633 14.88C428.073 15.136 427.609 15.456 427.241 15.84V24H423.905V15.432C423.905 15.08 423.825 14.824 423.665 14.664C423.505 14.504 423.249 14.424 422.896 14.424C422.625 14.424 422.401 14.448 422.225 14.496L422.057 11.952C422.793 11.664 423.513 11.52 424.217 11.52C424.905 11.52 425.465 11.64 425.897 11.88C426.345 12.12 426.681 12.512 426.905 13.056C427.481 12.576 428.137 12.2 428.873 11.928C429.625 11.656 430.369 11.52 431.105 11.52C432.753 11.52 433.937 11.952 434.657 12.816C435.377 13.664 435.737 14.888 435.737 16.488V20.352C435.737 20.72 435.817 20.984 435.977 21.144C436.137 21.288 436.393 21.36 436.745 21.36C437.033 21.36 437.265 21.336 437.441 21.288L437.585 23.832ZM452.696 23.832C451.96 24.12 451.24 24.264 450.536 24.264C449.88 24.264 449.336 24.152 448.904 23.928C448.472 23.688 448.136 23.32 447.896 22.824C446.808 23.784 445.568 24.264 444.176 24.264C443.056 24.264 442.072 24.008 441.224 23.496C440.376 22.984 439.72 22.248 439.256 21.288C438.808 20.312 438.584 19.168 438.584 17.856C438.584 16.512 438.824 15.368 439.304 14.424C439.784 13.464 440.448 12.744 441.296 12.264C442.144 11.768 443.104 11.52 444.176 11.52C445.392 11.52 446.504 11.904 447.512 12.672V9.6H446.048V7.176C447.312 7.112 448.912 7.08 450.848 7.08V20.352C450.848 20.72 450.928 20.984 451.088 21.144C451.248 21.288 451.504 21.36 451.856 21.36C452.144 21.36 452.376 21.336 452.552 21.288L452.696 23.832ZM444.68 21.384C445.288 21.384 445.816 21.256 446.264 21C446.728 20.728 447.144 20.384 447.512 19.968V15.84C447.144 15.408 446.736 15.064 446.288 14.808C445.84 14.536 445.304 14.4 444.68 14.4C443.816 14.4 443.144 14.688 442.664 15.264C442.184 15.824 441.944 16.688 441.944 17.856C441.944 19.056 442.184 19.944 442.664 20.52C443.144 21.096 443.816 21.384 444.68 21.384ZM460.218 16.536C462.01 16.792 463.306 17.232 464.106 17.856C464.922 18.464 465.33 19.312 465.33 20.4C465.33 21.664 464.858 22.624 463.914 23.28C462.97 23.92 461.642 24.24 459.93 24.24C457.834 24.24 456.034 23.84 454.53 23.04V19.656H457.41L457.386 21.24C458.09 21.48 458.858 21.6 459.69 21.6C460.49 21.6 461.082 21.512 461.466 21.336C461.85 21.144 462.042 20.848 462.042 20.448C462.042 20.064 461.866 19.776 461.514 19.584C461.162 19.376 460.498 19.208 459.522 19.08C457.714 18.856 456.426 18.44 455.658 17.832C454.89 17.208 454.506 16.328 454.506 15.192C454.506 14.024 454.986 13.128 455.946 12.504C456.906 11.864 458.13 11.544 459.618 11.544C461.714 11.544 463.41 11.96 464.706 12.792V15.984H461.97L461.994 14.472C461.338 14.296 460.634 14.208 459.882 14.208C458.442 14.208 457.722 14.544 457.722 15.216C457.722 15.552 457.906 15.824 458.274 16.032C458.642 16.224 459.29 16.392 460.218 16.536ZM479.867 24.264C477.787 24.264 476.195 23.696 475.091 22.56C474.003 21.408 473.459 19.848 473.459 17.88C473.459 15.928 474.011 14.384 475.115 13.248C476.219 12.096 477.811 11.52 479.891 11.52C481.971 11.52 483.555 12.088 484.643 13.224C485.747 14.36 486.299 15.904 486.299 17.856C486.299 19.824 485.747 21.384 484.643 22.536C483.539 23.688 481.947 24.264 479.867 24.264ZM479.891 21.36C480.883 21.36 481.635 21.048 482.147 20.424C482.675 19.784 482.939 18.936 482.939 17.88C482.939 16.84 482.675 16.008 482.147 15.384C481.619 14.744 480.859 14.424 479.867 14.424C478.875 14.424 478.115 14.736 477.587 15.36C477.075 15.984 476.819 16.816 476.819 17.856C476.819 18.912 477.083 19.76 477.611 20.4C478.139 21.04 478.899 21.36 479.891 21.36ZM502.733 23.832C501.997 24.12 501.277 24.264 500.573 24.264C499.885 24.264 499.317 24.144 498.869 23.904C498.437 23.664 498.109 23.272 497.885 22.728C497.309 23.208 496.645 23.584 495.893 23.856C495.157 24.128 494.421 24.264 493.685 24.264C492.069 24.264 490.893 23.84 490.157 22.992C489.437 22.128 489.077 20.872 489.077 19.224V14.496H487.277V11.856C487.805 11.808 488.605 11.784 489.677 11.784H492.389V18.696C492.389 19.608 492.565 20.272 492.917 20.688C493.285 21.088 493.829 21.288 494.549 21.288C495.061 21.288 495.597 21.168 496.157 20.928C496.733 20.672 497.189 20.344 497.525 19.944V14.52H495.749V11.832C496.453 11.8 497.221 11.784 498.053 11.784H500.885V20.352C500.885 20.72 500.965 20.984 501.125 21.144C501.285 21.288 501.533 21.36 501.869 21.36C502.157 21.36 502.389 21.336 502.565 21.288L502.733 23.832ZM512.634 23.544C512.074 23.816 511.57 24 511.122 24.096C510.674 24.208 510.162 24.264 509.586 24.264C506.85 24.264 505.482 22.928 505.482 20.256V14.472H503.418V11.784H505.554L505.77 8.688H508.818V11.784H512.25V14.472H508.818V19.752C508.818 20.312 508.922 20.72 509.13 20.976C509.354 21.232 509.722 21.36 510.234 21.36C510.474 21.36 510.77 21.328 511.122 21.264C511.474 21.2 511.81 21.096 512.13 20.952L512.634 23.544ZM527.915 11.616C528.987 11.616 529.947 11.864 530.795 12.36C531.643 12.84 532.307 13.56 532.786 14.52C533.267 15.464 533.507 16.608 533.507 17.952C533.507 19.264 533.275 20.408 532.811 21.384C532.363 22.344 531.715 23.08 530.867 23.592C530.019 24.104 529.035 24.36 527.915 24.36C526.571 24.36 525.379 23.92 524.339 23.04C524.019 23.664 523.523 24.112 522.851 24.384L520.787 23.544C520.995 23.192 521.139 22.84 521.219 22.488C521.299 22.12 521.339 21.696 521.339 21.216V9.864H519.875V7.272C521.123 7.208 522.723 7.176 524.675 7.176V12.696C525.667 11.976 526.747 11.616 527.915 11.616ZM527.411 21.48C528.275 21.48 528.947 21.192 529.427 20.616C529.907 20.04 530.147 19.152 530.147 17.952C530.147 16.784 529.907 15.92 529.427 15.36C528.947 14.784 528.275 14.496 527.411 14.496C526.387 14.496 525.483 14.936 524.699 15.816V20.208C525.051 20.592 525.443 20.904 525.875 21.144C526.307 21.368 526.819 21.48 527.411 21.48ZM549.936 23.832C549.2 24.12 548.48 24.264 547.776 24.264C547.088 24.264 546.52 24.144 546.072 23.904C545.64 23.664 545.312 23.272 545.088 22.728C544.512 23.208 543.848 23.584 543.096 23.856C542.36 24.128 541.624 24.264 540.888 24.264C539.272 24.264 538.096 23.84 537.36 22.992C536.64 22.128 536.28 20.872 536.28 19.224V14.496H534.48V11.856C535.008 11.808 535.808 11.784 536.88 11.784H539.592V18.696C539.592 19.608 539.768 20.272 540.12 20.688C540.488 21.088 541.032 21.288 541.752 21.288C542.264 21.288 542.8 21.168 543.36 20.928C543.936 20.672 544.392 20.344 544.728 19.944V14.52H542.952V11.832C543.656 11.8 544.424 11.784 545.256 11.784H548.088V20.352C548.088 20.72 548.168 20.984 548.328 21.144C548.488 21.288 548.736 21.36 549.072 21.36C549.36 21.36 549.592 21.336 549.768 21.288L549.936 23.832ZM559.837 23.544C559.277 23.816 558.773 24 558.325 24.096C557.877 24.208 557.365 24.264 556.789 24.264C554.053 24.264 552.685 22.928 552.685 20.256V14.472H550.621V11.784H552.757L552.973 8.688H556.021V11.784H559.453V14.472H556.021V19.752C556.021 20.312 556.125 20.72 556.333 20.976C556.557 21.232 556.925 21.36 557.437 21.36C557.677 21.36 557.973 21.328 558.325 21.264C558.677 21.2 559.013 21.096 559.333 20.952L559.837 23.544ZM573.726 16.536C575.518 16.792 576.814 17.232 577.614 17.856C578.43 18.464 578.838 19.312 578.838 20.4C578.838 21.664 578.366 22.624 577.422 23.28C576.478 23.92 575.15 24.24 573.438 24.24C571.342 24.24 569.542 23.84 568.038 23.04V19.656H570.918L570.894 21.24C571.598 21.48 572.366 21.6 573.198 21.6C573.998 21.6 574.59 21.512 574.974 21.336C575.358 21.144 575.55 20.848 575.55 20.448C575.55 20.064 575.374 19.776 575.022 19.584C574.67 19.376 574.006 19.208 573.03 19.08C571.222 18.856 569.934 18.44 569.166 17.832C568.398 17.208 568.014 16.328 568.014 15.192C568.014 14.024 568.494 13.128 569.454 12.504C570.414 11.864 571.638 11.544 573.126 11.544C575.222 11.544 576.918 11.96 578.214 12.792V15.984H575.478L575.502 14.472C574.846 14.296 574.142 14.208 573.39 14.208C571.95 14.208 571.23 14.544 571.23 15.216C571.23 15.552 571.414 15.824 571.782 16.032C572.15 16.224 572.798 16.392 573.726 16.536ZM595.328 23.832C594.592 24.12 593.872 24.264 593.168 24.264C592.144 24.264 591.384 23.984 590.888 23.424C590.392 22.848 590.144 21.888 590.144 20.544V17.04C590.144 16.128 589.96 15.48 589.592 15.096C589.24 14.696 588.704 14.496 587.984 14.496C587.472 14.496 586.944 14.624 586.4 14.88C585.856 15.12 585.392 15.432 585.008 15.816V24H581.672V9.768H580.208V7.176C581.456 7.096 583.056 7.056 585.008 7.056V12.768C585.552 12.368 586.16 12.064 586.832 11.856C587.504 11.632 588.176 11.52 588.848 11.52C590.496 11.52 591.68 11.952 592.4 12.816C593.12 13.664 593.48 14.888 593.48 16.488V20.352C593.48 20.72 593.56 20.984 593.72 21.144C593.88 21.288 594.136 21.36 594.488 21.36C594.776 21.36 595.008 21.336 595.184 21.288L595.328 23.832ZM598.037 24V14.376H596.549V11.784C597.813 11.704 599.413 11.664 601.349 11.664V24H598.037ZM599.429 10.104C598.837 10.104 598.365 9.96 598.013 9.672C597.661 9.384 597.485 8.976 597.485 8.448C597.485 7.952 597.653 7.552 597.989 7.248C598.341 6.928 598.821 6.768 599.429 6.768C600.005 6.768 600.469 6.92 600.821 7.224C601.173 7.512 601.349 7.92 601.349 8.448C601.349 8.944 601.181 9.344 600.845 9.648C600.509 9.952 600.037 10.104 599.429 10.104ZM619.038 23.832C618.302 24.12 617.582 24.264 616.878 24.264C615.854 24.264 615.094 23.984 614.598 23.424C614.102 22.848 613.854 21.888 613.854 20.544V17.04C613.854 16.128 613.678 15.48 613.326 15.096C612.974 14.696 612.43 14.496 611.694 14.496C611.182 14.496 610.646 14.624 610.086 14.88C609.526 15.136 609.062 15.456 608.694 15.84V24H605.358V15.432C605.358 15.08 605.278 14.824 605.118 14.664C604.958 14.504 604.702 14.424 604.35 14.424C604.078 14.424 603.854 14.448 603.678 14.496L603.51 11.952C604.246 11.664 604.966 11.52 605.67 11.52C606.358 11.52 606.918 11.64 607.35 11.88C607.798 12.12 608.134 12.512 608.358 13.056C608.934 12.576 609.59 12.2 610.326 11.928C611.078 11.656 611.822 11.52 612.558 11.52C614.206 11.52 615.39 11.952 616.11 12.816C616.83 13.664 617.19 14.888 617.19 16.488V20.352C617.19 20.72 617.27 20.984 617.43 21.144C617.59 21.288 617.846 21.36 618.198 21.36C618.486 21.36 618.718 21.336 618.894 21.288L619.038 23.832ZM623.325 18.912C623.629 20.624 624.733 21.48 626.637 21.48C627.437 21.48 628.165 21.4 628.821 21.24C629.493 21.064 630.181 20.8 630.885 20.448L631.581 22.992C630.829 23.408 630.037 23.728 629.205 23.952C628.389 24.16 627.485 24.264 626.493 24.264C624.477 24.264 622.893 23.72 621.741 22.632C620.605 21.528 620.037 19.944 620.037 17.88C620.037 15.88 620.581 14.32 621.669 13.2C622.773 12.08 624.277 11.52 626.181 11.52C627.941 11.52 629.325 12.024 630.333 13.032C631.341 14.04 631.845 15.408 631.845 17.136C631.845 17.664 631.805 18.256 631.725 18.912H623.325ZM626.205 14.232C624.589 14.232 623.629 15.04 623.325 16.656H628.893C628.797 15.808 628.533 15.192 628.101 14.808C627.669 14.424 627.037 14.232 626.205 14.232ZM639.773 16.536C641.565 16.792 642.861 17.232 643.661 17.856C644.477 18.464 644.885 19.312 644.885 20.4C644.885 21.664 644.413 22.624 643.469 23.28C642.525 23.92 641.197 24.24 639.485 24.24C637.389 24.24 635.589 23.84 634.085 23.04V19.656H636.965L636.941 21.24C637.645 21.48 638.413 21.6 639.245 21.6C640.045 21.6 640.637 21.512 641.021 21.336C641.405 21.144 641.597 20.848 641.597 20.448C641.597 20.064 641.421 19.776 641.069 19.584C640.717 19.376 640.053 19.208 639.077 19.08C637.269 18.856 635.981 18.44 635.213 17.832C634.445 17.208 634.061 16.328 634.061 15.192C634.061 14.024 634.541 13.128 635.501 12.504C636.461 11.864 637.685 11.544 639.173 11.544C641.269 11.544 642.965 11.96 644.261 12.792V15.984H641.525L641.549 14.472C640.893 14.296 640.189 14.208 639.437 14.208C637.997 14.208 637.277 14.544 637.277 15.216C637.277 15.552 637.461 15.824 637.829 16.032C638.197 16.224 638.845 16.392 639.773 16.536ZM646.927 22.8C646.927 22.288 647.087 21.904 647.407 21.648C647.743 21.392 648.183 21.264 648.727 21.264C649.255 21.264 649.679 21.392 649.999 21.648C650.335 21.888 650.503 22.272 650.503 22.8C650.503 23.328 650.343 23.712 650.023 23.952C649.703 24.192 649.271 24.312 648.727 24.312C647.527 24.312 646.927 23.808 646.927 22.8Z" fill="#0066EE"/>
</svg>
