<svg width="310" height="22" viewBox="0 0 310 22" fill="none" xmlns="http://www.w3.org/2000/svg">
<path d="M6.984 17.234C5.7 17.234 4.59 16.976 3.654 16.46C2.73 15.944 2.022 15.2 1.53 14.228C1.038 13.244 0.792 12.068 0.792 10.7C0.792 9.332 1.038 8.156 1.53 7.172C2.022 6.188 2.73 5.438 3.654 4.922C4.578 4.406 5.688 4.148 6.984 4.148C8.268 4.148 9.372 4.406 10.296 4.922C11.232 5.438 11.946 6.188 12.438 7.172C12.93 8.156 13.176 9.332 13.176 10.7C13.176 12.056 12.93 13.226 12.438 14.21C11.946 15.194 11.238 15.944 10.314 16.46C9.39 16.976 8.28 17.234 6.984 17.234ZM6.984 15.524C8.376 15.524 9.444 15.098 10.188 14.246C10.944 13.382 11.322 12.2 11.322 10.7C11.322 9.188 10.944 8.006 10.188 7.154C9.444 6.29 8.376 5.858 6.984 5.858C5.592 5.858 4.518 6.29 3.762 7.154C3.018 8.006 2.646 9.188 2.646 10.7C2.646 12.2 3.018 13.382 3.762 14.246C4.518 15.098 5.592 15.524 6.984 15.524ZM25.5846 16.964C25.1766 17.108 24.7746 17.18 24.3786 17.18C23.8986 17.18 23.5086 17.084 23.2086 16.892C22.9086 16.7 22.6926 16.382 22.5606 15.938C22.1166 16.334 21.6066 16.64 21.0306 16.856C20.4546 17.072 19.8666 17.18 19.2666 17.18C18.1026 17.18 17.2506 16.862 16.7106 16.226C16.1706 15.59 15.9006 14.654 15.9006 13.418V9.476H14.4426V7.982C14.9226 7.958 15.5166 7.946 16.2246 7.946H17.6826V13.238C17.6826 14.078 17.8446 14.684 18.1686 15.056C18.4926 15.416 18.9906 15.596 19.6626 15.596C20.1306 15.596 20.6346 15.482 21.1746 15.254C21.7146 15.014 22.1286 14.708 22.4166 14.336V9.458H20.9586V7.946H22.6866H24.1806V14.75C24.1806 15.026 24.2406 15.224 24.3606 15.344C24.4926 15.452 24.7026 15.506 24.9906 15.506C25.1946 15.506 25.3626 15.488 25.4946 15.452L25.5846 16.964ZM34.1529 8.018V11.15H32.5329V9.386C31.8849 9.374 31.3569 9.47 30.9489 9.674C30.5409 9.878 30.1809 10.208 29.8689 10.664V17H28.0869V10.196C28.0869 9.92 28.0269 9.728 27.9069 9.62C27.7869 9.5 27.5829 9.44 27.2949 9.44C27.0789 9.44 26.9049 9.458 26.7729 9.494L26.6829 7.982C27.0909 7.838 27.4929 7.766 27.8889 7.766C28.3449 7.766 28.7169 7.85 29.0049 8.018C29.3049 8.186 29.5269 8.462 29.6709 8.846C30.4869 8.126 31.4169 7.766 32.4609 7.766C33.0009 7.766 33.5589 7.85 34.1349 8.018H34.1529ZM56.9568 16.964C56.5488 17.108 56.1468 17.18 55.7508 17.18C55.0788 17.18 54.5808 16.988 54.2568 16.604C53.9328 16.22 53.7708 15.578 53.7708 14.678V11.744C53.7708 10.904 53.6208 10.304 53.3208 9.944C53.0328 9.584 52.5468 9.404 51.8628 9.404C50.9868 9.404 50.1948 9.776 49.4868 10.52C49.5348 10.772 49.5588 11.084 49.5588 11.456V17H47.7768V11.744C47.7768 10.904 47.6268 10.304 47.3268 9.944C47.0388 9.584 46.5528 9.404 45.8688 9.404C45.0048 9.404 44.2008 9.794 43.4568 10.574V17H41.6748V10.196C41.6748 9.92 41.6148 9.728 41.4948 9.62C41.3748 9.5 41.1708 9.44 40.8828 9.44C40.6668 9.44 40.4928 9.458 40.3608 9.494L40.2708 7.982C40.6788 7.838 41.0808 7.766 41.4768 7.766C41.9568 7.766 42.3468 7.862 42.6468 8.054C42.9468 8.234 43.1628 8.54 43.2948 8.972C44.1588 8.168 45.1908 7.766 46.3908 7.766C47.6748 7.766 48.5688 8.24 49.0728 9.188C49.4928 8.744 49.9788 8.396 50.5308 8.144C51.0948 7.892 51.7068 7.766 52.3668 7.766C53.4228 7.766 54.2148 8.084 54.7428 8.72C55.2828 9.356 55.5528 10.268 55.5528 11.456V14.75C55.5528 15.026 55.6128 15.224 55.7328 15.344C55.8528 15.452 56.0568 15.506 56.3448 15.506C56.5608 15.506 56.7348 15.488 56.8668 15.452L56.9568 16.964ZM59.3362 17V9.368H58.1302V7.946C58.8982 7.898 59.8942 7.874 61.1182 7.874V17H59.3362ZM60.0202 6.362C59.6842 6.362 59.4142 6.278 59.2102 6.11C59.0062 5.93 58.9042 5.684 58.9042 5.372C58.9042 5.096 59.0062 4.868 59.2102 4.688C59.4142 4.496 59.6842 4.4 60.0202 4.4C60.3442 4.4 60.6082 4.49 60.8122 4.67C61.0282 4.85 61.1362 5.084 61.1362 5.372C61.1362 5.672 61.0342 5.912 60.8302 6.092C60.6262 6.272 60.3562 6.362 60.0202 6.362ZM67.318 11.582C68.602 11.81 69.532 12.152 70.108 12.608C70.684 13.052 70.972 13.664 70.972 14.444C70.972 15.344 70.636 16.022 69.964 16.478C69.304 16.934 68.38 17.162 67.192 17.162C65.74 17.162 64.48 16.856 63.412 16.244V13.796H65.032L65.014 15.164C65.65 15.416 66.328 15.542 67.048 15.542C67.78 15.542 68.32 15.458 68.668 15.29C69.016 15.11 69.19 14.828 69.19 14.444C69.19 14.084 69.04 13.814 68.74 13.634C68.44 13.442 67.87 13.286 67.03 13.166C65.71 12.974 64.774 12.668 64.222 12.248C63.682 11.816 63.412 11.192 63.412 10.376C63.412 9.56 63.748 8.924 64.42 8.468C65.092 8.012 65.926 7.784 66.922 7.784C67.666 7.784 68.35 7.868 68.974 8.036C69.598 8.192 70.132 8.408 70.576 8.684V11.042H68.956V9.656C68.332 9.488 67.714 9.404 67.102 9.404C65.83 9.404 65.194 9.722 65.194 10.358C65.194 10.682 65.356 10.934 65.68 11.114C66.004 11.294 66.55 11.45 67.318 11.582ZM76.7048 11.582C77.9888 11.81 78.9188 12.152 79.4948 12.608C80.0708 13.052 80.3588 13.664 80.3588 14.444C80.3588 15.344 80.0228 16.022 79.3508 16.478C78.6908 16.934 77.7668 17.162 76.5788 17.162C75.1268 17.162 73.8668 16.856 72.7988 16.244V13.796H74.4188L74.4008 15.164C75.0368 15.416 75.7148 15.542 76.4348 15.542C77.1668 15.542 77.7068 15.458 78.0548 15.29C78.4028 15.11 78.5768 14.828 78.5768 14.444C78.5768 14.084 78.4268 13.814 78.1268 13.634C77.8268 13.442 77.2568 13.286 76.4168 13.166C75.0968 12.974 74.1608 12.668 73.6088 12.248C73.0688 11.816 72.7988 11.192 72.7988 10.376C72.7988 9.56 73.1348 8.924 73.8068 8.468C74.4788 8.012 75.3128 7.784 76.3088 7.784C77.0528 7.784 77.7368 7.868 78.3608 8.036C78.9848 8.192 79.5188 8.408 79.9628 8.684V11.042H78.3428V9.656C77.7188 9.488 77.1008 9.404 76.4888 9.404C75.2168 9.404 74.5808 9.722 74.5808 10.358C74.5808 10.682 74.7428 10.934 75.0668 11.114C75.3908 11.294 75.9368 11.45 76.7048 11.582ZM83.0315 17V9.368H81.8255V7.946C82.5935 7.898 83.5895 7.874 84.8135 7.874V17H83.0315ZM83.7155 6.362C83.3795 6.362 83.1095 6.278 82.9055 6.11C82.7015 5.93 82.5995 5.684 82.5995 5.372C82.5995 5.096 82.7015 4.868 82.9055 4.688C83.1095 4.496 83.3795 4.4 83.7155 4.4C84.0395 4.4 84.3035 4.49 84.5075 4.67C84.7235 4.85 84.8315 5.084 84.8315 5.372C84.8315 5.672 84.7295 5.912 84.5255 6.092C84.3215 6.272 84.0515 6.362 83.7155 6.362ZM91.4453 17.18C90.4493 17.18 89.6033 16.982 88.9073 16.586C88.2233 16.178 87.7073 15.62 87.3593 14.912C87.0113 14.204 86.8373 13.388 86.8373 12.464C86.8373 11.552 87.0113 10.742 87.3593 10.034C87.7073 9.326 88.2233 8.774 88.9073 8.378C89.6033 7.97 90.4493 7.766 91.4453 7.766C92.4413 7.766 93.2813 7.97 93.9653 8.378C94.6493 8.774 95.1653 9.326 95.5133 10.034C95.8613 10.73 96.0353 11.534 96.0353 12.446C96.0353 13.37 95.8613 14.192 95.5133 14.912C95.1653 15.62 94.6433 16.178 93.9473 16.586C93.2633 16.982 92.4293 17.18 91.4453 17.18ZM91.4633 15.56C92.3633 15.56 93.0473 15.278 93.5153 14.714C93.9953 14.138 94.2353 13.388 94.2353 12.464C94.2353 11.552 93.9953 10.814 93.5153 10.25C93.0353 9.674 92.3453 9.386 91.4453 9.386C90.5333 9.386 89.8373 9.674 89.3573 10.25C88.8773 10.814 88.6373 11.546 88.6373 12.446C88.6373 13.37 88.8773 14.12 89.3573 14.696C89.8373 15.272 90.5393 15.56 91.4633 15.56ZM108.312 16.964C107.904 17.108 107.502 17.18 107.106 17.18C106.446 17.18 105.948 16.988 105.612 16.604C105.288 16.22 105.126 15.578 105.126 14.678V11.726C105.126 10.886 104.964 10.292 104.64 9.944C104.316 9.584 103.812 9.404 103.128 9.404C102.684 9.404 102.198 9.524 101.67 9.764C101.142 9.992 100.716 10.274 100.392 10.61V17H98.6103V10.196C98.6103 9.92 98.5503 9.728 98.4303 9.62C98.3103 9.5 98.1063 9.44 97.8183 9.44C97.6023 9.44 97.4283 9.458 97.2963 9.494L97.2063 7.982C97.6143 7.838 98.0163 7.766 98.4123 7.766C98.8923 7.766 99.2823 7.862 99.5823 8.054C99.8823 8.246 100.098 8.558 100.23 8.99C100.686 8.606 101.202 8.306 101.778 8.09C102.354 7.874 102.942 7.766 103.542 7.766C104.73 7.766 105.588 8.078 106.116 8.702C106.644 9.326 106.908 10.238 106.908 11.438V14.75C106.908 15.026 106.968 15.224 107.088 15.344C107.208 15.452 107.412 15.506 107.7 15.506C107.916 15.506 108.09 15.488 108.222 15.452L108.312 16.964ZM115.604 17V9.368H114.398V7.946C115.166 7.898 116.162 7.874 117.386 7.874V17H115.604ZM116.288 6.362C115.952 6.362 115.682 6.278 115.478 6.11C115.274 5.93 115.172 5.684 115.172 5.372C115.172 5.096 115.274 4.868 115.478 4.688C115.682 4.496 115.952 4.4 116.288 4.4C116.612 4.4 116.876 4.49 117.08 4.67C117.296 4.85 117.404 5.084 117.404 5.372C117.404 5.672 117.302 5.912 117.098 6.092C116.894 6.272 116.624 6.362 116.288 6.362ZM123.586 11.582C124.87 11.81 125.8 12.152 126.376 12.608C126.952 13.052 127.24 13.664 127.24 14.444C127.24 15.344 126.904 16.022 126.232 16.478C125.572 16.934 124.648 17.162 123.46 17.162C122.008 17.162 120.748 16.856 119.68 16.244V13.796H121.3L121.282 15.164C121.918 15.416 122.596 15.542 123.316 15.542C124.048 15.542 124.588 15.458 124.936 15.29C125.284 15.11 125.458 14.828 125.458 14.444C125.458 14.084 125.308 13.814 125.008 13.634C124.708 13.442 124.138 13.286 123.298 13.166C121.978 12.974 121.042 12.668 120.49 12.248C119.95 11.816 119.68 11.192 119.68 10.376C119.68 9.56 120.016 8.924 120.688 8.468C121.36 8.012 122.194 7.784 123.19 7.784C123.934 7.784 124.618 7.868 125.242 8.036C125.866 8.192 126.4 8.408 126.844 8.684V11.042H125.224V9.656C124.6 9.488 123.982 9.404 123.37 9.404C122.098 9.404 121.462 9.722 121.462 10.358C121.462 10.682 121.624 10.934 121.948 11.114C122.272 11.294 122.818 11.45 123.586 11.582ZM137.877 11.582C139.161 11.81 140.091 12.152 140.667 12.608C141.243 13.052 141.531 13.664 141.531 14.444C141.531 15.344 141.195 16.022 140.523 16.478C139.863 16.934 138.939 17.162 137.751 17.162C136.299 17.162 135.039 16.856 133.971 16.244V13.796H135.591L135.573 15.164C136.209 15.416 136.887 15.542 137.607 15.542C138.339 15.542 138.879 15.458 139.227 15.29C139.575 15.11 139.749 14.828 139.749 14.444C139.749 14.084 139.599 13.814 139.299 13.634C138.999 13.442 138.429 13.286 137.589 13.166C136.269 12.974 135.333 12.668 134.781 12.248C134.241 11.816 133.971 11.192 133.971 10.376C133.971 9.56 134.307 8.924 134.979 8.468C135.651 8.012 136.485 7.784 137.481 7.784C138.225 7.784 138.909 7.868 139.533 8.036C140.157 8.192 140.691 8.408 141.135 8.684V11.042H139.515V9.656C138.891 9.488 138.273 9.404 137.661 9.404C136.389 9.404 135.753 9.722 135.753 10.358C135.753 10.682 135.915 10.934 136.239 11.114C136.563 11.294 137.109 11.45 137.877 11.582ZM144.203 17V9.368H142.997V7.946C143.765 7.898 144.761 7.874 145.985 7.874V17H144.203ZM144.887 6.362C144.551 6.362 144.281 6.278 144.077 6.11C143.873 5.93 143.771 5.684 143.771 5.372C143.771 5.096 143.873 4.868 144.077 4.688C144.281 4.496 144.551 4.4 144.887 4.4C145.211 4.4 145.475 4.49 145.679 4.67C145.895 4.85 146.003 5.084 146.003 5.372C146.003 5.672 145.901 5.912 145.697 6.092C145.493 6.272 145.223 6.362 144.887 6.362ZM164.605 16.964C164.197 17.108 163.795 17.18 163.399 17.18C162.727 17.18 162.229 16.988 161.905 16.604C161.581 16.22 161.419 15.578 161.419 14.678V11.744C161.419 10.904 161.269 10.304 160.969 9.944C160.681 9.584 160.195 9.404 159.511 9.404C158.635 9.404 157.843 9.776 157.135 10.52C157.183 10.772 157.207 11.084 157.207 11.456V17H155.425V11.744C155.425 10.904 155.275 10.304 154.975 9.944C154.687 9.584 154.201 9.404 153.517 9.404C152.653 9.404 151.849 9.794 151.105 10.574V17H149.323V10.196C149.323 9.92 149.263 9.728 149.143 9.62C149.023 9.5 148.819 9.44 148.531 9.44C148.315 9.44 148.141 9.458 148.009 9.494L147.919 7.982C148.327 7.838 148.729 7.766 149.125 7.766C149.605 7.766 149.995 7.862 150.295 8.054C150.595 8.234 150.811 8.54 150.943 8.972C151.807 8.168 152.839 7.766 154.039 7.766C155.323 7.766 156.217 8.24 156.721 9.188C157.141 8.744 157.627 8.396 158.179 8.144C158.743 7.892 159.355 7.766 160.015 7.766C161.071 7.766 161.863 8.084 162.391 8.72C162.931 9.356 163.201 10.268 163.201 11.456V14.75C163.201 15.026 163.261 15.224 163.381 15.344C163.501 15.452 163.705 15.506 163.993 15.506C164.209 15.506 164.383 15.488 164.515 15.452L164.605 16.964ZM171.367 7.766C172.159 7.766 172.861 7.946 173.473 8.306C174.097 8.666 174.583 9.2 174.931 9.908C175.291 10.616 175.471 11.462 175.471 12.446C175.471 13.43 175.297 14.276 174.949 14.984C174.613 15.692 174.133 16.238 173.509 16.622C172.897 16.994 172.183 17.18 171.367 17.18C170.335 17.18 169.423 16.862 168.631 16.226V20.51H166.849V10.196C166.849 9.92 166.789 9.728 166.669 9.62C166.549 9.5 166.345 9.44 166.057 9.44C165.841 9.44 165.667 9.458 165.535 9.494L165.445 7.982C165.853 7.838 166.255 7.766 166.651 7.766C167.131 7.766 167.515 7.856 167.803 8.036C168.091 8.216 168.307 8.51 168.451 8.918C169.291 8.15 170.263 7.766 171.367 7.766ZM171.205 15.56C171.973 15.56 172.579 15.308 173.023 14.804C173.467 14.288 173.689 13.502 173.689 12.446C173.689 11.426 173.467 10.664 173.023 10.16C172.579 9.644 171.973 9.386 171.205 9.386C170.629 9.386 170.137 9.5 169.729 9.728C169.333 9.956 168.967 10.262 168.631 10.646V14.318C168.979 14.69 169.351 14.99 169.747 15.218C170.155 15.446 170.641 15.56 171.205 15.56ZM181.047 16.964C180.639 17.108 180.237 17.18 179.841 17.18C179.169 17.18 178.671 16.988 178.347 16.604C178.023 16.22 177.861 15.578 177.861 14.678V5.822H176.655V4.382C177.423 4.334 178.419 4.31 179.643 4.31V14.75C179.643 15.026 179.703 15.224 179.823 15.344C179.943 15.452 180.147 15.506 180.435 15.506C180.651 15.506 180.825 15.488 180.957 15.452L181.047 16.964ZM184.228 13.112C184.324 13.916 184.612 14.528 185.092 14.948C185.572 15.356 186.208 15.56 187 15.56C187.636 15.56 188.194 15.494 188.674 15.362C189.154 15.23 189.634 15.032 190.114 14.768L190.564 16.19C190.024 16.514 189.472 16.76 188.908 16.928C188.344 17.096 187.696 17.18 186.964 17.18C185.56 17.18 184.444 16.772 183.616 15.956C182.8 15.14 182.392 13.976 182.392 12.464C182.392 11 182.776 9.854 183.544 9.026C184.324 8.186 185.404 7.766 186.784 7.766C188.008 7.766 188.992 8.138 189.736 8.882C190.48 9.626 190.852 10.652 190.852 11.96C190.852 12.236 190.828 12.62 190.78 13.112H184.228ZM186.766 9.386C185.326 9.386 184.486 10.13 184.246 11.618H189.178C189.13 10.838 188.908 10.274 188.512 9.926C188.128 9.566 187.546 9.386 186.766 9.386ZM206.747 7.946V16.01C206.747 17.558 206.399 18.716 205.703 19.484C205.007 20.264 203.909 20.654 202.409 20.654C201.725 20.654 201.059 20.57 200.411 20.402C199.763 20.234 199.169 19.988 198.629 19.664L199.079 18.242C200.027 18.77 201.095 19.034 202.283 19.034C203.183 19.034 203.855 18.842 204.299 18.458C204.755 18.086 204.983 17.372 204.983 16.316V15.308C204.551 15.668 204.059 15.944 203.507 16.136C202.967 16.328 202.409 16.424 201.833 16.424C200.609 16.424 199.739 16.1 199.223 15.452C198.719 14.792 198.467 13.826 198.467 12.554V9.476H197.009V7.982C197.489 7.958 198.083 7.946 198.791 7.946H200.249V12.284C200.249 13.16 200.399 13.796 200.699 14.192C201.011 14.588 201.551 14.786 202.319 14.786C202.727 14.786 203.195 14.666 203.723 14.426C204.263 14.186 204.683 13.91 204.983 13.598V9.458H203.525V7.946H205.253H206.747ZM210.595 13.112C210.691 13.916 210.979 14.528 211.459 14.948C211.939 15.356 212.575 15.56 213.367 15.56C214.003 15.56 214.561 15.494 215.041 15.362C215.521 15.23 216.001 15.032 216.481 14.768L216.931 16.19C216.391 16.514 215.839 16.76 215.275 16.928C214.711 17.096 214.063 17.18 213.331 17.18C211.927 17.18 210.811 16.772 209.983 15.956C209.167 15.14 208.759 13.976 208.759 12.464C208.759 11 209.143 9.854 209.911 9.026C210.691 8.186 211.771 7.766 213.151 7.766C214.375 7.766 215.359 8.138 216.103 8.882C216.847 9.626 217.219 10.652 217.219 11.96C217.219 12.236 217.195 12.62 217.147 13.112H210.595ZM213.133 9.386C211.693 9.386 210.853 10.13 210.613 11.618H215.545C215.497 10.838 215.275 10.274 214.879 9.926C214.495 9.566 213.913 9.386 213.133 9.386ZM224.524 16.658C224.176 16.838 223.846 16.97 223.534 17.054C223.234 17.138 222.88 17.18 222.472 17.18C221.56 17.18 220.864 16.952 220.384 16.496C219.916 16.04 219.682 15.344 219.682 14.408V9.476H218.008V7.946H219.718L219.844 5.552H221.464V7.946H224.182V9.476H221.464V14.12C221.464 14.624 221.554 14.99 221.734 15.218C221.914 15.446 222.238 15.56 222.706 15.56C223.186 15.56 223.666 15.44 224.146 15.2L224.524 16.658ZM236.476 7.766C237.268 7.766 237.97 7.946 238.582 8.306C239.206 8.666 239.692 9.2 240.04 9.908C240.4 10.616 240.58 11.462 240.58 12.446C240.58 13.43 240.406 14.276 240.058 14.984C239.722 15.692 239.242 16.238 238.618 16.622C238.006 16.994 237.292 17.18 236.476 17.18C235.444 17.18 234.532 16.862 233.74 16.226V20.51H231.958V10.196C231.958 9.92 231.898 9.728 231.778 9.62C231.658 9.5 231.454 9.44 231.166 9.44C230.95 9.44 230.776 9.458 230.644 9.494L230.554 7.982C230.962 7.838 231.364 7.766 231.76 7.766C232.24 7.766 232.624 7.856 232.912 8.036C233.2 8.216 233.416 8.51 233.56 8.918C234.4 8.15 235.372 7.766 236.476 7.766ZM236.314 15.56C237.082 15.56 237.688 15.308 238.132 14.804C238.576 14.288 238.798 13.502 238.798 12.446C238.798 11.426 238.576 10.664 238.132 10.16C237.688 9.644 237.082 9.386 236.314 9.386C235.738 9.386 235.246 9.5 234.838 9.728C234.442 9.956 234.076 10.262 233.74 10.646V14.318C234.088 14.69 234.46 14.99 234.856 15.218C235.264 15.446 235.75 15.56 236.314 15.56ZM246.818 17.18C245.822 17.18 244.976 16.982 244.28 16.586C243.596 16.178 243.08 15.62 242.732 14.912C242.384 14.204 242.21 13.388 242.21 12.464C242.21 11.552 242.384 10.742 242.732 10.034C243.08 9.326 243.596 8.774 244.28 8.378C244.976 7.97 245.822 7.766 246.818 7.766C247.814 7.766 248.654 7.97 249.338 8.378C250.022 8.774 250.538 9.326 250.886 10.034C251.234 10.73 251.408 11.534 251.408 12.446C251.408 13.37 251.234 14.192 250.886 14.912C250.538 15.62 250.016 16.178 249.32 16.586C248.636 16.982 247.802 17.18 246.818 17.18ZM246.836 15.56C247.736 15.56 248.42 15.278 248.888 14.714C249.368 14.138 249.608 13.388 249.608 12.464C249.608 11.552 249.368 10.814 248.888 10.25C248.408 9.674 247.718 9.386 246.818 9.386C245.906 9.386 245.21 9.674 244.73 10.25C244.25 10.814 244.01 11.546 244.01 12.446C244.01 13.37 244.25 14.12 244.73 14.696C245.21 15.272 245.912 15.56 246.836 15.56ZM267.104 7.946V9.476H265.826L263.324 17H261.434L259.598 11.132L257.762 17H255.872L253.388 9.476H252.11V7.946H254.756L256.808 15.02L258.806 7.946H260.408L262.37 15.038L264.458 7.946H267.104ZM269.64 13.112C269.736 13.916 270.024 14.528 270.504 14.948C270.984 15.356 271.62 15.56 272.412 15.56C273.048 15.56 273.606 15.494 274.086 15.362C274.566 15.23 275.046 15.032 275.526 14.768L275.976 16.19C275.436 16.514 274.884 16.76 274.32 16.928C273.756 17.096 273.108 17.18 272.376 17.18C270.972 17.18 269.856 16.772 269.028 15.956C268.212 15.14 267.804 13.976 267.804 12.464C267.804 11 268.188 9.854 268.956 9.026C269.736 8.186 270.816 7.766 272.196 7.766C273.42 7.766 274.404 8.138 275.148 8.882C275.892 9.626 276.264 10.652 276.264 11.96C276.264 12.236 276.24 12.62 276.192 13.112H269.64ZM272.178 9.386C270.738 9.386 269.898 10.13 269.658 11.618H274.59C274.542 10.838 274.32 10.274 273.924 9.926C273.54 9.566 272.958 9.386 272.178 9.386ZM284.887 8.018V11.15H283.267V9.386C282.619 9.374 282.091 9.47 281.683 9.674C281.275 9.878 280.915 10.208 280.603 10.664V17H278.821V10.196C278.821 9.92 278.761 9.728 278.641 9.62C278.521 9.5 278.317 9.44 278.029 9.44C277.813 9.44 277.639 9.458 277.507 9.494L277.417 7.982C277.825 7.838 278.227 7.766 278.623 7.766C279.079 7.766 279.451 7.85 279.739 8.018C280.039 8.186 280.261 8.462 280.405 8.846C281.221 8.126 282.151 7.766 283.195 7.766C283.735 7.766 284.293 7.85 284.869 8.018H284.887ZM290.853 5.588C290.397 5.588 290.055 5.738 289.827 6.038C289.599 6.326 289.485 6.842 289.485 7.586V7.946H291.969V9.476H289.485V15.47H291.321V16.964C290.697 16.988 289.947 17 289.071 17H287.991C287.379 17 286.857 16.988 286.425 16.964V15.56H287.703V9.476H286.155V7.946H287.703V7.586C287.703 6.386 287.961 5.492 288.477 4.904C289.005 4.304 289.767 4.004 290.763 4.004C291.207 4.004 291.621 4.058 292.005 4.166C292.389 4.262 292.701 4.376 292.941 4.508L292.653 5.948C292.077 5.708 291.477 5.588 290.853 5.588ZM303.899 16.964C303.491 17.108 303.089 17.18 302.693 17.18C302.213 17.18 301.823 17.084 301.523 16.892C301.223 16.7 301.007 16.382 300.875 15.938C300.431 16.334 299.921 16.64 299.345 16.856C298.769 17.072 298.181 17.18 297.581 17.18C296.417 17.18 295.565 16.862 295.025 16.226C294.485 15.59 294.215 14.654 294.215 13.418V9.476H292.757V7.982C293.237 7.958 293.831 7.946 294.539 7.946H295.997V13.238C295.997 14.078 296.159 14.684 296.483 15.056C296.807 15.416 297.305 15.596 297.977 15.596C298.445 15.596 298.949 15.482 299.489 15.254C300.029 15.014 300.443 14.708 300.731 14.336V9.458H299.273V7.946H301.001H302.495V14.75C302.495 15.026 302.555 15.224 302.675 15.344C302.807 15.452 303.017 15.506 303.305 15.506C303.509 15.506 303.677 15.488 303.809 15.452L303.899 16.964ZM309.385 16.964C308.977 17.108 308.575 17.18 308.179 17.18C307.507 17.18 307.009 16.988 306.685 16.604C306.361 16.22 306.199 15.578 306.199 14.678V5.822H304.993V4.382C305.761 4.334 306.757 4.31 307.981 4.31V14.75C307.981 15.026 308.041 15.224 308.161 15.344C308.281 15.452 308.485 15.506 308.773 15.506C308.989 15.506 309.163 15.488 309.295 15.452L309.385 16.964Z" fill="#8A8A8A"/>
</svg>
