<svg width="346" height="40" viewBox="0 0 346 40" fill="none" xmlns="http://www.w3.org/2000/svg">
<path d="M25.664 8.6V13.048H23.52V26.648H25.632V31H15.488V26.52H17.632V21.848H9.28V26.648H11.392V31H1.28V26.52H3.424V12.952H1.312V8.6H11.456V13.048H9.28V17.24H17.632V12.952H15.552V8.6H25.664ZM42.8415 26.424V23.576H47.3855V31H28.2175V26.52H30.3615V12.952H28.2495V8.6H47.0975V15.96H42.5215V13.144H36.2175V17.592H42.4255V21.624H36.2175V26.424H42.8415ZM52.02 12.92H49.876V8.6H60.084V12.92H57.908V13.336L57.94 26.264V26.68H60.084V31H49.876V26.68H52.02V12.92ZM83.6768 30.744C83.1861 30.9573 82.6634 31.1173 82.1088 31.224C81.5754 31.3307 80.8928 31.384 80.0608 31.384C78.8234 31.384 77.8208 31.128 77.0528 30.616C76.3061 30.104 75.6874 29.2827 75.1968 28.152L73.3408 24.024H72.7008H70.4288V31H69.5008H65.5008H64.5088V12.952H62.4288V8.6H72.9888C76.0181 8.6 78.4074 9.26133 80.1568 10.584C81.9061 11.9067 82.7808 13.7947 82.7808 16.248C82.7808 17.528 82.4288 18.7227 81.7248 19.832C81.0208 20.92 80.0501 21.816 78.8128 22.52L79.7728 24.664C80.0928 25.3893 80.4021 25.88 80.7008 26.136C81.0208 26.3707 81.4368 26.488 81.9488 26.488C82.3754 26.488 82.8128 26.424 83.2608 26.296L83.6768 30.744ZM70.4288 19.576H72.8928C74.1941 19.576 75.1754 19.32 75.8368 18.808C76.5194 18.296 76.8608 17.4853 76.8608 16.376C76.8608 14.2853 75.5381 13.24 72.8928 13.24H70.4288V19.576ZM99.9665 26.424V23.576H104.511V31H85.3425V26.52H87.4865V12.952H85.3745V8.6H104.223V15.96H99.6465V13.144H93.3425V17.592H99.5505V21.624H93.3425V26.424H99.9665ZM121.529 8.6L127.449 26.68H129.721V31H123.065L121.689 26.648H114.009L112.633 31H106.073V26.68H108.281L112.825 12.92H110.905V8.6H121.529ZM117.881 14.552L115.417 22.296H120.345L117.881 14.552ZM149.96 29.72C148.957 30.2533 147.709 30.68 146.216 31C144.744 31.2987 143.261 31.448 141.768 31.448C138.12 31.448 135.261 30.4453 133.192 28.44C131.144 26.4347 130.12 23.5333 130.12 19.736C130.12 16.152 131.101 13.3253 133.064 11.256C135.027 9.18667 137.864 8.152 141.576 8.152C143.048 8.152 144.531 8.33333 146.024 8.696C147.539 9.05867 148.787 9.528 149.768 10.104V18.072H144.552V13.688C143.656 13.3253 142.76 13.144 141.864 13.144C139.987 13.144 138.547 13.7093 137.544 14.84C136.541 15.9707 136.04 17.6027 136.04 19.736C136.04 21.9333 136.552 23.5973 137.576 24.728C138.621 25.8587 140.243 26.424 142.44 26.424C143.485 26.424 144.563 26.3067 145.672 26.072C146.803 25.816 148.051 25.4427 149.416 24.952L149.96 29.72ZM176.695 8.6V13.048H174.551V26.648H176.663V31H166.519V26.52H168.663V21.848H160.311V26.648H162.423V31H152.311V26.52H154.455V12.952H152.343V8.6H162.487V13.048H160.311V17.24H168.663V12.952H166.583V8.6H176.695ZM216.135 8.6V13.048H213.991V26.648H216.071V31H209.159H208.167V17.944L203.015 27.768H200.775L195.591 17.944V31H194.663H187.655V26.52H189.799V12.952H187.687V8.6H195.783L201.895 19.928L208.007 8.6H216.135ZM233.279 26.424V23.576H237.823V31H218.655V26.52H220.799V12.952H218.687V8.6H237.535V15.96H232.959V13.144H226.655V17.592H232.863V21.624H226.655V26.424H233.279ZM241.978 31V12.952H239.898V8.6H250.554C254.372 8.6 257.306 9.592 259.354 11.576C261.402 13.5387 262.426 16.2587 262.426 19.736C262.426 22.1253 261.946 24.1627 260.986 25.848C260.026 27.5333 258.66 28.8133 256.89 29.688C255.119 30.5627 253.018 31 250.586 31H241.978ZM250.33 26.168C252.314 26.168 253.828 25.6133 254.874 24.504C255.94 23.3947 256.474 21.816 256.474 19.768C256.474 17.7627 255.94 16.2053 254.874 15.096C253.828 13.9653 252.303 13.4 250.298 13.4H247.866V26.168H250.33ZM266.426 12.92H264.282V8.6H274.49V12.92H272.314V13.336L272.346 26.264V26.68H274.49V31H264.282V26.68H266.426V12.92ZM291.779 8.6L297.699 26.68H299.971V31H293.315L291.939 26.648H284.259L282.883 31H276.323V26.68H278.531L283.075 12.92H281.155V8.6H291.779ZM288.131 14.552L285.667 22.296H290.595L288.131 14.552Z" fill="#0066EE"/>
</svg>
