<?xml version="1.0" encoding="UTF-8"?>
<svg id="Layer_2" data-name="Layer 2" xmlns="http://www.w3.org/2000/svg" viewBox="0 0 48 46">
  <defs>
    <style>
      .cls-1 {
        fill: #003d8f;
      }

      .cls-2 {
        fill: #06e;
      }
    </style>
  </defs>
  <g id="Layer_2-2" data-name="Layer 2">
    <g>
      <path class="cls-1" d="M.17,46h-.17v-13.41h.17c3.75,0,6.8-3.05,6.8-6.8v-4.71H0V3.31h17.77v25.09c0,9.7-7.89,17.6-17.6,17.6h0ZM.35,32.93v12.72c9.43-.09,17.07-7.79,17.07-17.25V3.66H.35v17.07h6.97v5.05c0,3.88-3.11,7.05-6.97,7.14H.35Z"/>
      <path class="cls-1" d="M44.69,46h-17.77v-25.09c0-9.7,7.89-17.6,17.6-17.6h.17v13.41h-.17c-3.75,0-6.8,3.05-6.8,6.8v4.71h6.97v17.77h0ZM27.27,45.65h17.07v-17.07h-6.97v-5.05c0-3.88,3.11-7.05,6.97-7.14V3.66c-9.43.09-17.07,7.79-17.07,17.25v24.74h0Z"/>
      <path class="cls-2" d="M30.58,42.34v-24.92C30.58,7.8,38.38,0,48,0h0v13.07h0c-3.85,0-6.97,3.12-6.97,6.97v4.88h6.97v17.42h-17.42Z"/>
      <path class="cls-2" d="M21.08,0v24.92c0,9.62-7.8,17.42-17.42,17.42h0v-13.07h0c3.85,0,6.97-3.12,6.97-6.97v-4.88H3.66V0h17.42Z"/>
    </g>
  </g>
</svg>