<svg width="37" height="36" viewBox="0 0 37 36" fill="none" xmlns="http://www.w3.org/2000/svg">
<path d="M1.11489 35.9024H0.987385V25.5862H1.11489C3.87676 25.5862 6.12246 23.2427 6.12246 20.3605V16.7422H0.987385V3.07589H14.0832V22.3692C14.0832 29.8311 8.26533 35.9024 1.11489 35.9024ZM1.24445 25.8523V35.6342C8.19335 35.5612 13.8261 29.6401 13.8261 22.3713V3.34415H1.24445V16.4739H6.37952V20.3605C6.37952 23.3457 4.08653 25.7815 1.24445 25.8523Z" fill="#003D8F"/>
<path d="M33.9203 35.9024H20.8245V16.6091C20.8245 9.14716 26.6423 3.07589 33.7928 3.07589H33.9203V13.3921H33.7928C31.0309 13.3921 28.7852 15.7356 28.7852 18.6178V22.2361H33.9203V35.9024ZM21.0815 35.6342H33.6632V22.5044H28.5281V18.6178C28.5281 15.6326 30.8211 13.1968 33.6632 13.126V3.34415C26.7143 3.41712 21.0815 9.33817 21.0815 16.607V35.632V35.6342Z" fill="#003D8F"/>
<path d="M23.5199 33.0886V13.9284C23.5199 6.52866 29.2678 0.530354 36.3586 0.530354V10.5783C33.5227 10.5783 31.2235 12.9776 31.2235 15.9371V19.6885H36.3586V33.0865H23.5199V33.0886Z" fill="white"/>
<path d="M16.5226 0.530354V19.6906C16.5226 27.0903 10.7747 33.0886 3.68385 33.0886V23.0406C6.51976 23.0406 8.81892 20.6413 8.81892 17.6819V13.9305H3.68385V0.530354H16.5226Z" fill="white"/>
</svg>
