<svg width="336" height="224" viewBox="0 0 336 224" fill="none" xmlns="http://www.w3.org/2000/svg">
<rect x="1" y="1" width="334" height="222" rx="16" fill="white" stroke="#0066EE" stroke-width="2"/>
<g clip-path="url(#clip0_1665_13714)">
<rect x="58" y="2" width="220" height="220" rx="15" fill="white"/>
<path d="M242.342 161.702C242.327 161.764 242.312 161.823 242.29 161.885C233.439 157.309 226.076 150.339 219.194 143.134C210.687 134.231 202.716 124.819 195.331 114.97C191.25 109.529 187.265 103.838 181.845 99.6176C176.452 95.4156 169.298 92.8526 162.698 94.6529C156.41 96.3689 151.779 101.612 147.929 106.867C139.778 117.98 133.295 130.33 124.183 140.67C119.497 145.986 114.148 150.724 108.299 154.735C107.537 155.259 106.173 155.842 105.227 155.52C104.281 155.197 104.398 154.269 104.966 153.639C105.7 152.825 107.104 152.33 108.032 151.739C109.11 151.054 110.162 150.328 111.185 149.569C115.31 146.507 118.999 142.884 122.354 139.001C124.546 136.464 126.6 133.813 128.561 131.092C135.169 121.929 140.775 112.059 147.76 103.182C149.476 101 151.295 98.8806 153.399 97.0619C154.958 95.7162 156.776 94.7152 158.617 93.8096C160.124 93.0689 161.979 92.2512 161.719 90.2199C160.971 84.3752 159.911 78.5672 158.555 72.8326C158.258 71.5749 157.986 70.1119 158.804 69.1072C159.622 68.1062 161.814 68.7626 161.393 69.9836C162.705 67.7029 166.218 68.5646 168.411 70.0202C170.607 71.4759 173.287 73.3202 175.612 72.0846C176.646 71.5346 177.992 70.4749 178.721 71.3916C179.136 71.9159 178.872 72.6786 178.593 73.2836C177.258 76.1839 175.374 79.4949 172.187 79.7882C170.57 79.9386 169.012 79.2309 167.413 78.9632C165.815 78.6956 163.831 79.0916 163.222 80.5912C162.918 81.3356 163.032 82.1752 163.153 82.9709C163.574 85.7979 163.996 88.6212 164.421 91.4482C171.817 90.6489 179.154 94.0516 184.808 98.8806C188.599 102.118 191.789 105.979 194.807 109.928C201.873 119.183 208.92 128.35 216.818 136.926C219.253 139.57 221.735 142.166 224.269 144.714C228.625 149.092 233.171 153.364 238.466 156.546C240.446 157.738 242.859 159.52 242.345 161.702H242.342Z" fill="#0022AA"/>
<path d="M74.9253 136.824H133.911C140.471 136.824 145.795 142.148 145.795 148.707V159.055C145.795 165.614 140.471 170.938 133.911 170.938H74.9253C68.3656 170.938 63.0416 165.614 63.0416 159.055V148.707C63.0416 142.148 68.3656 136.824 74.9253 136.824Z" fill="white"/>
<path d="M141.89 171.21H66.9429C64.6403 171.21 62.7666 169.34 62.7666 167.041V140.721C62.7666 138.422 64.6403 136.552 66.9429 136.552H141.89C144.192 136.552 146.066 138.422 146.066 140.721V167.041C146.066 169.34 144.192 171.21 141.89 171.21ZM66.9429 137.099C64.9409 137.099 63.3166 138.723 63.3166 140.721V167.041C63.3166 169.039 64.9446 170.663 66.9429 170.663H141.89C143.892 170.663 145.516 169.039 145.516 167.041V140.721C145.516 138.723 143.888 137.099 141.89 137.099H66.9429Z" fill="black"/>
<path d="M139.217 148.227H69.7259C69.5756 148.227 69.4509 148.106 69.4509 147.952V142.4C69.4509 142.25 69.5719 142.125 69.7259 142.125H139.217C139.367 142.125 139.492 142.246 139.492 142.4V147.952C139.492 148.102 139.371 148.227 139.217 148.227ZM70.0009 147.68H138.945V142.675H70.0009V147.68Z" fill="black"/>
<path d="M139.327 156.983H69.8359C69.6856 156.983 69.5609 156.862 69.5609 156.708V151.156C69.5609 151.006 69.6819 150.881 69.8359 150.881H139.327C139.477 150.881 139.602 151.002 139.602 151.156V156.708C139.602 156.858 139.481 156.983 139.327 156.983ZM70.1109 156.436H139.055V151.431H70.1109V156.436Z" fill="black"/>
<path d="M139.11 165.523H69.6159C69.4656 165.523 69.3409 165.402 69.3409 165.248V159.696C69.3409 159.546 69.4619 159.421 69.6159 159.421H139.107C139.257 159.421 139.382 159.542 139.382 159.696V165.248C139.382 165.398 139.261 165.523 139.107 165.523H139.11ZM69.8909 164.976H138.835V159.971H69.8909V164.976Z" fill="black"/>
<path d="M147.881 80.0637C147.881 92.9483 158.243 103.391 171.021 103.391C183.8 103.391 194.162 92.9483 194.162 80.0637C194.162 67.179 183.8 56.7363 171.021 56.7363C158.243 56.7363 147.881 67.179 147.881 80.0637ZM150.932 80.0637C150.932 68.8767 159.926 59.809 171.021 59.809C182.117 59.809 191.111 68.8767 191.111 80.0637C191.111 91.2507 182.117 100.318 171.021 100.318C159.926 100.318 150.932 91.2507 150.932 80.0637Z" fill="black"/>
<path d="M149.722 109.338C150.367 109.815 151.276 109.676 151.753 109.023L158.511 99.7243L156.168 97.9937L149.41 107.292C148.937 107.945 149.076 108.862 149.722 109.338Z" fill="black"/>
<path d="M75.3947 202.981L69.968 207.279L65.9274 202.391L71.4824 198.248L75.3947 202.981Z" fill="white"/>
<path d="M69.968 207.554C69.8874 207.554 69.8104 207.521 69.7554 207.455L65.7147 202.567C65.667 202.508 65.645 202.435 65.6524 202.362C65.6597 202.288 65.7 202.219 65.7587 202.175L71.3137 198.031C71.431 197.943 71.596 197.965 71.6877 198.075L75.6 202.809C75.6477 202.864 75.6697 202.937 75.6624 203.011C75.655 203.084 75.6184 203.15 75.5597 203.198L70.133 207.495C70.0817 207.535 70.023 207.554 69.9644 207.554H69.968ZM66.3234 202.439L70.0084 206.897L75.006 202.941L71.4384 198.625L66.3197 202.439H66.3234Z" fill="black"/>
<path d="M106.107 208.921L105.909 212.691H99.5984L99.9981 208.921H106.107Z" fill="white"/>
<path d="M105.909 212.966H99.5984C99.5214 212.966 99.448 212.933 99.393 212.874C99.3417 212.815 99.316 212.738 99.3234 212.661L99.723 208.892C99.7377 208.753 99.855 208.646 99.9944 208.646H106.107C106.18 208.646 106.253 208.676 106.305 208.731C106.356 208.786 106.382 208.859 106.378 208.932L106.176 212.702C106.169 212.848 106.048 212.962 105.901 212.962L105.909 212.966ZM99.9027 212.419H105.648L105.821 209.196H100.244L99.9027 212.419Z" fill="black"/>
<path d="M105.659 212.555H99.7999C99.3856 212.555 99.0116 212.805 98.8503 213.193C98.3296 214.466 97.2736 217.443 97.4129 220.266C97.4533 221.036 98.0876 221.641 98.8539 221.641H116.047C116.839 221.641 117.437 220.912 117.279 220.131C117.088 219.196 116.436 217.964 114.551 216.86C111.5 215.071 107.661 213.281 106.451 212.724C106.202 212.61 105.931 212.548 105.652 212.548L105.659 212.555Z" fill="white"/>
<path d="M116.051 221.92H98.8576C97.9409 221.92 97.1893 221.201 97.1416 220.284C96.9949 217.373 98.1096 214.286 98.5973 213.094C98.7989 212.603 99.2683 212.284 99.7999 212.284H105.659C105.975 212.284 106.283 212.35 106.572 212.482C107.698 212.999 111.614 214.821 114.694 216.629C116.718 217.817 117.367 219.162 117.554 220.083C117.646 220.534 117.532 220.999 117.239 221.355C116.945 221.714 116.513 221.916 116.054 221.916L116.051 221.92ZM99.7999 212.83C99.4956 212.83 99.2206 213.013 99.1069 213.299C98.6339 214.458 97.5486 217.454 97.6916 220.255C97.7246 220.882 98.2379 221.37 98.8613 221.37H116.054C116.351 221.37 116.626 221.238 116.817 221.007C117.004 220.776 117.081 220.479 117.022 220.189C116.857 219.379 116.274 218.183 114.423 217.098C111.361 215.301 107.471 213.49 106.349 212.977C106.132 212.878 105.901 212.826 105.667 212.826H99.8073L99.7999 212.83Z" fill="black"/>
<path d="M107.009 217.945C106.957 217.945 106.906 217.93 106.858 217.901C106.734 217.817 106.697 217.648 106.781 217.523L109.117 213.989C109.201 213.864 109.37 213.827 109.495 213.912C109.619 213.996 109.656 214.165 109.572 214.289L107.236 217.824C107.185 217.905 107.097 217.945 107.009 217.945Z" fill="black"/>
<path d="M109.271 219.294C109.22 219.294 109.168 219.28 109.121 219.25C108.996 219.166 108.959 218.997 109.044 218.873L111.379 215.338C111.464 215.213 111.632 215.177 111.757 215.261C111.882 215.345 111.918 215.514 111.834 215.639L109.498 219.173C109.447 219.254 109.359 219.294 109.271 219.294Z" fill="black"/>
<path d="M69.8763 207.389L66.2463 202.75C65.9896 202.42 65.5606 202.281 65.161 202.395C63.8483 202.772 60.8746 203.777 58.7626 205.639C58.187 206.149 58.11 207.026 58.583 207.634L69.231 221.241C69.7223 221.868 70.661 221.89 71.1706 221.281C71.783 220.552 72.333 219.272 72.0286 217.094C71.5336 213.57 70.551 209.423 70.232 208.125C70.166 207.854 70.045 207.605 69.8726 207.385L69.8763 207.389Z" fill="white"/>
<path d="M70.2247 222C70.2247 222 70.2063 222 70.199 222C69.737 221.993 69.3043 221.776 69.0183 221.41L58.3703 207.803C57.8057 207.08 57.8973 206.039 58.583 205.438C60.761 203.52 63.8557 202.49 65.0877 202.134C65.5973 201.987 66.1363 202.163 66.4627 202.581L70.0927 207.22C70.287 207.469 70.4263 207.751 70.4997 208.063C70.7967 209.273 71.7977 213.501 72.3 217.061C72.63 219.397 71.981 220.742 71.3797 221.461C71.09 221.806 70.6683 222 70.221 222H70.2247ZM65.4433 202.629C65.3737 202.629 65.3077 202.64 65.238 202.658C64.0427 203.003 61.0397 204 58.946 205.845C58.4767 206.259 58.4143 206.97 58.803 207.465L69.451 221.072C69.6343 221.307 69.913 221.446 70.21 221.45C70.507 221.446 70.7783 221.329 70.9653 221.105C71.4933 220.475 72.0617 219.272 71.761 217.134C71.2623 213.6 70.265 209.394 69.9717 208.191C69.913 207.957 69.8103 207.744 69.6637 207.557L66.0337 202.919C65.887 202.732 65.6707 202.629 65.447 202.629H65.4433Z" fill="black"/>
<path d="M66.7267 211.898C66.5837 211.898 66.4663 211.788 66.4553 211.645C66.4443 211.495 66.5543 211.363 66.7047 211.352L70.9067 211.014C71.057 211 71.189 211.113 71.2 211.264C71.211 211.414 71.101 211.546 70.9507 211.557L66.7487 211.894C66.7487 211.894 66.734 211.894 66.7267 211.894V211.898Z" fill="black"/>
<path d="M67.0786 214.524C66.9356 214.524 66.8183 214.414 66.8073 214.271C66.7963 214.12 66.9063 213.988 67.0566 213.977L71.2586 213.64C71.4089 213.625 71.5409 213.739 71.5519 213.889C71.5629 214.04 71.4529 214.172 71.3026 214.183L67.1006 214.52C67.1006 214.52 67.0859 214.52 67.0786 214.52V214.524Z" fill="black"/>
<path d="M92.1954 147.237C92.1954 147.237 90.1787 153.782 89.5114 163.344C88.8441 172.907 74.5881 183.709 69.6454 198.251L74.8961 204.598C74.8961 204.598 90.7471 192.37 93.7867 187.313C96.9987 181.975 100.867 170.887 100.867 170.887L98.1024 150.408L97.6184 150.295C96.3607 149.998 95.1764 149.525 94.0214 148.964C93.2514 148.59 92.6134 147.988 92.1954 147.24V147.237Z" fill="white"/>
<path d="M93.7757 148.964C93.7757 148.964 92.3824 157.621 96.7897 164.687C101.197 171.756 100.797 179.027 99.9944 182.661C99.1914 186.294 97.1894 197.203 99.9944 208.918C99.9944 208.918 102.799 210.128 106.107 208.918C106.107 208.918 114.621 189.528 115.024 177.612C115.424 165.695 110.415 149.54 110.415 149.54C110.415 149.54 100.383 152.539 93.7757 148.964Z" fill="white"/>
<path d="M147.43 110.922C147.151 110.739 146.964 110.445 146.917 110.115C146.744 109.001 146.513 106.394 147.738 104.876C149.329 102.907 152.054 102.129 152.373 102.679C152.692 103.229 148.647 106.757 150.011 108.817C150.011 108.817 151.258 109.21 153.033 107.736C153.282 107.53 153.667 107.666 153.726 107.985C153.806 108.425 153.766 109.096 153.282 110.005C152.662 111.164 151.533 111.963 150.818 112.381C150.437 112.605 149.964 112.59 149.597 112.348L147.434 110.922H147.43Z" fill="white"/>
<path d="M150.231 112.814C149.956 112.814 149.681 112.733 149.443 112.576L147.28 111.149C146.939 110.926 146.708 110.563 146.645 110.156C146.477 109.052 146.224 106.317 147.525 104.703C148.904 102.998 151.056 102.17 152.017 102.236C152.38 102.265 152.538 102.415 152.611 102.54C152.805 102.877 152.475 103.325 151.819 104.219C150.895 105.473 149.509 107.354 150.184 108.572C150.481 108.619 151.485 108.663 152.857 107.523C153.051 107.362 153.308 107.318 153.546 107.406C153.784 107.494 153.949 107.692 153.993 107.937C154.074 108.385 154.056 109.129 153.52 110.134C152.89 111.318 151.775 112.136 150.954 112.616C150.73 112.748 150.481 112.814 150.231 112.814ZM147.584 110.695L149.747 112.121C150.03 112.308 150.389 112.319 150.682 112.147C151.306 111.784 152.442 111.003 153.044 109.877C153.506 109.012 153.524 108.396 153.462 108.033C153.447 107.956 153.388 107.93 153.363 107.919C153.337 107.912 153.271 107.893 153.212 107.945C151.346 109.496 149.989 109.092 149.934 109.074C149.876 109.056 149.824 109.015 149.788 108.964C148.776 107.431 150.345 105.305 151.383 103.893C151.676 103.493 152.035 103.006 152.109 102.8C152.061 102.786 151.955 102.764 151.753 102.782C150.873 102.859 149.113 103.611 147.958 105.044C146.792 106.485 147.034 109.041 147.192 110.071C147.232 110.324 147.375 110.552 147.588 110.691L147.584 110.695Z" fill="black"/>
<path d="M84.0407 141.898C84.0407 141.898 77.129 141.26 75.402 142.246C73.675 143.232 73.8473 144.453 74.5953 144.974C75.1783 145.381 78.812 145.121 80.4107 144.985C80.5353 144.974 80.583 145.15 80.4657 145.201C79.549 145.605 78.064 146.364 78.2253 147.009C78.4563 147.937 84.2717 146.081 84.2717 146.081L84.0407 141.901V141.898Z" fill="white"/>
<path d="M78.9439 147.534C78.6323 147.534 78.3829 147.497 78.2216 147.405C78.0456 147.306 77.9796 147.171 77.9539 147.072C77.9026 146.859 77.7523 146.265 79.5563 145.326C76.5973 145.55 74.8739 145.506 74.4339 145.198C74.0013 144.894 73.7556 144.413 73.7776 143.911C73.8106 143.214 74.3349 142.536 75.2626 142.008C77.0446 140.989 83.7766 141.597 84.0626 141.623C84.1983 141.634 84.3046 141.744 84.3119 141.88L84.5429 146.06C84.5503 146.184 84.4733 146.298 84.3523 146.335C83.6409 146.562 80.5169 147.53 78.9439 147.53V147.534ZM80.4179 144.71C80.5939 144.71 80.7479 144.828 80.7919 145C80.8396 145.183 80.7479 145.374 80.5719 145.447C78.8193 146.214 78.4416 146.756 78.4856 146.94C78.7716 147.204 81.2686 146.731 83.9819 145.88L83.7766 142.147C81.7159 141.971 76.8356 141.737 75.5339 142.481C74.7786 142.914 74.3496 143.431 74.3239 143.933C74.3093 144.252 74.4633 144.549 74.7456 144.747C75.0059 144.93 76.6376 145.029 80.3813 144.71C80.3923 144.71 80.4033 144.71 80.4143 144.71H80.4179Z" fill="black"/>
<path d="M98.997 135.874C101.267 127.796 104.875 117.023 111.152 115.406L111.053 110.508C111.053 110.508 122.262 112.587 123.146 118.948C128.07 120.246 133.379 119.828 138.12 117.529C140.951 116.158 143.866 113.06 146.678 109.95L151.335 112.979C151.335 112.979 141.6 136.812 119.695 130.212C119.695 130.212 112.985 135.243 113.92 147.768C113.92 147.768 105.054 154.988 92.8846 148.425C92.8846 148.425 96.7236 143.948 98.997 135.87V135.874Z" fill="#0066EE"/>
<path d="M82.9663 140.959L83.4686 147.119C83.4686 147.119 100.599 157.283 113.689 126.722L102.469 125.578C102.469 125.578 98.5973 137.56 82.97 140.959H82.9663Z" fill="#0066EE"/>
<path d="M93.0643 149.096C92.9397 149.096 92.8297 149.011 92.7967 148.887C92.76 148.74 92.8517 148.593 92.9983 148.557C102.898 146.206 106.792 140.941 109.924 136.706C110.012 136.585 110.184 136.559 110.305 136.647C110.426 136.735 110.452 136.908 110.364 137.029C107.181 141.333 103.217 146.69 93.123 149.085C93.101 149.088 93.079 149.092 93.0607 149.092L93.0643 149.096Z" fill="white"/>
<path d="M115.9 122.96C115.9 122.96 115.893 122.96 115.889 122.96C115.739 122.952 115.622 122.828 115.625 122.677C115.853 117.045 113.224 113.078 113.194 113.038C113.11 112.913 113.143 112.744 113.268 112.66C113.392 112.576 113.565 112.609 113.649 112.733C113.763 112.898 116.406 116.88 116.172 122.699C116.164 122.846 116.043 122.963 115.897 122.963L115.9 122.96Z" fill="white"/>
<path d="M120.033 130.091C119.959 130.091 119.882 130.062 119.827 130C119.725 129.886 119.736 129.714 119.849 129.615C122.68 127.081 122.599 124.338 122.596 124.309C122.588 124.159 122.706 124.03 122.856 124.023C123.003 124.023 123.135 124.133 123.142 124.283C123.149 124.404 123.248 127.305 120.212 130.022C120.161 130.069 120.095 130.091 120.029 130.091H120.033Z" fill="white"/>
<path d="M124.913 105.25C124.913 105.25 127.964 104.623 127.663 106.573C127.362 108.524 127.256 113.118 125.694 113.683C124.132 114.248 122.42 112.033 121.345 113.016C120.271 113.998 119.527 115.472 118.995 117.291C118.672 117.408 117.994 117.595 117.195 117.401C115.585 117.009 114.958 115.417 114.896 115.252C115.292 114.834 115.706 114.328 116.12 113.734C116.766 112.814 117.473 111.567 117.734 110.266L124.917 105.246L124.913 105.25Z" fill="white"/>
<path d="M117.895 117.761C117.653 117.761 117.396 117.735 117.125 117.669C115.391 117.247 114.709 115.546 114.635 115.352C114.599 115.253 114.621 115.143 114.694 115.069C115.094 114.651 115.497 114.153 115.893 113.584C116.465 112.767 117.202 111.516 117.462 110.222C117.477 110.152 117.517 110.09 117.572 110.05L124.755 105.03C124.785 105.008 124.821 104.993 124.858 104.986C125.052 104.946 126.779 104.619 127.575 105.375C127.894 105.679 128.015 106.097 127.934 106.621C127.876 107.006 127.821 107.512 127.766 108.051C127.513 110.453 127.197 113.438 125.786 113.947C124.924 114.259 124.059 113.845 123.292 113.482C122.456 113.086 121.925 112.858 121.525 113.225C120.55 114.116 119.805 115.473 119.252 117.376C119.226 117.46 119.164 117.526 119.079 117.555C118.779 117.662 118.368 117.764 117.891 117.764L117.895 117.761ZM115.215 115.311C115.405 115.737 116.014 116.833 117.257 117.134C117.855 117.28 118.39 117.192 118.771 117.075C119.351 115.146 120.132 113.749 121.158 112.811C121.851 112.18 122.706 112.583 123.531 112.979C124.231 113.313 124.953 113.658 125.602 113.423C126.688 113.031 127.01 109.995 127.223 107.985C127.282 107.443 127.333 106.929 127.395 106.53C127.447 106.189 127.384 105.939 127.201 105.763C126.721 105.305 125.518 105.411 125.027 105.503L117.979 110.427C117.745 111.513 117.195 112.675 116.344 113.889C115.97 114.42 115.592 114.897 115.215 115.308V115.311Z" fill="black"/>
<path d="M124.675 110.365C124.645 110.365 124.612 110.361 124.579 110.346C123.512 109.958 123.149 108.63 123.263 107.483C123.366 106.456 123.809 105.734 124.4 105.646C125.738 105.44 126.193 107.49 126.211 107.574C126.244 107.721 126.149 107.868 126.002 107.897C125.855 107.926 125.709 107.835 125.676 107.688C125.676 107.673 125.305 106.067 124.484 106.185C124.172 106.232 123.883 106.812 123.809 107.534C123.721 108.44 123.982 109.543 124.77 109.829C124.913 109.881 124.986 110.038 124.935 110.181C124.895 110.291 124.788 110.361 124.678 110.361L124.675 110.365Z" fill="black"/>
<path d="M125.643 106.793C125.643 106.793 128.774 107.373 128.671 104.278C128.572 101.18 126.376 98.1438 120.498 99.3538C120.498 99.3538 119.164 95.2801 115.757 96.4571C112.351 97.6341 113.455 102.987 116.861 103.46C116.861 103.46 114.012 108.693 117.635 110.607C118.551 111.091 119.618 111.175 120.627 110.955C121.697 110.72 123.08 110.189 123.641 108.982C123.641 108.982 123.153 106.489 124.103 105.987C125.056 105.481 125.643 106.797 125.643 106.797V106.793Z" fill="black"/>
<path d="M74.896 204.87C74.8153 204.87 74.7383 204.837 74.6833 204.771L69.4326 198.424C69.374 198.35 69.3556 198.251 69.385 198.163C71.816 191.013 76.5203 184.71 80.6746 179.152C85.0893 173.241 88.9026 168.133 89.2363 163.326C89.9 153.844 91.9093 147.226 91.9313 147.16C91.9643 147.057 92.056 146.98 92.1623 146.969C92.2723 146.958 92.375 147.013 92.43 147.108C92.826 147.812 93.4163 148.37 94.1386 148.718C94.2743 148.784 94.3293 148.949 94.2633 149.085C94.1973 149.221 94.0323 149.279 93.8966 149.21C93.2586 148.902 92.7123 148.451 92.2906 147.89C91.7993 149.679 90.329 155.538 89.7826 163.366C89.4343 168.335 85.577 173.498 81.111 179.482C77.0116 184.971 72.366 191.189 69.9533 198.2L74.9363 204.224C76.8173 202.758 90.758 191.816 93.552 187.178C95.8546 183.35 98.4873 176.585 99.8513 172.893C99.9026 172.75 100.06 172.68 100.203 172.731C100.346 172.783 100.416 172.94 100.365 173.083C98.9933 176.794 96.346 183.595 94.0213 187.46C90.989 192.502 75.7136 204.32 75.0646 204.822C75.0133 204.859 74.9546 204.88 74.896 204.88V204.87Z" fill="black"/>
<path d="M103.045 209.735C101.226 209.735 99.9687 209.203 99.888 209.17C99.8074 209.137 99.7487 209.068 99.7304 208.983C96.9987 197.569 98.8174 186.734 99.7304 182.605C100.214 180.405 101.417 172.625 96.5587 164.833C92.1477 157.76 93.4897 149.008 93.5044 148.92C93.519 148.832 93.574 148.758 93.6547 148.718C93.7354 148.678 93.827 148.681 93.9077 148.722C100.335 152.201 110.239 149.305 110.338 149.275C110.481 149.231 110.635 149.312 110.679 149.455C110.73 149.616 115.699 165.794 115.299 177.619C114.899 189.451 106.448 208.829 106.36 209.024C106.33 209.093 106.272 209.145 106.202 209.17C105.058 209.588 103.976 209.728 103.045 209.728V209.735ZM100.229 208.719C100.79 208.921 103.173 209.662 105.901 208.705C106.583 207.132 114.368 188.879 114.749 177.608C115.116 166.688 110.862 151.992 110.232 149.88C108.6 150.328 100.09 152.432 93.9994 149.389C93.8014 151.127 93.244 158.479 97.028 164.547C101.996 172.515 100.764 180.475 100.269 182.726C99.371 186.8 97.5744 197.466 100.236 208.719H100.229Z" fill="black"/>
<path d="M135.352 216.155H135.345C133.706 216.104 132.045 216.027 130.413 215.924C130.263 215.913 130.149 215.785 130.156 215.635C130.167 215.484 130.296 215.374 130.446 215.378C132.074 215.477 133.728 215.554 135.363 215.609C135.513 215.613 135.634 215.741 135.627 215.891C135.623 216.038 135.502 216.155 135.352 216.155Z" fill="black"/>
<path d="M140.544 216.24C138.813 216.24 137.079 216.21 135.341 216.155C135.191 216.152 135.07 216.023 135.077 215.873C135.081 215.723 135.213 215.594 135.359 215.609C158.089 216.335 180.192 212.276 197.597 204.18C197.733 204.118 197.898 204.176 197.96 204.312C198.023 204.448 197.964 204.613 197.828 204.675C181.677 212.184 161.506 216.24 140.544 216.24Z" fill="black"/>
<path d="M139.583 209.966C139.433 209.966 139.312 209.845 139.308 209.698C139.308 209.548 139.426 209.423 139.576 209.42C156.014 209.159 171.744 206.2 185.068 200.869C185.208 200.81 185.369 200.88 185.424 201.019C185.479 201.159 185.413 201.32 185.27 201.375C171.887 206.732 156.087 209.702 139.583 209.966Z" fill="black"/>
<path d="M193.183 62.5662C193.161 62.5662 193.135 62.5662 193.113 62.5589C192.966 62.5185 192.878 62.3719 192.919 62.2252L193.465 60.1755C193.505 60.0289 193.656 59.9445 193.799 59.9812C193.945 60.0215 194.033 60.1682 193.993 60.3149L193.447 62.3645C193.414 62.4855 193.304 62.5662 193.183 62.5662Z" fill="black"/>
<path d="M191.914 67.344C191.892 67.344 191.866 67.344 191.844 67.3367C191.698 67.2964 191.61 67.1497 191.65 67.003L192.196 64.9534C192.237 64.8067 192.383 64.7224 192.53 64.759C192.677 64.7994 192.765 64.946 192.724 65.0927L192.178 67.1424C192.145 67.2634 192.035 67.344 191.914 67.344Z" fill="black"/>
<path d="M191.456 63.567C191.434 63.567 191.408 63.567 191.386 63.5597L189.333 63.017C189.186 62.9767 189.098 62.83 189.138 62.6834C189.179 62.5367 189.325 62.4524 189.472 62.489L191.525 63.0317C191.672 63.072 191.76 63.2187 191.72 63.3654C191.687 63.4864 191.577 63.567 191.456 63.567Z" fill="black"/>
<path d="M196.237 64.8361C196.215 64.8361 196.189 64.8361 196.167 64.8287L194.114 64.2861C193.967 64.2457 193.879 64.0991 193.92 63.9524C193.96 63.8057 194.11 63.7214 194.253 63.7581L196.307 64.3007C196.453 64.3411 196.541 64.4877 196.501 64.6344C196.468 64.7554 196.358 64.8361 196.237 64.8361Z" fill="black"/>
<path d="M209.001 200.932C208.627 200.932 208.249 200.862 207.89 200.723C207.105 200.418 206.485 199.817 206.144 199.036C205.455 197.437 206.17 195.56 207.743 194.856C208.498 194.515 209.342 194.497 210.112 194.794C210.896 195.098 211.516 195.699 211.857 196.48C212.546 198.079 211.831 199.956 210.258 200.66C209.855 200.84 209.43 200.932 209.001 200.932ZM209.001 195.131C208.649 195.131 208.297 195.204 207.967 195.355C206.665 195.938 206.075 197.492 206.647 198.82C206.925 199.469 207.439 199.964 208.088 200.213C208.722 200.459 209.415 200.44 210.035 200.162C211.336 199.579 211.927 198.024 211.355 196.697C211.076 196.048 210.563 195.553 209.914 195.303C209.617 195.19 209.309 195.131 209.001 195.131Z" fill="black"/>
<path d="M222.945 32.584C222.861 32.584 222.776 32.5436 222.721 32.4703C222.677 32.408 218.16 26.2186 207.956 20.0256C198.54 14.3093 182.216 7.42696 157.924 7.08963C157.774 7.08963 157.653 6.96496 157.653 6.81096C157.653 6.66063 157.774 6.53596 157.931 6.53963C182.362 6.88063 198.789 13.818 208.267 19.5746C218.552 25.8226 223.117 32.089 223.165 32.1513C223.253 32.2723 223.224 32.4446 223.103 32.5326C223.055 32.5656 223 32.584 222.945 32.584Z" fill="black"/>
<path d="M230.678 33.3245C230.583 33.3245 230.491 33.2768 230.44 33.1888C230.403 33.1265 226.597 26.7135 217.144 19.7651C208.418 13.3521 192.959 5.15713 168.862 2.54646C168.711 2.53179 168.601 2.39613 168.62 2.24579C168.634 2.09546 168.77 1.98913 168.92 2.00379C193.161 4.62913 208.715 12.8828 217.496 19.3435C227.026 26.3578 230.872 32.8478 230.913 32.9138C230.99 33.0458 230.946 33.2108 230.814 33.2878C230.77 33.3135 230.722 33.3245 230.678 33.3245Z" fill="black"/>
<path d="M240.923 37.7503C240.002 37.7503 239.357 37.5119 238.972 37.0353C238.488 36.4376 238.624 35.7153 238.756 35.0186C238.88 34.3623 238.998 33.7389 238.646 33.1963C238.224 32.5473 237.395 32.4593 236.519 32.3676C235.558 32.2649 234.565 32.1623 233.993 31.3043C233.487 30.5453 233.674 29.7093 233.835 28.9686C233.993 28.2609 234.128 27.6486 233.718 27.1683C233.369 26.7576 232.827 26.6769 232.255 26.5889C231.584 26.4899 230.825 26.3763 230.399 25.6539C230.176 25.2763 230.157 24.9316 230.143 24.6273C230.128 24.3266 230.117 24.0919 229.915 23.8463C229.596 23.4539 228.984 23.2743 228.1 23.3183C227.957 23.3256 227.822 23.2083 227.814 23.0579C227.807 22.9076 227.924 22.7793 228.075 22.7719C229.138 22.7243 229.904 22.9699 230.341 23.5016C230.656 23.8866 230.674 24.2643 230.689 24.6016C230.704 24.8766 230.715 25.1149 230.869 25.3753C231.162 25.8739 231.705 25.9546 232.335 26.0463C232.951 26.1379 233.652 26.2443 234.136 26.8126C234.722 27.5019 234.543 28.3086 234.37 29.0859C234.216 29.7789 234.07 30.4353 234.447 30.9999C234.876 31.6416 235.701 31.7296 236.574 31.8213C237.538 31.9239 238.536 32.0303 239.1 32.8956C239.573 33.6216 239.423 34.4173 239.291 35.1176C239.174 35.7446 239.067 36.2873 239.394 36.6906C239.852 37.2589 241.007 37.3543 242.73 36.9656C242.877 36.9326 243.024 37.0243 243.057 37.1709C243.09 37.3176 242.998 37.4643 242.851 37.4973C242.107 37.6659 241.465 37.7503 240.919 37.7503H240.923Z" fill="black"/>
<path d="M263.601 203.179L264.91 212.371H267.748L267.906 203.329L263.601 203.179Z" fill="white"/>
<path d="M267.748 212.646H264.91C264.774 212.646 264.657 212.547 264.639 212.412L263.326 203.219C263.315 203.139 263.341 203.058 263.392 202.999C263.447 202.941 263.524 202.9 263.605 202.908L267.913 203.058C268.063 203.062 268.181 203.186 268.177 203.337L268.019 212.379C268.019 212.529 267.895 212.646 267.744 212.646H267.748ZM265.148 212.1H267.48L267.631 203.597L263.92 203.465L265.152 212.1H265.148Z" fill="black"/>
<path d="M264.796 221.16C266.153 221.307 268.375 221.399 270.967 220.955C271.818 220.808 272.353 219.965 272.122 219.136C271.473 216.83 270.073 212.459 268.309 210.472L267.924 211.594L267.308 210.567C267.224 210.428 267.077 210.336 266.916 210.322L265.636 210.201C265.368 210.175 265.126 210.358 265.082 210.622L264.91 211.59L264.426 210.344L263.517 219.58C263.44 220.368 264.008 221.076 264.8 221.16H264.796Z" fill="white"/>
<path d="M267.117 221.556C266.197 221.556 265.401 221.501 264.771 221.435C263.836 221.336 263.154 220.493 263.245 219.558L264.155 210.321C264.166 210.197 264.265 210.094 264.389 210.076C264.514 210.061 264.635 210.131 264.683 210.248L264.815 210.585C264.884 210.178 265.258 209.9 265.665 209.933L266.945 210.054C267.194 210.076 267.418 210.219 267.546 210.431L267.858 210.952L268.052 210.387C268.085 210.296 268.162 210.226 268.258 210.208C268.353 210.189 268.452 210.222 268.518 210.296C270.304 212.312 271.708 216.657 272.39 219.07C272.522 219.539 272.449 220.042 272.188 220.452C271.928 220.867 271.503 221.149 271.019 221.233C269.581 221.479 268.258 221.563 267.121 221.563L267.117 221.556ZM264.584 211.513L263.784 219.609C263.722 220.247 264.188 220.823 264.822 220.892C266.201 221.039 268.379 221.123 270.916 220.691C271.246 220.632 271.536 220.441 271.715 220.159C271.895 219.873 271.943 219.539 271.851 219.217C271.224 216.991 269.974 213.097 268.401 211.033L268.177 211.689C268.144 211.788 268.052 211.861 267.946 211.872C267.843 211.883 267.737 211.832 267.682 211.74L267.066 210.717C267.026 210.651 266.956 210.607 266.883 210.6L265.603 210.479C265.478 210.464 265.365 210.556 265.343 210.677L265.17 211.645C265.148 211.766 265.049 211.858 264.928 211.869C264.807 211.88 264.69 211.81 264.646 211.696L264.576 211.517L264.584 211.513Z" fill="black"/>
<path d="M268.023 219.987C266.08 219.987 264.584 219.62 264.488 219.598C264.342 219.562 264.254 219.415 264.29 219.268C264.327 219.122 264.474 219.03 264.624 219.07C264.657 219.078 267.997 219.892 271.125 219.07C271.272 219.03 271.422 219.118 271.459 219.265C271.495 219.411 271.411 219.562 271.264 219.598C270.15 219.892 269.028 219.987 268.023 219.987Z" fill="black"/>
<path d="M269.167 216.39H266.124C265.973 216.39 265.849 216.269 265.849 216.115C265.849 215.961 265.97 215.84 266.124 215.84H269.167C269.317 215.84 269.442 215.961 269.442 216.115C269.442 216.269 269.321 216.39 269.167 216.39Z" fill="black"/>
<path d="M239.518 204L238.338 214.714L233.824 215.656L234.099 203.094L239.518 204Z" fill="white"/>
<path d="M233.824 215.931C233.762 215.931 233.699 215.909 233.648 215.869C233.586 215.814 233.549 215.737 233.549 215.653L233.824 203.091C233.824 203.01 233.861 202.937 233.923 202.885C233.985 202.834 234.062 202.816 234.143 202.827L239.562 203.732C239.705 203.758 239.804 203.886 239.79 204.033L238.609 214.747C238.594 214.864 238.51 214.96 238.393 214.985L233.879 215.928C233.861 215.931 233.842 215.935 233.824 215.935V215.931ZM234.367 203.417L234.106 215.319L238.088 214.487L239.218 204.227L234.367 203.417Z" fill="black"/>
<path d="M240.244 220.332C240.244 220.332 240.824 215.176 239.203 212.822L235.591 214.106V213.336C235.591 213.086 235.415 212.885 235.188 212.87L233.175 212.756C232.423 212.712 231.675 212.87 230.99 213.207C228.577 214.392 223.026 217.442 223.202 220.368C223.202 220.368 227.572 221.45 240.244 220.335V220.332Z" fill="white"/>
<path d="M229.996 221.113C225.167 221.113 223.253 220.658 223.136 220.629C223.018 220.599 222.934 220.5 222.927 220.379C222.747 217.398 227.825 214.45 230.865 212.954C231.591 212.599 232.398 212.43 233.19 212.478L235.203 212.591C235.573 212.613 235.863 212.936 235.863 213.328V213.71L239.108 212.555C239.225 212.514 239.353 212.555 239.427 212.657C241.084 215.066 240.538 220.137 240.512 220.354C240.497 220.482 240.395 220.585 240.263 220.596C235.914 220.981 232.544 221.105 229.992 221.105L229.996 221.113ZM223.473 220.141C224.467 220.324 229.171 221.017 239.991 220.079C240.076 219.107 240.318 215.184 239.089 213.152L235.683 214.362C235.599 214.392 235.507 214.381 235.434 214.329C235.36 214.278 235.316 214.194 235.316 214.106V213.336C235.316 213.233 235.25 213.149 235.17 213.141L233.157 213.028C232.46 212.987 231.749 213.134 231.107 213.449C229.318 214.329 223.59 217.358 223.469 220.145L223.473 220.141Z" fill="black"/>
<path d="M234.095 219.525C228.716 219.525 224.599 218.707 224.544 218.696C224.397 218.667 224.298 218.52 224.331 218.374C224.36 218.227 224.507 218.132 224.654 218.161C224.723 218.176 231.771 219.573 239.445 218.682C239.595 218.663 239.731 218.773 239.749 218.92C239.768 219.07 239.658 219.206 239.507 219.224C237.637 219.441 235.804 219.525 234.095 219.525Z" fill="black"/>
<path d="M229.802 216.804C229.717 216.804 229.633 216.764 229.578 216.691C229.49 216.57 229.519 216.397 229.64 216.309L233.116 213.812C233.237 213.724 233.41 213.754 233.498 213.875C233.586 213.996 233.556 214.168 233.435 214.256L229.959 216.753C229.912 216.786 229.857 216.804 229.798 216.804H229.802Z" fill="black"/>
<path d="M238.11 134.476C238.11 134.476 231.635 175.576 233.014 205.159L240.211 205.346C240.211 205.346 247.933 163.63 251.783 156.168C251.783 156.168 262.248 194.203 262.651 205.027C262.651 205.027 267.308 205.492 269.163 204.829C270.161 194.382 270.461 185.495 270.509 178.704C270.652 159.274 268.793 150.449 267.774 146.261C266.839 142.415 265.834 139.291 265.101 137.179L262.651 130.201L238.107 134.48L238.11 134.476Z" fill="white"/>
<path d="M240.215 205.617H240.208L233.01 205.43C232.867 205.427 232.75 205.313 232.742 205.17C231.378 175.899 237.777 134.843 237.843 134.433C237.861 134.315 237.949 134.227 238.066 134.205L262.611 129.926C262.743 129.904 262.871 129.978 262.915 130.106L265.365 137.084C266.399 140.057 267.301 143.123 268.045 146.192C269.288 151.296 270.923 160.224 270.788 178.704C270.725 187.343 270.271 196.139 269.438 204.851C269.427 204.957 269.358 205.045 269.259 205.082C267.367 205.764 262.82 205.317 262.626 205.295C262.49 205.28 262.384 205.17 262.38 205.034C262.013 195.178 253.151 162.233 251.717 156.953C247.834 165.819 240.556 204.99 240.483 205.394C240.457 205.522 240.343 205.617 240.215 205.617ZM233.278 204.891L239.988 205.064C240.673 201.382 247.823 163.245 251.545 156.04C251.596 155.941 251.706 155.883 251.816 155.894C251.93 155.905 252.022 155.985 252.051 156.092C252.154 156.469 262.376 193.726 262.919 204.77C263.85 204.851 267.29 205.1 268.914 204.616C269.732 195.978 270.179 187.258 270.241 178.693C270.377 160.272 268.749 151.395 267.513 146.316C266.769 143.262 265.874 140.215 264.848 137.26L262.475 130.502L238.352 134.708C237.876 137.799 232.009 176.724 233.278 204.888V204.891Z" fill="black"/>
<path d="M251.406 155.578C251.285 155.578 251.171 155.498 251.142 155.373L250.075 151.255L247.49 150.724C247.343 150.694 247.248 150.548 247.277 150.401C247.306 150.254 247.453 150.159 247.6 150.188L250.35 150.757C250.452 150.779 250.533 150.856 250.559 150.955L251.67 155.237C251.706 155.384 251.618 155.534 251.472 155.571C251.45 155.578 251.424 155.578 251.402 155.578H251.406Z" fill="black"/>
<path d="M238.745 98.0225C242.958 97.5495 251.871 96.7025 258.138 97.2232C260.066 97.3845 261.892 98.1362 263.37 99.3792C267.821 103.134 277.472 112.546 277.597 123.682L267.715 122.252C267.715 122.252 271.206 134.741 270.967 136.746C270.729 138.752 264.613 142.166 256.961 139.368C249.308 136.567 238.297 136.908 234.733 139.368L234.389 123.961H219.352C219.352 123.961 224.324 107.802 233.971 100.003C235.335 98.8988 236.996 98.2205 238.741 98.0225H238.745Z" fill="#0066EE"/>
<path d="M219.355 123.96C219.355 123.96 218.178 129.332 223.528 130.945C228.878 132.559 233.956 122.835 233.956 122.835L230.234 120.679L219.359 123.957L219.355 123.96Z" fill="white"/>
<path d="M224.76 131.404C224.327 131.404 223.887 131.342 223.447 131.21C217.922 129.541 219.077 123.961 219.088 123.906C219.11 123.81 219.179 123.73 219.275 123.704L230.15 120.426C230.223 120.404 230.3 120.415 230.366 120.451L234.088 122.608C234.216 122.681 234.26 122.842 234.194 122.971C234 123.345 229.725 131.408 224.756 131.408L224.76 131.404ZM219.594 124.173C219.447 125.057 219.003 129.296 223.605 130.685C223.986 130.799 224.368 130.854 224.745 130.854C228.955 130.854 232.845 124.265 233.586 122.941L230.198 120.98L219.594 124.177V124.173Z" fill="black"/>
<path d="M254.042 136.203H227.756C227.088 136.203 226.509 135.749 226.348 135.103L221.042 113.738C220.815 112.825 221.508 111.941 222.45 111.941H248.736C249.404 111.941 249.983 112.396 250.144 113.041L255.45 134.407C255.677 135.32 254.984 136.203 254.042 136.203Z" fill="white"/>
<path d="M254.042 136.478H227.756C226.964 136.478 226.274 135.939 226.084 135.173L220.778 113.807C220.65 113.29 220.763 112.751 221.093 112.333C221.423 111.915 221.918 111.673 222.45 111.673H248.736C249.528 111.673 250.218 112.212 250.408 112.979L255.714 134.344C255.842 134.861 255.729 135.4 255.399 135.818C255.069 136.236 254.574 136.478 254.042 136.478ZM222.45 112.216C222.087 112.216 221.75 112.381 221.522 112.667C221.299 112.953 221.218 113.32 221.306 113.672L226.612 135.037C226.744 135.562 227.209 135.928 227.752 135.928H254.038C254.401 135.928 254.739 135.763 254.966 135.477C255.19 135.191 255.27 134.825 255.182 134.473L249.877 113.107C249.745 112.583 249.279 112.216 248.736 112.216H222.45Z" fill="black"/>
<path d="M222.996 122.563L223.77 124.701L230.091 121.694C230.091 121.694 233.567 124.701 225.141 128.551C221.632 130.157 222.996 122.563 222.996 122.563Z" fill="white"/>
<path d="M224.258 129.05C223.935 129.05 223.649 128.954 223.4 128.764C221.863 127.576 222.633 123.033 222.725 122.516C222.747 122.395 222.85 122.303 222.971 122.292C223.092 122.277 223.209 122.354 223.249 122.472L223.92 124.327L229.967 121.452C230.066 121.405 230.183 121.423 230.264 121.493C230.304 121.526 231.235 122.351 231.041 123.707C230.792 125.445 228.841 127.161 225.248 128.804C224.885 128.969 224.555 129.053 224.254 129.053L224.258 129.05ZM223.114 123.696C222.938 125.306 222.886 127.671 223.737 128.331C224.045 128.569 224.467 128.562 225.028 128.305C229.281 126.362 230.355 124.69 230.506 123.63C230.619 122.835 230.234 122.266 230.029 122.032L223.887 124.954C223.818 124.987 223.737 124.991 223.664 124.961C223.594 124.932 223.535 124.873 223.51 124.8L223.114 123.7V123.696Z" fill="black"/>
<path d="M260.173 111.688C260.173 111.688 271.987 118.314 274.425 120.393C276.863 122.472 279.507 124.052 276.071 128.599C272.636 133.146 257.987 114.93 257.987 114.93C257.987 114.93 255.175 115.395 254.192 111.567C254.192 111.567 249.44 111.736 249.268 110.247L255.971 109.052C256.836 108.898 257.723 109.18 258.339 109.811L260.176 111.688H260.173Z" fill="white"/>
<path d="M274.55 129.6C269.673 129.6 259.043 116.668 257.863 115.216C257.225 115.245 254.915 115.12 253.98 111.85C252.806 111.872 249.169 111.824 248.993 110.284C248.975 110.141 249.074 110.009 249.217 109.983L255.919 108.788C256.876 108.616 257.852 108.931 258.53 109.624L260.338 111.476C261.174 111.945 272.21 118.153 274.601 120.191C274.788 120.353 274.979 120.51 275.166 120.664C277.454 122.567 279.613 124.368 276.288 128.771C275.877 129.318 275.305 129.596 274.59 129.607C274.575 129.607 274.561 129.607 274.55 129.607V129.6ZM257.984 114.658C258.064 114.658 258.145 114.695 258.196 114.761C258.31 114.904 269.746 129.054 274.542 129.057C274.553 129.057 274.568 129.057 274.579 129.057C275.125 129.05 275.54 128.845 275.848 128.438C278.862 124.448 277.072 122.963 274.814 121.082C274.623 120.925 274.432 120.767 274.245 120.606C271.855 118.567 260.154 112 260.037 111.934C260.015 111.923 259.993 111.905 259.975 111.886L258.138 110.009C257.584 109.444 256.792 109.191 256.015 109.331L249.642 110.467C250.166 111.135 252.498 111.362 254.178 111.303C254.299 111.3 254.42 111.384 254.453 111.509C255.358 115.032 257.837 114.688 257.94 114.669C257.954 114.669 257.969 114.669 257.984 114.669V114.658Z" fill="black"/>
<path d="M243.5 90.319C243.288 90.6893 243.728 91.4043 243.731 91.4043C243.739 91.4043 243.519 89.3033 242.349 88.7753C241.671 88.4673 241.319 88.9807 240.307 88.8413C239.232 88.6947 238.052 87.899 237.608 86.7367C237.073 85.3323 237.843 83.994 238.33 83.1507C238.814 82.311 239.43 81.376 240.501 80.9727C241.894 80.4483 242.477 81.255 244.072 80.76C245.37 80.3567 245.275 79.7333 246.43 79.4033C247.394 79.1283 250.166 79.286 250.79 80.76C251.182 81.695 250.335 82.2633 250.757 83.6493C251.01 84.4817 251.409 84.5843 251.703 85.226C252.425 86.8173 251.519 89.615 249.792 90.5537C247.449 91.826 244.01 89.4463 243.5 90.3227V90.319Z" fill="black"/>
<path d="M244.501 91.4484L243.955 95.9144C243.852 96.7651 243.236 97.4654 242.408 97.6818L240.105 98.2794L247.2 103.673L255.171 97.6341L252.311 96.9961C251.49 96.8128 250.859 96.1564 250.709 95.3278L249.521 88.7461L244.501 91.4411V91.4484Z" fill="white"/>
<path d="M247.204 103.948C247.145 103.948 247.086 103.93 247.039 103.893L239.944 98.4994C239.859 98.4371 239.819 98.3307 239.841 98.2281C239.863 98.1254 239.94 98.0447 240.039 98.0154L242.342 97.4177C243.068 97.2271 243.596 96.6257 243.687 95.8814L244.234 91.4117C244.245 91.3237 244.296 91.2467 244.377 91.2027L249.396 88.5077C249.473 88.4674 249.565 88.4637 249.646 88.5041C249.726 88.5407 249.781 88.6141 249.796 88.7021L250.984 95.2837C251.112 96.0061 251.659 96.5744 252.377 96.7321L255.237 97.3701C255.34 97.3921 255.421 97.4727 255.446 97.5791C255.468 97.6817 255.428 97.7917 255.344 97.8541L247.372 103.893C247.325 103.93 247.266 103.948 247.207 103.948H247.204ZM240.721 98.4041L247.2 103.332L254.533 97.7771L252.253 97.2674C251.321 97.0584 250.61 96.3177 250.441 95.3827L249.319 89.1714L244.754 91.6207L244.226 95.9474C244.109 96.9154 243.42 97.7001 242.474 97.9457L240.717 98.4041H240.721Z" fill="black"/>
<path d="M248.953 89.659C248.953 89.659 250.72 88.9953 250.056 87.536C249.393 86.0767 248.315 87.1547 248.315 87.1547C248.315 87.1547 247.31 83.565 245.202 84.9803C243.093 86.3957 241.095 86.9127 241.095 86.9127C241.095 86.9127 241.839 90.5243 243.17 92.9297C243.973 94.378 244.993 95.39 246.195 94.9023C249.484 93.5676 248.953 89.659 248.953 89.659Z" fill="white"/>
<path d="M245.576 95.3018C244.644 95.3018 243.761 94.5501 242.932 93.0578C241.594 90.6451 240.857 87.1105 240.827 86.9638C240.798 86.8208 240.886 86.6815 241.025 86.6448C241.044 86.6411 243.005 86.1241 245.048 84.7528C245.612 84.3751 246.166 84.2798 246.69 84.4705C247.651 84.8225 248.219 86.0728 248.454 86.7071C248.678 86.5751 248.993 86.4505 249.334 86.5128C249.737 86.5861 250.067 86.8905 250.306 87.4221C250.515 87.8841 250.537 88.3241 250.364 88.7348C250.122 89.3215 249.543 89.6771 249.242 89.8275C249.297 90.6818 249.297 93.9378 246.298 95.1551C246.052 95.2541 245.814 95.3018 245.576 95.3018ZM241.418 87.1031C241.612 87.9538 242.312 90.8138 243.412 92.7975C244.296 94.3888 245.198 95.0121 246.093 94.6491C249.14 93.4135 248.703 89.8458 248.681 89.6955C248.663 89.5708 248.736 89.4498 248.857 89.4021C248.872 89.3948 249.624 89.1015 249.862 88.5258C249.972 88.2581 249.954 87.9721 249.807 87.6495C249.646 87.2938 249.451 87.0921 249.235 87.0518C248.938 87.0005 248.601 87.2535 248.509 87.3451C248.439 87.4148 248.34 87.4405 248.245 87.4148C248.15 87.3891 248.076 87.3158 248.051 87.2241C248.047 87.2058 247.515 85.3541 246.5 84.9801C246.144 84.8481 245.77 84.9215 245.352 85.2038C243.643 86.3515 242.026 86.9125 241.418 87.0995V87.1031Z" fill="black"/>
</g>
<defs>
<clipPath id="clip0_1665_13714">
<rect x="58" y="2" width="220" height="220" rx="15" fill="white"/>
</clipPath>
</defs>
</svg>
