<svg width="336" height="224" viewBox="0 0 336 224" fill="none" xmlns="http://www.w3.org/2000/svg">
<rect x="1" y="1" width="334" height="222" rx="16" fill="white" stroke="#0066EE" stroke-width="2"/>
<g clip-path="url(#clip0_1665_13716)">
<path d="M132.026 25.2431L132.807 28.0078L135.942 27.8391C136.239 28.4478 136.58 29.0234 136.965 29.5624L135.326 32.2354L137.387 34.2411L140.02 32.5288C140.573 32.9028 141.156 33.2291 141.765 33.5041L141.684 36.6428L144.471 37.3468L145.89 34.5528C146.55 34.6004 147.221 34.5894 147.892 34.5234L149.388 37.2808L152.153 36.4998L151.984 33.3648C152.593 33.0678 153.168 32.7268 153.707 32.3418L156.38 33.9808L158.386 31.9201L156.674 29.2874C157.048 28.7338 157.374 28.1508 157.649 27.5421L160.788 27.6228L161.492 24.8361L158.698 23.4171C158.745 22.7571 158.734 22.0861 158.668 21.4151L161.426 19.9191L160.645 17.1544L157.51 17.3231C157.213 16.7144 156.872 16.1388 156.487 15.5998L158.126 12.9268L156.065 10.9211L153.432 12.6334C152.879 12.2594 152.296 11.9331 151.687 11.6581L151.768 8.51943L148.981 7.81543L147.562 10.6094C146.902 10.5618 146.231 10.5728 145.56 10.6388L144.06 7.88143L141.296 8.66243L141.464 11.7974C140.856 12.0944 140.28 12.4354 139.741 12.8204L137.068 11.1814L135.062 13.2421L136.775 15.8748C136.401 16.4284 136.074 17.0114 135.799 17.6201L132.661 17.5394L131.957 20.3261L134.751 21.7451C134.703 22.4051 134.714 23.0761 134.78 23.7471L132.023 25.2431H132.026ZM144.709 15.4641C148.64 14.3531 152.732 16.6374 153.843 20.5718C154.954 24.5024 152.67 28.5944 148.735 29.7054C144.805 30.8164 140.713 28.5321 139.602 24.5978C138.491 20.6671 140.775 16.5751 144.709 15.4641Z" fill="white"/>
<path d="M144.467 37.6142C144.445 37.6142 144.423 37.6142 144.401 37.6069L141.615 36.9029C141.494 36.8736 141.409 36.7599 141.413 36.6352L141.49 33.6726C140.98 33.4306 140.485 33.1556 140.016 32.8476L137.534 34.4646C137.427 34.5342 137.292 34.5196 137.2 34.4316L135.139 32.4259C135.051 32.3379 135.033 32.2022 135.099 32.0959L136.646 29.5732C136.327 29.1149 136.038 28.6272 135.781 28.1176L132.822 28.2752C132.701 28.2826 132.584 28.2019 132.551 28.0809L131.77 25.3162C131.737 25.1952 131.788 25.0669 131.898 25.0082L134.501 23.5929C134.454 23.0246 134.443 22.4562 134.476 21.8989L131.836 20.5569C131.726 20.5019 131.667 20.3736 131.696 20.2526L132.4 17.4659C132.43 17.3449 132.551 17.2606 132.668 17.2642L135.631 17.3412C135.873 16.8316 136.148 16.3366 136.456 15.8672L134.839 13.3849C134.769 13.2786 134.784 13.1429 134.872 13.0512L136.877 10.9906C136.965 10.9026 137.101 10.8842 137.207 10.9502L139.73 12.4976C140.188 12.1822 140.676 11.8926 141.186 11.6322L141.028 8.67322C141.021 8.54855 141.101 8.43488 141.222 8.40188L143.987 7.62088C144.108 7.58788 144.236 7.63922 144.295 7.74922L145.71 10.3526C146.279 10.3049 146.847 10.2939 147.404 10.3269L148.743 7.68689C148.798 7.57689 148.926 7.51822 149.047 7.54755L151.834 8.25155C151.955 8.28088 152.039 8.39455 152.035 8.51922L151.958 11.4819C152.468 11.7239 152.963 11.9989 153.432 12.3069L155.915 10.6899C156.021 10.6202 156.157 10.6349 156.248 10.7229L158.309 12.7286C158.397 12.8166 158.415 12.9522 158.349 13.0586L156.802 15.5812C157.121 16.0396 157.407 16.5272 157.667 17.0369L160.626 16.8792C160.751 16.8719 160.865 16.9526 160.898 17.0736L161.679 19.8382C161.712 19.9592 161.66 20.0876 161.55 20.1462L158.947 21.5616C158.995 22.1299 159.002 22.6982 158.973 23.2556L161.613 24.5976C161.723 24.6526 161.781 24.7809 161.752 24.9019L161.048 27.6886C161.019 27.8096 160.898 27.8939 160.78 27.8902L157.818 27.8132C157.576 28.3229 157.301 28.8179 156.993 29.2872L158.61 31.7696C158.679 31.8759 158.665 32.0116 158.577 32.1032L156.571 34.1639C156.483 34.2519 156.347 34.2702 156.241 34.2042L153.718 32.6569C153.26 32.9759 152.772 33.2656 152.263 33.5222L152.42 36.4812C152.428 36.6059 152.347 36.7196 152.226 36.7526L149.461 37.5336C149.34 37.5666 149.212 37.5152 149.153 37.4052L147.738 34.8019C147.17 34.8496 146.601 34.8569 146.044 34.8276L144.706 37.4676C144.658 37.5592 144.566 37.6142 144.467 37.6142ZM141.952 36.4372L144.324 37.0386L145.648 34.4352C145.696 34.3399 145.798 34.2812 145.905 34.2886C146.546 34.3326 147.203 34.3216 147.863 34.2592C147.969 34.2482 148.072 34.3032 148.123 34.3986L149.52 36.9689L151.874 36.3016L151.716 33.3792C151.709 33.2729 151.771 33.1702 151.867 33.1226C152.461 32.8329 153.029 32.4992 153.55 32.1252C153.638 32.0629 153.755 32.0592 153.847 32.1142L156.336 33.6396L158.041 31.8869L156.446 29.4339C156.388 29.3422 156.388 29.2286 156.446 29.1369C156.809 28.5979 157.132 28.0222 157.4 27.4282C157.444 27.3292 157.546 27.2669 157.649 27.2706L160.575 27.3476L161.176 24.9752L158.573 23.6516C158.478 23.6039 158.419 23.5012 158.426 23.3949C158.47 22.7532 158.459 22.0969 158.397 21.4369C158.386 21.3306 158.441 21.2279 158.536 21.1766L161.107 19.7796L160.439 17.4256L157.517 17.5832C157.407 17.5869 157.308 17.5282 157.26 17.4329C156.971 16.8389 156.633 16.2706 156.263 15.7499C156.201 15.6619 156.197 15.5446 156.252 15.4529L157.777 12.9632L156.025 11.2582L153.572 12.8569C153.48 12.9156 153.366 12.9156 153.275 12.8569C152.736 12.4939 152.16 12.1712 151.566 11.9036C151.467 11.8596 151.408 11.7606 151.408 11.6542L151.485 8.72822L149.113 8.12688L147.789 10.7302C147.742 10.8256 147.639 10.8842 147.533 10.8769C146.891 10.8329 146.235 10.8439 145.575 10.9062C145.468 10.9172 145.366 10.8622 145.314 10.7669L143.917 8.19655L141.563 8.86388L141.721 11.7862C141.728 11.8926 141.666 11.9952 141.571 12.0429C140.977 12.3326 140.408 12.6699 139.888 13.0402C139.8 13.1026 139.682 13.1062 139.591 13.0512L137.101 11.5259L135.396 13.2786L136.995 15.7316C137.053 15.8232 137.053 15.9369 136.995 16.0286C136.632 16.5676 136.309 17.1432 136.041 17.7372C135.997 17.8362 135.898 17.8949 135.792 17.8949L132.866 17.8179L132.265 20.1902L134.868 21.5139C134.963 21.5616 135.022 21.6642 135.015 21.7706C134.971 22.4122 134.982 23.0686 135.044 23.7286C135.055 23.8349 135 23.9376 134.905 23.9889L132.334 25.3859L133.002 27.7399L135.924 27.5822C136.03 27.5749 136.133 27.6372 136.181 27.7326C136.47 28.3266 136.808 28.8949 137.178 29.4156C137.24 29.5035 137.244 29.6209 137.189 29.7126L135.664 32.2022L137.416 33.9072L139.869 32.3086C139.961 32.2499 140.075 32.2499 140.166 32.3086C140.705 32.6716 141.281 32.9942 141.875 33.2619C141.974 33.3059 142.033 33.4049 142.033 33.5112L141.956 36.4372H141.952ZM146.711 30.2516C145.417 30.2516 144.141 29.9216 142.982 29.2726C141.197 28.2716 139.902 26.6362 139.349 24.6672C138.791 22.6982 139.033 20.6266 140.034 18.8409C141.035 17.0552 142.671 15.7609 144.64 15.2072C146.609 14.6499 148.68 14.8956 150.466 15.8929C152.252 16.8939 153.546 18.5292 154.103 20.4982C154.661 22.4672 154.415 24.5389 153.418 26.3246C152.417 28.1102 150.781 29.4046 148.812 29.9619C148.119 30.1562 147.415 30.2552 146.715 30.2552L146.711 30.2516ZM144.783 15.7206C142.949 16.2376 141.428 17.4402 140.5 19.1012C139.569 20.7622 139.345 22.6872 139.862 24.5206C140.379 26.3539 141.582 27.8756 143.243 28.8032C144.904 29.7346 146.829 29.9582 148.662 29.4412C150.495 28.9242 152.017 27.7216 152.945 26.0606C153.876 24.3996 154.1 22.4746 153.583 20.6412C153.066 18.8079 151.863 17.2862 150.202 16.3586C148.541 15.4272 146.616 15.2036 144.783 15.7206Z" fill="black"/>
<path d="M86.3029 54.3381L87.6412 59.0718L93.0055 58.7821C93.5115 59.8234 94.0945 60.8098 94.7545 61.7301L91.9495 66.3061L95.4732 69.7344L99.9759 66.8011C100.922 67.4391 101.923 67.9964 102.964 68.4731L102.825 73.8448L107.592 75.0511L110.023 70.2661C111.152 70.3468 112.296 70.3284 113.447 70.2148L116.01 74.9374L120.744 73.5991L120.454 68.2348C121.496 67.7288 122.478 67.1458 123.402 66.4858L127.978 69.2908L131.407 65.7671L128.473 61.2644C129.111 60.3184 129.672 59.3174 130.145 58.2761L135.517 58.4154L136.723 53.6488L131.938 51.2178C132.019 50.0884 132.001 48.9444 131.887 47.7931L136.61 45.2301L135.271 40.4964L129.907 40.7861C129.401 39.7448 128.818 38.7584 128.158 37.8381L130.963 33.2621L127.439 29.8338L122.937 32.7671C121.991 32.1291 120.99 31.5681 119.948 31.0951L120.088 25.7234L115.321 24.5171L112.89 29.3021C111.761 29.2214 110.617 29.2398 109.465 29.3534L106.902 24.6308L102.169 25.9691L102.458 31.3334C101.417 31.8394 100.431 32.4224 99.5102 33.0824L94.9342 30.2774L91.5059 33.8011L94.4392 38.3038C93.8012 39.2498 93.2402 40.2508 92.7672 41.2921L87.3955 41.1528L86.1892 45.9194L90.9742 48.3504C90.8935 49.4798 90.9119 50.6238 91.0255 51.7751L86.3029 54.3381ZM108.01 37.5998C114.738 35.6968 121.734 39.6091 123.637 46.3374C125.54 53.0658 121.628 60.0618 114.899 61.9648C108.171 63.8678 101.175 59.9554 99.2719 53.2271C97.3689 46.4988 101.281 39.5028 108.01 37.5998Z" fill="white"/>
<path d="M107.592 75.3185C107.57 75.3185 107.548 75.3185 107.526 75.3112L102.759 74.1049C102.638 74.0755 102.554 73.9619 102.557 73.8372L102.693 68.6415C101.754 68.2052 100.841 67.6955 99.9759 67.1235L95.6199 69.9579C95.5136 70.0275 95.3779 70.0129 95.2862 69.9249L91.7626 66.4965C91.6746 66.4085 91.6562 66.2729 91.7222 66.1665L94.4319 61.7409C93.8416 60.9012 93.3099 60.0029 92.8406 59.0605L87.6522 59.3392C87.5276 59.3465 87.4139 59.2659 87.3809 59.1449L86.0426 54.4112C86.0096 54.2902 86.0609 54.1619 86.1709 54.1032L90.7359 51.6245C90.6406 50.5759 90.6259 49.5309 90.6882 48.5079L86.0609 46.1575C85.9509 46.1025 85.8922 45.9742 85.9216 45.8532L87.1279 41.0865C87.1572 40.9655 87.2636 40.8812 87.3956 40.8849L92.5912 41.0205C93.0276 40.0819 93.5372 39.1689 94.1092 38.3035L91.2749 33.9475C91.2052 33.8412 91.2199 33.7055 91.3079 33.6139L94.7362 30.0902C94.8242 30.0022 94.9599 29.9839 95.0662 30.0499L99.4919 32.7595C100.332 32.1692 101.23 31.6375 102.172 31.1682L101.894 25.9799C101.886 25.8552 101.967 25.7415 102.088 25.7085L106.822 24.3702C106.943 24.3372 107.071 24.3885 107.13 24.4985L109.608 29.0635C110.657 28.9682 111.702 28.9535 112.725 29.0159L115.075 24.3885C115.13 24.2785 115.259 24.2199 115.38 24.2492L120.146 25.4555C120.267 25.4849 120.352 25.5985 120.348 25.7232L120.212 30.9189C121.151 31.3552 122.064 31.8649 122.929 32.4369L127.285 29.6025C127.392 29.5329 127.527 29.5475 127.619 29.6355L131.143 33.0639C131.231 33.1519 131.249 33.2875 131.183 33.3939L128.473 37.8195C129.064 38.6592 129.595 39.5575 130.065 40.4999L135.253 40.2212C135.378 40.2139 135.491 40.2945 135.524 40.4155L136.863 45.1492C136.896 45.2702 136.844 45.3985 136.734 45.4572L132.169 47.9359C132.265 48.9845 132.279 50.0295 132.217 51.0525L136.844 53.4029C136.954 53.4579 137.013 53.5862 136.984 53.7072L135.777 58.4739C135.748 58.5949 135.634 58.6792 135.51 58.6755L130.314 58.5399C129.878 59.4785 129.368 60.3915 128.796 61.2569L131.63 65.6129C131.7 65.7192 131.685 65.8549 131.597 65.9465L128.169 69.4702C128.081 69.5582 127.945 69.5765 127.839 69.5105L123.413 66.8009C122.574 67.3912 121.672 67.9229 120.733 68.3922L121.012 73.5805C121.019 73.7052 120.938 73.8189 120.817 73.8519L116.084 75.1902C115.963 75.2232 115.834 75.1719 115.776 75.0619L113.297 70.4969C112.252 70.5922 111.203 70.6069 110.18 70.5445L107.83 75.1719C107.782 75.2635 107.691 75.3185 107.592 75.3185ZM103.096 73.6355L107.449 74.7392L109.781 70.1449C109.828 70.0495 109.931 69.9909 110.037 69.9982C111.145 70.0752 112.281 70.0569 113.418 69.9469C113.524 69.9359 113.627 69.9909 113.678 70.0862L116.139 74.6182L120.462 73.3972L120.187 68.2455C120.179 68.1392 120.242 68.0365 120.337 67.9889C121.364 67.4902 122.343 66.9109 123.245 66.2619C123.333 66.1995 123.45 66.1959 123.542 66.2509L127.934 68.9422L131.066 65.7229L128.25 61.3999C128.191 61.3082 128.191 61.1945 128.25 61.1029C128.88 60.1679 129.434 59.1779 129.9 58.1549C129.944 58.0559 130.043 57.9972 130.149 57.9972L135.308 58.1329L136.412 53.7805L131.817 51.4485C131.722 51.4009 131.663 51.2982 131.671 51.1919C131.748 50.0845 131.729 48.9479 131.619 47.8112C131.608 47.7049 131.663 47.6022 131.759 47.5509L136.291 45.0905L135.07 40.7675L129.918 41.0425C129.812 41.0499 129.709 40.9875 129.661 40.8922C129.163 39.8655 128.58 38.8865 127.934 37.9845C127.872 37.8965 127.868 37.7792 127.923 37.6875L130.615 33.2949L127.395 30.1635L123.072 32.9795C122.981 33.0382 122.867 33.0382 122.775 32.9795C121.844 32.3525 120.85 31.7952 119.827 31.3295C119.728 31.2855 119.67 31.1865 119.67 31.0802L119.805 25.9212L115.453 24.8175L113.121 29.4119C113.073 29.5072 112.971 29.5659 112.864 29.5585C111.757 29.4815 110.62 29.4999 109.484 29.6099C109.377 29.6209 109.275 29.5659 109.223 29.4705L106.763 24.9385L102.44 26.1595L102.715 31.3112C102.722 31.4175 102.66 31.5202 102.565 31.5679C101.538 32.0665 100.559 32.6495 99.6569 33.2949C99.5689 33.3572 99.4516 33.3609 99.3599 33.3059L94.9672 30.6145L91.8359 33.8339L94.6519 38.1569C94.7106 38.2485 94.7106 38.3622 94.6519 38.4539C94.0249 39.3852 93.4676 40.3789 93.0019 41.4019C92.9579 41.5009 92.8626 41.5632 92.7526 41.5595L87.5936 41.4239L86.4899 45.7762L91.0842 48.1082C91.1796 48.1559 91.2382 48.2585 91.2309 48.3649C91.1539 49.4722 91.1722 50.6089 91.2822 51.7455C91.2932 51.8519 91.2382 51.9545 91.1429 52.0059L86.6109 54.4662L87.8319 58.7892L92.9836 58.5142C93.0936 58.5069 93.1926 58.5692 93.2402 58.6645C93.7389 59.6912 94.3219 60.6702 94.9672 61.5722C95.0296 61.6602 95.0332 61.7775 94.9782 61.8692L92.2869 66.2619L95.5062 69.3932L99.8292 66.5772C99.9209 66.5185 100.035 66.5185 100.126 66.5772C101.058 67.2042 102.051 67.7615 103.074 68.2272C103.173 68.2712 103.232 68.3702 103.232 68.4765L103.096 73.6355ZM111.46 62.7125C105.821 62.7125 100.621 58.9872 99.0152 53.3002C97.0756 46.4399 101.08 39.2825 107.94 37.3429C111.262 36.4042 114.753 36.8149 117.767 38.5015C120.781 40.1882 122.959 42.9455 123.897 46.2675C124.836 49.5895 124.425 53.0802 122.739 56.0942C121.052 59.1082 118.295 61.2862 114.973 62.2249C113.803 62.5549 112.622 62.7125 111.46 62.7125ZM111.475 37.3832C110.342 37.3832 109.205 37.5409 108.083 37.8562C101.509 39.7152 97.6696 46.5792 99.5286 53.1535C101.388 59.7279 108.252 63.5669 114.826 61.7079C118.012 60.8059 120.656 58.7195 122.273 55.8302C123.89 52.9409 124.282 49.5969 123.38 46.4105C122.478 43.2242 120.392 40.5805 117.503 38.9635C115.629 37.9149 113.561 37.3832 111.471 37.3832H111.475Z" fill="black"/>
<path d="M265.585 2.39209H210.258C208.1 2.39209 206.35 4.14206 206.35 6.30076V67.3434C206.35 69.5021 208.1 71.2521 210.258 71.2521H265.585C267.743 71.2521 269.493 69.5021 269.493 67.3434V6.30076C269.493 4.14206 267.743 2.39209 265.585 2.39209Z" fill="white"/>
<path d="M265.581 71.5162H210.258C207.956 71.5162 206.082 69.6425 206.082 67.3398V6.30085C206.082 3.99818 207.956 2.12451 210.258 2.12451H265.581C267.884 2.12451 269.757 3.99818 269.757 6.30085V67.3398C269.757 69.6425 267.884 71.5162 265.581 71.5162ZM210.258 2.65985C208.249 2.65985 206.617 4.29518 206.617 6.30085V67.3398C206.617 69.3492 208.249 70.9809 210.258 70.9809H265.581C267.59 70.9809 269.222 69.3455 269.222 67.3398V6.30085C269.222 4.29151 267.59 2.65985 265.581 2.65985H210.258Z" fill="black"/>
<path d="M266.435 9.07293H209.459C209.312 9.07293 209.191 8.95193 209.191 8.80526C209.191 8.6586 209.312 8.5376 209.459 8.5376H266.435C266.582 8.5376 266.703 8.6586 266.703 8.80526C266.703 8.95193 266.582 9.07293 266.435 9.07293Z" fill="black"/>
<path d="M210.46 6.39995C211.013 6.39995 211.461 5.95179 211.461 5.39895C211.461 4.84611 211.013 4.39795 210.46 4.39795C209.907 4.39795 209.459 4.84611 209.459 5.39895C209.459 5.95179 209.907 6.39995 210.46 6.39995Z" fill="black"/>
<path d="M214.468 6.39995C215.02 6.39995 215.469 5.95179 215.469 5.39895C215.469 4.84611 215.02 4.39795 214.468 4.39795C213.915 4.39795 213.467 4.84611 213.467 5.39895C213.467 5.95179 213.915 6.39995 214.468 6.39995Z" fill="black"/>
<path d="M218.475 6.39995C219.028 6.39995 219.476 5.95179 219.476 5.39895C219.476 4.84611 219.028 4.39795 218.475 4.39795C217.923 4.39795 217.474 4.84611 217.474 5.39895C217.474 5.95179 217.923 6.39995 218.475 6.39995Z" fill="black"/>
<path d="M266.435 5.66668H260.789C260.642 5.66668 260.521 5.54568 260.521 5.39901C260.521 5.25235 260.642 5.13135 260.789 5.13135H266.435C266.582 5.13135 266.703 5.25235 266.703 5.39901C266.703 5.54568 266.582 5.66668 266.435 5.66668Z" fill="black"/>
<path d="M258.251 5.66668H234.865C234.719 5.66668 234.598 5.54568 234.598 5.39901C234.598 5.25235 234.719 5.13135 234.865 5.13135H258.251C258.398 5.13135 258.519 5.25235 258.519 5.39901C258.519 5.54568 258.398 5.66668 258.251 5.66668Z" fill="black"/>
<path d="M228.716 5.66668H223.737C223.59 5.66668 223.469 5.54568 223.469 5.39901C223.469 5.25235 223.59 5.13135 223.737 5.13135H228.716C228.863 5.13135 228.984 5.25235 228.984 5.39901C228.984 5.54568 228.863 5.66668 228.716 5.66668Z" fill="black"/>
<path d="M228.342 35.0513C230.165 31.865 233.553 29.6136 237.494 29.2066L237.769 13.627C226.454 13.6636 216.47 20.04 211.923 29.4596L228.346 35.0513H228.342Z" fill="white"/>
<path d="M228.342 35.3188C228.313 35.3188 228.284 35.3151 228.254 35.3041L211.831 29.7125C211.758 29.6868 211.699 29.6318 211.67 29.5621C211.641 29.4925 211.644 29.4118 211.677 29.3421C216.345 19.6695 226.586 13.3958 237.766 13.3555C237.846 13.3555 237.905 13.3848 237.956 13.4361C238.008 13.4875 238.033 13.5571 238.033 13.6268L237.758 29.2065C237.758 29.3421 237.652 29.4521 237.52 29.4668C233.74 29.8591 230.396 31.9931 228.573 35.1795C228.526 35.2638 228.434 35.3151 228.342 35.3151V35.3188ZM212.293 29.3055L228.221 34.7285C230.11 31.5641 233.45 29.4301 237.23 28.9681L237.494 13.8945C226.733 14.0301 216.895 20.0471 212.293 29.3055Z" fill="black"/>
<path d="M227.569 18.1293C227.462 18.1293 227.363 18.067 227.319 17.9606C227.264 17.825 227.33 17.6673 227.466 17.6123C230.022 16.5783 232.713 15.933 235.467 15.6946C235.613 15.6836 235.742 15.79 235.756 15.9366C235.767 16.0833 235.661 16.2116 235.514 16.2263C232.816 16.461 230.176 17.0916 227.671 18.1073C227.638 18.122 227.605 18.1256 227.572 18.1256L227.569 18.1293Z" fill="black"/>
<path d="M218.552 24.1352C218.486 24.1352 218.417 24.1096 218.365 24.0582C218.259 23.9556 218.259 23.7869 218.362 23.6806C220.29 21.7116 222.527 20.0542 225.009 18.7489C225.141 18.6792 225.303 18.7306 225.369 18.8626C225.438 18.9946 225.387 19.1559 225.255 19.2219C222.82 20.5016 220.628 22.1259 218.739 24.0546C218.688 24.1096 218.618 24.1352 218.549 24.1352H218.552Z" fill="black"/>
<path d="M250.166 41.9595C249.238 47.0781 244.574 51.1041 238.862 51.2801C237.157 51.3315 235.529 51.0381 234.055 50.4625L225.137 64.2711C229.284 66.1411 233.967 67.0578 238.865 66.7791C253.11 65.9615 264.308 55.2365 265.555 42.3261L250.17 41.9595H250.166Z" fill="white"/>
<path d="M237.153 67.0943C232.948 67.0943 228.79 66.2143 225.028 64.5166C224.958 64.4836 224.903 64.425 224.881 64.348C224.859 64.2746 224.87 64.194 224.914 64.128L233.831 50.3193C233.901 50.213 234.033 50.169 234.154 50.2166C235.643 50.796 237.227 51.0673 238.858 51.016C244.336 50.8473 248.982 47.0193 249.91 41.9153C249.932 41.787 250.053 41.6953 250.181 41.6953L265.566 42.062C265.64 42.062 265.709 42.095 265.761 42.1536C265.808 42.2086 265.834 42.282 265.827 42.3553C264.547 55.625 252.968 66.24 238.888 67.0466C238.312 67.0796 237.736 67.0943 237.164 67.0943H237.153ZM225.53 64.1536C229.655 65.9613 234.253 66.7753 238.847 66.5113C252.564 65.723 263.865 55.4636 265.255 42.5863L250.386 42.2306C249.323 47.4666 244.52 51.3716 238.869 51.5476C237.241 51.599 235.657 51.3423 234.161 50.7886L225.53 64.1536Z" fill="black"/>
<path d="M237.124 64.8613C234.117 64.8613 231.184 64.3846 228.404 63.4459C228.265 63.3983 228.188 63.2479 228.236 63.1086C228.283 62.9693 228.434 62.8923 228.573 62.9399C231.297 63.8603 234.172 64.3259 237.12 64.3259C237.648 64.3259 238.187 64.3113 238.715 64.2783C238.862 64.2709 238.99 64.3809 238.997 64.5313C239.005 64.6779 238.895 64.8063 238.744 64.8136C238.205 64.8429 237.659 64.8613 237.12 64.8613H237.124Z" fill="black"/>
<path d="M244.366 63.8969C244.248 63.8969 244.142 63.8199 244.109 63.6989C244.069 63.5559 244.153 63.4093 244.296 63.3689C253.653 60.8169 260.88 53.3883 262.706 44.4453C262.736 44.3023 262.875 44.2069 263.022 44.2363C263.165 44.2656 263.26 44.4086 263.231 44.5516C261.364 53.6926 253.987 61.2826 244.435 63.8859C244.413 63.8933 244.388 63.8969 244.366 63.8969Z" fill="black"/>
<path d="M222.344 62.8191L231.345 48.9701C228.654 46.9754 226.923 43.8734 226.923 40.3571C226.923 39.5064 227.026 38.6778 227.217 37.8821L210.731 32.3564C209.848 34.9524 209.367 37.7134 209.367 40.5734C209.367 50.0481 214.567 58.2028 222.344 62.8191Z" fill="white"/>
<path d="M222.344 63.0867C222.296 63.0867 222.252 63.0757 222.208 63.05C214.002 58.177 209.1 49.7767 209.1 40.5733C209.1 37.7427 209.562 34.9487 210.478 32.2683C210.526 32.129 210.676 32.0556 210.816 32.0996L227.301 37.6253C227.433 37.6693 227.51 37.805 227.477 37.9406C227.286 38.7327 227.191 39.543 227.191 40.3533C227.191 43.6607 228.764 46.7223 231.507 48.75C231.62 48.8343 231.65 48.992 231.573 49.1093L222.571 62.9583C222.52 63.0353 222.435 63.0793 222.347 63.0793L222.344 63.0867ZM210.9 32.6937C210.06 35.242 209.635 37.8893 209.635 40.5733C209.635 49.5017 214.35 57.6637 222.259 62.4597L230.982 49.036C228.229 46.9057 226.652 43.756 226.652 40.3607C226.652 39.587 226.736 38.817 226.898 38.0617L210.896 32.6973L210.9 32.6937Z" fill="black"/>
<path d="M242.602 28.6158C247.805 29.3895 251.805 33.4228 252.282 38.4058L277.439 39.1355C277.439 39.1355 277.439 39.1135 277.439 39.1025C277.439 20.6481 262.736 4.8558 243.053 2.8208L242.602 28.6158Z" fill="white"/>
<path d="M277.435 39.4034C277.435 39.4034 277.435 39.4034 277.432 39.4034L252.275 38.6737C252.139 38.67 252.029 38.5674 252.014 38.4317C251.552 33.5697 247.666 29.639 242.562 28.88C242.43 28.8617 242.331 28.7444 242.334 28.6124L242.785 2.81737C242.785 2.74404 242.818 2.67071 242.877 2.62304C242.932 2.57171 243.009 2.54971 243.082 2.55704C252.63 3.54337 261.419 7.8297 267.821 14.6204C274.194 21.3817 277.707 30.0754 277.707 39.1027C277.707 39.176 277.677 39.2604 277.626 39.3117C277.575 39.3594 277.509 39.4034 277.435 39.4034ZM252.52 38.1457L277.168 38.8607C277.039 20.5384 262.549 5.24471 243.313 3.11804L242.873 28.3887C248.021 29.254 251.941 33.2177 252.52 38.1457Z" fill="black"/>
<path d="M214.398 32.459H181.471C179.849 32.459 178.534 33.7739 178.534 35.396V79.1466C178.534 80.7687 179.849 82.0836 181.471 82.0836H214.398C216.02 82.0836 217.335 80.7687 217.335 79.1466V35.396C217.335 33.7739 216.02 32.459 214.398 32.459Z" fill="white"/>
<path d="M214.398 82.3512H181.471C179.704 82.3512 178.267 80.9138 178.267 79.1465V35.3995C178.267 33.6322 179.704 32.1948 181.471 32.1948H214.398C216.165 32.1948 217.603 33.6322 217.603 35.3995V79.1465C217.603 80.9138 216.165 82.3512 214.398 82.3512ZM181.471 32.7265C179.997 32.7265 178.802 33.9255 178.802 35.3958V79.1428C178.802 80.6168 180.001 81.8122 181.471 81.8122H214.398C215.872 81.8122 217.067 80.6132 217.067 79.1428V35.3958C217.067 33.9218 215.868 32.7265 214.398 32.7265H181.471Z" fill="black"/>
<path d="M191.598 46.6416H183.147V74.4166H191.598V46.6416Z" fill="white"/>
<path d="M191.598 74.6844H183.147C183 74.6844 182.879 74.5634 182.879 74.4167V46.6417C182.879 46.495 183 46.374 183.147 46.374H191.598C191.745 46.374 191.866 46.495 191.866 46.6417V74.4167C191.866 74.5634 191.745 74.6844 191.598 74.6844ZM183.414 74.149H191.331V46.9094H183.414V74.149Z" fill="black"/>
<path d="M202.158 38.9746H193.707V74.4166H202.158V38.9746Z" fill="white"/>
<path d="M202.159 74.6844H193.707C193.56 74.6844 193.439 74.5634 193.439 74.4167V38.9747C193.439 38.828 193.56 38.707 193.707 38.707H202.159C202.305 38.707 202.426 38.828 202.426 38.9747V74.4167C202.426 74.5634 202.305 74.6844 202.159 74.6844ZM193.975 74.149H201.891V39.2424H193.975V74.149Z" fill="black"/>
<path d="M212.722 57.8579H204.271V74.4166H212.722V57.8579Z" fill="white"/>
<path d="M212.722 74.6843H204.271C204.124 74.6843 204.003 74.5633 204.003 74.4167V57.858C204.003 57.7113 204.124 57.5903 204.271 57.5903H212.722C212.869 57.5903 212.99 57.7113 212.99 57.858V74.4167C212.99 74.5633 212.869 74.6843 212.722 74.6843ZM204.538 74.149H212.455V58.1257H204.538V74.149Z" fill="black"/>
<path d="M148.713 181.831L149.454 188.868L154.21 189.425V181.083L148.713 181.831Z" fill="white"/>
<path d="M154.21 189.693C154.21 189.693 154.188 189.693 154.18 189.693L149.421 189.136C149.296 189.121 149.197 189.022 149.186 188.897L148.449 181.861C148.435 181.718 148.537 181.586 148.68 181.568L154.177 180.82C154.254 180.809 154.331 180.831 154.389 180.882C154.448 180.933 154.481 181.007 154.481 181.084V189.425C154.481 189.502 154.448 189.576 154.393 189.623C154.345 189.667 154.279 189.689 154.217 189.689L154.21 189.693ZM149.696 188.63L153.942 189.128V181.392L149.007 182.063L149.696 188.63Z" fill="black"/>
<path d="M154.962 201.675C152.978 201.954 149.729 202.2 145.912 201.672C144.662 201.499 143.833 200.286 144.134 199.057C144.974 195.64 146.422 189.161 148.908 186.158L149.524 187.786L150.378 186.253C150.496 186.044 150.705 185.901 150.943 185.872L152.809 185.634C153.198 185.586 153.561 185.843 153.642 186.228L153.939 187.639L154.591 185.784L156.766 199.288C156.916 200.443 156.117 201.507 154.962 201.668V201.675Z" fill="white"/>
<path d="M150.462 202.251C149.073 202.251 147.525 202.167 145.872 201.936C145.197 201.844 144.592 201.466 144.214 200.905C143.837 200.348 143.712 199.651 143.873 198.995L144.053 198.258C144.911 194.734 146.345 188.835 148.699 185.989C148.761 185.916 148.856 185.879 148.948 185.898C149.043 185.912 149.12 185.978 149.153 186.066L149.568 187.155L150.14 186.125C150.297 185.843 150.583 185.648 150.906 185.608L152.772 185.37C153.293 185.304 153.792 185.656 153.902 186.173L154.001 186.649L154.334 185.696C154.375 185.582 154.488 185.509 154.609 185.52C154.73 185.531 154.829 185.623 154.851 185.744L157.026 199.248C157.198 200.553 156.289 201.756 154.998 201.936C153.832 202.101 152.281 202.247 150.462 202.247V202.251ZM148.823 186.701C146.715 189.575 145.38 195.053 144.57 198.383L144.39 199.12C144.262 199.637 144.357 200.165 144.658 200.605C144.955 201.041 145.424 201.334 145.949 201.404C149.7 201.925 152.901 201.694 154.925 201.408C155.926 201.268 156.633 200.333 156.498 199.325L154.492 186.866L154.191 187.727C154.151 187.841 154.041 187.914 153.92 187.907C153.799 187.9 153.7 187.812 153.674 187.694L153.377 186.283C153.326 186.037 153.091 185.868 152.838 185.898L150.972 186.136C150.818 186.154 150.682 186.246 150.609 186.382L149.755 187.914C149.703 188.006 149.604 188.057 149.502 188.05C149.399 188.043 149.307 187.977 149.271 187.878L148.823 186.693V186.701Z" fill="black"/>
<path d="M149.45 199.989C148.182 199.989 146.81 199.875 145.443 199.563C145.3 199.53 145.208 199.387 145.241 199.244C145.274 199.101 145.417 199.01 145.56 199.043C150.22 200.106 155.104 198.738 155.152 198.724C155.295 198.683 155.442 198.764 155.482 198.907C155.522 199.05 155.442 199.197 155.299 199.237C155.152 199.277 152.629 199.985 149.447 199.985L149.45 199.989Z" fill="black"/>
<path d="M148.314 194.757C148.171 194.757 148.05 194.643 148.046 194.496C148.043 194.35 148.156 194.225 148.303 194.221L152.762 194.075C152.908 194.075 153.033 194.185 153.037 194.331C153.04 194.478 152.927 194.603 152.78 194.606L148.321 194.753H148.314V194.757Z" fill="black"/>
<path d="M171 178.088L171.711 188.355H177.438L177.702 178.088H171Z" fill="white"/>
<path d="M177.438 188.622H171.714C171.575 188.622 171.458 188.512 171.447 188.373L170.735 178.106C170.732 178.033 170.757 177.96 170.805 177.905C170.856 177.85 170.926 177.82 170.999 177.82H177.702C177.775 177.82 177.841 177.85 177.893 177.901C177.944 177.952 177.97 178.022 177.97 178.095L177.702 188.362C177.702 188.509 177.581 188.622 177.434 188.622H177.438ZM171.96 188.087H177.174L177.427 178.352H171.285L171.96 188.087Z" fill="black"/>
<path d="M170.215 194.152C170.2 195.123 170.864 195.974 171.81 196.198C175.103 196.964 182.517 198.669 184.629 198.984C187.375 199.391 190.748 198.552 192.196 196.946C193.645 195.34 188.948 191.508 186.718 190.111C183.407 188.039 180.225 183.944 178.89 183.76C177.556 183.577 175.066 187.445 175.066 187.445L170.996 185.737C170.996 185.737 170.285 189.224 170.215 194.152Z" fill="white"/>
<path d="M186.07 199.351C185.571 199.351 185.076 199.318 184.596 199.244C182.458 198.925 174.905 197.187 171.755 196.454C170.695 196.208 169.936 195.237 169.951 194.144C170.024 189.249 170.732 185.714 170.739 185.681C170.754 185.604 170.805 185.535 170.875 185.498C170.945 185.461 171.029 185.458 171.102 185.487L174.967 187.111C175.598 186.158 177.607 183.309 178.931 183.492C179.686 183.595 180.764 184.622 182.26 186.041C183.653 187.364 185.234 188.864 186.862 189.88C188.651 190.998 192.439 193.964 192.721 195.974C192.783 196.425 192.673 196.81 192.395 197.121C191.17 198.478 188.581 199.351 186.062 199.351H186.07ZM171.201 186.11C171.029 187.082 170.541 190.155 170.483 194.155C170.472 194.995 171.055 195.746 171.872 195.933C175.015 196.667 182.553 198.401 184.673 198.716C187.423 199.127 190.646 198.269 192.002 196.766C192.171 196.579 192.233 196.344 192.193 196.051C191.955 194.346 188.42 191.489 186.579 190.338C184.904 189.289 183.305 187.771 181.893 186.433C180.632 185.238 179.44 184.108 178.857 184.028C178.01 183.91 176.221 186.154 175.293 187.595C175.224 187.705 175.084 187.746 174.963 187.698L171.198 186.118L171.201 186.11Z" fill="black"/>
<path d="M186.011 197.47C180.06 197.47 172.063 194.239 171.612 194.052C171.476 193.997 171.41 193.84 171.465 193.704C171.52 193.568 171.678 193.502 171.814 193.557C171.96 193.616 186.458 199.475 190.726 195.622C190.836 195.523 191.005 195.53 191.104 195.64C191.203 195.75 191.196 195.919 191.086 196.018C189.916 197.074 188.09 197.466 186.011 197.466V197.47Z" fill="black"/>
<path d="M179.664 191.247C179.59 191.247 179.517 191.218 179.466 191.159C179.367 191.049 179.374 190.881 179.484 190.782L182.395 188.156C182.505 188.057 182.674 188.065 182.773 188.175C182.872 188.285 182.865 188.453 182.755 188.552L179.843 191.178C179.792 191.225 179.73 191.247 179.664 191.247Z" fill="black"/>
<path d="M147.093 111.146C147.093 111.146 145.318 143.244 144.39 154.324C143.463 165.405 146.561 183.218 146.561 183.218L155.398 182.752C155.398 182.752 156.003 161.097 156.659 155.08C156.659 155.08 160.392 146.925 161.499 139.654C162.606 132.383 166.372 120.895 166.372 120.895C166.372 120.895 169.434 178.22 169.727 182.726C169.727 182.726 176.657 183.034 179.139 181.472C179.139 181.472 183.543 160.569 182.909 149.198C182.278 137.824 182.971 109.569 182.971 109.569L147.089 111.142L147.093 111.146Z" fill="black"/>
<path d="M155.031 155.351H152.329C152.182 155.351 152.061 155.23 152.061 155.083C152.061 154.936 152.182 154.815 152.329 154.815H155.031C155.178 154.815 155.299 154.936 155.299 155.083C155.299 155.23 155.178 155.351 155.031 155.351Z" fill="white"/>
<path d="M174.274 172.023C174.274 172.023 174.274 172.023 174.27 172.023C174.123 172.023 174.006 171.898 174.006 171.752C174.101 166.453 179.92 156.953 180.166 156.553C180.243 156.429 180.408 156.388 180.533 156.465C180.657 156.542 180.698 156.707 180.621 156.832C180.562 156.931 174.633 166.611 174.541 171.759C174.541 171.906 174.42 172.023 174.274 172.023Z" fill="white"/>
<path d="M185.769 59.8084C186.414 59.7571 189.571 66.2251 199.453 65.9537C209.334 65.6824 217.262 54.6237 217.262 54.6237C217.262 54.6237 220.675 48.8707 223.264 46.7881C225.853 44.7091 226.26 44.4341 226.26 44.4341C226.26 44.4341 227.07 45.5157 226.26 46.7881C225.449 48.0604 223.205 50.4437 223.205 50.4437C223.205 50.4437 225.677 51.8004 224.562 54.6237C223.282 57.8724 219.671 57.6121 219.671 57.6121C219.671 57.6121 212.345 90.0474 182.065 74.6364L185.769 59.8084Z" fill="white"/>
<path d="M197.08 79.0585C192.482 79.0585 187.422 77.6615 181.944 74.8748C181.834 74.8198 181.776 74.6915 181.805 74.5705L185.508 59.7425C185.538 59.6325 185.633 59.5482 185.747 59.5408C186.011 59.5188 186.22 59.7535 186.726 60.3182C188.222 61.9865 191.727 65.8988 199.442 65.6862C209.078 65.4222 216.961 54.5798 217.042 54.4698C217.17 54.2535 220.496 48.6692 223.095 46.5828C225.666 44.5185 226.091 44.2252 226.109 44.2142C226.227 44.1335 226.388 44.1628 226.472 44.2765C226.509 44.3278 227.385 45.5232 226.483 46.9348C225.809 47.9945 224.199 49.7655 223.612 50.3998C224.265 50.8875 225.757 52.3212 224.808 54.7228C223.66 57.6305 220.719 57.8725 219.876 57.8835C219.414 59.6838 215.832 72.4145 205.62 77.2032C202.987 78.4389 200.135 79.0585 197.077 79.0585H197.08ZM182.377 74.4935C191.261 78.9705 199.005 79.7222 205.396 76.7228C216.099 71.6995 219.381 57.6965 219.41 57.5535C219.44 57.4252 219.561 57.3372 219.689 57.3445C219.828 57.3555 223.121 57.5462 224.313 54.5248C225.325 51.9618 223.169 50.7298 223.077 50.6785C223.004 50.6382 222.956 50.5685 222.941 50.4842C222.93 50.4035 222.952 50.3192 223.011 50.2605C223.033 50.2385 225.244 47.8808 226.032 46.6452C226.527 45.8678 226.337 45.1748 226.175 44.8265C225.845 45.0758 225.09 45.6625 223.429 46.9972C220.906 49.0248 217.522 54.7045 217.489 54.7595C217.397 54.8915 209.356 65.9465 199.456 66.2178C199.247 66.2252 199.042 66.2252 198.84 66.2252C191.305 66.2252 187.833 62.3495 186.326 60.6702C186.187 60.5162 186.047 60.3585 185.934 60.2412L182.373 74.4898L182.377 74.4935Z" fill="black"/>
<path d="M136.797 74.6366C136.797 74.6366 139.763 55.4966 150.239 50.7886C160.714 46.0806 174.89 46.7333 178.798 49.0873C182.707 51.4376 192.893 62.0709 192.893 62.0709L183.891 74.6366C183.891 74.6366 185.948 108.465 184.32 117.397C184.32 117.397 174.307 118.567 170.061 116.891C165.815 115.219 151.848 112.876 145.171 115.942L146.385 73.1113L136.797 74.6366Z" fill="#0066EE"/>
<path d="M177.251 118.065C174.593 118.065 171.777 117.856 169.958 117.141C165.778 115.494 151.951 113.122 145.281 116.187C145.197 116.228 145.098 116.217 145.021 116.169C144.944 116.118 144.9 116.03 144.9 115.938L146.103 73.4303L136.833 74.9043C136.749 74.9189 136.665 74.8896 136.602 74.8309C136.54 74.7723 136.514 74.6843 136.525 74.5999C136.646 73.8116 139.635 55.2619 150.121 50.5466C160.447 45.9046 174.714 46.3226 178.927 48.8599C182.821 51.2029 192.662 61.4549 193.076 61.8876C193.164 61.9793 193.175 62.1223 193.102 62.2286L184.155 74.7173C184.273 76.7119 186.146 108.821 184.577 117.445C184.555 117.562 184.463 117.65 184.346 117.661C184.111 117.691 180.819 118.065 177.247 118.065H177.251ZM154.246 114.178C160.579 114.178 167.417 115.564 170.16 116.642C173.973 118.142 182.67 117.302 184.093 117.152C185.633 108.066 183.646 74.9886 183.624 74.6513C183.62 74.5889 183.638 74.5303 183.671 74.4789L192.545 62.0929C191.254 60.7546 182.23 51.4633 178.659 49.3109C174.981 47.0963 160.832 46.3153 150.349 51.0269C140.914 55.2693 137.603 71.6519 137.123 74.3103L146.341 72.8436C146.422 72.8326 146.499 72.8546 146.561 72.9059C146.62 72.9573 146.653 73.0343 146.653 73.1149L145.45 115.524C147.819 114.545 150.965 114.174 154.246 114.174V114.178Z" fill="black"/>
<path d="M154.371 107.383C154.243 107.383 154.133 107.292 154.107 107.163C154.082 107.017 154.177 106.877 154.324 106.852C170.248 104.039 174.894 93.0136 174.941 92.9C174.996 92.7643 175.154 92.6983 175.29 92.7533C175.425 92.8083 175.491 92.966 175.436 93.1016C175.389 93.2153 170.644 104.509 154.419 107.376C154.404 107.376 154.386 107.38 154.371 107.38V107.383Z" fill="black"/>
<path d="M183.129 88.0163H162.746L169.13 65.2427H189.516L183.129 88.0163Z" fill="black"/>
<path d="M138.593 74.7098L148.911 70.0972C148.911 70.0972 147.459 87.5798 168.334 79.5058C168.334 79.5058 167.564 77.2582 167.674 74.6365C167.784 72.0112 169.353 74.5522 169.573 76.6825C169.793 78.8165 174.695 77.9512 177.64 77.1078C180.584 76.2682 184.452 76.8182 177.64 80.5728C170.827 84.3312 169.335 82.6555 169.335 82.6555C169.335 82.6555 160.637 94.8252 149.813 92.2402C136.503 89.0612 138.593 74.7062 138.593 74.7062V74.7098Z" fill="white"/>
<path d="M152.831 92.8673C151.827 92.8673 150.796 92.7536 149.748 92.5043C142.744 90.8323 140.013 86.062 138.953 82.3586C137.809 78.362 138.308 74.82 138.33 74.6733C138.344 74.5816 138.403 74.5046 138.484 74.468L148.802 69.8553C148.89 69.815 148.989 69.826 149.066 69.881C149.143 69.936 149.187 70.0276 149.179 70.123C149.176 70.1853 148.703 76.5323 152.861 79.6453C156.08 82.0506 161.173 81.9516 168 79.352C167.802 78.692 167.311 76.8 167.403 74.6293C167.417 74.2956 167.458 73.2726 168.081 73.2543C168.085 73.2543 168.092 73.2543 168.096 73.2543C168.902 73.2543 169.694 75.2783 169.837 76.6606C169.867 76.9503 170.006 77.174 170.259 77.3463C171.484 78.175 174.956 77.5993 177.563 76.855C178.931 76.4663 181.244 76.206 181.644 77.1703C181.985 77.9953 180.716 79.187 177.768 80.815C172.188 83.8913 170.065 83.411 169.39 83.0333C168.268 84.4963 161.474 92.871 152.835 92.871L152.831 92.8673ZM138.839 74.8933C138.759 75.5973 138.484 78.7836 139.474 82.2303C140.962 87.4113 144.46 90.693 149.876 91.9873C150.884 92.2293 151.874 92.3356 152.839 92.3356C161.976 92.3356 169.038 82.6153 169.115 82.5053C169.163 82.4393 169.236 82.399 169.317 82.3953C169.401 82.3916 169.478 82.4246 169.529 82.4833C169.54 82.4906 171.069 83.895 177.504 80.3456C181.358 78.219 181.178 77.4563 181.145 77.3756C180.98 76.976 179.411 76.8843 177.706 77.372C176.324 77.7643 171.685 78.9596 169.955 77.79C169.566 77.526 169.346 77.1666 169.298 76.7156C169.137 75.1646 168.352 73.8336 168.092 73.7896C168.096 73.8006 167.964 73.94 167.934 74.6513C167.828 77.1923 168.572 79.4033 168.58 79.4253C168.627 79.561 168.558 79.7113 168.422 79.7626C161.29 82.52 155.941 82.6263 152.531 80.0743C148.743 77.24 148.574 72.0773 148.615 70.5263L138.832 74.9006L138.839 74.8933Z" fill="black"/>
<path d="M166.134 42.0654C165.243 42.8831 163.501 43.8767 162.137 43.1911C161.121 42.6814 160.553 41.3541 160.59 39.8361C160.12 39.8727 159.504 39.8397 159.064 39.4511C158.386 38.8534 158.514 37.7534 158.54 37.0274C158.661 33.6871 156.721 33.1737 157.198 30.9077C157.572 29.1257 158.969 28.0661 159.233 27.8681C160.553 26.8671 161.448 27.1897 163.67 26.6067C167.406 25.6277 167.527 24.0181 169.987 24.0107C170.13 24.0107 173.482 24.0474 174.618 26.3611C175.542 28.2421 174.464 30.5337 173.346 31.7327C171.901 33.2911 170.86 32.5211 169.408 33.8264C166.86 36.1181 168.785 39.6344 166.137 42.0581L166.134 42.0654Z" fill="black"/>
<path d="M173.592 36.1072L173.445 35.9789C172.705 35.3409 171.935 34.6002 171.74 33.6469C170.904 29.5806 167.183 28.1066 167.01 31.8392C166.966 32.7816 163.527 32.7339 163.934 33.7203C164.997 36.2979 165.023 35.6049 163.52 36.5546C163.351 36.5619 163.182 36.5986 163.021 36.6719C162.251 37.0312 161.98 38.0763 162.412 39.0076C162.676 39.5723 163.138 39.9609 163.633 40.1039V44.1776C163.633 45.7029 162.709 47.0779 161.298 47.6572L159.923 48.2183C159.923 48.2183 166.336 52.4019 172.844 47.8076L171.975 47.4189C170.446 46.7333 169.441 45.2336 169.39 43.5579L169.383 42.7622C169.819 42.8026 170.244 42.7732 170.637 42.6559C172.459 42.1279 173.06 40.0269 172.752 37.4199L173.493 37.0203C173.838 36.8333 173.893 36.3603 173.592 36.1036V36.1072Z" fill="white"/>
<path d="M166.262 50.2166C162.559 50.2166 159.82 48.4713 159.776 48.442C159.692 48.387 159.648 48.2916 159.655 48.1926C159.666 48.0936 159.728 48.0093 159.82 47.969L161.195 47.408C162.515 46.869 163.366 45.6003 163.366 44.1776V40.2946C162.852 40.0893 162.423 39.6713 162.167 39.1213C161.672 38.058 162.002 36.8516 162.904 36.43C163.069 36.353 163.245 36.309 163.432 36.2906C163.681 36.1366 163.883 36.0266 164.051 35.9386C164.242 35.836 164.422 35.7406 164.425 35.693C164.436 35.572 164.29 35.2273 164.084 34.7543C163.974 34.5013 163.842 34.197 163.688 33.8193C163.615 33.6396 163.615 33.46 163.696 33.2986C163.901 32.8733 164.568 32.6863 165.335 32.4736C165.892 32.3196 166.732 32.0813 166.743 31.8246C166.838 29.7676 167.912 29.4633 168.371 29.4266C169.687 29.324 171.447 30.886 172.001 33.592C172.184 34.4756 172.932 35.1833 173.618 35.7773L173.764 35.9056C173.97 36.0853 174.076 36.353 174.047 36.6206C174.017 36.892 173.856 37.1303 173.614 37.2586L173.031 37.5703C173.332 40.4523 172.488 42.392 170.706 42.9126C170.38 43.008 170.024 43.052 169.65 43.0446V43.5543C169.705 45.1126 170.659 46.5353 172.085 47.1733L172.954 47.562C173.042 47.6023 173.101 47.683 173.112 47.782C173.123 47.8773 173.079 47.9726 172.998 48.0276C170.655 49.6813 168.312 50.2166 166.262 50.2166ZM160.531 48.255C162.06 49.058 167.135 51.214 172.294 47.8553L171.861 47.661C170.248 46.9386 169.174 45.329 169.119 43.5653L169.111 42.7623C169.111 42.6853 169.141 42.6156 169.196 42.5643C169.251 42.513 169.324 42.4873 169.401 42.4946C169.823 42.5313 170.211 42.4983 170.556 42.3993C172.1 41.952 172.8 40.148 172.481 37.453C172.466 37.343 172.525 37.2366 172.62 37.1853L173.361 36.7856C173.445 36.738 173.504 36.6573 173.515 36.5583C173.526 36.463 173.489 36.3676 173.416 36.3053L173.269 36.177C172.514 35.528 171.693 34.7433 171.476 33.6946C170.996 31.3516 169.5 29.8703 168.411 29.9583C167.744 30.0096 167.329 30.699 167.274 31.8466C167.245 32.492 166.387 32.7303 165.478 32.987C164.972 33.13 164.275 33.3243 164.172 33.5333C164.165 33.5443 164.158 33.5626 164.18 33.6176C164.334 33.988 164.466 34.2923 164.572 34.5416C165.074 35.7003 165.181 35.9423 164.301 36.408C164.128 36.4996 163.916 36.6133 163.659 36.7783C163.619 36.804 163.575 36.8186 163.527 36.8186C163.384 36.826 163.252 36.8553 163.131 36.914C162.497 37.211 162.28 38.0983 162.651 38.894C162.871 39.3633 163.263 39.719 163.703 39.8436C163.817 39.8766 163.897 39.983 163.897 40.1003V44.174C163.897 45.8166 162.915 47.2796 161.393 47.8993L160.528 48.2513L160.531 48.255Z" fill="black"/>
<path d="M169.382 43.0297C169.382 43.0297 169.357 43.0297 169.342 43.0297C166.717 42.6264 165.54 40.6244 165.492 40.5401C165.419 40.4117 165.463 40.2504 165.591 40.1771C165.719 40.1037 165.881 40.1477 165.958 40.2761C165.969 40.2944 167.065 42.1424 169.426 42.5054C169.573 42.5274 169.672 42.6631 169.65 42.8097C169.628 42.9417 169.514 43.0371 169.386 43.0371L169.382 43.0297Z" fill="black"/>
<path d="M82.4346 78.2811C82.0973 78.2811 81.7636 78.2114 81.4446 78.0758C80.8213 77.8118 80.3373 77.3204 80.0843 76.6898C79.5599 75.3918 80.1906 73.9141 81.4849 73.3898C82.7829 72.8654 84.2606 73.4961 84.7849 74.7941C85.3093 76.0921 84.6786 77.5698 83.3843 78.0941C83.0763 78.2188 82.7573 78.2811 82.4346 78.2811ZM82.4309 73.7418C82.1816 73.7418 81.9286 73.7894 81.6866 73.8884C80.6636 74.3028 80.1686 75.4688 80.5793 76.4918C80.7809 76.9868 81.1586 77.3754 81.6536 77.5844C82.1449 77.7934 82.6876 77.7971 83.1863 77.5991C84.2093 77.1848 84.7043 76.0188 84.2936 74.9958C83.9783 74.2184 83.2266 73.7418 82.4346 73.7418H82.4309Z" fill="black"/>
<path d="M269.325 83.9061C269.259 83.9061 269.193 83.8804 269.141 83.8327C269.035 83.7301 269.031 83.5614 269.134 83.4551L270.388 82.1461C270.491 82.0397 270.659 82.0361 270.766 82.1387C270.872 82.2414 270.875 82.4101 270.773 82.5164L269.519 83.8254C269.468 83.8804 269.394 83.9097 269.325 83.9097V83.9061Z" fill="black"/>
<path d="M264.936 88.493C264.87 88.493 264.804 88.4673 264.752 88.4196C264.646 88.317 264.642 88.1483 264.745 88.042L265.999 86.733C266.102 86.6266 266.27 86.623 266.377 86.7256C266.483 86.8283 266.487 86.997 266.384 87.1033L265.13 88.4123C265.079 88.4673 265.005 88.4966 264.936 88.4966V88.493Z" fill="black"/>
<path d="M266.167 83.9759C266.101 83.9759 266.032 83.9502 265.98 83.8989L264.708 82.6449C264.602 82.5422 264.602 82.3736 264.708 82.2673C264.811 82.1609 264.98 82.1609 265.086 82.2673L266.358 83.5212C266.465 83.6239 266.465 83.7926 266.358 83.8989C266.307 83.9502 266.237 83.9796 266.167 83.9796V83.9759Z" fill="black"/>
<path d="M270.619 88.3646C270.553 88.3646 270.483 88.3389 270.432 88.2876L269.16 87.0336C269.053 86.9309 269.053 86.7623 269.16 86.6559C269.262 86.5496 269.431 86.5496 269.537 86.6559L270.81 87.9099C270.916 88.0126 270.916 88.1813 270.81 88.2876C270.758 88.3389 270.689 88.3683 270.619 88.3683V88.3646Z" fill="black"/>
<path d="M178.512 7.43389C178.446 7.43389 178.38 7.40823 178.329 7.36056C178.223 7.25789 178.219 7.08923 178.322 6.98289L179.576 5.67389C179.678 5.56756 179.847 5.56389 179.953 5.66656C180.06 5.76923 180.063 5.93789 179.961 6.04423L178.707 7.35323C178.655 7.40823 178.582 7.43756 178.512 7.43756V7.43389Z" fill="black"/>
<path d="M174.123 12.0174C174.057 12.0174 173.991 11.9917 173.94 11.9441C173.834 11.8414 173.83 11.6727 173.933 11.5664L175.187 10.2574C175.289 10.1511 175.458 10.1474 175.564 10.2501C175.671 10.3527 175.674 10.5214 175.572 10.6277L174.318 11.9367C174.266 11.9917 174.193 12.0211 174.123 12.0211V12.0174Z" fill="black"/>
<path d="M175.355 7.50375C175.289 7.50375 175.22 7.47808 175.168 7.42675L173.896 6.17275C173.79 6.07008 173.79 5.90142 173.896 5.79508C173.999 5.68875 174.167 5.68875 174.274 5.79508L175.546 7.04908C175.652 7.15175 175.652 7.32042 175.546 7.42675C175.495 7.47808 175.425 7.50742 175.355 7.50742V7.50375Z" fill="black"/>
<path d="M179.807 11.8924C179.741 11.8924 179.671 11.8668 179.62 11.8154L178.347 10.5614C178.241 10.4588 178.241 10.2901 178.347 10.1838C178.45 10.0774 178.619 10.0774 178.725 10.1838L179.997 11.4378C180.104 11.5404 180.104 11.7091 179.997 11.8154C179.946 11.8668 179.876 11.8961 179.807 11.8961V11.8924Z" fill="black"/>
<path d="M139.954 175.459L135.895 217.042L132.994 216.921L134.435 173.204L139.954 175.459Z" fill="white"/>
<path d="M135.895 217.31C135.895 217.31 135.887 217.31 135.884 217.31L132.987 217.189C132.84 217.181 132.727 217.06 132.73 216.914L134.171 173.196C134.171 173.108 134.219 173.027 134.292 172.98C134.366 172.932 134.457 172.925 134.538 172.958L140.056 175.213C140.166 175.257 140.232 175.37 140.221 175.488L136.159 217.071C136.144 217.211 136.03 217.313 135.891 217.313L135.895 217.31ZM133.269 216.664L135.649 216.763L139.668 175.631L134.688 173.599L133.269 216.668V216.664Z" fill="black"/>
<path d="M85.4814 173.963L89.4414 217.145L92.4408 216.921L90.9998 171.627L85.4814 173.963Z" fill="white"/>
<path d="M89.4415 217.412C89.3058 217.412 89.1885 217.31 89.1738 217.17L85.2102 173.988C85.1992 173.871 85.2652 173.764 85.3715 173.717L90.8898 171.381C90.9705 171.348 91.0658 171.355 91.1392 171.403C91.2125 171.451 91.2602 171.531 91.2638 171.619L92.7048 216.914C92.7085 217.057 92.6022 217.178 92.4592 217.189L89.4635 217.412C89.4635 217.412 89.4488 217.412 89.4415 217.412ZM85.7638 174.131L89.6835 216.859L92.1622 216.672L90.7432 172.023L85.7638 174.131Z" fill="black"/>
<path d="M71.684 163.802L72.85 209.148L75.1893 208.642L77.3343 161.646L71.684 163.802Z" fill="white"/>
<path d="M72.8499 209.415C72.7913 209.415 72.7326 209.397 72.6849 209.357C72.6226 209.309 72.5859 209.232 72.5823 209.155L71.4163 163.809C71.4163 163.696 71.4823 163.593 71.5886 163.553L77.2389 161.397C77.3233 161.364 77.4186 161.378 77.4919 161.43C77.5653 161.481 77.6056 161.569 77.6019 161.657L75.4569 208.653C75.4533 208.774 75.3653 208.876 75.2479 208.902L72.9086 209.408C72.8903 209.412 72.8719 209.415 72.8536 209.415H72.8499ZM71.9553 163.982L73.1066 208.818L74.9289 208.422L77.0483 162.038L71.9553 163.982Z" fill="black"/>
<path d="M117.4 162.786L118.566 208.132L120.997 208.147L123.05 160.63L117.4 162.786Z" fill="white"/>
<path d="M105.652 127.37V137.923C105.652 148.241 113.792 156.608 123.831 156.608C133.871 156.608 142.011 164.972 142.011 175.294C142.011 176.214 141.266 176.958 140.35 176.958H92.2283C77.1767 176.958 64.9777 164.418 64.9777 148.949V126.435C64.9777 120.283 69.8287 115.296 75.8163 115.296H93.9003C100.39 115.296 105.652 120.704 105.652 127.374V127.37Z" fill="white"/>
<path d="M140.346 177.222H92.2283C77.0556 177.222 64.71 164.535 64.71 148.945V126.431C64.71 120.139 69.693 115.024 75.8163 115.024H93.9003C100.53 115.024 105.92 120.565 105.92 127.37V137.923C105.92 148.079 113.953 156.34 123.831 156.34C133.709 156.34 142.278 164.843 142.278 175.293C142.278 176.36 141.413 177.226 140.35 177.226L140.346 177.222ZM75.8163 115.56C69.9863 115.56 65.2453 120.436 65.2453 126.431V148.945C65.2453 164.242 77.349 176.687 92.2283 176.687H140.346C141.116 176.687 141.739 176.06 141.739 175.29C141.739 165.133 133.706 156.872 123.828 156.872C113.95 156.872 105.381 148.369 105.381 137.919V127.366C105.381 120.854 100.229 115.556 93.8966 115.556H75.8126L75.8163 115.56Z" fill="black"/>
<path d="M60.3173 107.684C59.5803 107.38 58.9313 106.848 58.5206 106.118C57.9156 105.04 57.593 103.31 58.9533 100.842C62.0223 95.2649 67.152 97.9013 69.1136 97.2559C73.51 95.8076 72.4686 93.4316 74.258 91.1216C75.5926 89.3946 80.209 86.1349 87.2196 92.2069C87.2196 92.2069 90.3693 96.5043 93.9333 94.8689C98.315 92.8596 107.122 97.4026 104.339 104.16C103.536 106.107 102.092 107.607 100.332 108.417C100.013 108.564 99.6643 108.707 99.283 108.839C98.183 109.217 97.336 110.196 97.061 111.461C96.1663 115.575 92.771 123.517 80.1833 115.523C79.2336 114.922 78.108 114.845 77.1253 115.3C75.919 115.861 74.61 118.031 68.791 117.115C65.0546 116.524 63.8666 112.176 62.8803 110.196C62.0956 108.619 60.9663 107.952 60.321 107.684H60.3173Z" fill="black"/>
<path d="M125.052 138.044C120.102 139.591 110.617 135.297 109 128.092C107.716 122.38 105.714 119.479 104.937 118.526C104.567 117.892 104.079 117.298 103.434 116.733C98.821 112.681 90.835 113.994 87.381 114.559C83.4614 115.204 80.2127 115.736 78.0054 118.225C77.4187 118.885 77.0044 119.578 76.7184 120.315C72.498 128.257 75.919 136.463 78.0274 140.251C78.3757 155.446 73.3524 153.059 74.709 159.805C76.623 169.309 91.9314 165.756 97.501 164.543C99.4554 164.117 109.685 167.153 112.182 159.263C113.642 154.657 110.87 152.531 108.42 144.695C120.964 152.49 130.281 139.199 130.281 139.199L131.245 134.538C131.245 134.538 128.715 136.903 125.052 138.047V138.044Z" fill="#0022AA"/>
<path d="M85.5623 166.479C82.596 166.479 79.7323 166.009 77.6167 164.631C75.93 163.527 74.8593 161.921 74.445 159.857C73.8363 156.832 74.4707 155.585 75.3507 153.865C76.447 151.724 77.943 148.791 77.7597 140.321C75.4607 136.17 72.2817 128.089 76.4763 120.187C76.7843 119.406 77.217 118.706 77.8037 118.046C80.077 115.486 83.4393 114.936 87.337 114.295C90.7983 113.726 98.9053 112.395 103.61 116.531C104.255 117.096 104.761 117.701 105.157 118.372C105.975 119.384 107.977 122.321 109.26 128.034C109.957 131.136 112.3 134.04 115.691 135.994C118.896 137.846 122.541 138.55 124.972 137.787C128.528 136.676 131.036 134.362 131.062 134.337C131.146 134.256 131.275 134.241 131.377 134.3C131.48 134.359 131.531 134.472 131.509 134.586L130.541 139.246C130.534 139.283 130.519 139.316 130.497 139.345C130.475 139.378 128.092 142.741 124.191 145.095C120.682 147.21 115.226 148.908 108.89 145.282C109.671 147.658 110.477 149.506 111.137 151.016C112.512 154.159 113.418 156.234 112.435 159.34C110.4 165.76 103.43 165.177 99.6863 164.865C98.744 164.788 97.93 164.719 97.556 164.799L97.2077 164.876C94.4357 165.481 89.889 166.479 85.566 166.479H85.5623ZM76.9347 120.462C72.8573 128.169 76.0107 136.086 78.2583 140.119C78.2803 140.156 78.2913 140.2 78.2913 140.244C78.4893 148.897 76.9493 151.911 75.8273 154.107C74.9657 155.794 74.3973 156.909 74.9693 159.75C75.358 161.672 76.3443 163.16 77.91 164.183C82.926 167.458 92.496 165.364 97.094 164.356L97.4423 164.279C97.897 164.18 98.667 164.246 99.734 164.334C103.584 164.656 110.023 165.192 111.929 159.178C112.853 156.267 112.025 154.371 110.65 151.233C109.924 149.572 109.018 147.504 108.167 144.772C108.134 144.666 108.167 144.548 108.259 144.482C108.347 144.413 108.468 144.409 108.563 144.468C113.667 147.639 118.83 147.702 123.901 144.647C127.469 142.499 129.738 139.481 130.028 139.085L130.824 135.242C129.859 136.012 127.802 137.464 125.129 138.3C122.563 139.103 118.749 138.381 115.42 136.46C111.9 134.428 109.465 131.4 108.736 128.151C107.471 122.515 105.509 119.659 104.728 118.695C104.721 118.684 104.713 118.673 104.706 118.662C104.336 118.031 103.863 117.466 103.258 116.935C98.7403 112.964 90.8093 114.269 87.425 114.826C83.4723 115.475 80.3483 115.989 78.2033 118.405C77.6533 119.025 77.25 119.681 76.964 120.414C76.9567 120.433 76.9457 120.451 76.9347 120.469V120.462Z" fill="black"/>
<path d="M103.166 136.804C103.166 136.804 112.197 133.511 115.017 127.494L120.832 122.079C120.832 122.079 120.751 124.697 119.024 125.789C119.024 125.789 120.506 128.774 118.32 130.835C118.32 130.835 116.681 132.14 115.702 132.162C115.702 132.162 112.839 141.567 105.109 144.365C105.109 144.365 102.939 141.065 103.166 136.808V136.804Z" fill="white"/>
<path d="M105.109 144.629C105.021 144.629 104.937 144.585 104.886 144.508C104.794 144.369 102.667 141.083 102.902 136.79C102.909 136.683 102.975 136.588 103.078 136.551C103.166 136.518 112.039 133.226 114.778 127.377C114.793 127.348 114.815 127.319 114.837 127.297L120.652 121.881C120.733 121.808 120.847 121.789 120.946 121.833C121.045 121.877 121.107 121.976 121.103 122.086C121.103 122.196 121.004 124.671 119.358 125.885C119.655 126.637 120.458 129.185 118.504 131.026C118.423 131.092 116.953 132.25 115.904 132.408C115.46 133.71 112.388 142.011 105.205 144.614C105.175 144.625 105.142 144.629 105.113 144.629H105.109ZM103.426 136.991C103.294 140.475 104.798 143.309 105.223 144.035C112.586 141.219 115.416 132.173 115.446 132.082C115.479 131.972 115.581 131.895 115.695 131.891C116.425 131.873 117.715 130.967 118.152 130.622C120.146 128.741 118.841 126.021 118.782 125.907C118.72 125.786 118.764 125.636 118.878 125.562C119.934 124.895 120.33 123.582 120.476 122.772L115.237 127.656C112.56 133.295 104.713 136.5 103.426 136.995V136.991Z" fill="black"/>
<path d="M95.026 147.35C87.502 147.35 83.1827 143.621 83.124 143.57C83.014 143.471 83.003 143.302 83.102 143.192C83.201 143.082 83.3697 143.071 83.4797 143.17C83.5567 143.236 91.242 149.847 104.035 145.102C104.174 145.051 104.328 145.121 104.38 145.26C104.431 145.399 104.361 145.553 104.222 145.605C100.783 146.881 97.7027 147.35 95.026 147.35Z" fill="black"/>
<path d="M99.646 137.168C93.09 137.168 89.273 133.435 87.183 130.142C84.7226 126.27 84.07 122.156 84.0626 122.116C84.0406 121.969 84.1396 121.834 84.2863 121.812C84.433 121.79 84.5686 121.889 84.5906 122.035C84.598 122.076 85.2396 126.094 87.6413 129.871C90.8423 134.902 95.4916 137.146 101.461 136.541C101.608 136.526 101.74 136.632 101.754 136.779C101.769 136.926 101.663 137.058 101.516 137.072C100.871 137.138 100.247 137.168 99.646 137.168Z" fill="black"/>
<path d="M104.728 132.426C104.728 132.426 104.702 132.426 104.688 132.426C104.541 132.404 104.442 132.269 104.46 132.122C105.641 124.059 101.952 119.498 101.912 119.454C101.817 119.34 101.835 119.171 101.949 119.076C102.062 118.981 102.231 118.999 102.326 119.109C102.484 119.3 106.206 123.887 104.992 132.195C104.974 132.327 104.86 132.423 104.728 132.423V132.426Z" fill="black"/>
<path d="M103.063 109.77C102.814 108.091 103.214 103.636 103.14 103.742C102.422 104.798 100.053 103.548 97.9227 103.464C95.7887 103.379 96.5074 106.58 96.5074 106.58C96.5074 106.58 95.884 104.406 94.553 105.766C93.7794 106.555 94.6337 107.574 95.4257 108.241C95.2094 108.491 91.3667 112.63 89.0127 115.091L94.2304 119.051L96.841 116.612L96.3094 115.765C95.928 115.16 95.895 114.401 96.2214 113.763L97.4974 111.6C97.7907 111.956 98.161 112.359 98.502 112.597C99.184 113.074 100.027 112.997 100.629 112.425C101.45 111.64 102.026 110.757 102.29 109.899L103.063 109.767V109.77Z" fill="white"/>
<path d="M94.2303 119.322C94.1753 119.322 94.1167 119.304 94.069 119.267L88.8513 115.307C88.789 115.259 88.7523 115.19 88.745 115.116C88.7377 115.039 88.767 114.966 88.8183 114.911C90.967 112.663 94.2267 109.154 95.0407 108.267C94.5347 107.805 94.0103 107.174 93.981 106.533C93.9627 106.177 94.091 105.858 94.3587 105.587C94.784 105.154 95.2057 104.985 95.6127 105.088C95.8107 105.139 95.9793 105.246 96.1223 105.381C96.1297 104.813 96.2397 104.171 96.6063 103.731C96.918 103.357 97.3617 103.178 97.93 103.2C98.7367 103.233 99.5763 103.423 100.321 103.596C101.523 103.871 102.565 104.113 102.917 103.596C102.983 103.497 103.115 103.453 103.225 103.489C103.364 103.536 103.412 103.951 103.368 104.736C103.291 106.085 103.151 108.597 103.32 109.734C103.342 109.877 103.243 110.012 103.1 110.038L102.488 110.144C102.191 111.002 101.615 111.857 100.808 112.627C100.115 113.29 99.1253 113.367 98.3443 112.825C98.106 112.66 97.8347 112.403 97.534 112.066L96.445 113.91C96.1737 114.445 96.203 115.113 96.5293 115.633L97.061 116.48C97.1307 116.59 97.1123 116.73 97.017 116.818L94.4063 119.256C94.355 119.304 94.289 119.329 94.223 119.329L94.2303 119.322ZM89.4123 115.061L94.212 118.702L96.5 116.568L96.0857 115.908C95.6567 115.226 95.62 114.361 95.983 113.642L97.27 111.464C97.314 111.391 97.391 111.34 97.479 111.332C97.567 111.325 97.6513 111.362 97.7063 111.428C98.0767 111.875 98.3993 112.194 98.6597 112.377C99.2353 112.777 99.9357 112.722 100.449 112.231C101.237 111.479 101.787 110.643 102.037 109.822C102.066 109.726 102.147 109.653 102.249 109.635L102.77 109.547C102.642 108.274 102.77 105.975 102.843 104.699C102.851 104.56 102.858 104.424 102.865 104.3C102.224 104.575 101.27 104.355 100.207 104.109C99.4517 103.937 98.6707 103.757 97.9153 103.724C97.523 103.709 97.226 103.819 97.0243 104.065C96.5073 104.688 96.6687 106.045 96.7713 106.518C96.8043 106.657 96.7163 106.8 96.577 106.837C96.4377 106.874 96.2947 106.793 96.2543 106.654C96.1847 106.412 95.895 105.7 95.488 105.598C95.279 105.546 95.0297 105.664 94.7473 105.953C94.586 106.118 94.5127 106.298 94.52 106.5C94.542 106.921 94.9233 107.468 95.6017 108.036C95.6567 108.084 95.6897 108.15 95.697 108.219C95.7007 108.293 95.6787 108.362 95.631 108.417C95.4293 108.645 91.8323 112.528 89.4197 115.058L89.4123 115.061Z" fill="black"/>
<path d="M97.4974 111.868C97.4131 111.868 97.3324 111.827 97.2811 111.758L96.8741 111.189C96.7897 111.068 96.8154 110.903 96.9364 110.815C97.0574 110.731 97.2224 110.757 97.3104 110.878L97.7174 111.446C97.8017 111.567 97.7761 111.732 97.6551 111.82C97.6074 111.853 97.5524 111.871 97.5011 111.871L97.4974 111.868Z" fill="black"/>
<path d="M142.458 195.625C142.407 195.838 144.907 207.274 144.907 207.274L139.162 206.313L137.431 196.644L142.458 195.625Z" fill="white"/>
<path d="M144.907 207.545C144.907 207.545 144.878 207.545 144.863 207.545L139.118 206.585C139.008 206.566 138.92 206.478 138.898 206.368L137.167 196.699C137.141 196.556 137.233 196.421 137.376 196.391L142.403 195.372C142.495 195.354 142.586 195.383 142.649 195.449C142.7 195.504 142.726 195.574 142.722 195.647C142.762 196.12 144.2 202.815 145.164 207.226C145.182 207.314 145.157 207.402 145.098 207.468C145.047 207.523 144.977 207.553 144.904 207.553L144.907 207.545ZM139.389 206.082L144.559 206.948C142.85 199.13 142.37 196.714 142.238 195.944L137.739 196.857L139.389 206.086V206.082Z" fill="black"/>
<path d="M141.857 203.527C142.209 203.23 142.711 202.944 143.349 202.915C144.313 202.874 145.19 203.476 145.589 204.363C146.587 206.578 149.212 212.745 149.956 217.787C150.22 219.569 148.875 221.017 146.781 219.851C143.349 217.937 138.586 213.544 136.093 207.058C135.807 206.314 135.909 205.47 136.379 204.829C136.764 204.304 137.284 203.666 137.889 203.127C138.469 202.61 139.338 202.603 139.935 203.094L140.474 203.538C140.878 203.872 141.461 203.864 141.86 203.527H141.857Z" fill="white"/>
<path d="M148.193 220.54C147.771 220.54 147.258 220.423 146.649 220.085C143.056 218.083 138.329 213.636 135.84 207.153C135.517 206.313 135.638 205.386 136.159 204.671C136.665 203.981 137.182 203.395 137.706 202.925C138.384 202.32 139.389 202.302 140.1 202.885L140.639 203.329C140.944 203.578 141.38 203.574 141.684 203.321C142.179 202.907 142.751 202.672 143.338 202.647C144.376 202.603 145.38 203.248 145.831 204.253C146.902 206.636 149.476 212.719 150.217 217.746C150.367 218.773 150.026 219.711 149.326 220.195C149.095 220.353 148.717 220.536 148.189 220.536L148.193 220.54ZM138.92 202.995C138.612 202.995 138.307 203.105 138.062 203.325C137.567 203.769 137.072 204.326 136.591 204.986C136.177 205.554 136.082 206.291 136.338 206.962C138.777 213.309 143.397 217.662 146.909 219.616C147.738 220.078 148.49 220.129 149.025 219.759C149.557 219.392 149.813 218.652 149.689 217.827C148.959 212.866 146.407 206.834 145.344 204.473C144.981 203.666 144.185 203.149 143.36 203.182C142.883 203.204 142.436 203.387 142.029 203.732C141.53 204.15 140.804 204.157 140.302 203.743L139.763 203.299C139.517 203.098 139.22 202.995 138.923 202.995H138.92Z" fill="black"/>
<path d="M148.648 218.531C148.197 218.531 143.349 218.248 137.475 206.636C137.409 206.504 137.461 206.343 137.593 206.277C137.725 206.211 137.886 206.262 137.952 206.394C143.841 218.028 148.604 217.995 148.655 217.995C148.809 217.988 148.926 218.105 148.934 218.252C148.937 218.399 148.824 218.523 148.677 218.527C148.67 218.527 148.662 218.527 148.648 218.527V218.531Z" fill="black"/>
<path d="M144.97 212.14C144.864 212.14 144.761 212.074 144.721 211.971C144.666 211.835 144.735 211.678 144.871 211.623L147.595 210.548C147.735 210.493 147.889 210.563 147.944 210.699C147.999 210.834 147.929 210.992 147.793 211.047L145.069 212.121C145.036 212.132 145.003 212.14 144.97 212.14Z" fill="black"/>
<path d="M144.016 210.053C143.91 210.053 143.807 209.987 143.767 209.881C143.712 209.742 143.782 209.588 143.921 209.536L147.115 208.293C147.254 208.238 147.408 208.308 147.459 208.447C147.514 208.587 147.445 208.741 147.305 208.792L144.112 210.035C144.079 210.046 144.046 210.053 144.016 210.053Z" fill="black"/>
<path d="M117.734 196.666C117.598 196.839 115.057 208.268 115.057 208.268L110.246 204.979L112.74 195.475L117.73 196.663L117.734 196.666Z" fill="white"/>
<path d="M115.061 208.535C115.009 208.535 114.954 208.521 114.91 208.488L110.1 205.199C110.008 205.136 109.964 205.019 109.993 204.909L112.487 195.405C112.523 195.266 112.666 195.178 112.806 195.214L117.796 196.402C117.884 196.424 117.957 196.49 117.987 196.575C118.012 196.644 118.005 196.721 117.972 196.787C117.807 197.235 116.3 203.915 115.321 208.323C115.303 208.411 115.24 208.48 115.16 208.513C115.127 208.524 115.094 208.532 115.061 208.532V208.535ZM110.558 204.865L114.885 207.824C116.623 200.014 117.198 197.616 117.404 196.864L112.938 195.801L110.558 204.869V204.865Z" fill="black"/>
<path d="M113.869 203.578C114.313 203.457 114.888 203.406 115.482 203.651C116.373 204.018 116.916 204.935 116.905 205.906C116.879 208.334 116.67 215.036 115.226 219.92C114.716 221.647 112.886 222.399 111.475 220.456C109.165 217.277 106.69 211.289 107.152 204.355C107.207 203.56 107.65 202.837 108.347 202.452C108.915 202.137 109.656 201.778 110.433 201.543C111.174 201.316 111.966 201.675 112.303 202.372L112.608 203.002C112.835 203.475 113.363 203.714 113.869 203.578Z" fill="white"/>
<path d="M113.326 221.875C112.795 221.875 112.014 221.655 111.258 220.617C108.842 217.292 106.422 211.267 106.884 204.341C106.943 203.443 107.441 202.651 108.219 202.222C108.967 201.807 109.685 201.496 110.356 201.29C111.225 201.023 112.146 201.433 112.545 202.262L112.85 202.893C113.018 203.245 113.418 203.428 113.799 203.325C114.423 203.157 115.039 203.186 115.585 203.41C116.549 203.806 117.187 204.814 117.173 205.914C117.143 208.528 116.923 215.132 115.482 220.001C115.189 220.999 114.485 221.706 113.645 221.849C113.554 221.864 113.447 221.875 113.33 221.875H113.326ZM110.888 201.745C110.763 201.745 110.635 201.763 110.51 201.804C109.876 201.998 109.19 202.295 108.475 202.691C107.859 203.032 107.463 203.663 107.416 204.378C106.961 211.161 109.326 217.053 111.687 220.302C112.245 221.068 112.905 221.431 113.55 221.321C114.188 221.211 114.731 220.647 114.965 219.847C116.388 215.04 116.608 208.495 116.634 205.903C116.645 205.019 116.139 204.213 115.376 203.897C114.936 203.718 114.452 203.696 113.935 203.835C113.304 204.007 112.644 203.707 112.362 203.12L112.058 202.489C111.83 202.02 111.372 201.741 110.884 201.741L110.888 201.745Z" fill="black"/>
<path d="M113.854 220.082C113.821 220.082 113.785 220.075 113.752 220.06C113.561 219.98 109.051 217.934 108.589 204.561C108.585 204.415 108.699 204.29 108.846 204.286C108.989 204.283 109.117 204.396 109.121 204.543C109.572 217.574 113.913 219.547 113.957 219.565C114.093 219.624 114.159 219.778 114.1 219.917C114.056 220.02 113.957 220.082 113.854 220.082Z" fill="black"/>
<path d="M116.109 212.899C116.109 212.899 116.098 212.899 116.095 212.899L113.172 212.73C113.026 212.723 112.912 212.595 112.919 212.448C112.927 212.301 113.051 212.188 113.202 212.195L116.124 212.364C116.271 212.371 116.384 212.499 116.377 212.646C116.37 212.789 116.252 212.899 116.109 212.899Z" fill="black"/>
<path d="M116.619 210.652C116.619 210.652 116.608 210.652 116.601 210.652L113.18 210.435C113.033 210.424 112.919 210.3 112.93 210.153C112.941 210.006 113.07 209.893 113.213 209.904L116.634 210.12C116.78 210.131 116.894 210.256 116.883 210.402C116.876 210.545 116.755 210.652 116.615 210.652H116.619Z" fill="black"/>
<path d="M90.8643 151.618C90.8643 151.618 125.848 150.1 129.672 153.653C134.861 158.471 143.774 198.577 143.774 198.577L135.169 200.99C135.169 200.99 122.203 168.074 118.991 168.074C115.779 168.074 85.489 166.993 85.489 166.993L90.8643 151.618Z" fill="black"/>
<path d="M88.5507 150.742C85.786 150.599 83.3147 152.447 82.662 155.138C81.6537 159.307 80.781 165.009 83.036 166.527C86.7064 168.998 113.172 168.789 112.256 168.477C111.339 168.169 109.887 190.657 109.887 199.303L118.221 199.626C118.221 199.626 131.502 164.847 130.068 160.964C127.509 154.016 107.793 152.425 101.487 151.497C100.64 151.372 93.4457 150.991 88.547 150.738L88.5507 150.742Z" fill="black"/>
<path d="M125.672 180.101C125.646 180.101 125.617 180.097 125.591 180.09C125.452 180.046 125.375 179.895 125.419 179.752C125.72 178.817 126.017 177.897 126.306 176.995C128.638 169.79 130.651 163.568 129.819 161.049C128.048 155.706 114.811 153.657 110.459 152.986C110.312 152.964 110.213 152.828 110.235 152.681C110.257 152.535 110.397 152.436 110.54 152.458C118.229 153.646 128.646 155.813 130.325 160.88C131.212 163.564 129.273 169.563 126.812 177.156C126.523 178.058 126.222 178.975 125.925 179.91C125.888 180.024 125.782 180.097 125.672 180.097V180.101Z" fill="white"/>
<path d="M202.305 169.288L206.364 210.871L209.265 210.75L207.824 167.033L202.305 169.288Z" fill="white"/>
<path d="M206.364 211.139C206.229 211.139 206.111 211.036 206.097 210.897L202.034 169.313C202.023 169.196 202.089 169.086 202.199 169.038L207.717 166.783C207.798 166.75 207.89 166.758 207.963 166.805C208.036 166.853 208.08 166.934 208.084 167.022L209.525 210.739C209.529 210.886 209.415 211.011 209.268 211.014L206.372 211.135C206.372 211.135 206.364 211.135 206.361 211.135L206.364 211.139ZM202.591 169.46L206.61 210.593L208.99 210.494L207.571 167.425L202.591 169.456V169.46Z" fill="black"/>
<path d="M256.777 167.792L252.814 210.974L249.818 210.75L251.259 165.456L256.777 167.792Z" fill="white"/>
<path d="M252.814 211.242C252.814 211.242 252.799 211.242 252.792 211.242L249.796 211.018C249.653 211.007 249.543 210.886 249.55 210.743L250.991 165.449C250.991 165.361 251.039 165.28 251.116 165.232C251.189 165.185 251.285 165.177 251.365 165.21L256.884 167.546C256.99 167.59 257.056 167.7 257.045 167.817L253.081 211C253.07 211.139 252.953 211.242 252.814 211.242ZM250.093 210.501L252.572 210.688L256.491 167.96L251.512 165.852L250.093 210.501Z" fill="black"/>
<path d="M270.575 157.628L269.409 202.977L267.07 202.467L264.925 155.472L270.575 157.628Z" fill="white"/>
<path d="M269.409 203.245C269.391 203.245 269.372 203.245 269.354 203.237L267.015 202.731C266.897 202.706 266.809 202.603 266.806 202.482L264.661 155.486C264.657 155.395 264.697 155.31 264.771 155.259C264.844 155.208 264.939 155.193 265.024 155.226L270.674 157.382C270.78 157.422 270.85 157.525 270.846 157.639L269.68 202.984C269.68 203.065 269.64 203.138 269.578 203.186C269.53 203.223 269.471 203.245 269.413 203.245H269.409ZM267.326 202.251L269.149 202.647L270.3 157.811L265.207 155.868L267.326 202.251Z" fill="black"/>
<path d="M224.859 156.616L223.693 201.962L221.262 201.976L219.209 154.46L224.859 156.616Z" fill="white"/>
<path d="M221.262 202.244C221.119 202.244 221.002 202.13 220.994 201.987L218.941 154.471C218.937 154.379 218.978 154.295 219.051 154.243C219.124 154.192 219.22 154.177 219.304 154.21L224.954 156.366C225.061 156.407 225.13 156.509 225.127 156.623L223.961 201.969C223.961 202.112 223.84 202.229 223.693 202.229L221.262 202.244ZM219.491 154.856L221.515 201.708L223.429 201.697L224.584 156.799L219.491 154.856Z" fill="black"/>
<path d="M236.603 121.199V131.752C236.603 142.07 228.463 150.437 218.424 150.437C208.385 150.437 200.245 158.801 200.245 169.123C200.245 170.043 200.989 170.787 201.906 170.787H250.023C265.075 170.787 277.274 158.247 277.274 142.778V120.264C277.274 114.112 272.423 109.125 266.435 109.125H248.351C241.861 109.125 236.6 114.533 236.6 121.203L236.603 121.199Z" fill="white"/>
<path d="M250.031 171.051H201.913C200.85 171.051 199.984 170.186 199.984 169.119C199.984 158.669 208.26 150.166 218.431 150.166C228.603 150.166 236.343 141.905 236.343 131.748V121.196C236.343 114.387 241.737 108.85 248.362 108.85H266.446C272.57 108.85 277.553 113.969 277.553 120.257V142.77C277.553 158.361 265.207 171.048 250.034 171.048L250.031 171.051ZM248.359 109.389C242.026 109.389 236.875 114.687 236.875 121.199V131.752C236.875 142.202 228.599 150.705 218.428 150.705C208.256 150.705 200.516 158.966 200.516 169.123C200.516 169.893 201.143 170.52 201.909 170.52H250.027C264.906 170.52 277.01 158.075 277.01 142.778V120.264C277.01 114.269 272.269 109.393 266.439 109.393H248.355L248.359 109.389Z" fill="black"/>
<path d="M233.171 121.698C233.171 121.698 230.55 145.542 212.935 147.101L233.171 147.387C233.171 147.387 240.662 132.185 240.967 126.267C241.271 120.349 233.171 121.694 233.171 121.694V121.698Z" fill="white"/>
<path d="M233.171 147.658H233.168L212.931 147.368C212.788 147.368 212.675 147.255 212.667 147.112C212.664 146.969 212.77 146.848 212.909 146.837C221.874 146.041 226.832 139.261 229.406 133.717C232.214 127.671 232.896 121.731 232.9 121.672C232.915 121.555 233.003 121.456 233.124 121.438C233.307 121.408 237.652 120.712 239.918 122.739C240.868 123.586 241.308 124.782 241.231 126.289C240.926 132.196 233.714 146.888 233.406 147.511C233.362 147.603 233.267 147.662 233.168 147.662L233.171 147.658ZM215.883 146.877L233.003 147.119C233.784 145.517 240.417 131.737 240.699 126.256C240.769 124.917 240.387 123.865 239.566 123.132C237.744 121.504 234.271 121.823 233.41 121.933C233.263 123.044 232.445 128.441 229.901 133.926C226.637 140.952 221.83 145.377 215.887 146.877H215.883Z" fill="black"/>
<path d="M258.237 106.544C254.819 105.741 253.393 105.73 240.974 106.181C237.938 106.291 234.326 110.104 233.971 113.125C234.935 116.022 239.39 130.326 231.617 141.498C230.513 143.082 229.013 144.824 226.956 146.488C228.111 147.423 229.912 148.644 232.324 149.359C236.332 150.551 238.345 149.264 241.575 149.359C250.119 149.616 253.25 159.138 258.768 157.943C260.242 157.624 262.193 156.473 264.026 152.615C265.064 149.414 265.988 145.66 266.501 141.41C267.895 129.9 265.614 120.316 263.579 114.299C262.974 112.399 262.27 107.49 258.244 106.54L258.237 106.544Z" fill="#0044CC"/>
<path d="M230.854 124.367C230.854 124.367 232.863 108.245 238.649 106.866L237.322 128.074L230.854 124.364V124.367Z" fill="#0044CC"/>
<path d="M260.275 120.066C262.919 121.188 266.025 122.508 268.76 123.682C268.76 123.715 268.76 123.748 268.76 123.784L260.275 120.125V120.066Z" fill="white"/>
<path d="M268.76 124.052C268.723 124.052 268.687 124.045 268.654 124.03L260.169 120.371C260.074 120.33 260.011 120.239 260.008 120.14V120.081C260 119.989 260.044 119.901 260.118 119.85C260.195 119.799 260.29 119.788 260.374 119.824C263.605 121.192 266.538 122.442 268.859 123.44C268.954 123.48 269.017 123.575 269.02 123.678V123.781C269.024 123.872 268.98 123.957 268.903 124.008C268.859 124.037 268.808 124.052 268.753 124.052H268.76Z" fill="black"/>
<path d="M270.241 127.322C270.241 127.322 269.677 117.745 268.848 114.045C267.11 106.261 257.03 106.177 257.03 106.177L258.79 125.991L270.238 127.322H270.241Z" fill="#0044CC"/>
<path d="M248.355 104.857L248.014 100.013C247.783 99.9987 247.622 99.9877 247.578 99.9877C246.228 99.9731 245.788 99.5331 245.675 98.4257C245.601 97.7327 245.576 96.7024 245.913 95.4117C245.95 95.2724 245.942 95.1294 245.884 94.9974L245.653 94.4547C245.605 94.2787 245.667 94.0844 245.807 93.9707L245.931 93.8681C246.371 93.5051 246.738 93.0614 247.031 92.5701C247.303 92.1154 247.761 91.2647 248.076 91.1144C248.964 90.6891 252.561 88.8044 254.574 92.1007C256.143 94.6674 253.58 98.2021 252.649 99.3607C252.425 99.6394 254.17 105.128 254.17 105.128L256.429 105.675C256.429 105.675 254.687 108.769 249.396 107.49C245.631 106.577 246.228 105.176 246.228 105.176L248.359 104.861L248.355 104.857Z" fill="white"/>
<path d="M251.831 108.069C251.098 108.069 250.269 107.974 249.33 107.746C247.545 107.314 246.445 106.709 246.063 105.946C245.821 105.466 245.964 105.106 245.979 105.066C246.016 104.982 246.093 104.919 246.184 104.905L248.069 104.626L247.761 100.263C247.662 100.255 247.596 100.252 247.57 100.252C246.126 100.233 245.539 99.7457 245.403 98.4477C245.293 97.4063 245.374 96.387 245.649 95.3383C245.671 95.254 245.664 95.1697 245.634 95.0963L245.403 94.5537C245.403 94.5537 245.396 94.5317 245.392 94.517C245.315 94.2383 245.414 93.9377 245.638 93.7543L245.759 93.6553C246.159 93.3253 246.507 92.9147 246.8 92.427L246.921 92.2217C247.314 91.547 247.64 91.019 247.959 90.8687L248.054 90.8247C251.156 89.325 253.426 89.7063 254.801 91.9577C256.396 94.5683 254.031 98.0517 252.894 99.478C252.894 99.94 253.628 102.532 254.379 104.901L256.491 105.411C256.572 105.429 256.642 105.488 256.675 105.565C256.708 105.642 256.704 105.73 256.664 105.803C256.601 105.913 255.34 108.069 251.838 108.069H251.831ZM246.456 105.407C246.456 105.488 246.481 105.598 246.551 105.73C246.734 106.071 247.354 106.716 249.455 107.226C253.492 108.205 255.377 106.544 255.971 105.836L254.101 105.385C254.009 105.363 253.936 105.297 253.91 105.205C252.121 99.5807 252.333 99.3167 252.436 99.1883C253.488 97.8793 255.776 94.5867 254.343 92.2363C252.524 89.2553 249.334 90.799 248.285 91.3087L248.19 91.3563C247.992 91.4517 247.581 92.1557 247.383 92.4967L247.259 92.7057C246.936 93.2447 246.547 93.7067 246.1 94.0733L245.979 94.176C245.924 94.2237 245.895 94.3007 245.909 94.3703L246.133 94.891C246.21 95.0743 246.225 95.2833 246.173 95.4777C245.913 96.464 245.84 97.421 245.942 98.3963C246.038 99.2983 246.298 99.7053 247.585 99.72C247.633 99.72 247.798 99.731 248.04 99.7457C248.172 99.7567 248.278 99.8593 248.289 99.995L248.63 104.839C248.641 104.978 248.542 105.103 248.403 105.121L246.467 105.407H246.456Z" fill="black"/>
<path d="M253.463 87.9097C252.487 87.7007 251.365 87.851 250.892 87.675C250.13 87.3927 250.108 86.4797 249.052 86.223C247.772 85.9113 247.24 86.4577 246.738 87.2203C246.654 87.3487 246.58 87.488 246.522 87.6493C245.719 89.809 246.734 90.8613 247.185 91.2023C247.185 91.2023 250.06 92.691 250.555 93.1163C251.017 93.5123 251.549 94.4547 251.211 95.8077C251.167 95.9837 251.244 96.1633 251.391 96.2513C251.563 96.354 251.787 96.3063 251.908 96.134C252.282 95.5913 253.1 94.5427 253.679 94.7883C254.409 95.1 254.181 97.2927 252.572 97.5457C252.077 97.6227 251.673 98.1287 251.725 98.6493C251.758 98.9867 252.077 99.3973 252.55 99.5073C252.839 99.5733 253.125 99.456 253.378 99.2947C254.431 98.6237 257.397 95.771 257.764 93.2153C258.207 90.139 254.761 88.1883 253.463 87.9097Z" fill="black"/>
<path d="M247.651 100.233C247.508 100.233 247.39 100.119 247.383 99.9765C247.376 99.8298 247.493 99.7051 247.64 99.6978C247.651 99.6978 248.681 99.6501 249.385 99.0525C249.499 98.9571 249.667 98.9718 249.763 99.0818C249.858 99.1955 249.843 99.3641 249.733 99.4595C248.886 100.178 247.713 100.229 247.662 100.233C247.662 100.233 247.654 100.233 247.651 100.233Z" fill="black"/>
<path d="M224.584 197.433C224.093 196.934 221.247 188.075 221.247 188.075L215.626 192.09L221.786 200.381L224.58 197.433H224.584Z" fill="white"/>
<path d="M221.79 200.648C221.79 200.648 221.779 200.648 221.775 200.648C221.695 200.645 221.625 200.604 221.577 200.542L215.417 192.252C215.373 192.193 215.355 192.123 215.37 192.05C215.381 191.98 215.421 191.914 215.48 191.874L221.101 187.859C221.17 187.808 221.258 187.797 221.339 187.822C221.42 187.848 221.482 187.914 221.511 187.995C222.589 191.353 224.434 196.835 224.786 197.246C224.874 197.348 224.881 197.517 224.786 197.616L221.992 200.564C221.94 200.619 221.871 200.648 221.797 200.648H221.79ZM216.004 192.149L221.812 199.966L224.247 197.396C223.579 196.124 221.713 190.396 221.101 188.508L216 192.153L216.004 192.149Z" fill="black"/>
<path d="M214.457 208.634L218.193 208.612C220.664 208.598 222.967 207.34 224.313 205.265L228.009 199.405C229.032 197.785 228.46 195.643 226.769 194.741C225.226 193.92 223.612 193.121 223.231 193.157C222.461 193.231 222.153 196.872 222.153 196.872L218.824 197C218.824 197 217.177 203.849 215.733 204.627C214.677 205.195 213.943 206.027 213.448 206.786C212.931 207.582 213.507 208.634 214.457 208.631V208.634Z" fill="black"/>
<path d="M214.831 207.439C214.702 207.439 214.585 207.344 214.567 207.212C214.545 207.065 214.644 206.929 214.79 206.907L219.902 206.137C220.972 205.976 221.907 205.349 222.465 204.418L226.982 196.861C227.059 196.732 227.22 196.692 227.349 196.769C227.477 196.846 227.517 197.007 227.44 197.136L222.923 204.693C222.285 205.76 221.211 206.482 219.982 206.665L214.871 207.435C214.871 207.435 214.845 207.435 214.831 207.435V207.439Z" fill="white"/>
<path d="M221.141 201.756C221.119 201.756 221.093 201.756 221.071 201.745L218.222 200.968C218.079 200.927 217.995 200.781 218.035 200.638C218.076 200.495 218.222 200.41 218.365 200.451L221.214 201.228C221.357 201.268 221.442 201.415 221.401 201.558C221.368 201.675 221.262 201.756 221.145 201.756H221.141Z" fill="white"/>
<path d="M219.66 203.223C219.638 203.223 219.616 203.223 219.597 203.215L217.687 202.746C217.544 202.709 217.456 202.566 217.493 202.423C217.529 202.28 217.672 202.192 217.815 202.229L219.726 202.698C219.869 202.735 219.957 202.878 219.92 203.021C219.891 203.142 219.781 203.226 219.66 203.226V203.223Z" fill="white"/>
<path d="M205.407 195.742L198.881 202.306L195.423 201.033L201.436 192.637L205.407 195.742Z" fill="white"/>
<path d="M198.881 202.573C198.851 202.573 198.818 202.57 198.789 202.559L195.331 201.286C195.254 201.257 195.192 201.195 195.166 201.114C195.141 201.033 195.155 200.949 195.203 200.879L201.216 192.483C201.26 192.424 201.323 192.384 201.396 192.373C201.469 192.362 201.543 192.38 201.598 192.428L205.569 195.533C205.627 195.581 205.668 195.651 205.671 195.728C205.675 195.805 205.649 195.878 205.594 195.933L199.068 202.496C199.016 202.548 198.947 202.577 198.877 202.577L198.881 202.573ZM195.845 200.905L198.815 201.998L205.008 195.768L201.495 193.022L195.848 200.905H195.845Z" fill="black"/>
<path d="M239.947 147.288C239.947 147.288 210.126 143.628 201.26 151.721C192.394 159.813 215.26 194.613 215.26 194.613L222.49 188.959L215.63 164.363L243.196 156.11L239.947 147.288Z" fill="white"/>
<path d="M215.256 194.881C215.256 194.881 215.227 194.881 215.212 194.881C215.139 194.87 215.073 194.826 215.032 194.764C214.094 193.334 192.145 159.681 201.077 151.526C209.932 143.445 238.756 146.877 239.98 147.024C240.079 147.035 240.164 147.104 240.2 147.196L243.449 156.018C243.475 156.088 243.471 156.165 243.438 156.231C243.405 156.297 243.346 156.344 243.277 156.366L215.96 164.543L222.747 188.886C222.776 188.989 222.74 189.102 222.655 189.168L215.425 194.822C215.377 194.859 215.318 194.877 215.26 194.877L215.256 194.881ZM225.244 146.745C216.415 146.745 206.02 147.739 201.44 151.919C193.223 159.417 213.316 191.108 215.322 194.225L222.182 188.86L215.37 164.437C215.329 164.297 215.41 164.151 215.549 164.11L242.844 155.937L239.749 147.537C238.679 147.416 232.486 146.749 225.24 146.749L225.244 146.745Z" fill="black"/>
<path d="M256.36 163.304C252.029 164.752 244.278 166.626 233.443 166.472C230.367 166.428 227.525 168.221 226.124 171.11C222.916 177.743 215.971 189.689 204.656 197.429L199.251 194.36L213.042 161.635C214.299 158.647 216.657 156.326 219.568 155.2L246.9 144.633C246.9 144.633 255.373 142.136 259.528 150.111C260.268 151.534 261.647 148.989 261.977 150.137C263.103 154.078 260.078 162.053 256.356 163.3L256.36 163.304Z" fill="white"/>
<path d="M204.659 197.7C204.615 197.7 204.568 197.689 204.527 197.664L199.123 194.595C199.005 194.529 198.954 194.382 199.009 194.257L212.799 161.532C214.079 158.496 216.514 156.095 219.476 154.951L246.808 144.383C246.914 144.35 255.564 141.912 259.769 149.986C259.857 150.155 259.953 150.254 260.055 150.279C260.272 150.334 260.594 150.118 260.88 149.924C261.221 149.693 261.544 149.476 261.859 149.594C262.039 149.66 262.164 149.817 262.233 150.063C263.377 154.071 260.327 162.255 256.44 163.553C251.849 165.089 244.131 166.889 233.435 166.735C233.399 166.735 233.362 166.735 233.325 166.735C230.366 166.735 227.704 168.448 226.362 171.223C223.209 177.739 216.22 189.839 204.806 197.649C204.762 197.679 204.707 197.697 204.656 197.697L204.659 197.7ZM199.592 194.25L204.641 197.117C215.868 189.373 222.765 177.438 225.882 170.996C227.312 168.041 230.278 166.163 233.446 166.204C244.065 166.358 251.721 164.572 256.275 163.05C259.865 161.848 262.787 153.942 261.724 150.213C261.698 150.118 261.669 150.092 261.669 150.092C261.595 150.085 261.335 150.265 261.181 150.371C260.8 150.624 260.371 150.914 259.923 150.8C259.667 150.734 259.458 150.543 259.296 150.235C255.296 142.554 247.317 144.79 246.98 144.889L219.671 155.449C216.844 156.542 214.519 158.834 213.294 161.741L199.596 194.25H199.592Z" fill="black"/>
<path d="M200.945 201.279C200.945 201.279 201.26 204.073 200.725 206.541C200.439 207.857 199.255 208.781 197.913 208.781H181.9C180.756 208.781 180.236 207.351 181.116 206.614C183.965 204.227 189.201 200.579 195.643 199.508L197.44 202.024L200.949 201.279H200.945Z" fill="black"/>
<path d="M199.255 206.841H182.659C182.513 206.841 182.392 206.72 182.392 206.574C182.392 206.427 182.513 206.306 182.659 206.306H199.255C199.401 206.306 199.522 206.427 199.522 206.574C199.522 206.72 199.401 206.841 199.255 206.841Z" fill="white"/>
<path d="M191.918 203.89C191.811 203.89 191.712 203.828 191.672 203.725L190.792 201.591C190.737 201.455 190.799 201.298 190.939 201.243C191.074 201.188 191.232 201.25 191.287 201.389L192.167 203.523C192.222 203.659 192.16 203.817 192.02 203.872C191.987 203.886 191.954 203.894 191.918 203.894V203.89Z" fill="white"/>
<path d="M189.032 204.451C188.918 204.451 188.816 204.381 188.779 204.268L188.145 202.343C188.097 202.203 188.174 202.049 188.313 202.005C188.453 201.958 188.603 202.035 188.651 202.174L189.285 204.099C189.333 204.238 189.256 204.392 189.116 204.436C189.087 204.447 189.061 204.451 189.032 204.451Z" fill="white"/>
<path d="M261.76 125.467C258.852 136.06 250.214 142.822 237.688 146.378L239.599 149.95C257.004 149.337 266.134 141.773 269.783 127.253L261.76 125.467Z" fill="white"/>
<path d="M239.599 150.217C239.5 150.217 239.408 150.162 239.364 150.074L237.454 146.503C237.417 146.433 237.414 146.345 237.443 146.272C237.476 146.199 237.538 146.14 237.615 146.118C250.713 142.396 258.75 135.422 261.504 125.394C261.54 125.255 261.68 125.174 261.819 125.203L269.842 126.989C269.911 127.004 269.974 127.048 270.01 127.11C270.047 127.172 270.058 127.246 270.043 127.315C266.267 142.341 256.598 149.616 239.61 150.214C239.61 150.214 239.603 150.214 239.599 150.214V150.217ZM238.081 146.547L239.757 149.678C256.268 149.051 265.713 141.986 269.457 127.455L261.951 125.783C259.106 135.793 251.079 142.778 238.081 146.543V146.547Z" fill="black"/>
<path d="M240.662 146.089C240.486 145.74 240.189 145.469 239.823 145.337C239.559 145.242 239.302 145.117 239.056 144.989L235.646 143.181C235.008 142.869 234.095 143.595 233.432 143.815C231.43 144.472 227.29 146.019 227.631 147.475C227.998 149.044 231.558 148.3 232.823 147.984C233.113 147.911 235.727 148.861 236.552 148.923C237.696 149.011 237.96 148.718 238.517 148.424C238.77 148.292 239.056 148.23 239.364 148.23C239.834 148.23 240.285 148.028 240.578 147.662L240.585 147.654C240.912 147.247 240.967 146.69 240.728 146.228L240.662 146.096V146.089Z" fill="white"/>
<path d="M236.926 149.198C236.805 149.198 236.677 149.194 236.534 149.183C236.075 149.15 235.184 148.883 234.323 148.63C233.74 148.457 233.01 148.234 232.863 148.245C231.543 148.578 229.116 149.037 227.976 148.34C227.657 148.146 227.451 147.871 227.371 147.53C227.008 145.986 230.421 144.516 233.347 143.555C233.527 143.496 233.736 143.39 233.96 143.28C234.539 142.99 235.195 142.657 235.764 142.935L239.181 144.747C239.463 144.897 239.698 145.003 239.911 145.08C240.336 145.234 240.684 145.546 240.901 145.964L240.967 146.096C241.249 146.653 241.183 147.324 240.791 147.812C240.446 148.241 239.929 148.487 239.364 148.49C239.086 148.49 238.851 148.545 238.642 148.655C238.558 148.699 238.477 148.747 238.404 148.787C238.037 148.996 237.689 149.198 236.926 149.198ZM232.863 147.706C233.072 147.706 233.468 147.812 234.477 148.113C235.272 148.347 236.174 148.619 236.574 148.648C237.454 148.714 237.74 148.549 238.136 148.322C238.217 148.274 238.301 148.226 238.393 148.179C238.675 148.032 239.001 147.955 239.361 147.951C239.764 147.951 240.131 147.779 240.365 147.482C240.629 147.152 240.677 146.705 240.486 146.334L240.42 146.202C240.27 145.905 240.024 145.685 239.727 145.579C239.485 145.491 239.232 145.377 238.924 145.216L235.514 143.408C235.195 143.251 234.664 143.518 234.194 143.753C233.952 143.874 233.729 143.988 233.509 144.057C229.838 145.264 227.682 146.543 227.884 147.401C227.932 147.599 228.049 147.757 228.247 147.874C228.951 148.303 230.634 148.241 232.75 147.713C232.779 147.706 232.816 147.702 232.856 147.702L232.863 147.706Z" fill="black"/>
<path d="M113.348 150.87H247.273C249.767 150.87 251.706 152.513 251.424 154.383L242.177 215.737H235.5L241.289 158.156C241.392 157.14 240.329 156.275 238.983 156.275H124.018C122.002 156.275 120.414 157.569 120.568 159.087L126.299 216.097H119.622L110.217 153.518C110.004 152.106 111.467 150.867 113.348 150.867V150.87Z" fill="white"/>
<path d="M126.299 216.364H119.622C119.49 216.364 119.376 216.269 119.358 216.137L109.953 153.558C109.858 152.931 110.056 152.3 110.503 151.78C111.137 151.043 112.204 150.603 113.352 150.603H247.277C248.773 150.603 250.159 151.175 250.984 152.135C251.563 152.806 251.813 153.62 251.692 154.427L242.444 215.781C242.426 215.913 242.312 216.009 242.18 216.009H235.503C235.426 216.009 235.357 215.976 235.305 215.921C235.254 215.866 235.228 215.789 235.239 215.715L241.029 158.134C241.069 157.727 240.875 157.412 240.703 157.225C240.321 156.803 239.68 156.55 238.99 156.55H124.018C122.948 156.55 121.954 156.942 121.356 157.602C120.96 158.039 120.781 158.545 120.832 159.069L126.563 216.078C126.57 216.155 126.545 216.229 126.497 216.284C126.446 216.339 126.376 216.372 126.299 216.372V216.364ZM119.853 215.829H126.006L120.304 159.113C120.238 158.446 120.473 157.778 120.964 157.236C121.661 156.466 122.805 156.007 124.022 156.007H238.983C239.823 156.007 240.611 156.326 241.091 156.858C241.436 157.239 241.601 157.712 241.553 158.182L235.793 215.47H241.946L251.16 154.343C251.259 153.683 251.057 153.041 250.577 152.48C249.851 151.637 248.615 151.134 247.273 151.134H113.348C112.355 151.134 111.442 151.505 110.906 152.128C110.554 152.535 110.408 153.001 110.481 153.477L119.853 215.825V215.829Z" fill="black"/>
<path d="M224.511 148.905L217.313 127.697C216.88 127.033 216.129 126.63 215.322 126.63H196.138C195.269 126.63 194.708 127.477 194.99 128.221C195.104 128.518 195.225 128.812 195.324 129.112L201.829 148.945C201.851 150.104 202.793 151.039 203.955 151.039H239.357C240.534 151.039 241.487 150.086 241.487 148.909H224.507L224.511 148.905Z" fill="white"/>
<path d="M239.361 151.303H203.959C202.679 151.303 201.616 150.272 201.565 148.996L195.071 129.193C195.001 128.984 194.921 128.771 194.84 128.566L194.741 128.313C194.576 127.88 194.638 127.385 194.906 126.996C195.185 126.589 195.636 126.358 196.138 126.358H215.322C216.224 126.358 217.053 126.802 217.537 127.546C217.548 127.565 217.559 127.587 217.566 127.605L224.701 148.633H241.491C241.638 148.633 241.759 148.754 241.759 148.901C241.759 150.225 240.684 151.299 239.361 151.299V151.303ZM202.074 148.828C202.089 148.861 202.1 148.897 202.1 148.938C202.118 149.946 202.954 150.767 203.959 150.767H239.361C240.296 150.767 241.073 150.071 241.205 149.169H224.511C224.397 149.169 224.294 149.095 224.258 148.985L217.071 127.807C216.682 127.231 216.033 126.886 215.322 126.886H196.138C195.815 126.886 195.526 127.037 195.346 127.293C195.177 127.539 195.137 127.847 195.24 128.115L195.335 128.364C195.419 128.577 195.504 128.797 195.577 129.02L202.071 148.82L202.074 148.828Z" fill="black"/>
<path d="M210.251 137.498C210.522 138.396 210.108 139.317 209.327 139.551C208.546 139.786 207.695 139.25 207.424 138.352C207.153 137.454 207.567 136.533 208.348 136.299C209.129 136.064 209.98 136.599 210.251 137.498Z" fill="black"/>
<path d="M109.077 149.253H147.976C147.976 150.404 147.041 151.343 145.886 151.343H111.163C110.012 151.343 109.073 150.408 109.073 149.253H109.077Z" fill="white"/>
<path d="M146.227 151.607H110.829C109.718 151.607 108.813 150.701 108.813 149.59V149.253C108.813 149.106 108.934 148.985 109.08 148.985H147.98C148.127 148.985 148.248 149.106 148.248 149.253V149.59C148.248 150.705 147.342 151.607 146.231 151.607H146.227ZM109.344 149.521V149.59C109.344 150.408 110.008 151.075 110.829 151.075H146.227C147.045 151.075 147.712 150.412 147.712 149.59V149.521H109.348H109.344Z" fill="black"/>
<path d="M147.976 149.289H125.716L132.789 128.474C133.211 127.821 133.948 127.429 134.743 127.429H153.561C154.415 127.429 154.965 128.257 154.686 128.987C154.576 129.277 154.455 129.566 154.36 129.86L147.98 149.289H147.976Z" fill="white"/>
<path d="M147.976 149.557H125.716C125.628 149.557 125.547 149.517 125.5 149.447C125.448 149.377 125.437 149.286 125.463 149.205L132.536 128.389C132.543 128.367 132.554 128.349 132.565 128.331C133.042 127.601 133.856 127.161 134.743 127.161H153.561C154.056 127.161 154.499 127.392 154.774 127.792C155.038 128.173 155.101 128.657 154.936 129.086L154.84 129.335C154.763 129.537 154.679 129.742 154.613 129.948L148.233 149.377C148.196 149.487 148.094 149.561 147.98 149.561L147.976 149.557ZM126.094 149.022H147.786L154.107 129.775C154.18 129.555 154.261 129.343 154.345 129.134L154.441 128.888C154.54 128.624 154.503 128.327 154.338 128.089C154.162 127.836 153.883 127.689 153.564 127.689H134.747C134.05 127.689 133.416 128.023 133.035 128.587L126.094 149.018V149.022Z" fill="black"/>
<path d="M139.715 138.077C139.451 138.957 139.855 139.859 140.621 140.09C141.387 140.321 142.223 139.793 142.487 138.913C142.751 138.033 142.348 137.131 141.582 136.9C140.815 136.669 139.979 137.197 139.715 138.077Z" fill="black"/>
<path d="M270.252 217.09H233.802C231.613 217.09 229.978 215.08 230.418 212.939L235.947 186.059C236.413 183.796 238.404 182.176 240.71 182.176H271.976L270.252 217.09Z" fill="white"/>
<path d="M270.252 217.358H233.802C232.68 217.358 231.628 216.859 230.916 215.986C230.205 215.114 229.93 213.984 230.154 212.884L235.683 186.004C236.171 183.632 238.283 181.908 240.706 181.908H271.972C272.045 181.908 272.115 181.938 272.166 181.993C272.218 182.044 272.243 182.117 272.24 182.191L270.516 217.105C270.509 217.248 270.392 217.358 270.249 217.358H270.252ZM240.71 182.44C238.539 182.44 236.647 183.984 236.207 186.11L230.678 212.991C230.484 213.933 230.722 214.901 231.331 215.649C231.939 216.393 232.838 216.822 233.802 216.822H269.996L271.693 182.44H240.71Z" fill="black"/>
<path d="M274.916 217.09H267.843C265.654 217.09 264.019 215.081 264.459 212.94L270.549 183.331C270.689 182.657 271.279 182.176 271.968 182.176H273.787C274.542 182.176 275.169 182.756 275.232 183.507L277.725 214.051C277.857 215.69 276.563 217.094 274.92 217.094L274.916 217.09Z" fill="white"/>
<path d="M274.916 217.358H267.843C266.721 217.358 265.669 216.859 264.958 215.986C264.246 215.114 263.971 213.984 264.195 212.884L270.285 183.276C270.45 182.484 271.154 181.905 271.965 181.905H273.783C274.671 181.905 275.422 182.598 275.492 183.481L277.985 214.025C278.055 214.879 277.762 215.733 277.179 216.364C276.596 216.995 275.771 217.358 274.913 217.358H274.916ZM271.968 182.44C271.411 182.44 270.923 182.836 270.813 183.382L264.723 212.991C264.529 213.933 264.767 214.901 265.376 215.649C265.984 216.393 266.883 216.822 267.847 216.822H274.92C275.639 216.822 276.306 216.529 276.794 216.001C277.281 215.473 277.52 214.784 277.461 214.069L274.968 183.525C274.916 182.917 274.403 182.44 273.791 182.44H271.972H271.968Z" fill="black"/>
<path d="M265.284 196.553H236.746C236.6 196.553 236.479 196.432 236.479 196.285C236.479 196.139 236.6 196.018 236.746 196.018H265.284C266.01 196.018 266.633 195.526 266.798 194.819L269.314 184.2C269.347 184.057 269.493 183.969 269.636 184.002C269.779 184.035 269.867 184.182 269.834 184.325L267.319 194.943C267.095 195.893 266.256 196.553 265.284 196.553Z" fill="black"/>
<path d="M254.269 196.285L253.47 199.508C253.342 200.055 252.854 200.44 252.293 200.44H246.639C246.023 200.44 245.579 199.853 245.744 199.259L246.573 196.282H254.269V196.285Z" fill="white"/>
<path d="M252.293 200.707H246.639C246.261 200.707 245.913 200.535 245.686 200.234C245.458 199.934 245.385 199.552 245.484 199.189L246.313 196.212C246.346 196.095 246.452 196.018 246.569 196.018H254.266C254.346 196.018 254.427 196.054 254.475 196.12C254.526 196.186 254.544 196.271 254.522 196.348L253.723 199.571C253.565 200.238 252.975 200.704 252.286 200.704L252.293 200.707ZM246.775 196.553L246.001 199.332C245.946 199.534 245.986 199.743 246.111 199.912C246.236 200.077 246.43 200.172 246.639 200.172H252.293C252.733 200.172 253.107 199.875 253.21 199.446L253.928 196.549H246.775V196.553Z" fill="black"/>
<path d="M262.681 214.655H232.361C232.214 214.655 232.093 214.534 232.093 214.388C232.093 214.241 232.214 214.12 232.361 214.12H262.681C262.827 214.12 262.948 214.241 262.948 214.388C262.948 214.534 262.827 214.655 262.681 214.655Z" fill="black"/>
<path d="M247.911 180.955H245.546C244.908 180.955 244.387 181.472 244.387 182.114H249.07C249.07 181.476 248.553 180.955 247.911 180.955Z" fill="black"/>
<path d="M249.07 182.378H244.388C244.241 182.378 244.12 182.257 244.12 182.11C244.12 181.325 244.758 180.684 245.546 180.684H247.911C248.696 180.684 249.338 181.322 249.338 182.11C249.338 182.257 249.217 182.378 249.07 182.378ZM244.696 181.842H248.762C248.648 181.483 248.311 181.219 247.911 181.219H245.546C245.15 181.219 244.809 181.483 244.696 181.842Z" fill="black"/>
<path d="M266.879 180.955H264.514C263.876 180.955 263.355 181.472 263.355 182.114H268.038C268.038 181.476 267.521 180.955 266.879 180.955Z" fill="black"/>
<path d="M268.038 182.378H263.355C263.209 182.378 263.088 182.257 263.088 182.11C263.088 181.325 263.726 180.684 264.514 180.684H266.879C267.664 180.684 268.305 181.322 268.305 182.11C268.305 182.257 268.184 182.378 268.038 182.378ZM263.663 181.842H267.73C267.616 181.483 267.279 181.219 266.879 181.219H264.514C264.118 181.219 263.777 181.483 263.663 181.842Z" fill="black"/>
<path d="M266.263 180.892L266.644 178.626C266.916 177.02 265.83 175.719 264.224 175.719H250.034C248.428 175.719 246.907 177.02 246.635 178.626L246.254 180.892H247.339L247.636 179.129C247.845 177.878 249.03 176.866 250.28 176.866H263.59C264.84 176.866 265.684 177.878 265.471 179.129L265.174 180.892H266.259H266.263Z" fill="white"/>
<path d="M266.263 181.157H265.177C265.1 181.157 265.023 181.124 264.972 181.061C264.921 180.999 264.899 180.922 264.913 180.845L265.21 179.081C265.298 178.55 265.177 178.055 264.866 177.688C264.561 177.329 264.11 177.131 263.59 177.131H250.28C249.158 177.131 248.087 178.047 247.9 179.173L247.603 180.937C247.581 181.065 247.471 181.16 247.339 181.16H246.254C246.177 181.16 246.1 181.127 246.048 181.065C245.997 181.003 245.975 180.926 245.99 180.849L246.371 178.583C246.661 176.856 248.303 175.451 250.034 175.451H264.224C265.075 175.451 265.823 175.781 266.329 176.383C266.846 176.995 267.051 177.809 266.904 178.671L266.523 180.937C266.501 181.065 266.391 181.16 266.259 181.16L266.263 181.157ZM265.493 180.625H266.035L266.38 178.583C266.497 177.879 266.336 177.219 265.922 176.727C265.518 176.247 264.913 175.983 264.224 175.983H250.034C248.556 175.983 247.148 177.189 246.899 178.667L246.569 180.621H247.112L247.372 179.081C247.603 177.71 248.908 176.595 250.28 176.595H263.59C264.268 176.595 264.866 176.859 265.273 177.343C265.687 177.835 265.852 178.484 265.735 179.173L265.489 180.625H265.493Z" fill="black"/>
<path d="M263.52 174.78H251.054C250.551 174.78 250.075 175.187 249.99 175.69L249.807 176.779C249.723 177.281 250.06 177.688 250.562 177.688H263.029C263.531 177.688 264.008 177.281 264.092 176.779L264.276 175.69C264.36 175.187 264.023 174.78 263.52 174.78Z" fill="black"/>
<path d="M263.029 177.956H250.562C250.243 177.956 249.957 177.827 249.763 177.6C249.565 177.365 249.488 177.061 249.543 176.735L249.726 175.646C249.833 175.011 250.416 174.513 251.054 174.513H263.52C263.839 174.513 264.125 174.641 264.32 174.868C264.518 175.103 264.595 175.407 264.54 175.734L264.356 176.823C264.25 177.457 263.667 177.956 263.029 177.956ZM251.054 175.048C250.683 175.048 250.317 175.363 250.254 175.734L250.071 176.823C250.042 176.988 250.078 177.142 250.174 177.252C250.265 177.358 250.405 177.42 250.562 177.42H263.029C263.399 177.42 263.766 177.105 263.828 176.735L264.012 175.646C264.041 175.481 264.004 175.327 263.909 175.217C263.817 175.11 263.678 175.048 263.52 175.048H251.054Z" fill="black"/>
<path d="M267.777 214.655C267.686 214.655 267.594 214.608 267.546 214.52C267.473 214.391 267.517 214.226 267.645 214.157L272.397 211.451V184.262C272.397 184.116 272.518 183.995 272.665 183.995C272.812 183.995 272.933 184.116 272.933 184.262V211.608C272.933 211.704 272.881 211.792 272.797 211.839L267.909 214.622C267.869 214.644 267.821 214.659 267.777 214.659V214.655Z" fill="black"/>
</g>
<defs>
<clipPath id="clip0_1665_13716">
<rect x="58" y="2" width="220" height="220" rx="15" fill="white"/>
</clipPath>
</defs>
</svg>
