<svg width="336" height="224" viewBox="0 0 336 224" fill="none" xmlns="http://www.w3.org/2000/svg">
<rect x="1" y="1" width="334" height="222" rx="16" fill="white" stroke="#0066EE" stroke-width="2"/>
<g clip-path="url(#clip0_1665_13717)">
<path d="M95.0959 97.146L94.5605 94.8324L91.9645 94.847C91.7445 94.3337 91.4842 93.8424 91.1909 93.384L92.6502 91.2427L91.0295 89.5047L88.7892 90.8137C88.3455 90.4837 87.8762 90.1904 87.3849 89.9374L87.5792 87.3487L85.3059 86.6557L84.0225 88.907C83.4799 88.841 82.9262 88.8227 82.3689 88.852L81.2432 86.5127L78.9295 87.048L78.9442 89.644C78.4309 89.864 77.9395 90.1244 77.4812 90.4177L75.3399 88.9584L73.6019 90.579L74.9109 92.8194C74.5809 93.263 74.2875 93.7324 74.0345 94.2237L71.4459 94.0294L70.7529 96.3027L73.0042 97.586C72.9382 98.1287 72.9199 98.6824 72.9492 99.2397L70.6099 100.365L71.1452 102.679L73.7412 102.664C73.9612 103.178 74.2215 103.669 74.5149 104.127L73.0555 106.269L74.6762 108.007L76.9165 106.698C77.3602 107.028 77.8295 107.321 78.3172 107.574L78.1229 110.163L80.3962 110.856L81.6795 108.604C82.2222 108.67 82.7759 108.689 83.3332 108.659L84.4589 110.999L86.7725 110.463L86.7579 107.867C87.2712 107.647 87.7625 107.387 88.2209 107.094L90.3622 108.553L92.1002 106.932L90.7912 104.692C91.1212 104.248 91.4145 103.779 91.6675 103.288L94.2562 103.482L94.9492 101.209L92.6979 99.9254C92.7639 99.3827 92.7822 98.829 92.7529 98.2717L95.0922 97.146H95.0959ZM84.2279 104.718C80.9352 105.477 77.6499 103.427 76.8909 100.134C76.1319 96.8417 78.1815 93.5564 81.4742 92.7974C84.7669 92.0384 88.0522 94.088 88.8112 97.3807C89.5702 100.673 87.5205 103.959 84.2279 104.718Z" fill="black"/>
<path d="M134.729 75.3918L133.812 71.4281L129.372 71.4501C128.994 70.5701 128.554 69.7341 128.045 68.9458L130.542 65.2791L127.766 62.3054L123.931 64.5458C123.175 63.9811 122.372 63.4788 121.529 63.0461L121.859 58.6168L117.969 57.4288L115.772 61.2824C114.841 61.1724 113.895 61.1394 112.942 61.1908L111.013 57.1904L107.049 58.1071L107.071 62.5474C106.191 62.9251 105.355 63.3651 104.567 63.8748L100.9 61.3778L97.9265 64.1534L100.167 67.9888C99.6022 68.7441 99.0999 69.5471 98.6672 70.3904L94.2379 70.0604L93.0499 73.9508L96.9035 76.1471C96.7935 77.0784 96.7605 78.0244 96.8082 78.9778L92.8079 80.9064L93.7245 84.8701L98.1649 84.8481C98.5425 85.7281 98.9825 86.5641 99.4922 87.3524L96.9952 91.0191L99.7709 93.9928L103.606 91.7524C104.362 92.3171 105.165 92.8194 106.008 93.2521L105.678 97.6814L109.568 98.8694L111.765 95.0158C112.696 95.1258 113.642 95.1588 114.595 95.1111L116.524 99.1114L120.488 98.1948L120.466 93.7544C121.346 93.3768 122.182 92.9368 122.97 92.4271L126.637 94.9241L129.61 92.1484L127.37 88.3131C127.935 87.5541 128.437 86.7548 128.87 85.9114L133.299 86.2414L134.487 82.3511L130.633 80.1548C130.743 79.2234 130.776 78.2774 130.725 77.3241L134.725 75.3954L134.729 75.3918ZM116.128 88.3461C110.496 89.6478 104.871 86.1351 103.57 80.5031C102.268 74.8711 105.781 69.2464 111.413 67.9448C117.045 66.6431 122.669 70.1558 123.971 75.7878C125.273 81.4198 121.76 87.0444 116.128 88.3461Z" fill="white"/>
<path d="M109.561 99.0564C109.561 99.0564 109.528 99.0564 109.51 99.0491L105.619 97.8611C105.531 97.8354 105.473 97.7474 105.48 97.6558L105.803 93.3584C105.036 92.9551 104.296 92.4931 103.599 91.9798L99.8772 94.1541C99.7965 94.2018 99.6939 94.1871 99.6315 94.1174L96.8559 91.1438C96.7935 91.0741 96.7825 90.9714 96.8375 90.8944L99.2612 87.3378C98.8029 86.6154 98.3959 85.8418 98.0439 85.0388L93.7355 85.0608C93.6439 85.0644 93.5595 84.9984 93.5412 84.9068L92.6245 80.9431C92.6025 80.8514 92.6465 80.7598 92.7309 80.7194L96.6139 78.8494C96.5772 77.9731 96.6065 77.0968 96.6982 76.2498L92.9582 74.1158C92.8775 74.0681 92.8372 73.9728 92.8665 73.8848L94.0545 69.9944C94.0802 69.9064 94.1682 69.8404 94.2599 69.8551L98.5572 70.1778C98.9605 69.4114 99.4225 68.6708 99.9322 67.9741L97.7579 64.2524C97.7102 64.1718 97.7249 64.0691 97.7945 64.0068L100.768 61.2311C100.838 61.1688 100.941 61.1578 101.018 61.2128L104.574 63.6364C105.297 63.1781 106.07 62.7711 106.873 62.4191L106.851 58.1108C106.851 58.0191 106.914 57.9348 107.005 57.9164L110.969 56.9998C111.061 56.9778 111.152 57.0218 111.193 57.1061L113.063 60.9891C113.939 60.9524 114.812 60.9818 115.662 61.0734L117.796 57.3334C117.844 57.2528 117.939 57.2161 118.027 57.2418L121.918 58.4298C122.006 58.4554 122.064 58.5434 122.057 58.6351L121.734 62.9324C122.501 63.3358 123.241 63.7978 123.938 64.3074L127.66 62.1331C127.74 62.0854 127.843 62.1001 127.905 62.1698L130.681 65.1434C130.743 65.2131 130.754 65.3158 130.699 65.3928L128.276 68.9494C128.734 69.6718 129.141 70.4454 129.493 71.2484L133.801 71.2264C133.897 71.2264 133.977 71.2888 133.996 71.3804L134.912 75.3441C134.934 75.4358 134.89 75.5274 134.806 75.5678L130.923 77.4378C130.96 78.3141 130.93 79.1904 130.839 80.0374L134.579 82.1714C134.659 82.2191 134.7 82.3144 134.67 82.4024L133.482 86.2928C133.457 86.3808 133.369 86.4504 133.277 86.4321L128.98 86.1094C128.576 86.8758 128.114 87.6164 127.605 88.3131L129.779 92.0348C129.827 92.1154 129.812 92.2181 129.742 92.2804L126.769 95.0561C126.699 95.1184 126.596 95.1258 126.519 95.0744L122.963 92.6508C122.24 93.1091 121.467 93.5161 120.664 93.8681L120.686 98.1764C120.686 98.2681 120.623 98.3524 120.532 98.3708L116.568 99.2874C116.476 99.3094 116.385 99.2618 116.344 99.1811L114.474 95.2981C113.598 95.3348 112.722 95.3054 111.875 95.2138L109.741 98.9538C109.704 99.0198 109.631 99.0564 109.561 99.0528V99.0564ZM105.891 97.5274L109.473 98.6238L111.592 94.9094C111.633 94.8398 111.71 94.7994 111.79 94.8104C112.703 94.9204 113.642 94.9498 114.588 94.9021C114.669 94.8984 114.742 94.9424 114.779 95.0158L116.638 98.8731L120.29 98.0298L120.268 93.7471C120.268 93.6664 120.315 93.5931 120.389 93.5638C121.258 93.1934 122.09 92.7498 122.864 92.2548C122.93 92.2108 123.018 92.2144 123.084 92.2548L126.618 94.6638L129.357 92.1081L127.198 88.4121C127.157 88.3424 127.161 88.2544 127.209 88.1921C127.766 87.4478 128.265 86.6484 128.69 85.8198C128.727 85.7501 128.8 85.6988 128.881 85.7134L133.152 86.0324L134.249 82.4501L130.534 80.3308C130.465 80.2904 130.424 80.2134 130.435 80.1328C130.545 79.2198 130.575 78.2811 130.527 77.3351C130.523 77.2544 130.567 77.1811 130.641 77.1444L134.498 75.2854L133.655 71.6334L129.372 71.6554C129.291 71.6554 129.218 71.6078 129.189 71.5344C128.818 70.6654 128.375 69.8331 127.88 69.0594C127.836 68.9934 127.836 68.9054 127.88 68.8394L130.289 65.3048L127.733 62.5658L124.033 64.7254C123.964 64.7658 123.876 64.7621 123.813 64.7144C123.069 64.1571 122.27 63.6584 121.441 63.2331C121.371 63.1964 121.327 63.1194 121.335 63.0424L121.654 58.7708L118.071 57.6744L115.952 61.3888C115.912 61.4584 115.835 61.4988 115.754 61.4878C114.841 61.3778 113.899 61.3484 112.956 61.3961C112.876 61.3998 112.802 61.3558 112.766 61.2824L110.907 57.4251L107.255 58.2684L107.277 62.5511C107.277 62.6318 107.229 62.7051 107.156 62.7344C106.287 63.1048 105.454 63.5484 104.681 64.0434C104.615 64.0874 104.527 64.0838 104.461 64.0434L100.926 61.6344L98.1869 64.1901L100.347 67.8898C100.387 67.9594 100.383 68.0474 100.336 68.1098C99.7782 68.8541 99.2795 69.6534 98.8542 70.4821C98.8175 70.5518 98.7442 70.6031 98.6635 70.5884L94.3919 70.2694L93.2955 73.8518L97.0099 75.9711C97.0795 76.0114 97.1199 76.0884 97.1089 76.1691C96.9989 77.0821 96.9695 78.0244 97.0172 78.9668C97.0209 79.0474 96.9769 79.1208 96.9035 79.1574L93.0462 81.0164L93.8895 84.6684L98.1722 84.6464C98.2492 84.6428 98.3262 84.6941 98.3555 84.7674C98.7259 85.6364 99.1695 86.4688 99.6645 87.2424C99.7085 87.3084 99.7085 87.3964 99.6645 87.4624L97.2555 90.9971L99.8112 93.7361L103.511 91.5764C103.581 91.5361 103.665 91.5398 103.731 91.5874C104.479 92.1448 105.275 92.6434 106.103 93.0688C106.173 93.1054 106.217 93.1824 106.21 93.2594L105.891 97.5311V97.5274ZM113.327 88.8081C111.501 88.7348 109.715 88.1884 108.12 87.1911C105.704 85.6804 104.021 83.3228 103.379 80.5434C102.737 77.7678 103.214 74.9078 104.725 72.4914C106.235 70.0751 108.593 68.3921 111.372 67.7504C114.148 67.1088 117.008 67.5854 119.424 69.0961C121.841 70.6068 123.527 72.9644 124.165 75.7438C124.807 78.5194 124.33 81.3794 122.82 83.7958C121.309 86.2121 118.951 87.8988 116.172 88.5368C115.226 88.7568 114.269 88.8448 113.323 88.8044L113.327 88.8081ZM114.203 67.8824C113.294 67.8458 112.373 67.9301 111.464 68.1428C108.791 68.7588 106.518 70.3831 105.066 72.7078C103.614 75.0324 103.152 77.7861 103.771 80.4591C104.387 83.1321 106.012 85.4054 108.336 86.8574C110.665 88.3094 113.415 88.7714 116.088 88.1518C118.761 87.5358 121.034 85.9114 122.486 83.5868C123.938 81.2621 124.4 78.5084 123.78 75.8354C123.164 73.1624 121.54 70.8891 119.215 69.4371C117.683 68.4801 115.963 67.9521 114.203 67.8824Z" fill="black"/>
<path d="M156.058 47.2213C157.279 50.4443 158.5 60.6963 153.799 67.0543C149.102 73.405 137.816 76.7857 130.34 71.7917C121.323 65.7673 122.621 50.7413 128.11 44.464C131.183 40.9477 134.116 41.8423 138.359 36.8007C142.59 31.77 141.761 28.4003 145.465 26.369C149.916 23.927 156.417 25.852 157.568 28.4957C158.599 30.8607 155.306 32.7857 154.675 38.3077C154.558 39.3453 154.569 40.196 154.657 40.9477C155.042 44.2623 155.838 46.6457 156.061 47.225L156.058 47.2213Z" fill="black"/>
<path d="M143.43 23.8608C144.127 24.8875 144.68 28.2021 143.137 29.2471C141.593 30.2921 138.539 28.6751 137.842 27.6485C137.145 26.6218 137.835 24.9425 139.375 23.8975C140.918 22.8525 142.73 22.8378 143.426 23.8608H143.43Z" fill="black"/>
<path d="M139.536 58.1916C139.536 58.1916 136.196 49.8023 138.165 48.0313C138.267 47.9396 139.595 47.8039 140.959 49.0469C142.242 50.2239 143.566 52.7796 143.566 52.7796L144.002 58.5729L139.536 58.1916Z" fill="#0022AA"/>
<path d="M144.002 58.7052C144.002 58.7052 143.994 58.7052 143.991 58.7052L139.525 58.3238C139.477 58.3202 139.433 58.2872 139.415 58.2432C139.275 57.8985 136.067 49.7475 138.076 47.9362C138.26 47.7675 139.664 47.6905 141.043 48.9518C142.33 50.1288 143.624 52.6148 143.679 52.7212C143.686 52.7358 143.694 52.7542 143.694 52.7725L144.13 58.5658C144.13 58.6025 144.119 58.6428 144.093 58.6685C144.068 58.6942 144.035 58.7052 144.002 58.7052ZM139.627 58.0708L143.859 58.4302L143.437 52.8165C143.301 52.5562 142.058 50.2315 140.87 49.1425C139.602 47.9802 138.392 48.0755 138.245 48.1342C136.481 49.7548 139.308 57.2348 139.631 58.0672L139.627 58.0708Z" fill="black"/>
<path d="M164.928 42.9641C164.928 42.9641 166.229 43.2428 167.252 44.8231C169.295 47.9728 172.448 53.7038 177.493 54.5618C185.069 55.8488 189.659 46.6308 189.007 44.5665C189.007 44.5665 187.918 43.1218 186.132 42.6855C186.132 42.6855 186.114 41.2445 187.668 41.9265C189.223 42.6085 189.846 42.1905 190.539 42.0291C191.76 41.7431 194.356 38.8098 195.324 38.4358C196.292 38.0618 195.988 38.8685 195.988 38.8685C195.988 38.8685 196.934 37.8015 197.587 38.3368L196.193 40.1775C196.193 40.1775 197.319 38.6888 197.972 39.4368L195.06 42.8431L197.194 41.1675C197.194 41.1675 197.491 41.4938 196.934 42.0731C196.377 42.6525 194.107 45.8168 191.933 45.8168C191.933 45.8168 193.102 63.2701 180.034 63.9815C168.807 64.5901 164.235 55.5335 164.235 55.5335L164.931 42.9641H164.928Z" fill="white"/>
<path d="M178.975 64.143C173.706 64.143 170.032 61.9724 167.835 60.0877C165.298 57.906 164.125 55.618 164.114 55.596C164.103 55.574 164.099 55.552 164.099 55.53L164.796 42.9607C164.796 42.924 164.818 42.8874 164.847 42.8654C164.876 42.8434 164.917 42.8324 164.953 42.8434C165.008 42.8544 166.317 43.155 167.359 44.761C167.553 45.058 167.755 45.377 167.967 45.7144C169.969 48.886 172.998 53.6747 177.512 54.441C181.684 55.1487 184.658 52.5527 186.062 50.943C188.237 48.4497 189.164 45.6044 188.886 44.6327C188.757 44.4677 187.712 43.21 186.095 42.8177C186.037 42.803 185.996 42.7517 185.996 42.693C185.996 42.6674 185.996 42.0477 186.429 41.758C186.737 41.5527 187.17 41.571 187.716 41.813C188.966 42.363 189.568 42.1834 190.151 42.0074C190.264 41.9744 190.385 41.9377 190.503 41.9084C191.155 41.7544 192.281 40.7534 193.271 39.8734C194.103 39.1327 194.822 38.4947 195.269 38.3224C195.643 38.1794 195.896 38.1794 196.043 38.3224C196.105 38.381 196.135 38.458 196.149 38.5314C196.505 38.227 197.147 37.8164 197.664 38.2417C197.719 38.2857 197.726 38.3664 197.686 38.4214L197.081 39.2207C197.22 39.151 197.363 39.107 197.506 39.0997C197.73 39.0924 197.913 39.1767 198.067 39.3527C198.111 39.4004 198.111 39.4737 198.067 39.5214L196.006 41.9304L197.11 41.065C197.165 41.021 197.242 41.0284 197.286 41.0797C197.301 41.098 197.656 41.505 197.022 42.165C196.941 42.2494 196.817 42.396 196.659 42.583C195.764 43.65 193.92 45.839 192.065 45.9454C192.116 47.1114 192.318 55.519 187.947 60.458C185.956 62.7057 183.294 63.9377 180.038 64.1137C179.675 64.132 179.319 64.143 178.971 64.143H178.975ZM164.363 55.5044C164.51 55.7794 165.672 57.884 168.015 59.8934C170.318 61.8697 174.274 64.1614 180.027 63.8497C183.21 63.6774 185.809 62.4747 187.756 60.282C192.365 55.079 191.812 45.916 191.804 45.8244C191.804 45.7877 191.815 45.7547 191.841 45.7254C191.867 45.6997 191.9 45.685 191.936 45.685C193.718 45.685 195.577 43.474 196.468 42.4107C196.63 42.22 196.754 42.0697 196.842 41.978C197.117 41.692 197.158 41.4867 197.143 41.3694L195.145 42.9387C195.093 42.979 195.016 42.9754 194.969 42.9277C194.921 42.88 194.921 42.803 194.965 42.7517L197.796 39.437C197.715 39.3747 197.623 39.3454 197.521 39.349C197.066 39.3637 196.487 40.0017 196.3 40.2474C196.256 40.306 196.175 40.317 196.116 40.273C196.058 40.229 196.047 40.1484 196.091 40.0897L197.4 38.3627C196.853 38.0987 196.094 38.9384 196.087 38.9494C196.047 38.997 195.977 39.008 195.922 38.975C195.867 38.942 195.845 38.876 195.867 38.8174C195.893 38.744 195.933 38.5607 195.867 38.4947C195.845 38.4727 195.739 38.4067 195.368 38.5497C194.965 38.7037 194.232 39.36 193.451 40.053C192.387 40.999 191.287 41.978 190.569 42.1467C190.459 42.1724 190.349 42.2054 190.231 42.242C189.634 42.4217 188.955 42.627 187.617 42.0367C187.159 41.835 186.81 41.8094 186.579 41.9597C186.348 42.1137 186.286 42.418 186.268 42.5757C188.017 43.045 189.065 44.42 189.109 44.4787C189.117 44.4897 189.124 44.5044 189.131 44.519C189.491 45.6594 188.402 48.644 186.26 51.1007C184.823 52.7507 181.765 55.4127 177.471 54.683C172.844 53.8984 169.779 49.0474 167.747 45.839C167.535 45.5017 167.333 45.1827 167.142 44.8857C166.361 43.683 165.412 43.254 165.049 43.1294L164.363 55.497V55.5044Z" fill="black"/>
<path d="M193.542 41.4864C193.509 41.4864 193.476 41.4754 193.451 41.4498C193.399 41.3984 193.399 41.3178 193.451 41.2664L195.893 38.7768C195.944 38.7254 196.025 38.7254 196.076 38.7768C196.127 38.8281 196.127 38.9088 196.076 38.9601L193.634 41.4498C193.608 41.4754 193.575 41.4901 193.542 41.4901V41.4864Z" fill="black"/>
<path d="M194.54 41.9886C194.507 41.9886 194.474 41.9776 194.448 41.952C194.397 41.9006 194.397 41.82 194.448 41.7686L196.105 40.082C196.157 40.0306 196.237 40.0306 196.289 40.082C196.34 40.1333 196.34 40.214 196.289 40.2653L194.631 41.952C194.606 41.9776 194.573 41.9923 194.54 41.9923V41.9886Z" fill="black"/>
<path d="M190.183 44.7019C190.183 44.7019 190.147 44.6983 190.128 44.6909C190.062 44.6616 190.033 44.5846 190.062 44.5186C190.092 44.4526 190.821 42.8723 192.013 43.1143C193.062 43.3269 193.81 43.0593 193.821 43.0556C193.887 43.0299 193.964 43.0666 193.989 43.1326C194.015 43.1986 193.982 43.2756 193.912 43.3013C193.879 43.3123 193.087 43.6019 191.962 43.3709C190.972 43.1693 190.308 44.6103 190.301 44.6249C190.279 44.6726 190.231 44.7019 190.183 44.7019Z" fill="black"/>
<path d="M138.165 48.0312C138.165 48.0312 161.162 41.5852 165.808 42.3589L167.432 53.1939L170.508 61.4842C171.392 63.8676 170.893 66.5552 169.177 68.4326C167.26 70.5299 164.073 72.7446 159.083 72.9682C149.392 73.4046 144.68 75.7916 144.167 71.5089C143.654 67.2262 143.041 56.9559 143.041 56.9559C141.494 52.8712 139.606 48.1486 138.165 48.0312Z" fill="#0066EE"/>
<path d="M147.544 74.1564C146.429 74.1564 145.582 73.9878 144.992 73.5258C144.46 73.1078 144.149 72.4551 144.035 71.5274C143.536 67.3804 142.942 57.4988 142.909 56.9854C141.751 53.9311 139.606 48.2808 138.15 48.1634C138.088 48.1598 138.036 48.1084 138.029 48.0461C138.022 47.9838 138.062 47.9251 138.124 47.9068C139.063 47.6428 161.202 41.4608 165.826 42.2344C165.881 42.2454 165.925 42.2894 165.932 42.3444L167.557 53.1648L170.626 61.4404C171.535 63.8971 171.018 66.6068 169.269 68.5208C167.476 70.4824 164.253 72.8658 159.083 73.1004C156.238 73.2288 153.788 73.5294 151.816 73.7714C150.1 73.9804 148.677 74.1564 147.537 74.1564H147.544ZM138.601 48.0461C140.005 48.8491 141.619 52.8421 143.162 56.9121C143.166 56.9231 143.17 56.9378 143.17 56.9488C143.177 57.0514 143.786 67.2668 144.292 71.4944C144.394 72.3634 144.669 72.9428 145.15 73.3204C146.261 74.1894 148.461 73.9218 151.786 73.5111C153.763 73.2691 156.219 72.9684 159.072 72.8401C164.154 72.6128 167.315 70.2698 169.075 68.3448C170.758 66.5041 171.256 63.8934 170.38 61.5321L167.304 53.2418C167.304 53.2418 167.3 53.2234 167.296 53.2161L165.687 42.4764C161.268 41.8641 141.67 47.1991 138.597 48.0461H138.601Z" fill="black"/>
<path d="M153.759 40.6543C154.587 40.7863 155.394 40.6507 155.801 40.284C156.303 39.8293 156.263 39.1803 156.318 38.3773C156.344 38.0437 156.344 37.655 156.597 37.2627C156.729 37.0537 156.897 36.896 157.066 36.775C157.275 36.6283 157.337 36.3497 157.216 36.126L157.121 35.9977C156.384 34.993 156.036 33.1963 156.157 31.33L155.64 30.3767C154.21 30.1677 153.069 30.2337 152.941 30.483C152.893 30.5747 152.809 30.648 152.901 31.0147C153.344 32.793 151.698 32.9873 150.279 32.9727C148.86 32.9617 149.92 35.334 149.92 35.334C149.92 35.334 148.834 34.454 148.13 35.6053C147.624 36.4303 149.172 37.2223 150.092 37.6037C150.092 37.6037 150.103 43.3787 148.933 44.1487L145.688 46.213C145.688 46.213 152.791 47.9437 157.682 43.793C157.682 43.793 155.508 43.9103 154.551 43.1697C153.594 42.429 153.854 40.834 153.759 40.647V40.6543Z" fill="white"/>
<path d="M149.194 46.7005C147.148 46.7005 145.689 46.3558 145.656 46.3485C145.604 46.3375 145.568 46.2935 145.557 46.2421C145.549 46.1908 145.571 46.1395 145.615 46.1101L148.86 44.0421C149.755 43.4518 149.953 39.3415 149.957 37.6951C149.128 37.3431 148.138 36.8041 147.936 36.1771C147.867 35.9571 147.892 35.7445 148.017 35.5428C148.241 35.1761 148.527 34.9598 148.868 34.9011C149.168 34.8498 149.454 34.9341 149.66 35.0295C149.487 34.5345 149.253 33.6545 149.564 33.1778C149.711 32.9541 149.953 32.8368 150.279 32.8441C151.145 32.8551 152.193 32.7891 152.63 32.2318C152.853 31.9495 152.901 31.5608 152.773 31.0438C152.688 30.6991 152.74 30.5635 152.809 30.4461C152.813 30.4351 152.82 30.4278 152.824 30.4168C153.022 30.0391 154.43 30.0611 155.658 30.2408C155.699 30.2481 155.735 30.2701 155.754 30.3068L156.271 31.2601C156.282 31.2821 156.289 31.3078 156.285 31.3298C156.164 33.2035 156.527 34.9561 157.224 35.9095L157.319 36.0378C157.319 36.0378 157.327 36.0488 157.33 36.0525C157.481 36.3348 157.4 36.6868 157.14 36.8701C156.96 36.9985 156.813 37.1488 156.703 37.3211C156.494 37.6511 156.472 37.9738 156.45 38.2818L156.443 38.3735C156.436 38.4871 156.428 38.5935 156.425 38.6998C156.388 39.3671 156.355 39.9391 155.882 40.3681C155.475 40.7348 154.731 40.8925 153.906 40.7971C153.906 40.8485 153.909 40.9108 153.913 40.9878C153.924 41.5305 153.946 42.5388 154.624 43.0631C155.53 43.7635 157.649 43.6608 157.668 43.6608C157.723 43.6571 157.774 43.6901 157.796 43.7415C157.818 43.7928 157.803 43.8515 157.759 43.8881C155.068 46.1688 151.691 46.6858 149.187 46.6858L149.194 46.7005ZM146.03 46.1578C147.412 46.4181 153.121 47.2358 157.308 43.9395C156.63 43.9395 155.218 43.8588 154.47 43.2795C153.693 42.6781 153.671 41.5891 153.656 41.0025C153.656 40.8815 153.649 40.7421 153.638 40.7091C153.616 40.6651 153.62 40.6138 153.649 40.5735C153.678 40.5331 153.726 40.5148 153.777 40.5221C154.58 40.6505 155.339 40.5185 155.713 40.1811C156.106 39.8291 156.135 39.3268 156.168 38.6925C156.175 38.5861 156.179 38.4761 156.186 38.3625L156.194 38.2708C156.216 37.9445 156.238 37.5741 156.487 37.1855C156.615 36.9838 156.784 36.8078 156.993 36.6648C157.143 36.5585 157.191 36.3568 157.107 36.1881L157.019 36.0671C156.278 35.0588 155.908 33.2988 156.025 31.3518L155.559 30.4901C154.045 30.2738 153.139 30.4021 153.059 30.5378C153.051 30.5525 153.044 30.5635 153.037 30.5781C153 30.6441 152.96 30.7101 153.029 30.9815C153.176 31.5718 153.11 32.0448 152.839 32.3931C152.333 33.0385 151.203 33.1118 150.279 33.1045C150.041 33.1008 149.88 33.1741 149.784 33.3208C149.48 33.7828 149.865 34.8938 150.037 35.2861C150.063 35.3411 150.045 35.4071 149.997 35.4438C149.949 35.4805 149.883 35.4805 149.836 35.4438C149.832 35.4438 149.381 35.0845 148.908 35.1651C148.648 35.2091 148.42 35.3851 148.237 35.6858C148.153 35.8215 148.134 35.9571 148.182 36.1038C148.321 36.5365 149.014 37.0278 150.136 37.4935C150.184 37.5118 150.217 37.5595 150.217 37.6145C150.217 37.8528 150.217 43.4665 149 44.2695L146.022 46.1651L146.03 46.1578Z" fill="black"/>
<path d="M153.759 40.7826C153.759 40.7826 153.751 40.7826 153.744 40.7826C152.134 40.6176 151.034 38.711 150.987 38.6303C150.95 38.568 150.972 38.4873 151.034 38.4543C151.097 38.4176 151.177 38.4397 151.21 38.502C151.221 38.5203 152.292 40.372 153.766 40.5223C153.839 40.5296 153.891 40.592 153.883 40.6653C153.876 40.7313 153.821 40.7826 153.755 40.7826H153.759Z" fill="black"/>
<path d="M164.689 58.6025C163.662 57.8325 160.307 55.5921 159.119 56.2925C158.331 56.7581 157.55 57.4768 156.919 59.5118L143.492 64.2491L143.529 60.1645C143.547 58.2138 143.107 56.2851 142.245 54.5325L139.737 49.4321C138.172 50.4661 136.947 51.9475 136.265 53.6965C133.508 60.7768 134.285 73.5221 136.936 74.1895C144.06 75.9861 157.836 61.6935 157.836 61.6935C157.836 61.6935 161.583 61.6751 162.317 61.6018C165.36 61.2938 165.371 59.1231 164.682 58.6061L164.689 58.6025Z" fill="white"/>
<path d="M138.285 74.4717C137.798 74.4717 137.336 74.4167 136.907 74.3104C136.474 74.2004 136.082 73.8117 135.741 73.1481C133.951 69.6757 133.827 59.5961 136.144 53.6414C136.83 51.8777 138.047 50.3817 139.664 49.3147C139.697 49.2927 139.734 49.2891 139.77 49.2964C139.807 49.3074 139.836 49.3294 139.855 49.3661L142.363 54.4664C143.228 56.2264 143.675 58.1954 143.657 60.1571L143.62 64.0584L156.809 59.4054C157.462 57.3411 158.269 56.6334 159.046 56.1751C160.494 55.3244 164.586 58.3641 164.759 58.4924C165.125 58.7674 165.276 59.3797 165.114 59.9517C164.986 60.4137 164.458 61.5064 162.328 61.7191C161.635 61.7887 158.371 61.8071 157.887 61.8107C157.495 62.2141 154.184 65.5764 150.132 68.7041C145.175 72.5321 141.2 74.4644 138.278 74.4644L138.285 74.4717ZM139.69 49.6154C138.179 50.6457 137.042 52.0684 136.39 53.7367C135.326 56.4684 134.699 60.3477 134.67 64.3811C134.644 68.1027 135.143 71.4174 135.975 73.0271C136.28 73.6174 136.617 73.9657 136.973 74.0537C143.943 75.8137 157.609 61.7374 157.744 61.5944C157.77 61.5687 157.803 61.5541 157.836 61.5541C157.873 61.5541 161.587 61.5357 162.306 61.4624C164.278 61.2644 164.755 60.2927 164.869 59.8821C165.015 59.3541 164.843 58.8774 164.605 58.7014C163.461 57.8471 160.26 55.7644 159.182 56.3987C158.441 56.8351 157.671 57.5171 157.04 59.5447C157.029 59.5851 156.996 59.6144 156.96 59.6291L143.532 64.3627C143.492 64.3774 143.448 64.3701 143.415 64.3444C143.382 64.3187 143.36 64.2784 143.36 64.2381L143.397 60.1534C143.415 58.2321 142.975 56.3034 142.128 54.5801L139.686 49.6117L139.69 49.6154Z" fill="black"/>
<path d="M165.056 59.6363C165.056 59.6363 165.026 59.6363 165.012 59.6289L160.333 58.0229C160.263 58.0009 160.23 57.9239 160.252 57.8579C160.274 57.7883 160.351 57.7553 160.417 57.7773L165.096 59.3833C165.166 59.4053 165.199 59.4823 165.177 59.5483C165.158 59.6033 165.107 59.6363 165.052 59.6363H165.056Z" fill="black"/>
<path d="M164.792 60.5128C164.792 60.5128 164.766 60.5128 164.755 60.5091L160.19 59.1525C160.12 59.1305 160.08 59.0608 160.102 58.9911C160.124 58.9215 160.194 58.8848 160.263 58.9031L164.828 60.2598C164.898 60.2818 164.938 60.3515 164.916 60.4211C164.898 60.4761 164.847 60.5128 164.792 60.5128Z" fill="black"/>
<path d="M163.923 61.2866C163.923 61.2866 163.901 61.2866 163.886 61.2829C162.397 60.8686 160.117 60.2452 159.955 60.2269C159.882 60.2269 159.827 60.1682 159.827 60.0949C159.827 60.0216 159.889 59.9629 159.959 59.9629C160.113 59.9629 162.804 60.7072 163.956 61.0262C164.025 61.0446 164.066 61.1179 164.047 61.1876C164.033 61.2462 163.978 61.2829 163.923 61.2829V61.2866Z" fill="black"/>
<path d="M139.8 66.4453C139.756 66.4453 139.708 66.4197 139.686 66.3793C139.649 66.317 139.675 66.2363 139.737 66.2033L143.43 64.1353C143.492 64.0987 143.573 64.1207 143.606 64.1867C143.642 64.249 143.617 64.3297 143.554 64.3627L139.862 66.4307C139.844 66.4417 139.822 66.449 139.8 66.449V66.4453Z" fill="black"/>
<path d="M167.501 68.224C167.289 67.707 166.786 67.3696 166.225 67.3696C161.019 67.3696 155.731 68.6713 150.36 71.348C149.901 71.5753 149.52 71.9383 149.271 72.3893C148.288 74.1676 145.655 79.1213 144.31 83.602C143.939 84.8376 142.385 89.6446 141.508 92.578C141.208 93.5826 141.959 94.5946 143.008 94.5983C148.072 94.6093 171.139 94.7266 174.912 94.184C175.403 94.1143 175.729 93.6376 175.627 93.1536C173.687 83.8476 168.788 71.3406 167.501 68.2276V68.224Z" fill="black"/>
<path d="M193.385 35.9385C193.282 35.7882 193.282 35.5902 193.385 35.4398C193.528 35.2308 193.608 35.0035 193.608 34.7688C193.608 33.6725 191.911 32.7852 189.817 32.7852C187.723 32.7852 186.026 33.6725 186.026 34.7688C186.026 35.0035 186.103 35.2308 186.249 35.4398C186.352 35.5902 186.352 35.7882 186.249 35.9385C186.106 36.1475 186.026 36.3748 186.026 36.6095C186.026 37.1302 186.407 37.6032 187.034 37.9552C187.019 38.0138 187.012 38.0725 187.012 38.1348C187.012 38.9452 188.27 39.6015 189.817 39.6015C191.364 39.6015 192.622 38.9452 192.622 38.1348C192.622 38.0725 192.615 38.0138 192.6 37.9552C193.227 37.6032 193.608 37.1265 193.608 36.6095C193.608 36.3748 193.531 36.1475 193.385 35.9385Z" fill="black"/>
<path d="M200.106 19.5559C200.106 13.9349 195.427 9.14258 189.81 9.14258C184.2 9.14258 179.576 13.8066 179.536 19.4166C179.517 22.2729 180.896 24.9276 182.773 26.7866C184.13 28.1286 185.116 29.7932 185.597 31.6376L185.619 31.7256C186.084 33.5149 187.701 34.7652 189.553 34.7652H190.312C192.164 34.7652 193.781 33.5149 194.246 31.7256L194.261 31.6706C194.738 29.8372 195.684 28.1542 197.04 26.8342C198.936 24.9862 200.109 22.4049 200.109 19.5522L200.106 19.5559Z" fill="white"/>
<path d="M190.312 34.9706H189.553C187.613 34.9706 185.916 33.6579 185.428 31.7806L185.406 31.6926C184.944 29.9143 183.987 28.2679 182.638 26.9296C180.526 24.8396 179.323 22.1006 179.341 19.4129C179.382 13.6379 184.079 8.94092 189.813 8.94092C195.548 8.94092 200.311 13.8029 200.311 19.5522C200.311 22.3719 199.2 25.0083 197.18 26.9773C195.871 28.2533 194.928 29.8923 194.455 31.7219L194.441 31.7769C193.953 33.6542 192.255 34.9669 190.316 34.9669L190.312 34.9706ZM189.81 9.34058C184.291 9.34058 179.774 13.8616 179.737 19.4166C179.719 21.9943 180.878 24.6306 182.916 26.6436C184.317 28.0296 185.311 29.7383 185.791 31.5863L185.813 31.6742C186.257 33.3756 187.793 34.5672 189.553 34.5672H190.312C192.072 34.5672 193.608 33.3792 194.052 31.6742L194.067 31.6192C194.562 29.7199 195.541 28.0186 196.901 26.6912C198.841 24.7992 199.911 22.2619 199.911 19.5522C199.911 14.0156 195.288 9.33692 189.813 9.33692L189.81 9.34058Z" fill="black"/>
<path d="M190.389 33.5113C190.279 33.5113 190.191 33.4196 190.191 33.3096C190.213 27.8353 193.41 21.6533 194.052 20.469C194.433 19.765 194.58 19.1893 194.496 18.7053C194.375 17.9903 194.008 17.532 193.41 17.3413C192.981 17.2056 192.314 17.191 191.749 17.5136C192.475 18.2543 192.959 19.4716 192.659 20.5276C192.541 20.942 192.208 21.2353 191.768 21.3086C191.254 21.393 190.726 21.1693 190.426 20.7366C190.165 20.3626 189.854 19.5193 190.69 18.0416C190.814 17.8253 190.957 17.642 191.115 17.4916C191.093 17.477 191.067 17.4586 191.045 17.4476C190.62 17.18 189.916 16.982 189.227 17.2386C189.029 17.312 188.845 17.4183 188.673 17.5576C189.447 18.1003 189.835 19.5303 189.67 20.3333C189.549 20.942 189.194 21.3746 188.699 21.525C188.277 21.6533 187.819 21.536 187.503 21.2206C187.067 20.7843 186.964 20.0546 187.221 19.2186C187.426 18.544 187.694 18.0526 187.984 17.6933C186.829 17.3743 186.022 17.928 185.806 18.467C185.549 19.0976 185.644 19.8493 186.048 20.4323C186.986 21.7743 189.179 25.6866 189.285 33.0603C189.285 33.1703 189.197 33.262 189.087 33.262C188.977 33.262 188.889 33.174 188.889 33.064C188.783 25.8003 186.638 21.9686 185.721 20.6596C185.23 19.9593 185.124 19.083 185.435 18.3166C185.776 17.4733 186.924 16.9086 188.284 17.367C188.563 17.1066 188.845 16.9526 189.087 16.8646C189.916 16.5566 190.752 16.7876 191.258 17.1103C191.32 17.1506 191.379 17.191 191.441 17.2386C192.142 16.784 192.996 16.7913 193.539 16.9636C194.474 17.2643 194.793 18.0416 194.895 18.643C194.994 19.2223 194.84 19.864 194.408 20.6633C193.773 21.833 190.616 27.9343 190.594 33.317C190.594 33.427 190.506 33.515 190.396 33.515L190.389 33.5113ZM188.372 17.84C188.05 18.2066 187.786 18.7126 187.595 19.336C187.386 20.0253 187.452 20.612 187.778 20.9383C187.991 21.151 188.288 21.228 188.574 21.1436C188.926 21.0373 189.179 20.7146 189.271 20.2563C189.41 19.567 189.043 18.225 188.369 17.8436L188.372 17.84ZM191.423 17.7483C191.276 17.8803 191.144 18.0416 191.034 18.2396C190.305 19.5266 190.543 20.2123 190.748 20.5093C190.965 20.8173 191.335 20.9786 191.698 20.9163C191.988 20.8686 192.197 20.6853 192.274 20.4176C192.541 19.479 192.087 18.39 191.423 17.7483Z" fill="black"/>
<path d="M194.529 26.141C194.463 26.141 194.397 26.108 194.36 26.0493C194.301 25.9576 194.331 25.833 194.422 25.7743C196.241 24.6303 197.55 22.775 198.012 20.6776C198.034 20.5713 198.144 20.5016 198.25 20.5273C198.357 20.5493 198.426 20.6593 198.401 20.7656C197.913 22.9656 196.542 24.9126 194.631 26.1116C194.598 26.1336 194.562 26.141 194.525 26.141H194.529Z" fill="black"/>
<path d="M183.455 24.9605C183.4 24.9605 183.345 24.9385 183.305 24.8945C181.926 23.3435 181.167 21.3451 181.167 19.2661C181.167 16.0248 182.971 13.1171 185.875 11.6725C185.974 11.6211 186.095 11.6651 186.143 11.7641C186.191 11.8631 186.15 11.9841 186.051 12.0318C183.283 13.4068 181.567 16.1788 181.567 19.2661C181.567 21.2461 182.289 23.1491 183.606 24.6268C183.679 24.7075 183.672 24.8358 183.587 24.9091C183.551 24.9421 183.503 24.9605 183.455 24.9605Z" fill="black"/>
<path d="M190.462 36.0302C190.367 36.0302 190.283 35.9606 190.264 35.8652C190.246 35.7552 190.319 35.6526 190.426 35.6342C190.77 35.5756 191.104 35.4986 191.423 35.4106C191.529 35.3812 191.639 35.4436 191.669 35.5499C191.698 35.6562 191.636 35.7662 191.529 35.7956C191.199 35.8909 190.851 35.9679 190.492 36.0302C190.481 36.0302 190.47 36.0302 190.459 36.0302H190.462Z" fill="white"/>
<path d="M188.864 37.9772C188.754 37.9772 188.666 37.8892 188.666 37.7792C188.666 37.6692 188.754 37.5775 188.864 37.5775C189.645 37.5702 190.789 37.4639 191.808 36.9835C191.907 36.9359 192.028 36.9835 192.072 37.0789C192.12 37.1779 192.072 37.2989 191.977 37.3429C190.891 37.8525 189.685 37.9662 188.867 37.9735L188.864 37.9772Z" fill="white"/>
<path d="M189.868 6.895H189.865C189.755 6.895 189.667 6.79967 189.67 6.68967L189.766 2.19433C189.766 2.08433 189.857 2 189.964 2H189.967C190.077 2 190.165 2.09533 190.162 2.20533L190.066 6.70067C190.066 6.81067 189.975 6.895 189.868 6.895Z" fill="black"/>
<path d="M176.84 16.0505H173.969C173.859 16.0505 173.771 15.9589 173.771 15.8489C173.771 15.7389 173.859 15.6509 173.969 15.6509H176.84C176.95 15.6509 177.038 15.7425 177.038 15.8525C177.038 15.9625 176.95 16.0505 176.84 16.0505Z" fill="black"/>
<path d="M179.488 10.0481C179.455 10.0481 179.422 10.0408 179.393 10.0224L176.155 8.26978C176.06 8.21844 176.023 8.09744 176.074 7.99844C176.126 7.90311 176.247 7.86644 176.346 7.91778L179.583 9.67044C179.679 9.72178 179.715 9.84278 179.664 9.94178C179.627 10.0078 179.558 10.0444 179.488 10.0444V10.0481Z" fill="black"/>
<path d="M202.79 16.0508C202.68 16.0508 202.592 15.9628 202.592 15.8528C202.592 15.7428 202.68 15.6548 202.79 15.6548H205.661C205.771 15.6548 205.859 15.7428 205.859 15.8528C205.859 15.9628 205.771 16.0508 205.661 16.0508H202.79Z" fill="black"/>
<path d="M200.142 10.0481C200.072 10.0481 200.003 10.0114 199.966 9.94544C199.915 9.85011 199.948 9.72911 200.047 9.67411L203.284 7.92144C203.38 7.87011 203.501 7.90311 203.556 8.00211C203.607 8.09744 203.574 8.21844 203.475 8.27344L200.237 10.0261C200.208 10.0408 200.175 10.0518 200.142 10.0518V10.0481Z" fill="black"/>
<path d="M136.115 69.5618H130.472C130.472 69.5618 128.492 83.8178 123.116 89.8164C118.023 95.4998 108.486 93.9414 108.486 93.9414C108.486 93.9414 108.486 93.9524 108.479 93.9708C104.79 92.9661 100.585 93.1861 97.7175 93.9414C93.2221 95.1294 89.9735 97.1938 89.9735 97.1938C89.9735 97.1938 83.0361 101.579 83.2011 109.943C83.3295 116.433 88.1988 124.162 88.1621 124.716C87.7331 130.912 87.2565 130.7 87.9018 132.907C89.4711 138.268 111.698 136.057 112.094 133.6C112.454 131.371 111.42 127.645 111.94 122.637C112.758 114.739 114.382 111.926 116.23 107.053C126.438 106.225 133.031 100.457 135.084 91.1951C137.204 81.6398 136.118 69.5581 136.118 69.5581L136.115 69.5618Z" fill="#0066EE"/>
<path d="M98.7955 136.416C93.4825 136.416 88.4555 135.522 87.7075 132.966C87.2821 131.51 87.3335 131.041 87.5351 129.296C87.6488 128.295 87.8065 126.92 87.9605 124.701C87.9458 124.584 87.6268 123.946 87.2895 123.271C85.9291 120.558 83.0985 114.919 82.9995 109.947C82.8345 101.565 89.7938 97.0657 89.8671 97.0217C89.9001 96.9997 93.1928 94.928 97.6661 93.7474C100.288 93.0543 104.479 92.6987 108.428 93.7474C108.457 93.74 108.486 93.7363 108.519 93.74C108.615 93.7547 118.005 95.214 122.966 89.681C128.239 83.796 130.252 69.6757 130.274 69.5327C130.288 69.4337 130.373 69.3604 130.472 69.3604H136.115C136.217 69.3604 136.305 69.441 136.316 69.5437C136.327 69.6647 137.38 81.7683 135.279 91.243C133.181 100.707 126.468 106.386 116.37 107.248C116.062 108.055 115.761 108.806 115.468 109.532C114.041 113.093 112.809 116.169 112.135 122.659C111.841 125.482 112.047 127.917 112.212 129.871C112.344 131.422 112.446 132.647 112.289 133.633C112.047 135.14 106.019 136.061 102.026 136.31C100.959 136.376 99.8698 136.413 98.7918 136.413L98.7955 136.416ZM103.126 93.5017C101.036 93.5017 99.1291 93.7803 97.7688 94.1397C93.3578 95.302 90.1165 97.3443 90.0835 97.3663C90.0138 97.4103 83.2451 101.792 83.4065 109.943C83.5018 114.823 86.3068 120.411 87.6525 123.095C88.2061 124.195 88.3785 124.555 88.3675 124.734C88.2135 126.96 88.0558 128.339 87.9421 129.347C87.7441 131.07 87.6965 131.481 88.0998 132.856C88.9358 135.705 96.1151 136.284 102.007 135.914C107.757 135.551 111.764 134.414 111.9 133.575C112.05 132.636 111.944 131.375 111.819 129.912C111.654 127.939 111.445 125.486 111.742 122.622C112.421 116.074 113.664 112.975 115.101 109.386C115.405 108.623 115.721 107.838 116.043 106.988C116.073 106.914 116.139 106.863 116.216 106.859C126.193 106.049 132.826 100.476 134.89 91.1587C136.833 82.3807 136.056 71.322 135.935 69.7674H130.651C130.402 71.421 128.305 84.3387 123.27 89.956C118.452 95.335 109.627 94.3084 108.563 94.1617C108.523 94.18 108.475 94.1837 108.428 94.1727C106.671 93.6924 104.838 93.509 103.129 93.509L103.126 93.5017Z" fill="black"/>
<path d="M206.478 213.714H107.955C104.897 213.714 102.565 210.912 103.052 207.829L124.242 74.2262C124.631 71.7696 126.706 69.9619 129.144 69.9619H227.668C230.726 69.9619 233.058 72.7632 232.57 75.8469L211.38 209.449C210.992 211.906 208.916 213.714 206.478 213.714Z" fill="white"/>
<path d="M206.478 213.915H107.955C106.462 213.915 105.043 213.255 104.061 212.108C103.049 210.92 102.609 209.35 102.854 207.796L124.044 74.1933C124.451 71.6229 126.596 69.7603 129.144 69.7603H227.668C229.16 69.7603 230.579 70.4203 231.562 71.5679C232.574 72.7559 233.014 74.3253 232.768 75.8799L211.578 209.482C211.171 212.049 209.026 213.915 206.478 213.915ZM129.141 70.1636C126.794 70.1636 124.814 71.8833 124.44 74.2556L103.25 207.858C103.023 209.295 103.43 210.747 104.365 211.844C105.271 212.903 106.576 213.512 107.951 213.512H206.474C208.821 213.512 210.801 211.792 211.175 209.42L232.365 75.8176C232.592 74.3803 232.185 72.9283 231.25 71.8319C230.344 70.7723 229.039 70.1636 227.664 70.1636H129.141Z" fill="black"/>
<path d="M203.347 213.365H104.823C101.765 213.365 99.4335 210.571 99.9211 207.488L121.111 74.1164C121.499 71.6634 123.575 69.8594 126.013 69.8594H224.536C227.594 69.8594 229.926 72.6534 229.439 75.737L208.249 209.108C207.86 211.561 205.785 213.365 203.347 213.365Z" fill="white"/>
<path d="M203.347 213.567H104.823C103.327 213.567 101.908 212.907 100.926 211.759C99.9137 210.575 99.4773 209.009 99.723 207.458L120.913 74.0868C121.32 71.5238 123.465 69.6611 126.013 69.6611H224.536C226.032 69.6611 227.451 70.3211 228.434 71.4688C229.446 72.6531 229.882 74.2188 229.637 75.7698L208.447 209.141C208.04 211.704 205.895 213.567 203.347 213.567ZM126.013 70.0681C123.666 70.0681 121.686 71.7878 121.312 74.1528L100.123 207.524C99.8953 208.958 100.299 210.406 101.234 211.499C102.139 212.558 103.448 213.167 104.823 213.167H203.347C205.693 213.167 207.673 211.447 208.047 209.082L229.237 75.7111C229.464 74.2775 229.061 72.8291 228.126 71.7365C227.22 70.6768 225.911 70.0681 224.536 70.0681H126.013Z" fill="black"/>
<path d="M187.235 82.2521H158.676C154.111 82.2521 150.642 78.0685 151.405 73.4851L152.072 69.4665C152.138 69.0595 152.486 68.7588 152.893 68.7588H196.882C197.396 68.7588 197.788 69.2318 197.704 69.7488L197.029 73.8225C196.222 78.6918 192.083 82.2558 187.239 82.2558L187.235 82.2521Z" fill="white"/>
<path d="M187.235 82.4538H158.676C156.472 82.4538 154.382 81.4785 152.941 79.7808C151.46 78.0355 150.825 75.7255 151.203 73.4521L151.87 69.4335C151.955 68.9275 152.384 68.5571 152.89 68.5571H196.879C197.179 68.5571 197.465 68.6891 197.663 68.9201C197.865 69.1585 197.949 69.4701 197.898 69.7781L197.223 73.8518C196.395 78.8348 192.196 82.4538 187.232 82.4538H187.235ZM152.893 68.9568C152.585 68.9568 152.325 69.1841 152.27 69.4958L151.603 73.5145C151.243 75.6741 151.845 77.8595 153.249 79.5168C154.613 81.1265 156.589 82.0468 158.676 82.0468H187.235C191.998 82.0468 196.032 78.5708 196.827 73.7821L197.502 69.7085C197.535 69.5178 197.48 69.3235 197.355 69.1768C197.234 69.0338 197.062 68.9531 196.879 68.9531H152.89L152.893 68.9568Z" fill="black"/>
<path d="M168.011 77.5555H180.206C180.668 77.5555 181.064 77.2511 181.138 76.7818L182.81 65.9175C183.481 61.5945 180.214 57.6748 175.931 57.6748C172.506 57.6748 169.591 60.2121 169.056 63.6698L167.08 76.4775C166.988 77.0641 167.428 77.5555 168.011 77.5555ZM173.001 64.3701L173.016 64.2895C173.247 62.8888 174.431 61.8621 175.821 61.8621C177.581 61.8621 178.919 63.4791 178.626 65.2538L178.611 65.3345C178.38 66.7351 177.196 67.7618 175.806 67.7618C174.046 67.7618 172.708 66.1448 173.001 64.3701Z" fill="white"/>
<path d="M180.206 77.7569H168.011C167.67 77.7569 167.347 77.6102 167.131 77.3572C166.918 77.1079 166.827 76.7742 166.878 76.4442L168.854 63.6366C169.408 60.0652 172.385 57.4692 175.931 57.4692C177.995 57.4692 179.957 58.3786 181.317 59.9662C182.725 61.6089 183.341 63.7869 183.008 65.9429L181.336 76.8072C181.248 77.3646 180.782 77.7496 180.206 77.7496V77.7569ZM175.935 57.8762C172.591 57.8762 169.782 60.3256 169.258 63.6989L167.281 76.5066C167.248 76.7266 167.303 76.9356 167.443 77.0969C167.582 77.2619 167.791 77.3536 168.015 77.3536H180.21C180.584 77.3536 180.885 77.1042 180.943 76.7522L182.615 65.8879C182.931 63.8492 182.348 61.7886 181.017 60.2339C179.733 58.7379 177.882 57.8762 175.935 57.8762ZM175.806 67.9632C174.923 67.9632 174.083 67.5709 173.504 66.8889C172.906 66.1849 172.649 65.2536 172.8 64.3332L172.814 64.2526C173.06 62.7492 174.325 61.6566 175.817 61.6566C176.701 61.6566 177.541 62.0489 178.12 62.7309C178.718 63.4349 178.974 64.3662 178.824 65.2866L178.809 65.3672C178.564 66.8742 177.299 67.9632 175.806 67.9632ZM173.199 64.4029C173.067 65.2059 173.291 66.0162 173.812 66.6322C174.314 67.2226 175.04 67.5636 175.806 67.5636C177.101 67.5636 178.197 66.6139 178.413 65.3049L178.428 65.2242C178.56 64.4212 178.336 63.6109 177.816 62.9949C177.313 62.4046 176.587 62.0636 175.821 62.0636C174.527 62.0636 173.43 63.0132 173.214 64.3222L173.199 64.4029Z" fill="black"/>
<path d="M177.321 162.596H173.188C172.66 162.596 172.162 162.365 171.817 161.958C171.461 161.544 171.307 160.994 171.395 160.451L179.935 106.379C180.078 105.477 180.833 104.824 181.732 104.824H185.864C186.392 104.824 186.891 105.055 187.235 105.462C187.591 105.877 187.745 106.427 187.657 106.969L179.117 161.042C178.974 161.944 178.219 162.596 177.321 162.596ZM180.331 106.445L171.791 160.517C171.725 160.943 171.846 161.375 172.121 161.698C172.389 162.013 172.778 162.193 173.188 162.193H177.321C178.017 162.193 178.608 161.683 178.718 160.976L187.257 106.903C187.323 106.478 187.202 106.045 186.927 105.723C186.66 105.407 186.271 105.228 185.86 105.228H181.728C181.028 105.228 180.441 105.737 180.331 106.445Z" fill="black"/>
<path d="M165.29 162.596H161.158C160.634 162.596 160.131 162.365 159.787 161.962C159.431 161.547 159.277 161.001 159.361 160.458L165.558 120.268C165.697 119.362 166.453 118.706 167.355 118.706H171.491C172.015 118.706 172.517 118.937 172.862 119.34C173.218 119.755 173.372 120.301 173.287 120.844L167.087 161.034C166.948 161.94 166.192 162.596 165.29 162.596ZM167.355 119.109C166.654 119.109 166.064 119.623 165.958 120.33L159.761 160.521C159.695 160.946 159.816 161.375 160.095 161.698C160.362 162.009 160.751 162.189 161.158 162.189H165.29C165.991 162.189 166.581 161.676 166.687 160.968L172.888 120.778C172.954 120.352 172.833 119.923 172.554 119.601C172.286 119.289 171.898 119.109 171.491 119.109H167.355Z" fill="black"/>
<path d="M153.264 162.596H149.131C148.607 162.596 148.105 162.365 147.76 161.962C147.404 161.548 147.25 161.001 147.335 160.459L151.958 130.674C152.098 129.769 152.853 129.112 153.755 129.112H157.887C158.412 129.112 158.914 129.343 159.259 129.747C159.614 130.161 159.768 130.707 159.684 131.25L155.057 161.034C154.917 161.94 154.162 162.596 153.26 162.596H153.264ZM152.358 130.737L147.734 160.521C147.668 160.946 147.789 161.375 148.068 161.702C148.336 162.017 148.724 162.197 149.131 162.197H153.264C153.964 162.197 154.551 161.683 154.661 160.976L159.288 131.191C159.354 130.766 159.233 130.337 158.954 130.011C158.687 129.695 158.298 129.516 157.891 129.516H153.759C153.058 129.516 152.472 130.029 152.362 130.737H152.358Z" fill="black"/>
<path d="M141.241 162.596H137.108C136.58 162.596 136.082 162.365 135.737 161.962C135.381 161.548 135.227 160.998 135.315 160.455L138.366 141.08C138.509 140.178 139.264 139.522 140.163 139.522H144.295C144.823 139.522 145.322 139.753 145.666 140.156C146.022 140.571 146.176 141.121 146.088 141.663L143.037 161.038C142.894 161.94 142.139 162.596 141.241 162.596ZM140.159 139.929C139.459 139.929 138.872 140.442 138.762 141.146L135.711 160.521C135.645 160.946 135.766 161.379 136.041 161.702C136.309 162.017 136.698 162.197 137.108 162.197H141.241C141.941 162.197 142.528 161.683 142.638 160.979L145.688 141.605C145.754 141.179 145.633 140.747 145.358 140.424C145.091 140.109 144.702 139.929 144.291 139.929H140.159Z" fill="black"/>
<path d="M129.192 162.596H125.052C124.532 162.596 124.033 162.369 123.688 161.969C123.333 161.562 123.175 161.02 123.252 160.481L124.785 149.668C124.913 148.762 125.687 148.08 126.585 148.08H130.725C131.245 148.08 131.744 148.307 132.089 148.707C132.444 149.114 132.602 149.657 132.525 150.196L130.992 161.009C130.864 161.914 130.09 162.593 129.192 162.593V162.596ZM125.184 149.726L123.652 160.539C123.593 160.961 123.718 161.386 123.993 161.705C124.26 162.013 124.645 162.193 125.052 162.193H129.192C129.892 162.193 130.494 161.661 130.593 160.954L132.125 150.141C132.184 149.719 132.059 149.294 131.784 148.975C131.517 148.667 131.132 148.487 130.725 148.487H126.585C125.885 148.487 125.283 149.019 125.184 149.726Z" fill="black"/>
<path d="M135.161 176.966C133.647 176.966 132.415 175.712 132.415 174.168C132.415 172.624 133.647 171.374 135.161 171.374C136.676 171.374 137.908 172.628 137.908 174.168C137.908 175.708 136.676 176.966 135.161 176.966ZM135.161 171.777C133.867 171.777 132.818 172.852 132.818 174.168C132.818 175.484 133.871 176.559 135.161 176.559C136.452 176.559 137.504 175.484 137.504 174.168C137.504 172.852 136.452 171.777 135.161 171.777Z" fill="black"/>
<path d="M132.987 187.658C131.473 187.658 130.241 186.404 130.241 184.864C130.241 183.324 131.473 182.07 132.987 182.07C134.501 182.07 135.733 183.324 135.733 184.864C135.733 186.404 134.501 187.658 132.987 187.658ZM132.987 182.469C131.693 182.469 130.644 183.544 130.644 184.86C130.644 186.176 131.696 187.251 132.987 187.251C134.278 187.251 135.33 186.176 135.33 184.86C135.33 183.544 134.278 182.469 132.987 182.469Z" fill="black"/>
<path d="M131.069 198.87C129.555 198.87 128.323 197.616 128.323 196.076C128.323 194.536 129.555 193.282 131.069 193.282C132.584 193.282 133.816 194.536 133.816 196.076C133.816 197.616 132.584 198.87 131.069 198.87ZM131.069 193.682C129.775 193.682 128.726 194.756 128.726 196.073C128.726 197.389 129.779 198.463 131.069 198.463C132.36 198.463 133.412 197.389 133.412 196.073C133.412 194.756 132.36 193.682 131.069 193.682Z" fill="black"/>
<path d="M169.837 174.37H142.583C142.473 174.37 142.381 174.278 142.381 174.168C142.381 174.058 142.473 173.966 142.583 173.966H169.837C169.947 173.966 170.039 174.058 170.039 174.168C170.039 174.278 169.947 174.37 169.837 174.37Z" fill="black"/>
<path d="M168.132 184.974H165.294C165.184 184.974 165.092 184.882 165.092 184.772C165.092 184.662 165.184 184.57 165.294 184.57H168.132C168.242 184.57 168.334 184.662 168.334 184.772C168.334 184.882 168.242 184.974 168.132 184.974Z" fill="white"/>
<path d="M160.113 184.974H140.878C140.768 184.974 140.676 184.882 140.676 184.772C140.676 184.662 140.768 184.57 140.878 184.57H160.113C160.223 184.57 160.315 184.662 160.315 184.772C160.315 184.882 160.223 184.974 160.113 184.974Z" fill="black"/>
<path d="M165.914 195.926H138.659C138.549 195.926 138.458 195.834 138.458 195.724C138.458 195.614 138.549 195.522 138.659 195.522H165.914C166.024 195.522 166.115 195.614 166.115 195.724C166.115 195.834 166.024 195.926 165.914 195.926Z" fill="black"/>
<path d="M125.148 125.204C125.148 125.204 129.222 125.145 131.352 124.218C133.482 123.294 133.449 124.896 132.844 125.461C132.357 125.919 129.412 127.558 126.776 127.749L125.148 125.2V125.204Z" fill="white"/>
<path d="M126.776 127.954C126.706 127.954 126.644 127.921 126.607 127.862L124.979 125.314C124.939 125.251 124.935 125.174 124.972 125.108C125.005 125.042 125.075 125.002 125.148 125.002C125.188 125.002 129.207 124.932 131.275 124.034C132.584 123.466 133.083 123.843 133.262 124.115C133.559 124.566 133.354 125.262 132.987 125.607C132.423 126.135 129.42 127.759 126.794 127.95C126.791 127.95 126.783 127.95 126.78 127.95L126.776 127.954ZM125.511 125.398L126.882 127.543C129.467 127.312 132.302 125.699 132.709 125.317C132.954 125.086 133.101 124.61 132.925 124.342C132.738 124.056 132.192 124.078 131.436 124.408C129.643 125.185 126.563 125.361 125.515 125.398H125.511Z" fill="black"/>
<path d="M119.204 123.679L121.224 119.686L123.098 120.775C123.201 120.833 123.289 120.918 123.355 121.02L123.472 121.204C123.619 121.431 123.879 121.567 124.15 121.548C124.297 121.541 124.444 121.574 124.572 121.647L138.516 129.736C138.63 129.802 138.736 129.883 138.832 129.978L141.714 132.875L137.871 132.204C137.662 132.167 137.457 132.105 137.262 132.013L122.676 125.277C122.552 125.219 122.445 125.131 122.368 125.017L122.35 124.988C122.2 124.771 121.95 124.643 121.69 124.658L121.558 124.665C121.437 124.672 121.316 124.647 121.206 124.595L119.208 123.671L119.204 123.679Z" fill="white"/>
<path d="M141.71 133.076C141.71 133.076 141.688 133.076 141.677 133.076L137.834 132.405C137.607 132.365 137.387 132.295 137.178 132.2L122.592 125.464C122.434 125.391 122.299 125.277 122.2 125.134L122.181 125.105C122.071 124.947 121.888 124.852 121.697 124.863L121.565 124.87C121.411 124.877 121.257 124.848 121.118 124.782L119.12 123.858C119.068 123.836 119.032 123.792 119.013 123.741C118.995 123.689 118.999 123.631 119.024 123.583L121.045 119.59C121.07 119.539 121.114 119.502 121.166 119.487C121.217 119.473 121.276 119.48 121.323 119.506L123.197 120.595C123.329 120.672 123.439 120.778 123.52 120.903L123.637 121.086C123.747 121.255 123.938 121.35 124.132 121.339C124.319 121.328 124.502 121.372 124.667 121.467L138.612 129.556C138.744 129.633 138.861 129.725 138.967 129.831L141.849 132.728C141.912 132.79 141.926 132.885 141.886 132.962C141.849 133.028 141.78 133.072 141.706 133.072L141.71 133.076ZM121.723 124.459C122.035 124.459 122.332 124.617 122.511 124.877L122.53 124.907C122.588 124.991 122.665 125.057 122.757 125.097L137.343 131.833C137.523 131.914 137.71 131.972 137.9 132.009L141.12 132.57L138.689 130.124C138.608 130.044 138.516 129.97 138.417 129.915L124.473 121.827C124.378 121.772 124.271 121.746 124.165 121.753C123.82 121.775 123.494 121.607 123.307 121.317L123.19 121.134C123.142 121.06 123.076 120.998 123.003 120.954L121.312 119.971L119.483 123.587L121.29 124.423C121.371 124.459 121.459 124.478 121.547 124.474L121.679 124.467C121.679 124.467 121.712 124.467 121.73 124.467L121.723 124.459Z" fill="black"/>
<path d="M138.12 131.276C138.095 131.276 138.065 131.269 138.04 131.258C137.937 131.214 137.893 131.093 137.937 130.99L138.469 129.784C138.513 129.681 138.634 129.637 138.733 129.681C138.835 129.725 138.879 129.846 138.835 129.949L138.304 131.155C138.271 131.232 138.197 131.276 138.12 131.276Z" fill="black"/>
<path d="M117.983 117.922L121.019 119.557C121.173 119.641 121.235 119.836 121.151 119.99L119.369 123.407C119.285 123.568 119.09 123.627 118.929 123.543L115.9 121.911C115.292 121.585 115.053 120.833 115.365 120.235L116.315 118.409C116.626 117.812 117.371 117.592 117.979 117.922H117.983Z" fill="black"/>
<path d="M119.083 123.785C118.999 123.785 118.915 123.763 118.834 123.722L115.805 122.091C115.101 121.713 114.826 120.837 115.186 120.144L116.135 118.318C116.308 117.984 116.601 117.742 116.964 117.632C117.334 117.518 117.73 117.559 118.075 117.746L121.111 119.381C121.364 119.517 121.459 119.832 121.327 120.085L119.545 123.502C119.479 123.627 119.369 123.719 119.234 123.763C119.182 123.777 119.131 123.785 119.08 123.785H119.083ZM117.386 117.969C117.283 117.969 117.184 117.984 117.085 118.013C116.828 118.09 116.619 118.266 116.498 118.501L115.549 120.327C115.288 120.826 115.49 121.456 116 121.731L119.028 123.363C119.058 123.378 119.091 123.381 119.12 123.37C119.149 123.359 119.175 123.341 119.193 123.312L120.975 119.894C121.005 119.836 120.983 119.762 120.924 119.729L117.888 118.094C117.73 118.01 117.558 117.966 117.386 117.966V117.969Z" fill="black"/>
<path d="M122.416 124.273C122.383 124.273 122.35 124.265 122.321 124.247C122.222 124.196 122.185 124.071 122.237 123.976L123.241 122.098C123.293 121.999 123.417 121.963 123.513 122.014C123.612 122.065 123.648 122.19 123.597 122.285L122.592 124.163C122.556 124.232 122.486 124.269 122.413 124.269L122.416 124.273Z" fill="black"/>
<path d="M128.957 125.706C128.924 125.706 128.891 125.699 128.858 125.68L124.7 123.348C124.601 123.293 124.568 123.172 124.623 123.073C124.678 122.978 124.799 122.941 124.898 122.996L129.056 125.328C129.155 125.383 129.188 125.504 129.133 125.603C129.097 125.669 129.027 125.706 128.957 125.706Z" fill="black"/>
<path d="M137.185 130.506C137.152 130.506 137.119 130.499 137.086 130.48L135.462 129.578C135.363 129.523 135.33 129.402 135.385 129.303C135.44 129.204 135.561 129.171 135.66 129.226L137.284 130.128C137.383 130.183 137.416 130.304 137.361 130.403C137.325 130.469 137.255 130.506 137.185 130.506Z" fill="black"/>
<path d="M118.782 122.362C118.749 122.362 118.716 122.355 118.687 122.337L116.37 121.064C116.271 121.009 116.238 120.888 116.289 120.789C116.344 120.69 116.465 120.657 116.564 120.709L118.881 121.981C118.98 122.036 119.013 122.157 118.962 122.256C118.925 122.322 118.856 122.362 118.786 122.362H118.782Z" fill="white"/>
<path d="M117.796 126.799C117.796 126.799 121.404 127.312 123.835 125.431C125.903 123.833 130.094 128.409 130.454 128.988C130.963 129.809 129.841 131.104 128.543 130.37C128.543 130.37 128.199 132.409 125.401 132.75C122.603 133.091 121.412 131.261 120.66 130.986C119.908 130.711 117.76 130.697 117.76 130.697L117.793 126.795L117.796 126.799Z" fill="white"/>
<path d="M124.719 132.999C122.999 132.999 121.954 132.178 121.236 131.613C120.979 131.411 120.759 131.239 120.594 131.177C119.883 130.916 117.782 130.902 117.76 130.902C117.705 130.902 117.653 130.88 117.617 130.843C117.58 130.807 117.558 130.755 117.558 130.7L117.591 126.799C117.591 126.74 117.617 126.685 117.661 126.649C117.705 126.612 117.763 126.594 117.822 126.601C117.859 126.605 121.375 127.078 123.707 125.274C124.143 124.936 124.693 124.823 125.335 124.94C127.572 125.343 130.333 128.423 130.619 128.885C130.89 129.325 130.802 129.904 130.391 130.33C130.047 130.689 129.405 130.964 128.664 130.66C128.459 131.247 127.733 132.673 125.419 132.955C125.17 132.984 124.935 132.999 124.708 132.999H124.719ZM117.969 130.502C118.53 130.513 120.092 130.564 120.733 130.799C120.961 130.88 121.192 131.063 121.485 131.294C122.244 131.892 123.395 132.794 125.379 132.552C127.982 132.233 128.331 130.414 128.345 130.337C128.356 130.271 128.4 130.216 128.459 130.19C128.518 130.161 128.587 130.165 128.646 130.198C129.28 130.554 129.816 130.356 130.109 130.051C130.34 129.809 130.483 129.421 130.281 129.098C130.039 128.709 127.359 125.714 125.265 125.336C124.734 125.241 124.305 125.325 123.956 125.593C121.811 127.25 118.841 127.107 117.994 127.026L117.965 130.502H117.969Z" fill="black"/>
<path d="M93.2955 97.8027C93.2955 97.8027 88.3565 99.8817 85.7495 108.341C84.3085 113.008 84.5725 119.667 91.6712 128.518C93.0902 130.289 95.0848 132.049 97.3362 132.302L118.911 132.511L118.816 125.603C118.816 125.603 102.085 123.429 99.5692 122.483C97.3435 121.647 94.1168 110.739 93.7795 105.389L93.2955 97.7954V97.8027Z" fill="#0066EE"/>
<path d="M118.911 132.717L97.3362 132.508C97.3362 132.508 97.3215 132.508 97.3142 132.508C94.8575 132.229 92.8042 130.256 91.5135 128.647C90.7472 127.693 90.0102 126.725 89.3208 125.776C89.2548 125.684 89.2768 125.559 89.3648 125.493C89.4565 125.427 89.5812 125.449 89.6472 125.537C90.3328 126.483 91.0662 127.444 91.8288 128.394C93.0682 129.941 95.0335 131.837 97.3508 132.104L118.709 132.313L118.618 125.787C116.737 125.541 101.898 123.579 99.4995 122.677C97.4975 121.926 95.1288 114.354 94.1572 109.477C94.1352 109.367 94.2048 109.261 94.3148 109.239C94.4248 109.217 94.5312 109.287 94.5532 109.397C95.6715 115.014 98.0328 121.695 99.6425 122.3C102.107 123.227 118.676 125.387 118.845 125.409C118.944 125.424 119.021 125.504 119.021 125.607L119.116 132.515C119.116 132.57 119.094 132.621 119.058 132.662C119.021 132.698 118.97 132.72 118.915 132.72L118.911 132.717Z" fill="black"/>
<path d="M137.252 70.3466C137.501 70.9993 137.996 72.763 137.186 73.94C136.46 74.9996 134.938 75.04 134.076 74.0903C133.625 73.5916 133.405 72.7776 133.064 71.63C132.899 71.0653 132.65 70.6766 132.379 70.3246C132.199 70.0973 131.928 69.9616 131.638 69.9616L129.071 69.9506C129.071 69.9506 129.09 68.9496 129.838 68.55C130.49 68.198 132.184 68.4876 132.316 68.2896C133.794 66.0676 136.243 67.714 137.255 70.3466H137.252Z" fill="white"/>
<path d="M135.594 74.9739C134.964 74.9739 134.362 74.7062 133.926 74.2296C133.471 73.7272 133.244 72.9572 132.932 71.8939L132.874 71.6886C132.705 71.1202 132.452 70.7462 132.221 70.4529C132.082 70.2732 131.865 70.1669 131.638 70.1669L129.071 70.1559C129.016 70.1559 128.965 70.1339 128.928 70.0936C128.892 70.0532 128.87 70.0019 128.87 69.9469C128.87 69.9029 128.903 68.8249 129.742 68.3739C130.16 68.1502 130.901 68.1576 131.495 68.1649C131.752 68.1649 132.063 68.1722 132.17 68.1466C132.855 67.1419 133.658 67.0026 134.216 67.0612C135.462 67.2006 136.757 68.4912 137.442 70.2769C137.593 70.6692 138.293 72.6896 137.354 74.0572C136.988 74.5926 136.401 74.9262 135.748 74.9702C135.697 74.9702 135.646 74.9739 135.598 74.9739H135.594ZM129.295 69.7489L131.638 69.7599C131.994 69.7599 132.32 69.9212 132.54 70.1999C132.793 70.5226 133.075 70.9406 133.262 71.5712L133.321 71.7766C133.618 72.7886 133.834 73.5219 134.227 73.9546C134.612 74.3799 135.158 74.6036 135.719 74.5632C136.247 74.5266 136.72 74.2589 137.017 73.8262C137.842 72.6236 137.2 70.7756 137.061 70.4162C136.438 68.7956 135.25 67.5782 134.168 67.4572C133.512 67.3839 132.943 67.6992 132.478 68.3959C132.364 68.5646 132.107 68.5682 131.484 68.5609C130.963 68.5536 130.256 68.5462 129.926 68.7222C129.482 68.9606 129.335 69.4592 129.288 69.7452L129.295 69.7489Z" fill="black"/>
<path d="M95.2571 198.2L93.6841 205.746L97.8018 206.912L100.079 199.564L95.2571 198.2Z" fill="white"/>
<path d="M97.8018 207.113C97.8018 207.113 97.7651 207.113 97.7468 207.106L93.6291 205.94C93.5264 205.91 93.4641 205.808 93.4861 205.705L95.0591 198.155C95.0701 198.1 95.1031 198.053 95.1508 198.023C95.1984 197.994 95.2571 197.987 95.3084 198.001L100.13 199.365C100.181 199.38 100.225 199.417 100.251 199.464C100.277 199.512 100.284 199.567 100.266 199.622L97.9888 206.97C97.9631 207.058 97.8824 207.113 97.7944 207.113H97.8018ZM93.9188 205.602L97.6661 206.662L99.8221 199.699L95.4074 198.449L93.9188 205.602Z" fill="black"/>
<path d="M92.3237 212.107C92.3714 212.833 93.2587 213.416 93.9774 213.526C96.4744 213.904 102.341 213.743 103.936 213.856C106.004 213.999 109.891 213.845 110.041 212.525C110.224 210.915 108.49 208.569 104.339 207.282C102.194 206.618 99.9211 203.322 98.9164 203.263C97.9117 203.205 96.1334 205.808 96.1334 205.808L93.2734 204.836C93.2734 204.836 92.0891 208.43 92.3237 212.115V212.107Z" fill="white"/>
<path d="M105.238 214.091C104.479 214.091 103.94 214.054 103.921 214.054C103.379 214.018 102.308 214.01 101.065 214.003C98.6268 213.988 95.5945 213.974 93.9445 213.724C93.1048 213.596 92.1735 212.921 92.1222 212.122C91.8875 208.441 93.0682 204.803 93.0792 204.767C93.0975 204.715 93.1342 204.675 93.1818 204.649C93.2295 204.624 93.2845 204.62 93.3358 204.638L96.0528 205.562C96.4562 204.99 97.9375 202.999 98.9275 203.058C99.4482 203.087 100.148 203.758 101.032 204.605C102.022 205.551 103.254 206.732 104.394 207.088C108.684 208.419 110.43 210.85 110.235 212.547C110.081 213.893 107.038 214.095 105.234 214.095L105.238 214.091ZM93.4018 205.089C93.1672 205.881 92.3238 208.976 92.5218 212.096C92.5585 212.694 93.3322 213.226 94.0032 213.328C95.6238 213.574 98.6415 213.589 101.065 213.603C102.312 213.611 103.39 213.618 103.947 213.655C106.25 213.812 109.718 213.559 109.836 212.503C110.015 210.916 108.164 208.679 104.273 207.476C103.038 207.095 101.769 205.878 100.75 204.902C99.9908 204.176 99.2722 203.487 98.8982 203.465C98.2455 203.428 96.9548 204.954 96.2948 205.922C96.2435 205.995 96.1482 206.028 96.0638 205.999L93.3982 205.093L93.4018 205.089Z" fill="black"/>
<path d="M106.316 212.129C105.77 212.129 105.168 212.096 104.534 212.063C103.592 212.016 102.62 211.964 101.659 212.008C99.4849 212.107 97.6259 212.023 96.4452 211.931C94.2636 211.766 94.1756 211.627 94.1426 211.576C94.1022 211.513 94.1022 211.436 94.1352 211.37C94.1902 211.271 94.3112 211.235 94.4102 211.29C94.7586 211.381 97.7909 211.781 101.637 211.605C102.616 211.561 103.599 211.612 104.549 211.66C105.99 211.733 107.35 211.807 108.138 211.469C108.241 211.425 108.358 211.473 108.402 211.576C108.446 211.678 108.399 211.796 108.296 211.84C107.779 212.06 107.101 212.126 106.309 212.126L106.316 212.129Z" fill="black"/>
<path d="M100.988 209.541C100.937 209.541 100.885 209.522 100.849 209.482C100.768 209.405 100.768 209.277 100.849 209.196L102.356 207.652C102.433 207.572 102.561 207.572 102.642 207.652C102.722 207.729 102.722 207.858 102.642 207.938L101.135 209.482C101.094 209.522 101.043 209.544 100.992 209.544L100.988 209.541Z" fill="black"/>
<path d="M72.9273 197.84L72.7183 203.106L76.3923 203.993L77.0486 197.877L72.9273 197.84Z" fill="white"/>
<path d="M76.3922 204.194C76.3922 204.194 76.3592 204.194 76.3445 204.187L72.6705 203.3C72.5788 203.278 72.5128 203.193 72.5165 203.094L72.7255 197.829C72.7292 197.719 72.8172 197.635 72.9272 197.635L77.0485 197.671C77.1035 197.671 77.1585 197.697 77.1988 197.737C77.2355 197.781 77.2538 197.836 77.2502 197.891L76.5938 204.007C76.5865 204.066 76.5572 204.117 76.5095 204.15C76.4765 204.176 76.4362 204.187 76.3922 204.187V204.194ZM72.9272 202.948L76.2162 203.743L76.8212 198.078L73.1178 198.045L72.9235 202.951L72.9272 202.948Z" fill="black"/>
<path d="M76.9531 213.563C75.4791 213.772 73.0775 213.86 70.2285 213.563C68.9525 213.427 68.4538 211.656 68.6775 210.739C69.3008 208.195 70.3861 204.092 72.2341 201.855L72.9125 203.219L73.5541 201.888C73.6421 201.73 73.7961 201.628 73.9721 201.602L75.3545 201.617C75.6441 201.58 75.9155 201.771 75.9741 202.06L76.1941 203.113L77.3711 201.752L78.2915 211.788C78.4051 212.646 77.8075 213.442 76.9531 213.563Z" fill="white"/>
<path d="M73.8108 213.959C72.7988 213.959 71.5924 213.907 70.2101 213.764C69.7188 213.713 69.2898 213.442 68.9671 212.983C68.4611 212.261 68.3401 211.286 68.4868 210.695C69.2348 207.645 70.3201 203.864 72.0838 201.73C72.1278 201.679 72.1938 201.65 72.2634 201.657C72.3331 201.664 72.3918 201.705 72.4211 201.767L72.9161 202.764L73.3781 201.804C73.5028 201.58 73.7154 201.437 73.9538 201.408C73.9611 201.408 73.9721 201.408 73.9794 201.408L75.3471 201.422C75.7358 201.382 76.0951 201.642 76.1758 202.024L76.3114 202.68L77.2244 201.628C77.2758 201.565 77.3601 201.543 77.4371 201.569C77.5141 201.595 77.5691 201.661 77.5764 201.741L78.4968 211.777C78.6214 212.738 77.9468 213.632 76.9861 213.768C76.4618 213.841 75.3728 213.962 73.8144 213.962L73.8108 213.959ZM72.1974 202.233C70.3898 204.631 69.3338 208.921 68.8754 210.791C68.7544 211.282 68.8608 212.136 69.2934 212.752C69.5501 213.119 69.8728 213.324 70.2504 213.365C72.6558 213.618 75.1491 213.618 76.9238 213.368C77.6644 213.262 78.1888 212.569 78.0898 211.821L77.2134 202.247L76.3444 203.248C76.2931 203.307 76.2161 203.329 76.1428 203.311C76.0694 203.292 76.0108 203.23 75.9961 203.157L75.7761 202.104C75.7394 201.921 75.5634 201.796 75.3801 201.822C75.3728 201.822 75.3618 201.822 75.3544 201.822L73.9904 201.807C73.8841 201.826 73.7888 201.892 73.7338 201.987L73.0994 203.307C73.0664 203.377 72.9968 203.421 72.9198 203.421C72.8501 203.417 72.7731 203.377 72.7364 203.307L72.2011 202.225L72.1974 202.233Z" fill="black"/>
<path d="M72.861 212.308C71.9186 212.308 70.8993 212.224 69.8836 211.993C69.7736 211.967 69.7076 211.861 69.7333 211.751C69.759 211.641 69.8653 211.575 69.9753 211.601C73.4403 212.393 77.063 211.373 77.0996 211.366C77.206 211.337 77.3196 211.399 77.349 211.505C77.3783 211.612 77.316 211.725 77.2096 211.755C77.0996 211.784 75.226 212.312 72.861 212.312V212.308Z" fill="black"/>
<path d="M72.0178 208.411C71.9078 208.411 71.8198 208.326 71.8162 208.216C71.8162 208.106 71.9005 208.011 72.0105 208.007L75.3215 207.897C75.4315 207.897 75.5268 207.982 75.5305 208.092C75.5305 208.202 75.4462 208.297 75.3362 208.301L72.0252 208.411C72.0252 208.411 72.0215 208.411 72.0178 208.411Z" fill="black"/>
<path d="M111.735 134.777C113.129 142.935 115.662 162.988 110.192 177.985C105.484 190.892 102.121 197.323 100.831 199.655C100.479 200.293 99.7709 200.649 99.0522 200.557L95.6972 200.124C94.7035 199.996 94.0105 199.068 94.1682 198.078C95.3929 190.397 100.255 153.015 98.9605 149.561L78.1155 198.562C77.8919 199.083 77.3749 199.417 76.8102 199.409L73.2902 199.369C72.5055 199.362 71.8822 198.709 71.9005 197.921C72.9419 158.258 84.5505 151.878 87.9532 132.918C87.9605 132.874 89.0679 134.205 89.1082 134.231C92.5145 136.203 94.2195 136.049 99.4445 136.335C105.099 136.643 110.349 134.513 111.585 134.568C111.68 134.572 111.717 134.682 111.735 134.777Z" fill="black"/>
<path d="M105.505 96.7869L106.47 91.8479C106.539 91.5143 106.811 91.2649 107.148 91.2283L109.084 91.0083C109.498 90.9606 109.828 90.6453 109.894 90.2309L110.334 87.4773C110.334 87.4773 110.334 87.4699 110.342 87.4663L111.262 86.9676C111.445 86.8686 111.515 86.6413 111.42 86.4543L110.452 84.5586C110.265 84.1883 110.004 82.1056 109.59 82.1239C109.59 82.1239 102.62 79.6966 100.57 82.5896C100.027 83.3559 99.965 84.3679 100.335 85.2333L100.805 86.3369C101.292 87.4846 101.402 88.7753 101.028 89.9633C100.896 90.3886 100.709 90.7956 100.471 91.1806L97.853 95.2653C99.756 96.2223 101.85 96.7319 103.976 96.7649L105.509 96.7869H105.505Z" fill="white"/>
<path d="M105.505 96.9887L103.973 96.9667C101.828 96.9337 99.6791 96.4094 97.7615 95.4451C97.7101 95.4194 97.6735 95.3717 97.6588 95.3167C97.6441 95.2617 97.6515 95.2031 97.6845 95.1554L100.302 91.0707C100.53 90.7077 100.709 90.3117 100.838 89.9011C101.182 88.7974 101.105 87.5581 100.621 86.4141L100.152 85.3104C99.7451 84.3571 99.8441 83.2681 100.409 82.4724C102.473 79.5574 109.062 81.7281 109.63 81.9224C110.012 81.9554 110.191 82.6264 110.437 83.7081C110.51 84.0307 110.584 84.3644 110.635 84.4634L111.603 86.3591C111.746 86.6414 111.64 86.9897 111.361 87.1401L110.521 87.5947L110.096 90.2604C110.015 90.7591 109.612 91.1477 109.11 91.2064L107.174 91.4264C106.924 91.4557 106.719 91.6391 106.668 91.8884L105.703 96.8274C105.685 96.9227 105.601 96.9887 105.505 96.9887ZM98.1391 95.1811C99.9505 96.0537 101.963 96.5304 103.976 96.5597L105.34 96.5817L106.272 91.8077C106.36 91.3861 106.701 91.0744 107.126 91.0231L109.062 90.8031C109.385 90.7664 109.645 90.5171 109.696 90.1944L110.136 87.4371C110.147 87.3747 110.191 87.3124 110.246 87.2794L111.167 86.7807C111.251 86.7331 111.288 86.6231 111.24 86.5387L110.272 84.6431C110.202 84.5037 110.136 84.2287 110.037 83.7924C109.938 83.3561 109.737 82.4541 109.572 82.3184C109.553 82.3184 109.539 82.3147 109.52 82.3074C109.451 82.2854 102.667 79.9644 100.731 82.6997C100.247 83.3817 100.167 84.3204 100.515 85.1491L100.984 86.2527C101.509 87.4847 101.589 88.8231 101.215 90.0184C101.076 90.4621 100.882 90.8874 100.636 91.2834L98.1355 95.1811H98.1391Z" fill="black"/>
<path d="M104.152 85.1929C103.793 84.3019 103.236 83.9682 103.338 83.4659C103.401 83.1616 103.665 82.9709 103.815 82.8609C104.559 82.3182 105.542 82.6519 107.511 83.0222C109.957 83.4842 110.235 83.5539 110.697 83.3742C111.871 82.9122 112.538 81.4676 112.589 80.2796C112.604 79.9459 112.633 78.1786 111.134 77.2656C110.048 76.6056 108.6 76.6569 107.427 77.3866C107.324 77.0419 107.111 76.5579 106.646 76.3232C105.542 75.7586 103.896 77.0236 103.316 77.4672C102.785 77.8779 101.835 78.7322 101.153 80.2356C100.937 80.1146 100.119 79.6892 99.2281 79.9752C97.9044 80.3969 97.5817 82.0139 97.5524 82.1679C97.2224 83.9536 98.6891 85.5119 99.8001 86.6889C100.412 87.3379 100.731 87.5836 101.091 87.8256C101.303 87.9686 101.578 87.9759 101.798 87.8549C101.802 87.8549 101.806 87.8512 101.809 87.8476C102.103 87.6862 102.202 87.3086 102.026 87.0262L101.971 86.9346C101.758 86.5936 101.615 86.2122 101.571 85.8126C101.534 85.4936 101.56 85.1599 101.765 84.9876C102.095 84.7089 102.66 84.8922 102.741 84.9179C103.151 85.0536 103.412 85.3579 103.569 85.6476C103.742 85.9592 104.31 85.5889 104.152 85.1929Z" fill="black"/>
<path d="M85.137 78.2848C85.0674 78.2848 84.9977 78.2811 84.928 78.2701C84.0517 78.1565 83.421 77.3608 83.5164 76.4955C83.564 76.0775 83.773 75.7035 84.103 75.4431C84.4404 75.1791 84.862 75.0655 85.291 75.1205C86.1674 75.2341 86.798 76.0298 86.7027 76.8951C86.655 77.3131 86.446 77.6871 86.116 77.9475C85.8337 78.1675 85.4927 78.2848 85.137 78.2848ZM83.9197 76.5395C83.8464 77.1885 84.323 77.7861 84.9794 77.8705C85.2984 77.9108 85.6137 77.8265 85.8667 77.6285C86.1124 77.4378 86.2664 77.1591 86.2994 76.8511C86.3727 76.2021 85.896 75.6045 85.2397 75.5201C84.9207 75.4798 84.6054 75.5641 84.3524 75.7621C84.1067 75.9528 83.9527 76.2315 83.9197 76.5395Z" fill="black"/>
<path d="M79.0504 81.2545C79.0137 81.2545 78.9807 81.2472 78.9477 81.2252L77.602 80.4295C77.5067 80.3745 77.4737 80.2499 77.5324 80.1545C77.5874 80.0592 77.712 80.0262 77.8074 80.0849L79.153 80.8805C79.2484 80.9355 79.2814 81.0602 79.2227 81.1555C79.186 81.2179 79.1164 81.2545 79.0504 81.2545Z" fill="black"/>
<path d="M82.1817 83.1066C82.1451 83.1066 82.1121 83.0993 82.0791 83.0773L80.7334 82.2816C80.6381 82.2266 80.6051 82.1019 80.6637 82.0066C80.7187 81.9113 80.8434 81.8783 80.9387 81.9369L82.2844 82.7326C82.3797 82.7876 82.4127 82.9123 82.3541 83.0076C82.3174 83.0699 82.2477 83.1066 82.1817 83.1066Z" fill="black"/>
<path d="M78.6178 84.0228C78.5811 84.0228 78.5481 84.0155 78.5151 83.9935C78.4198 83.9385 78.3868 83.8138 78.4455 83.7185L79.2411 82.3728C79.2998 82.2775 79.4208 82.2445 79.5161 82.3031C79.6115 82.3581 79.6445 82.4828 79.5858 82.5781L78.7901 83.9238C78.7535 83.9861 78.6838 84.0228 78.6178 84.0228Z" fill="black"/>
<path d="M80.473 80.888C80.4364 80.888 80.4034 80.8807 80.3704 80.8587C80.275 80.8037 80.242 80.679 80.3007 80.5837L81.0964 79.238C81.1514 79.1427 81.276 79.1097 81.3714 79.1684C81.4667 79.2234 81.4997 79.348 81.441 79.4434L80.6454 80.789C80.6087 80.8514 80.539 80.888 80.473 80.888Z" fill="black"/>
<path d="M130.846 92.394L126.306 102.906L130.321 101.583L132.536 105.191L135.26 93.9597L130.846 92.394Z" fill="white"/>
<path d="M132.536 105.293C132.499 105.293 132.466 105.275 132.448 105.246L130.274 101.707L126.336 103.005C126.295 103.016 126.255 103.005 126.226 102.976C126.2 102.947 126.193 102.903 126.207 102.866L130.747 92.35C130.769 92.2986 130.824 92.2766 130.875 92.295L135.29 93.8606C135.341 93.879 135.367 93.9303 135.356 93.9816L132.631 105.213C132.62 105.253 132.587 105.282 132.547 105.29C132.543 105.29 132.536 105.29 132.532 105.29L132.536 105.293ZM130.321 101.48C130.358 101.48 130.391 101.498 130.409 101.528L132.496 104.927L135.139 94.0256L130.904 92.5223L126.493 102.738L130.288 101.484C130.288 101.484 130.31 101.48 130.321 101.48Z" fill="black"/>
<path d="M134.846 94.3481L137.952 105.374L140.233 101.81L144.226 103.214L139.257 92.7788L134.846 94.3481Z" fill="white"/>
<path d="M137.952 105.477C137.952 105.477 137.941 105.477 137.937 105.477C137.897 105.469 137.864 105.44 137.853 105.403L134.747 94.3777C134.733 94.3263 134.762 94.2713 134.813 94.253L139.224 92.6837C139.276 92.6653 139.331 92.6873 139.353 92.735L144.321 103.17C144.339 103.207 144.332 103.255 144.306 103.284C144.277 103.313 144.233 103.328 144.196 103.313L140.28 101.938L138.044 105.433C138.025 105.462 137.992 105.48 137.956 105.48L137.952 105.477ZM134.971 94.4143L137.989 105.125L140.145 101.755C140.17 101.715 140.222 101.696 140.266 101.715L144.028 103.035L139.206 92.9073L134.971 94.4143Z" fill="black"/>
<path d="M143.873 89.7028L142.634 91.2098L143.206 93.0725L141.483 93.9855L141.299 95.9252L139.356 96.1122L138.447 97.8355L136.58 97.2635L135.077 98.5028L133.574 97.2635L131.711 97.8355L130.798 96.1122L128.858 95.9252L128.671 93.9855L126.948 93.0725L127.52 91.2098L126.281 89.7028L127.52 88.1995L126.948 86.3332L128.671 85.4202L128.858 83.4805L130.798 83.2935L131.711 81.5702L133.574 82.1422L135.077 80.9028L136.58 82.1422L138.447 81.5702L139.356 83.2935L141.299 83.4805L141.483 85.4202L143.206 86.3332L142.634 88.1995L143.873 89.7028Z" fill="black"/>
<path d="M135.026 95.9911C138.466 95.9911 141.255 93.2003 141.255 89.7577C141.255 86.3152 138.466 83.5244 135.026 83.5244C131.585 83.5244 128.796 86.3152 128.796 89.7577C128.796 93.2003 131.585 95.9911 135.026 95.9911Z" fill="white"/>
<path d="M135.026 96.0939C131.535 96.0939 128.693 93.2522 128.693 89.7579C128.693 86.2635 131.535 83.4219 135.026 83.4219C138.516 83.4219 141.358 86.2635 141.358 89.7579C141.358 93.2522 138.516 96.0939 135.026 96.0939ZM135.026 83.6272C131.649 83.6272 128.899 86.3772 128.899 89.7542C128.899 93.1312 131.645 95.8812 135.026 95.8812C138.406 95.8812 141.153 93.1312 141.153 89.7542C141.153 86.3772 138.406 83.6272 135.026 83.6272Z" fill="black"/>
<path d="M134.718 92.9111C134.633 92.9111 134.553 92.8781 134.494 92.8157L132.103 90.3297C131.986 90.2051 131.99 90.0107 132.111 89.8897C132.235 89.7724 132.43 89.7761 132.551 89.8971L134.681 92.1081L137.743 87.6567C137.838 87.5137 138.032 87.4807 138.175 87.5761C138.318 87.6714 138.351 87.8657 138.256 88.0087L134.982 92.7754C134.93 92.8524 134.846 92.9001 134.751 92.9074C134.743 92.9074 134.732 92.9074 134.725 92.9074L134.718 92.9111Z" fill="black"/>
<path d="M171.857 92.1559L169.683 91.6096L168.964 89.6149C168.81 89.1859 168.194 89.1199 167.919 89.5013L166.651 91.2759L164.388 91.3346C163.901 91.3456 163.629 91.8736 163.93 92.2293L165.323 93.8719L164.641 95.8996C164.495 96.3359 164.942 96.7283 165.4 96.5669L167.531 95.8079L169.371 97.0033C169.767 97.2599 170.317 96.9776 170.299 96.5229L170.222 94.4109L172.044 93.1202C172.437 92.8416 172.327 92.2733 171.857 92.1559Z" fill="black"/>
<path d="M181.717 91.1657L179.543 90.7147L178.784 88.7457C178.619 88.324 178.006 88.2837 177.742 88.6797L176.525 90.5204L174.277 90.6817C173.793 90.7147 173.537 91.261 173.845 91.602L175.267 93.1897L174.637 95.2577C174.501 95.7014 174.956 96.079 175.407 95.892L177.504 95.0304L179.363 96.1487C179.763 96.3907 180.302 96.079 180.272 95.6207L180.144 93.5014L181.922 92.1227C182.304 91.8257 182.183 91.2574 181.713 91.162L181.717 91.1657Z" fill="black"/>
<path d="M191.962 91.184L189.846 90.6524L189.212 88.6284C189.076 88.192 188.471 88.1297 188.193 88.522L186.887 90.3444L184.662 90.4287C184.185 90.447 183.899 90.9897 184.181 91.3454L185.49 93.0027L184.75 95.078C184.592 95.5254 185.017 95.9214 185.472 95.749L187.588 94.9497L189.355 96.1487C189.736 96.4054 190.283 96.1084 190.283 95.6464V93.494L192.112 92.1594C192.505 91.8734 192.417 91.294 191.962 91.1767V91.184Z" fill="black"/>
<path d="M201.862 91.1655L199.724 90.7219L199.005 88.7272C198.851 88.2982 198.246 88.2615 197.982 88.6649L196.754 90.5422L194.536 90.7219C194.059 90.7585 193.799 91.3122 194.096 91.6569L195.474 93.2592L194.822 95.3639C194.682 95.8149 195.126 96.1962 195.573 96.0055L197.652 95.1182L199.467 96.2402C199.856 96.4822 200.391 96.1632 200.373 95.7012L200.281 93.5525L202.056 92.1409C202.437 91.8365 202.324 91.2609 201.865 91.1655H201.862Z" fill="black"/>
<path d="M211.758 91.0742L209.62 90.6306L208.902 88.6359C208.748 88.2069 208.143 88.1702 207.879 88.5736L206.65 90.4509L204.432 90.6306C203.955 90.6672 203.695 91.2209 203.992 91.5656L205.371 93.1679L204.718 95.2726C204.579 95.7236 205.022 96.1049 205.47 95.9142L207.549 95.0269L209.364 96.1489C209.752 96.3909 210.288 96.0719 210.269 95.6099L210.178 93.4612L211.952 92.0496C212.334 91.7452 212.22 91.1696 211.762 91.0742H211.758Z" fill="black"/>
<path d="M204.011 140.585C203.67 139.72 203.78 138.594 204.113 137.336L204.938 138.103L206.075 137.186C205.58 138.667 205.294 139.991 205.903 140.611L204.007 140.581L204.011 140.585Z" fill="white"/>
<path d="M205.906 140.695L204.011 140.666C203.978 140.666 203.948 140.644 203.934 140.615C203.622 139.819 203.655 138.741 204.033 137.315C204.04 137.285 204.062 137.263 204.091 137.256C204.121 137.249 204.15 137.256 204.172 137.274L204.946 137.993L206.027 137.124C206.057 137.102 206.097 137.098 206.126 137.124C206.156 137.146 206.17 137.183 206.159 137.219C205.727 138.525 205.364 139.944 205.969 140.563C205.991 140.589 205.998 140.622 205.987 140.655C205.972 140.684 205.943 140.706 205.91 140.706L205.906 140.695ZM204.069 140.505L205.73 140.53C205.261 139.856 205.518 138.664 205.914 137.428L204.993 138.169C204.96 138.195 204.916 138.195 204.887 138.165L204.161 137.491C203.831 138.785 203.802 139.771 204.069 140.505Z" fill="black"/>
<path d="M206.511 158.504H202.698C202.038 158.504 201.502 157.972 201.499 157.316L201.352 141.065C201.345 140.398 201.884 139.855 202.551 139.855H206.837C207.508 139.855 208.051 140.409 208.036 141.08L207.706 157.331C207.692 157.983 207.16 158.508 206.507 158.508L206.511 158.504Z" fill="black"/>
<path d="M206.409 154.984H202.716C202.441 154.984 202.218 154.76 202.218 154.485C202.218 154.21 202.441 153.987 202.716 153.987H206.409C206.684 153.987 206.907 154.21 206.907 154.485C206.907 154.76 206.684 154.984 206.409 154.984Z" fill="white"/>
<path d="M205.979 155.505H203.237C202.7 155.505 202.265 155.94 202.265 156.477V156.48C202.265 157.017 202.7 157.452 203.237 157.452H205.979C206.516 157.452 206.951 157.017 206.951 156.48V156.477C206.951 155.94 206.516 155.505 205.979 155.505Z" fill="white"/>
<path d="M218.915 158.552H215.102C214.442 158.552 213.907 158.02 213.903 157.364L213.756 141.113C213.749 140.446 214.288 139.903 214.955 139.903H219.242C219.913 139.903 220.455 140.457 220.441 141.128L220.111 157.379C220.096 158.031 219.564 158.556 218.912 158.556L218.915 158.552Z" fill="black"/>
<path d="M217.98 141.036H216.096C215.322 141.036 214.695 141.662 214.695 142.435C214.695 143.208 215.322 143.834 216.096 143.834H217.98C218.754 143.834 219.381 143.208 219.381 142.435C219.381 141.662 218.754 141.036 217.98 141.036Z" fill="white"/>
<path d="M218.93 144.589H215.337C215.035 144.589 214.791 144.834 214.791 145.136C214.791 145.437 215.035 145.682 215.337 145.682H218.93C219.232 145.682 219.477 145.437 219.477 145.136C219.477 144.834 219.232 144.589 218.93 144.589Z" fill="white"/>
<path d="M219.073 146.815H215.098C214.9 146.815 214.743 146.654 214.743 146.459C214.743 146.265 214.904 146.104 215.098 146.104H219.073C219.271 146.104 219.429 146.265 219.429 146.459C219.429 146.654 219.267 146.815 219.073 146.815Z" fill="white"/>
<path d="M212.345 158.647H209.261C208.729 158.647 208.297 158.116 208.289 157.459L208.172 141.209C208.168 140.541 208.605 139.999 209.144 139.999H212.612C213.155 139.999 213.595 140.552 213.584 141.223L213.316 157.474C213.305 158.127 212.873 158.651 212.345 158.651V158.647Z" fill="black"/>
<path d="M212.143 141.131H209.496C209.099 141.131 208.777 141.453 208.777 141.85C208.777 142.247 209.099 142.569 209.496 142.569H212.143C212.54 142.569 212.862 142.247 212.862 141.85C212.862 141.453 212.54 141.131 212.143 141.131Z" fill="white"/>
<path d="M212.378 144.116H209.327C209.041 144.116 208.81 143.885 208.81 143.599C208.81 143.313 209.041 143.082 209.327 143.082H212.378C212.664 143.082 212.895 143.313 212.895 143.599C212.895 143.885 212.664 144.116 212.378 144.116Z" fill="white"/>
<path d="M211.351 220.361H216.8V159.582H211.351V220.361Z" fill="white"/>
<path d="M211.105 220.357V159.579C211.105 159.443 211.215 159.333 211.351 159.333H216.8C216.935 159.333 217.045 159.443 217.045 159.579V220.357C217.045 220.493 216.935 220.603 216.8 220.603H211.351C211.215 220.603 211.105 220.493 211.105 220.357ZM216.554 159.828H211.6V220.112H216.554V159.828Z" fill="black"/>
<path d="M190.711 220.357H237.029C238.244 220.357 239.229 219.372 239.229 218.157C239.229 216.942 238.244 215.957 237.029 215.957H190.711C189.496 215.957 188.511 216.942 188.511 218.157C188.511 219.372 189.496 220.357 190.711 220.357Z" fill="white"/>
<path d="M188.262 218.253V218.058C188.262 216.76 189.318 215.708 190.613 215.708H237.121C238.419 215.708 239.471 216.764 239.471 218.058V218.253C239.471 219.551 238.415 220.603 237.121 220.603H190.613C189.315 220.603 188.262 219.547 188.262 218.253ZM190.616 216.203C189.593 216.203 188.761 217.035 188.761 218.062V218.256C188.761 219.279 189.593 220.112 190.616 220.112H237.124C238.147 220.112 238.983 219.279 238.983 218.256V218.062C238.983 217.039 238.151 216.203 237.124 216.203H190.616Z" fill="black"/>
<path d="M201.297 162.512H226.861C228.019 162.512 228.958 161.574 228.958 160.416C228.958 159.259 228.019 158.321 226.861 158.321H201.297C200.139 158.321 199.2 159.259 199.2 160.416C199.2 161.574 200.139 162.512 201.297 162.512Z" fill="white"/>
<path d="M198.95 160.51V160.327C198.95 159.084 199.959 158.075 201.202 158.075H226.953C228.196 158.075 229.204 159.084 229.204 160.327V160.51C229.204 161.753 228.196 162.761 226.953 162.761H201.202C199.959 162.761 198.95 161.753 198.95 160.51ZM201.202 158.57C200.234 158.57 199.445 159.359 199.445 160.327V160.51C199.445 161.478 200.234 162.266 201.202 162.266H226.953C227.921 162.266 228.709 161.478 228.709 160.51V160.327C228.709 159.359 227.921 158.57 226.953 158.57H201.202Z" fill="black"/>
<path d="M232.93 180.288C231.452 187.064 237.315 205.596 238.547 210.113C238.708 210.703 239.247 211.114 239.867 211.114H245.33C246.089 211.114 246.705 210.501 246.698 209.746C246.647 204.389 245.675 184.849 249.015 179.225C250.951 175.969 252.381 174.865 254.75 173.318C260.437 169.6 256.129 159.014 256.129 159.014L238.932 173.743C235.958 174.187 233.571 177.369 232.933 180.288H232.93Z" fill="black"/>
<path d="M241.077 163.125C241.077 163.125 222.329 163.293 216.419 170.337C211.106 176.669 218.982 204.536 220.632 210.117C220.804 210.696 221.336 211.092 221.944 211.092H228.988C229.135 211.092 229.256 210.971 229.256 210.824V181.293C229.256 179.434 229.619 180.431 231.195 179.423C233.403 178.011 240.619 179.482 246.133 179.522C263.656 179.65 258.886 161.775 258.886 161.775L241.081 163.128L241.077 163.125Z" fill="black"/>
<path d="M245.378 211.143L245.748 215.924L241.367 215.946L240.461 211.176L245.378 211.143Z" fill="white"/>
<path d="M241.125 215.994L240.219 211.224C240.204 211.15 240.223 211.077 240.27 211.022C240.318 210.967 240.388 210.934 240.461 210.93L245.378 210.897C245.506 210.897 245.616 210.996 245.624 211.125L245.99 215.906C245.994 215.976 245.972 216.042 245.924 216.093C245.877 216.144 245.814 216.174 245.745 216.174L241.367 216.196C241.249 216.196 241.147 216.111 241.125 215.994ZM245.151 211.392L240.762 211.422L241.572 215.701L245.481 215.682L245.151 211.396V211.392Z" fill="black"/>
<path d="M228.064 211.143L227.994 215.924L223.481 215.946L222.678 211.176L228.064 211.143Z" fill="white"/>
<path d="M223.235 215.987L222.432 211.216C222.421 211.147 222.439 211.073 222.487 211.015C222.535 210.96 222.601 210.927 222.674 210.927L228.06 210.894C228.13 210.886 228.192 210.919 228.236 210.967C228.284 211.015 228.31 211.077 228.31 211.143L228.244 215.924C228.244 216.06 228.134 216.166 227.998 216.166L223.484 216.188C223.363 216.188 223.261 216.1 223.242 215.983L223.235 215.987ZM227.811 211.392L222.967 211.422L223.686 215.701L227.749 215.682L227.807 211.396L227.811 211.392Z" fill="black"/>
<path d="M223.547 215.338H227.745C228.042 215.338 228.31 215.514 228.423 215.789C228.797 216.687 229.553 218.788 229.454 220.783C229.424 221.329 228.97 221.755 228.42 221.755H216.096C215.528 221.755 215.099 221.241 215.212 220.688C215.348 220.028 215.817 219.159 217.167 218.378C219.356 217.113 222.106 215.851 222.971 215.459C223.151 215.378 223.345 215.334 223.543 215.334L223.547 215.338Z" fill="white"/>
<path d="M215.201 221.575C214.985 221.311 214.901 220.97 214.97 220.636C215.106 219.976 215.575 219.012 217.046 218.161C219.257 216.885 222.065 215.595 222.872 215.232C223.085 215.136 223.312 215.085 223.547 215.085H227.745C228.145 215.085 228.5 215.323 228.654 215.69C229.006 216.537 229.806 218.726 229.703 220.79C229.67 221.465 229.105 221.997 228.423 221.997H216.1C215.751 221.997 215.425 221.843 215.205 221.571L215.201 221.575ZM223.547 215.584C223.382 215.584 223.224 215.617 223.077 215.686C222.274 216.049 219.488 217.329 217.295 218.594C216.257 219.192 215.623 219.936 215.458 220.739C215.421 220.926 215.469 221.117 215.59 221.267C215.715 221.421 215.902 221.509 216.1 221.509H228.423C228.841 221.509 229.19 221.186 229.208 220.772C229.307 218.807 228.533 216.698 228.196 215.884C228.123 215.705 227.943 215.587 227.745 215.587H223.547V215.584Z" fill="black"/>
<path d="M241.517 214.821H245.715C246.012 214.821 246.28 214.997 246.394 215.272C246.768 216.17 247.523 218.271 247.424 220.266C247.395 220.812 246.94 221.238 246.39 221.238H234.066C233.498 221.238 233.069 220.724 233.183 220.171C233.318 219.511 233.788 218.642 235.137 217.861C237.326 216.596 240.076 215.334 240.941 214.942C241.121 214.861 241.315 214.817 241.513 214.817L241.517 214.821Z" fill="white"/>
<path d="M233.175 221.058C232.959 220.794 232.875 220.453 232.944 220.119C233.08 219.459 233.549 218.495 235.02 217.644C237.231 216.368 240.039 215.078 240.846 214.715C241.059 214.619 241.286 214.568 241.521 214.568H245.719C246.119 214.568 246.474 214.806 246.628 215.173C246.98 216.016 247.78 218.205 247.677 220.273C247.644 220.948 247.079 221.48 246.397 221.48H234.074C233.725 221.48 233.399 221.326 233.179 221.054L233.175 221.058ZM241.517 215.067C241.352 215.067 241.194 215.1 241.048 215.169C240.245 215.532 237.458 216.812 235.265 218.077C234.228 218.675 233.593 219.419 233.428 220.222C233.392 220.409 233.439 220.6 233.56 220.75C233.685 220.904 233.872 220.992 234.07 220.992H246.394C246.812 220.992 247.16 220.669 247.178 220.255C247.277 218.29 246.504 216.181 246.166 215.367C246.093 215.188 245.913 215.07 245.715 215.07H241.517V215.067Z" fill="black"/>
<path d="M223.77 153.924L221.548 153.095C220.606 152.743 219.576 152.755 218.644 153.136C217.482 153.613 215.905 154.383 214.824 155.406C214.552 155.662 214.717 156.131 215.084 156.131H223.668L223.77 153.924Z" fill="white"/>
<path d="M214.494 155.974C214.391 155.714 214.453 155.42 214.655 155.23C215.77 154.174 217.387 153.385 218.553 152.909C219.539 152.505 220.632 152.491 221.636 152.865L223.858 153.693C223.957 153.73 224.023 153.829 224.02 153.935L223.917 156.143C223.91 156.275 223.803 156.377 223.671 156.377H215.088C214.824 156.377 214.596 156.22 214.494 155.97V155.974ZM223.517 154.093L221.464 153.327C220.577 152.997 219.609 153.008 218.74 153.363C217.618 153.825 216.056 154.581 214.996 155.585C214.93 155.648 214.93 155.732 214.952 155.791C214.967 155.827 215.003 155.886 215.084 155.886H223.429L223.514 154.093H223.517Z" fill="black"/>
<path d="M223.601 153.151C225.702 152.612 233.725 150.485 235.588 148.85C237.736 146.961 238.473 139.544 241.836 136.651C245.561 133.442 249.605 134.003 249.605 134.003L255.897 134.359C255.897 134.359 255.89 134.377 255.886 134.385C261.83 135.422 261.588 144.039 261.588 144.039L261.936 164.913C261.936 164.913 258.6 165.746 254.082 166.002C250.775 166.189 246.324 166.028 244.641 165.955C240.497 165.771 239.929 163.08 239.929 163.08C240.824 162.647 241.667 161.929 242.415 161.129C244.197 159.219 244.641 156.465 243.709 154.031C243.247 152.824 243.178 151.743 243.189 151.086C242.18 152.142 241.264 153.085 240.523 153.847C239.291 155.116 237.593 155.831 235.819 155.831H223.099L223.092 153.796C223.092 153.492 223.297 153.224 223.594 153.147L223.601 153.151Z" fill="#0044CC"/>
<path d="M244.637 166.201C240.351 166.01 239.72 163.249 239.695 163.132C239.673 163.022 239.728 162.908 239.83 162.857C240.604 162.483 241.414 161.845 242.243 160.961C243.93 159.15 244.41 156.532 243.49 154.123C243.141 153.206 243.006 152.359 242.965 151.695C242.203 152.491 241.502 153.213 240.901 153.829L240.71 154.027C239.438 155.336 237.66 156.088 235.83 156.088H223.11C222.975 156.088 222.865 155.978 222.865 155.842L222.857 153.807C222.857 153.389 223.14 153.023 223.547 152.916C228.354 151.688 233.997 149.928 235.43 148.667C236.336 147.871 237.014 145.931 237.737 143.878C238.683 141.179 239.757 138.121 241.678 136.468C245.444 133.226 249.474 133.74 249.624 133.762L255.916 134.117C255.96 134.117 256 134.139 256.033 134.165C262.014 135.305 261.845 143.962 261.841 144.039L262.19 164.914C262.19 165.027 262.113 165.13 262.003 165.159C261.97 165.167 258.593 165.999 254.101 166.256C252.953 166.322 251.677 166.344 250.427 166.344C248.055 166.344 245.77 166.259 244.634 166.208L244.637 166.201ZM261.346 144.032C261.346 143.948 261.515 135.621 255.85 134.631C255.821 134.627 255.795 134.616 255.769 134.601L249.576 134.249C249.536 134.246 245.591 133.747 242.001 136.838C240.179 138.407 239.13 141.399 238.202 144.039C237.425 146.25 236.754 148.157 235.753 149.037C233.868 150.694 226.025 152.788 223.664 153.393C223.477 153.441 223.345 153.609 223.345 153.804L223.352 155.593H235.826C237.524 155.593 239.174 154.896 240.355 153.683L240.545 153.485C241.249 152.759 242.096 151.89 243.02 150.922C243.09 150.848 243.2 150.826 243.292 150.863C243.387 150.903 243.446 150.995 243.446 151.098C243.435 151.765 243.512 152.799 243.952 153.947C244.938 156.535 244.425 159.351 242.606 161.302C241.803 162.164 241.007 162.802 240.237 163.212C240.446 163.792 241.348 165.563 244.663 165.709C246.394 165.786 250.775 165.944 254.079 165.757C257.918 165.541 260.928 164.895 261.698 164.719L261.35 144.032H261.346Z" fill="black"/>
<path d="M242.921 152.069C242.987 152.069 243.053 152.044 243.101 151.989C244.791 150.17 246.1 148.073 246.995 145.755C247.042 145.627 246.98 145.484 246.852 145.436C246.723 145.389 246.58 145.451 246.533 145.579C245.664 147.838 244.388 149.88 242.738 151.651C242.646 151.75 242.65 151.908 242.749 152C242.796 152.044 242.855 152.066 242.917 152.066L242.921 152.069Z" fill="black"/>
<path d="M245.854 123.103C245.854 123.103 245.62 125.207 244.564 126.377C244.483 126.465 244.465 126.597 244.527 126.7L244.963 127.426C245 127.488 245.033 127.554 245.055 127.624L245.777 129.747C245.843 129.941 246.019 130.08 246.225 130.095C246.676 130.132 247.82 129.956 247.915 130.26C248.018 130.597 247.941 133.322 247.897 134.51C247.886 134.825 248.106 135.1 248.417 135.159L250.859 135.61C251.959 135.811 253.092 135.679 254.108 135.232C254.438 135.085 254.585 134.7 254.431 134.374C253.873 133.179 252.649 130.33 252.81 128.588L253.895 125.552C253.87 124.096 252.652 122.941 251.186 122.978L245.851 123.11L245.854 123.103Z" fill="white"/>
<path d="M250.815 135.848L248.373 135.397C247.941 135.316 247.636 134.938 247.651 134.498C247.743 131.84 247.728 130.63 247.688 130.37C247.537 130.307 247.05 130.329 246.778 130.34C246.562 130.348 246.357 130.359 246.206 130.344C245.902 130.318 245.645 130.117 245.546 129.827L244.824 127.704C244.806 127.653 244.784 127.601 244.754 127.554L244.318 126.828C244.201 126.633 244.226 126.384 244.384 126.212C245.37 125.115 245.609 123.095 245.612 123.077C245.627 122.956 245.73 122.86 245.851 122.857L251.186 122.725C251.97 122.703 252.704 122.989 253.265 123.528C253.822 124.059 254.134 124.774 254.148 125.541C254.148 125.57 254.145 125.599 254.134 125.629L253.059 128.635C252.92 130.329 254.13 133.131 254.658 134.264C254.761 134.48 254.768 134.726 254.684 134.949C254.599 135.177 254.431 135.353 254.207 135.452C253.463 135.778 252.671 135.947 251.871 135.947C251.519 135.947 251.164 135.914 250.815 135.851V135.848ZM252.92 123.88C252.454 123.436 251.842 123.201 251.197 123.212L246.071 123.341C245.979 123.92 245.653 125.533 244.747 126.538C244.74 126.545 244.732 126.56 244.74 126.567L245.176 127.293C245.224 127.37 245.26 127.455 245.29 127.539L246.012 129.662C246.045 129.765 246.137 129.834 246.243 129.845C246.364 129.856 246.555 129.845 246.756 129.838C247.438 129.812 248.029 129.787 248.15 130.179C248.234 130.454 248.234 131.91 248.142 134.509C248.135 134.704 248.271 134.869 248.461 134.905L250.903 135.356C251.956 135.551 253.03 135.426 254.005 134.993C254.104 134.949 254.178 134.869 254.218 134.77C254.255 134.671 254.251 134.561 254.207 134.465C253.657 133.292 252.396 130.362 252.564 128.551C252.564 128.529 252.572 128.511 252.579 128.492L253.65 125.497C253.628 124.881 253.367 124.305 252.92 123.872V123.88Z" fill="black"/>
<path d="M245.363 122.358C245.147 122.688 245.275 123.136 245.638 123.301L245.858 123.4L250.049 125.464C250.155 125.515 250.284 125.508 250.379 125.438C250.551 125.314 250.863 125.16 251.178 125.358C251.615 125.636 251.703 127.121 250.584 127.514C250.438 127.565 250.357 127.723 250.416 127.866C250.482 128.02 250.577 128.229 250.709 128.452C251.695 130.15 254.137 130.253 255.314 128.676C256.18 127.517 256.975 125.607 255.996 123C254.464 118.908 248.201 118.028 245.367 122.355L245.363 122.358Z" fill="black"/>
<path d="M255.567 121.409C255.567 121.409 257.397 119.238 260.07 120.081C262.747 120.921 262.882 125.449 263.19 128.273C264.283 138.213 266.71 141.832 267.495 142.73C268.364 143.728 261.526 143.049 259.223 142.265C252.583 140.002 256.081 133.608 256.392 132.456C256.704 131.305 259.179 124.863 256.103 124.111L254.541 122.784L255.567 121.412V121.409Z" fill="black"/>
<path d="M256.407 124.51L256.374 124.521C256.085 124.628 255.758 124.481 255.652 124.191L254.838 121.988C254.732 121.698 254.882 121.379 255.172 121.273L255.205 121.262C255.494 121.155 255.821 121.302 255.927 121.592L256.741 123.795C256.847 124.085 256.697 124.404 256.407 124.51Z" fill="white"/>
<path d="M255.421 124.276L254.607 122.072C254.533 121.871 254.541 121.651 254.632 121.456C254.724 121.258 254.885 121.112 255.087 121.038L255.12 121.027C255.538 120.873 256.004 121.09 256.158 121.504L256.975 123.708C257.049 123.909 257.041 124.129 256.95 124.324C256.858 124.518 256.697 124.668 256.495 124.742L256.462 124.753C256.37 124.786 256.275 124.8 256.183 124.8C255.853 124.8 255.542 124.599 255.424 124.272L255.421 124.276ZM255.289 121.489L255.256 121.5C255.175 121.53 255.113 121.588 255.08 121.662C255.047 121.735 255.043 121.819 255.069 121.896L255.886 124.1C255.945 124.261 256.128 124.346 256.29 124.283L256.323 124.272C256.403 124.243 256.466 124.184 256.499 124.111C256.532 124.038 256.535 123.953 256.51 123.876L255.696 121.673C255.648 121.548 255.527 121.467 255.399 121.467C255.362 121.467 255.325 121.475 255.289 121.486V121.489Z" fill="black"/>
<path d="M248.74 183.199H244.036V221.571H248.74V183.199Z" fill="white"/>
<path d="M243.79 221.571V183.199C243.79 183.064 243.9 182.954 244.036 182.954H248.74C248.876 182.954 248.986 183.064 248.986 183.199V221.571C248.986 221.707 248.876 221.817 248.74 221.817H244.036C243.9 221.817 243.79 221.707 243.79 221.571ZM248.491 183.449H244.282V221.325H248.491V183.449Z" fill="black"/>
<path d="M235.28 216.485H257.988C260.855 216.485 263.187 218.814 263.187 221.685H230.081C230.081 218.817 232.409 216.485 235.28 216.485Z" fill="white"/>
<path d="M229.835 221.685V221.457C229.835 218.579 232.174 216.24 235.053 216.24H258.215C261.093 216.24 263.433 218.579 263.433 221.457V221.685C263.433 221.82 263.323 221.93 263.187 221.93H230.081C229.945 221.93 229.835 221.82 229.835 221.685ZM258.215 216.731H235.053C232.453 216.731 230.341 218.839 230.33 221.435H262.941C262.93 218.839 260.815 216.731 258.219 216.731H258.215Z" fill="black"/>
<path d="M254.332 178.532H238.048C236.335 178.532 234.946 179.921 234.946 181.634C234.946 183.347 236.335 184.736 238.048 184.736H254.332C256.045 184.736 257.434 183.347 257.434 181.634C257.434 179.921 256.045 178.532 254.332 178.532Z" fill="white"/>
<path d="M234.701 182.374V180.893C234.701 179.456 235.87 178.286 237.308 178.286H255.073C256.51 178.286 257.68 179.456 257.68 180.893V182.374C257.68 183.812 256.51 184.981 255.073 184.981H237.308C235.87 184.981 234.701 183.812 234.701 182.374ZM237.308 178.777C236.142 178.777 235.196 179.727 235.196 180.889V182.371C235.196 183.537 236.145 184.483 237.308 184.483H255.073C256.239 184.483 257.185 183.533 257.185 182.371V180.889C257.185 179.723 256.235 178.777 255.073 178.777H237.308Z" fill="black"/>
</g>
<defs>
<clipPath id="clip0_1665_13717">
<rect x="58" y="2" width="220" height="220" rx="15" fill="white"/>
</clipPath>
</defs>
</svg>
