<svg width="336" height="224" viewBox="0 0 336 224" fill="none" xmlns="http://www.w3.org/2000/svg">
<rect x="1" y="1" width="334" height="222" rx="16" fill="white" stroke="#0066EE" stroke-width="2"/>
<g clip-path="url(#clip0_1665_13715)">
<path d="M206.225 183.599L72.0874 183.174C69.5501 183.174 67.4087 181.036 67.4197 178.506L68.1384 6.521C68.1494 4.211 69.9607 2.41433 72.2817 2.41433L206.713 2C209.25 2 211.776 4.552 211.765 7.082L211.043 179.067C211.032 181.377 208.542 183.603 206.221 183.603L206.225 183.599Z" fill="black"/>
<path d="M209.078 183.588H74.258C71.7207 183.588 69.5794 181.439 69.5904 178.906L70.3127 6.5944C70.3237 4.28074 72.135 2.53174 74.456 2.53174H209.272C211.809 2.53174 213.951 4.6144 213.94 7.14807L213.217 179.492C213.206 181.806 211.395 183.588 209.074 183.588H209.078Z" fill="white"/>
<path d="M209.074 183.859H74.258C72.9564 183.859 71.7207 183.335 70.7784 182.389C69.8324 181.439 69.3154 180.204 69.3227 178.906L70.045 6.59449C70.056 4.16716 71.9957 2.26416 74.4597 2.26416H209.276C210.577 2.26416 211.857 2.79949 212.788 3.73449C213.712 4.66216 214.218 5.87583 214.211 7.15183L213.489 179.496C213.478 181.942 211.538 183.859 209.074 183.859ZM74.456 2.80316C72.2597 2.80316 70.595 4.43483 70.584 6.59449L69.8617 178.906C69.858 180.057 70.3164 181.161 71.1597 182.004C72.003 182.851 73.103 183.317 74.258 183.317H209.074C211.237 183.317 212.935 181.637 212.946 179.492L213.668 7.14816C213.672 6.01516 213.225 4.93716 212.403 4.11583C211.575 3.28349 210.431 2.80316 209.272 2.80316H74.456Z" fill="black"/>
<path d="M121.371 183.86H103.21C103.06 183.86 102.939 183.739 102.939 183.588C102.939 183.438 103.06 183.317 103.21 183.317H121.371C121.521 183.317 121.642 183.438 121.642 183.588C121.642 183.739 121.521 183.86 121.371 183.86Z" fill="black"/>
<path d="M126.721 16.7619H83.0764C81.6757 16.7619 80.4694 15.6179 80.3887 14.2172L80.3667 13.8652C80.2824 12.4645 81.3531 11.3462 82.7537 11.3462H126.398C127.799 11.3462 129.005 12.4609 129.086 13.8615L129.108 14.2319C129.192 15.6325 128.121 16.7692 126.721 16.7692V16.7619Z" fill="black"/>
<path d="M198.631 32.2134H85.3058C79.9253 32.2134 75.5635 36.5752 75.5635 41.9557V168.019C75.5635 173.4 79.9253 177.762 85.3058 177.762H198.631C204.012 177.762 208.374 173.4 208.374 168.019V41.9557C208.374 36.5752 204.012 32.2134 198.631 32.2134Z" fill="white"/>
<path d="M205.121 178.033H78.8194C76.8761 178.033 75.2958 176.453 75.2958 174.509V35.4656C75.2958 33.5222 76.8761 31.9419 78.8194 31.9419H205.125C207.068 31.9419 208.649 33.5222 208.649 35.4656V174.509C208.649 176.453 207.068 178.033 205.125 178.033H205.121ZM78.8194 32.4846C77.1768 32.4846 75.8384 33.8229 75.8384 35.4656V174.509C75.8384 176.152 77.1768 177.49 78.8194 177.49H205.125C206.768 177.49 208.106 176.152 208.106 174.509V35.4656C208.106 33.8229 206.768 32.4846 205.125 32.4846H78.8194Z" fill="black"/>
<path d="M203.226 48.1598C203.226 42.3445 198.514 37.6328 192.699 37.6328H91.2421C85.4268 37.6328 80.7151 42.3445 80.7151 48.1598V161.269C80.7151 167.084 85.4268 171.796 91.2421 171.796H192.699C198.514 171.796 203.226 167.084 203.226 161.269V48.1598ZM194.822 155.311C194.822 159.476 191.445 162.853 187.279 162.853H96.9291C92.7638 162.853 89.3868 159.476 89.3868 155.311V54.9321C89.3868 50.7668 92.7638 47.3898 96.9291 47.3898H187.279C191.445 47.3898 194.822 50.7668 194.822 54.9321V155.311Z" fill="white"/>
<path d="M192.699 172.071H91.2421C85.2874 172.071 80.4437 167.227 80.4437 161.273V48.1597C80.4437 42.205 85.2874 37.3613 91.2421 37.3613H192.699C198.653 37.3613 203.497 42.205 203.497 48.1597V161.269C203.497 167.224 198.653 172.067 192.699 172.067V172.071ZM91.2421 37.904C85.5881 37.904 80.9864 42.5057 80.9864 48.1597V161.269C80.9864 166.923 85.5881 171.525 91.2421 171.525H192.699C198.353 171.525 202.954 166.923 202.954 161.269V48.1597C202.954 42.5057 198.353 37.904 192.699 37.904H91.2421ZM187.279 163.124H96.9291C92.6207 163.124 89.1154 159.619 89.1154 155.311V54.932C89.1154 50.6237 92.6207 47.1183 96.9291 47.1183H187.279C191.588 47.1183 195.093 50.6237 195.093 54.932V155.311C195.093 159.619 191.588 163.124 187.279 163.124ZM96.9291 47.661C92.9214 47.661 89.6581 50.9243 89.6581 54.932V155.311C89.6581 159.318 92.9214 162.582 96.9291 162.582H187.279C191.287 162.582 194.55 159.318 194.55 155.311V54.932C194.55 50.9243 191.287 47.661 187.279 47.661H96.9291Z" fill="black"/>
<path d="M175.381 86.8759C165.437 86.8759 157.348 78.7872 157.348 68.8432C157.348 58.8992 165.437 50.8105 175.381 50.8105C185.325 50.8105 193.414 58.8992 193.414 68.8432C193.414 78.7872 185.325 86.8759 175.381 86.8759ZM175.381 51.3532C165.738 51.3532 157.891 59.1999 157.891 68.8432C157.891 78.4865 165.738 86.3332 175.381 86.3332C185.024 86.3332 192.871 78.4865 192.871 68.8432C192.871 59.1999 185.024 51.3532 175.381 51.3532Z" fill="black"/>
<path d="M175.414 83.0404C167.531 83.0404 161.114 76.6274 161.114 68.7404C161.114 60.8534 167.527 54.4404 175.414 54.4404C183.301 54.4404 189.714 60.8534 189.714 68.7404C189.714 76.6274 183.301 83.0404 175.414 83.0404ZM175.414 54.9868C167.828 54.9868 161.657 61.1578 161.657 68.7441C161.657 76.3304 167.828 82.5014 175.414 82.5014C183 82.5014 189.171 76.3304 189.171 68.7441C189.171 61.1578 183 54.9868 175.414 54.9868Z" fill="black"/>
<path d="M99.0996 61.939C96.9289 61.939 95.1653 60.1753 95.1653 58.0046C95.1653 55.834 96.9289 54.0703 99.0996 54.0703C101.27 54.0703 103.034 55.834 103.034 58.0046C103.034 60.1753 101.27 61.939 99.0996 61.939ZM99.0996 54.613C97.2296 54.613 95.7079 56.1346 95.7079 58.0046C95.7079 59.8747 97.2296 61.3963 99.0996 61.3963C100.97 61.3963 102.491 59.8747 102.491 58.0046C102.491 56.1346 100.97 54.613 99.0996 54.613Z" fill="black"/>
<path d="M98.876 72.6236C96.7053 72.6236 94.9417 70.8599 94.9417 68.6892C94.9417 66.5186 96.7053 64.7549 98.876 64.7549C101.047 64.7549 102.81 66.5186 102.81 68.6892C102.81 70.8599 101.047 72.6236 98.876 72.6236ZM98.876 65.2939C97.006 65.2939 95.4843 66.8156 95.4843 68.6855C95.4843 70.5556 97.006 72.0772 98.876 72.0772C100.746 72.0772 102.268 70.5556 102.268 68.6855C102.268 66.8156 100.746 65.2939 98.876 65.2939Z" fill="black"/>
<path d="M98.15 82.582C95.9794 82.582 94.2157 80.8184 94.2157 78.6477C94.2157 76.477 95.9794 74.7134 98.15 74.7134C100.321 74.7134 102.084 76.477 102.084 78.6477C102.084 80.8184 100.321 82.582 98.15 82.582ZM98.15 75.2524C96.28 75.2524 94.7584 76.774 94.7584 78.644C94.7584 80.514 96.28 82.0357 98.15 82.0357C100.02 82.0357 101.542 80.514 101.542 78.644C101.542 76.774 100.02 75.2524 98.15 75.2524Z" fill="black"/>
<path d="M135.059 57.8248H107.955C107.804 57.8248 107.683 57.7038 107.683 57.5535V51.3202C107.683 51.1698 107.804 51.0488 107.955 51.0488H135.059C135.209 51.0488 135.33 51.1698 135.33 51.3202V57.5535C135.33 57.7038 135.209 57.8248 135.059 57.8248ZM108.226 57.2822H134.787V51.5915H108.226V57.2822Z" fill="black"/>
<path d="M184.801 163.131C184.672 163.131 184.559 163.04 184.533 162.908C182.238 150.155 177.669 142.019 170.955 138.722C165.925 136.255 161.338 137.318 156.901 138.345C152.406 139.386 147.76 140.464 142.883 137.67C137.823 134.77 136.1 129.812 134.274 124.562C132.334 118.985 130.329 113.213 124.286 108.689C122.068 107.028 119.123 106.151 116.274 105.304C115.288 105.011 114.36 104.736 113.462 104.428C109.253 102.987 104.966 101.575 100.724 100.226C100.581 100.182 100.504 100.028 100.548 99.8851C100.592 99.7421 100.746 99.6651 100.889 99.7091C105.135 101.058 109.421 102.474 113.638 103.915C114.525 104.219 115.449 104.494 116.428 104.784C119.321 105.645 122.313 106.533 124.612 108.252C130.791 112.88 132.914 118.992 134.787 124.382C136.577 129.534 138.271 134.399 143.155 137.201C147.844 139.888 152.186 138.884 156.78 137.817C161.308 136.768 165.994 135.679 171.197 138.235C178.076 141.612 182.744 149.88 185.072 162.812C185.098 162.959 185.002 163.102 184.852 163.128C184.837 163.128 184.819 163.131 184.804 163.131H184.801Z" fill="black"/>
<path d="M174.101 164.591C173.966 164.591 173.848 164.488 173.834 164.349C172.902 156.033 170.262 150.621 165.987 148.259C161.895 146.001 157.521 147.295 152.89 148.666C149.458 149.682 145.912 150.731 142.476 150.21C137.882 149.513 133.394 146.826 129.83 142.646C126.985 139.305 124.638 134.957 122.662 129.35C122.453 128.76 122.251 128.162 122.049 127.565C121.173 124.983 120.267 122.31 118.797 120.019C115.589 115.017 109.722 112.48 105.366 111.226C100.533 109.84 94.5384 108.117 89.3391 108.322C89.1924 108.329 89.0641 108.212 89.0567 108.062C89.0494 107.911 89.1667 107.787 89.3171 107.779C94.6044 107.57 100.647 109.305 105.502 110.698C109.96 111.978 115.952 114.581 119.252 119.722C120.759 122.072 121.675 124.774 122.563 127.385C122.764 127.979 122.966 128.573 123.175 129.163C125.129 134.704 127.443 138.997 130.244 142.286C133.72 146.367 138.095 148.985 142.557 149.664C145.875 150.17 149.362 149.136 152.736 148.135C157.271 146.793 161.961 145.403 166.247 147.775C170.688 150.228 173.419 155.78 174.373 164.279C174.391 164.429 174.281 164.561 174.134 164.58C174.123 164.58 174.112 164.58 174.105 164.58L174.101 164.591Z" fill="black"/>
<path d="M183.393 102.584C174.816 102.584 166.599 99.9658 159.633 95.0121C152.816 90.1684 147.701 83.4731 144.838 75.6558C144.786 75.5164 144.86 75.3588 144.999 75.3074C145.138 75.2561 145.296 75.3294 145.347 75.4688C151.17 91.3601 166.46 102.037 183.393 102.037C188.06 102.037 192.64 101.249 196.996 99.6981C197.139 99.6468 197.293 99.7201 197.341 99.8631C197.392 100.002 197.319 100.16 197.176 100.208C192.761 101.781 188.123 102.58 183.389 102.58L183.393 102.584Z" fill="black"/>
<path d="M143.47 70.6655C143.345 70.6655 143.235 70.5812 143.206 70.4565C142.487 67.3985 142.341 64.6779 142.341 61.5355C142.341 56.5562 143.221 51.6942 144.959 47.0779C145.01 46.9385 145.168 46.8652 145.307 46.9202C145.446 46.9715 145.516 47.1292 145.465 47.2685C143.749 51.8225 142.88 56.6259 142.88 61.5355C142.88 64.6412 143.023 67.3252 143.73 70.3355C143.763 70.4822 143.675 70.6289 143.529 70.6619C143.507 70.6655 143.488 70.6692 143.466 70.6692L143.47 70.6655Z" fill="black"/>
<path d="M184.485 97.058C169.632 97.058 156.311 88.2103 150.547 74.5227C150.488 74.3833 150.554 74.2257 150.69 74.167C150.829 74.1083 150.987 74.1743 151.045 74.31C156.725 87.7997 169.848 96.5153 184.485 96.5153C188.665 96.5153 192.765 95.8113 196.666 94.418C196.809 94.3667 196.963 94.44 197.011 94.583C197.062 94.7223 196.989 94.88 196.846 94.9277C192.886 96.3393 188.728 97.0543 184.485 97.0543V97.058Z" fill="black"/>
<path d="M148.842 68.5938C148.717 68.5938 148.607 68.5095 148.578 68.3812C147.98 65.7302 147.676 62.9948 147.676 60.2522C147.676 55.7898 148.464 51.4265 150.022 47.2869C150.074 47.1475 150.231 47.0742 150.371 47.1292C150.51 47.1805 150.583 47.3382 150.528 47.4775C148.992 51.5549 148.215 55.8558 148.215 60.2522C148.215 62.9545 148.512 65.6495 149.102 68.2639C149.135 68.4105 149.043 68.5535 148.897 68.5865C148.878 68.5902 148.856 68.5938 148.838 68.5938H148.842Z" fill="black"/>
<path d="M108.138 101.084C102.774 101.084 97.3433 99.691 91.4473 98.0153C91.3043 97.975 91.22 97.8246 91.2603 97.6816C91.3007 97.5386 91.451 97.4543 91.594 97.4946C98.9163 99.5736 105.513 101.22 112.116 100.263C114.496 99.9183 116.183 99.273 117.418 98.228C120.293 95.8043 120.52 91.4813 120.722 87.6643L120.737 87.3746C120.971 82.9416 122.614 79.5573 125.617 77.3133C131.744 72.741 141.318 74.38 145.149 75.3003C145.296 75.337 145.384 75.48 145.351 75.6266C145.314 75.7733 145.171 75.8613 145.025 75.8283C141.266 74.9263 131.887 73.313 125.943 77.7496C123.076 79.891 121.507 83.1396 121.279 87.404L121.265 87.6936C121.059 91.6206 120.825 96.0683 117.767 98.6423C116.447 99.7533 114.676 100.439 112.19 100.798C110.837 100.993 109.487 101.084 108.131 101.084H108.138Z" fill="black"/>
<path d="M106.734 92.1231C100.511 92.1231 94.3257 89.3951 88.998 86.6488C88.866 86.5791 88.811 86.4178 88.8807 86.2821C88.9503 86.1501 89.1117 86.0988 89.2473 86.1648C95.092 89.1824 101.974 92.1708 108.743 91.4778C109.759 91.3751 111.053 91.1661 112.072 90.4804C113.785 89.3291 114.375 87.1474 114.566 85.5158C114.661 84.7091 114.694 83.8731 114.723 83.0664C114.767 81.9114 114.811 80.7124 115.046 79.5501C117.404 67.8351 134.116 68.8471 143.87 70.4898C144.016 70.5154 144.115 70.6548 144.093 70.8014C144.068 70.9481 143.928 71.0471 143.782 71.0251C134.223 69.4118 117.847 68.3924 115.581 79.6564C115.354 80.7748 115.31 81.9481 115.27 83.0848C115.24 83.9024 115.207 84.7458 115.108 85.5781C114.903 87.3198 114.261 89.6628 112.377 90.9278C111.258 91.6831 109.876 91.9031 108.798 92.0131C108.109 92.0828 107.423 92.1158 106.734 92.1158V92.1231Z" fill="black"/>
<path d="M188.783 132.43H172.543C172.418 132.43 172.319 132.331 172.319 132.207V108.626C172.319 108.502 172.418 108.403 172.543 108.403H188.783C188.907 108.403 189.006 108.502 189.006 108.626V132.207C189.006 132.331 188.907 132.43 188.783 132.43ZM172.767 131.987H188.563V108.85H172.767V131.987Z" fill="black"/>
<path d="M188.849 132.53C188.779 132.53 188.709 132.497 188.665 132.434L172.429 108.744C172.36 108.641 172.385 108.506 172.488 108.436C172.591 108.366 172.726 108.392 172.796 108.495L189.032 132.185C189.102 132.288 189.076 132.423 188.973 132.493C188.937 132.519 188.893 132.533 188.849 132.533V132.53Z" fill="black"/>
<path d="M172.613 132.53C172.569 132.53 172.525 132.519 172.488 132.489C172.385 132.42 172.36 132.28 172.429 132.181L188.665 108.491C188.735 108.388 188.874 108.363 188.973 108.432C189.076 108.502 189.102 108.641 189.032 108.74L172.796 132.431C172.752 132.493 172.682 132.526 172.613 132.526V132.53Z" fill="black"/>
<path d="M160.813 160.151C158.049 160.151 155.797 157.899 155.797 155.135C155.797 152.37 158.045 150.119 160.813 150.119C163.582 150.119 165.829 152.366 165.829 155.135C165.829 157.903 163.582 160.151 160.813 160.151ZM160.813 150.661C158.346 150.661 156.34 152.667 156.34 155.135C156.34 157.602 158.346 159.608 160.813 159.608C163.281 159.608 165.287 157.602 165.287 155.135C165.287 152.667 163.281 150.661 160.813 150.661Z" fill="black"/>
<path d="M188.97 149.722C186.205 149.722 183.954 147.471 183.954 144.706C183.954 141.942 186.201 139.69 188.97 139.69C191.738 139.69 193.986 141.942 193.986 144.706C193.986 147.471 191.738 149.722 188.97 149.722ZM188.97 140.233C186.502 140.233 184.496 142.239 184.496 144.706C184.496 147.174 186.502 149.18 188.97 149.18C191.437 149.18 193.443 147.174 193.443 144.706C193.443 142.239 191.437 140.233 188.97 140.233Z" fill="black"/>
<path d="M110.958 127.25C108.193 127.25 105.942 124.998 105.942 122.234C105.942 119.469 108.189 117.218 110.958 117.218C113.726 117.218 115.974 119.469 115.974 122.234C115.974 124.998 113.726 127.25 110.958 127.25ZM110.958 117.76C108.49 117.76 106.484 119.766 106.484 122.234C106.484 124.701 108.49 126.707 110.958 126.707C113.425 126.707 115.431 124.701 115.431 122.234C115.431 119.766 113.425 117.76 110.958 117.76Z" fill="white"/>
<path d="M157.066 133.146C153.546 133.146 150.25 132.229 147.206 130.396C141.952 127.231 137.295 121.222 133.365 112.535C131.091 106.379 127.901 103.266 122.698 102.104C122.192 101.99 121.826 101.605 121.745 101.095C121.664 100.582 121.899 100.08 122.35 99.8119C126.728 97.2049 127.395 92.4456 128.239 86.4212L128.279 86.1279C128.704 83.0992 130.695 80.5546 133.482 79.4876C136.005 78.5196 138.964 78.3912 141.813 79.1246C141.901 79.1466 141.97 79.2126 142 79.2969C145.956 90.3629 153.898 98.3122 166.28 103.596C166.665 103.761 166.911 104.135 166.904 104.553L166.427 131.008C166.427 131.118 166.357 131.217 166.255 131.254C163.046 132.511 159.977 133.138 157.062 133.138L157.066 133.146ZM138.142 79.2016C136.58 79.2016 135.062 79.4692 133.68 79.9972C131.08 80.9946 129.218 83.3742 128.822 86.2049L128.781 86.4982C127.953 92.4236 127.234 97.5386 122.632 100.281C122.321 100.468 122.247 100.784 122.284 101.015C122.332 101.304 122.53 101.513 122.819 101.579C128.224 102.786 131.528 106.001 133.867 112.334C137.743 120.899 142.33 126.824 147.489 129.934C152.853 133.164 159.042 133.465 165.895 130.821L166.368 104.546C166.368 104.351 166.258 104.175 166.075 104.098C153.597 98.7743 145.571 90.7662 141.545 79.6196C140.416 79.3409 139.268 79.2016 138.142 79.2016Z" fill="black"/>
<path d="M148.746 21.3711H82.6107C81.1142 21.3711 79.901 22.5843 79.901 24.0808C79.901 25.5773 81.1142 26.7904 82.6107 26.7904H148.746C150.243 26.7904 151.456 25.5773 151.456 24.0808C151.456 22.5843 150.243 21.3711 148.746 21.3711Z" fill="black"/>
<path d="M120.443 204.862L120.403 213.266L114.503 212.888L115.112 204.836L120.443 204.862Z" fill="white"/>
<path d="M120.403 213.538C120.403 213.538 120.392 213.538 120.385 213.538L114.485 213.16C114.412 213.156 114.346 213.123 114.298 213.068C114.25 213.013 114.228 212.943 114.232 212.87L114.837 204.818C114.848 204.675 114.965 204.569 115.108 204.569L120.44 204.595C120.513 204.595 120.579 204.624 120.63 204.675C120.682 204.727 120.707 204.796 120.707 204.866L120.667 213.27C120.667 213.343 120.634 213.416 120.583 213.468C120.531 213.515 120.465 213.541 120.399 213.541L120.403 213.538ZM114.797 212.636L120.135 212.98L120.172 205.134L115.365 205.112L114.797 212.636Z" fill="black"/>
<path d="M120.253 211.052L119.897 211.396C119.219 212.049 118.21 212.229 117.349 211.855L115.145 210.894C114.782 210.883 114.448 211.092 114.302 211.426C113.81 212.522 112.802 215.089 112.846 217.553C112.857 218.227 113.396 218.77 114.063 218.792L123.927 219.104H123.945C124.935 219.137 125.855 219.045 126.9 218.942L128.697 218.689C129.093 218.634 129.478 218.521 129.83 218.326C130.347 218.04 130.556 217.487 130.468 216.973C130.329 216.152 129.749 215.815 127.89 215.056C125.034 213.893 121.987 211.745 120.946 211.228C120.729 211.121 120.495 211.063 120.256 211.055L120.253 211.052Z" fill="white"/>
<path d="M124.345 219.375C124.209 219.375 124.07 219.375 123.93 219.367L114.049 219.056C113.235 219.03 112.582 218.37 112.567 217.549C112.523 215 113.587 212.335 114.045 211.304C114.239 210.868 114.672 210.597 115.145 210.615C115.178 210.615 115.215 210.622 115.244 210.637L117.448 211.598C118.214 211.931 119.098 211.774 119.699 211.194L120.055 210.85C120.106 210.798 120.179 210.773 120.253 210.773C120.535 210.78 120.803 210.85 121.056 210.974C121.393 211.143 121.914 211.462 122.574 211.869C124.037 212.771 126.039 214.003 127.982 214.795C129.841 215.55 130.56 215.932 130.725 216.918C130.838 217.589 130.534 218.234 129.947 218.553C129.588 218.751 129.177 218.883 128.723 218.946L126.926 219.199C126.042 219.287 125.206 219.367 124.334 219.367L124.345 219.375ZM115.086 211.161C114.852 211.172 114.643 211.312 114.544 211.532C114.1 212.525 113.07 215.103 113.114 217.545C113.125 218.073 113.543 218.502 114.067 218.517L123.93 218.828C124.939 218.861 125.877 218.766 126.871 218.671L128.657 218.418C129.045 218.363 129.394 218.253 129.694 218.084C130.076 217.875 130.27 217.453 130.197 217.013C130.087 216.364 129.68 216.075 127.784 215.305C125.8 214.498 123.692 213.196 122.295 212.338C121.646 211.939 121.133 211.623 120.821 211.466C120.671 211.392 120.517 211.345 120.352 211.326L120.08 211.587C119.318 212.32 118.203 212.518 117.235 212.096L115.083 211.158L115.086 211.161Z" fill="black"/>
<path d="M122.031 214.748C121.972 214.748 121.917 214.729 121.866 214.693C121.745 214.601 121.723 214.432 121.815 214.311L122.988 212.764C123.08 212.643 123.248 212.621 123.369 212.713C123.49 212.804 123.512 212.973 123.421 213.094L122.247 214.641C122.192 214.711 122.112 214.748 122.031 214.748Z" fill="black"/>
<path d="M123.967 215.983C123.916 215.983 123.861 215.968 123.813 215.935C123.688 215.851 123.655 215.682 123.74 215.558L124.939 213.794C125.023 213.669 125.192 213.636 125.316 213.721C125.441 213.805 125.474 213.974 125.39 214.098L124.191 215.862C124.139 215.939 124.051 215.979 123.967 215.979V215.983Z" fill="black"/>
<path d="M123.373 217.589C121.331 217.589 114.672 217.226 114.371 217.208C114.221 217.2 114.107 217.072 114.115 216.922C114.122 216.771 114.254 216.658 114.401 216.665C114.478 216.669 122.222 217.094 123.688 217.039C125.155 216.988 127.876 216.65 127.905 216.647C128.052 216.628 128.187 216.735 128.206 216.881C128.224 217.032 128.118 217.164 127.971 217.186C127.857 217.2 125.199 217.53 123.707 217.582C123.615 217.582 123.501 217.585 123.369 217.585L123.373 217.589Z" fill="black"/>
<path d="M91.6123 204.902L89.053 211.33L84.444 210.003L87.2013 203.047L91.6123 204.902Z" fill="white"/>
<path d="M89.053 211.598C89.0274 211.598 89.0017 211.598 88.9797 211.587L84.3707 210.259C84.2974 210.237 84.235 210.186 84.202 210.12C84.169 210.05 84.1654 209.973 84.1947 209.9L86.952 202.944C86.9777 202.878 87.0327 202.823 87.0987 202.794C87.1647 202.765 87.2417 202.765 87.3077 202.794L91.7187 204.649C91.8544 204.708 91.9204 204.862 91.8654 204.998L89.306 211.425C89.2657 211.532 89.163 211.598 89.053 211.598ZM84.807 209.823L88.8917 211L91.2604 205.049L87.3517 203.403L84.807 209.823Z" fill="black"/>
<path d="M89.4784 209.764L84.8804 208.309C84.554 208.206 84.1984 208.309 83.9784 208.569C83.256 209.431 81.694 211.484 81.1074 213.717C80.946 214.326 81.298 214.956 81.8994 215.147L88.4297 217.215C89.8634 217.67 91.3447 217.967 92.8444 218.102C92.8444 218.102 97.611 218.608 97.7284 217.072C97.919 214.502 94.5567 214.425 94.1204 213.977C92.4484 212.269 90.6994 210.674 90.0577 210.094C89.889 209.944 89.691 209.83 89.4747 209.761L89.4784 209.764Z" fill="white"/>
<path d="M94.5164 218.458C93.6804 218.458 92.9837 218.388 92.8224 218.374C91.3117 218.238 89.8047 217.934 88.3564 217.475L81.826 215.407C81.0854 215.173 80.6564 214.403 80.8544 213.651C81.4594 211.341 83.102 209.207 83.7767 208.397C84.0664 208.048 84.5357 207.913 84.9684 208.052L89.5664 209.508C89.8194 209.588 90.0504 209.72 90.2484 209.896C90.9194 210.501 92.6574 212.089 94.3257 213.794C94.3954 213.86 94.74 213.963 95.0187 214.043C96.1187 214.366 98.1684 214.971 98.0107 217.098C97.9887 217.376 97.8604 217.615 97.6257 217.813C96.9914 218.341 95.6384 218.462 94.5237 218.462L94.5164 218.458ZM84.6237 208.54C84.4587 208.54 84.2974 208.613 84.1874 208.745C83.5347 209.526 81.9507 211.583 81.3714 213.79C81.2467 214.26 81.518 214.744 81.9837 214.89L88.514 216.958C89.9294 217.406 91.3924 217.699 92.87 217.835C93.827 217.937 96.4744 218.051 97.2664 217.391C97.3874 217.288 97.4497 217.182 97.4607 217.054C97.5854 215.363 95.9464 214.883 94.8574 214.56C94.3954 214.425 94.091 214.337 93.9297 214.168C92.276 212.474 90.5454 210.897 89.878 210.296C89.7387 210.171 89.5774 210.076 89.3977 210.021L84.7997 208.565C84.741 208.547 84.6824 208.54 84.6237 208.54Z" fill="black"/>
<path d="M90.0247 213.735C89.944 213.735 89.867 213.699 89.812 213.633C89.7204 213.515 89.7387 213.347 89.856 213.251L91.8104 211.697C91.9277 211.605 92.0964 211.623 92.1917 211.741C92.2834 211.858 92.265 212.027 92.1477 212.122L90.1934 213.677C90.142 213.717 90.0834 213.735 90.0247 213.735Z" fill="black"/>
<path d="M91.8287 215.045C91.748 215.045 91.6674 215.008 91.616 214.942C91.5244 214.825 91.5464 214.652 91.6637 214.561L93.2624 213.31C93.3797 213.219 93.552 213.237 93.6437 213.358C93.7354 213.475 93.7134 213.648 93.596 213.739L91.9974 214.99C91.9497 215.03 91.8874 215.048 91.8287 215.048V215.045Z" fill="black"/>
<path d="M95.4221 216.889C94.3147 216.889 92.2137 216.731 91.2971 216.562C90.2007 216.364 82.8747 213.607 82.5631 213.49C82.4237 213.438 82.3541 213.281 82.4054 213.141C82.4567 213.002 82.6144 212.932 82.7537 212.984C85.3754 213.97 90.5527 215.877 91.3924 216.031C92.5071 216.232 95.0591 216.39 95.8181 216.335C95.9684 216.324 96.0967 216.438 96.1077 216.584C96.1187 216.731 96.0051 216.863 95.8584 216.874C95.7411 216.881 95.5944 216.885 95.4221 216.885V216.889Z" fill="black"/>
<path d="M124.964 139.496L116.113 138.844C116.546 135.877 116.296 136.376 116.296 136.376L102.169 135.203C102.169 135.203 98.953 141.641 97.8677 148.425C96.8337 154.904 87.5937 195.714 85.9253 202.977C85.8153 203.458 86.039 203.949 86.4753 204.18C87.5717 204.759 89.713 205.771 91.5793 205.933C92.078 205.977 92.5547 205.738 92.8113 205.309C94.872 201.822 104.889 184.431 110.342 166.78C112.861 178.73 114.701 198.134 113.686 205.999C113.605 206.618 114.038 207.187 114.654 207.271C116.205 207.487 119.006 207.784 120.92 207.429C121.272 207.363 121.554 207.106 121.642 206.758C122.907 201.756 132.353 162.666 124.961 139.496H124.964Z" fill="white"/>
<path d="M118.764 207.865C117.228 207.865 115.629 207.682 114.617 207.539C113.858 207.432 113.319 206.725 113.418 205.962C114.437 198.068 112.597 179.39 110.287 167.858C104.75 185.234 94.9784 202.174 93.0461 205.445C92.7381 205.966 92.1661 206.252 91.5574 206.2C89.6471 206.035 87.4764 205.012 86.3507 204.418C85.8081 204.132 85.5257 203.513 85.6651 202.915C87.5277 194.812 96.5881 154.768 97.6037 148.381C98.6817 141.634 101.897 135.144 101.927 135.082C101.978 134.983 102.081 134.924 102.191 134.931L116.212 136.097C116.274 136.072 116.344 136.064 116.41 136.086C116.648 136.16 116.762 136.196 116.417 138.594L124.979 139.225C125.089 139.232 125.184 139.309 125.217 139.412C132.657 162.736 123.025 202.376 121.903 206.82C121.789 207.264 121.422 207.608 120.968 207.693C120.308 207.817 119.541 207.865 118.764 207.865ZM110.342 166.509C110.342 166.509 110.349 166.509 110.353 166.509C110.477 166.516 110.58 166.604 110.606 166.725C113.022 178.183 115.009 197.851 113.953 206.035C113.891 206.505 114.225 206.941 114.69 207.007C116.186 207.216 118.984 207.517 120.869 207.165C121.122 207.117 121.316 206.937 121.378 206.692C122.493 202.273 132.048 162.959 124.759 139.757L116.091 139.119C116.018 139.111 115.948 139.078 115.9 139.02C115.853 138.961 115.834 138.884 115.845 138.811C116.04 137.476 116.087 136.889 116.098 136.636L102.334 135.492C101.831 136.537 99.1071 142.404 98.1391 148.472C97.1197 154.871 88.0557 194.936 86.1931 203.043C86.1087 203.403 86.2811 203.773 86.6037 203.945C87.6927 204.521 89.7901 205.511 91.6051 205.669C92.0047 205.702 92.3787 205.515 92.5804 205.177C94.5457 201.852 104.629 184.369 110.085 166.707C110.122 166.593 110.224 166.516 110.345 166.516L110.342 166.509Z" fill="black"/>
<path d="M110.624 170.542C110.488 170.542 110.375 170.443 110.356 170.304C110.349 170.256 109.696 165.302 107.628 160.462C105.645 155.824 106.011 149.844 106.015 149.785C106.026 149.635 106.154 149.525 106.305 149.532C106.455 149.543 106.569 149.671 106.558 149.822C106.554 149.88 106.198 155.736 108.127 160.25C110.228 165.159 110.888 170.186 110.895 170.234C110.914 170.381 110.811 170.52 110.661 170.538C110.65 170.538 110.639 170.538 110.624 170.538V170.542Z" fill="black"/>
<path d="M137.618 99.361C137.618 99.361 142.553 98.5066 146 98.3196C149.447 98.1326 155.031 86.579 155.148 85.1856C155.148 85.1856 155.24 84.8996 155.134 84.5623C154.8 83.521 154.015 81.3283 154.565 80.1733C155.486 78.241 157.213 78.5233 157.213 78.5233C157.213 78.5233 157.689 76.7963 158.811 77.1923C159.673 77.493 160.623 78.34 160.795 79.913C161.03 82.0543 161.066 84.1406 159.046 85.787C158.654 86.106 158.379 86.546 158.276 87.041C157.634 90.1063 155.214 100.644 151.72 103.222C147.621 106.247 136.588 109.877 136.588 109.877L137.618 99.361Z" fill="white"/>
<path d="M136.588 110.148C136.525 110.148 136.467 110.126 136.419 110.089C136.346 110.031 136.309 109.943 136.32 109.851L137.35 99.3351C137.361 99.2141 137.453 99.1151 137.574 99.0931C137.622 99.0858 142.564 98.2351 145.989 98.0481C149.205 97.8721 154.763 86.6008 154.881 85.1598C154.881 85.1378 154.888 85.1194 154.892 85.1011C154.892 85.1011 154.954 84.8884 154.877 84.6428L154.8 84.4008C154.411 83.2128 153.766 81.2218 154.323 80.0558C155.112 78.4021 156.476 78.2371 157.022 78.2408C157.147 77.9071 157.444 77.2654 157.964 76.9941C158.258 76.8401 158.573 76.8218 158.903 76.9354C159.35 77.0931 160.835 77.7714 161.066 79.8798C161.301 82.0211 161.352 84.2541 159.218 85.9921C158.87 86.2744 158.632 86.6668 158.544 87.0921C157.88 90.2638 155.442 100.813 151.885 103.434C147.797 106.448 137.13 109.979 136.676 110.13C136.646 110.137 136.621 110.144 136.591 110.144L136.588 110.148ZM137.871 99.5918L136.903 109.484C138.909 108.802 147.984 105.642 151.562 103.002C154.965 100.49 157.359 90.1061 158.012 86.9821C158.126 86.4358 158.434 85.9334 158.877 85.5741C160.799 84.0048 160.755 82.0138 160.527 79.9384C160.329 78.1418 159.097 77.5771 158.723 77.4451C158.54 77.3791 158.371 77.3901 158.217 77.4708C157.803 77.6871 157.543 78.3544 157.477 78.5928C157.44 78.7248 157.308 78.8091 157.172 78.7871C157.11 78.7761 155.632 78.5708 154.815 80.2868C154.349 81.2584 154.98 83.1944 155.317 84.2321L155.398 84.4741C155.511 84.8261 155.449 85.1304 155.423 85.2294C155.233 86.8648 149.663 98.3854 146.022 98.5834C143.023 98.7484 138.839 99.4268 137.875 99.5881L137.871 99.5918Z" fill="black"/>
<path d="M149.392 92.4601L146.337 88.8081L148.189 87.4258C148.292 87.3488 148.409 87.2975 148.534 87.2755L148.761 87.2351C149.047 87.1838 149.285 86.9858 149.381 86.7145C149.432 86.5678 149.527 86.4395 149.656 86.3441L163.409 76.0628C163.523 75.9785 163.648 75.9088 163.78 75.8575L167.817 74.2441L165.551 77.7311C165.426 77.9218 165.279 78.0941 165.111 78.2481L152.413 89.7285C152.303 89.8275 152.171 89.8935 152.028 89.9228L151.991 89.9301C151.716 89.9851 151.489 90.1795 151.394 90.4398L151.346 90.5718C151.302 90.6928 151.229 90.8028 151.133 90.8871L149.395 92.4601H149.392Z" fill="white"/>
<path d="M149.392 92.7316C149.392 92.7316 149.381 92.7316 149.373 92.7316C149.3 92.7279 149.23 92.6912 149.183 92.6362L146.128 88.9842C146.081 88.9256 146.059 88.8522 146.066 88.7789C146.073 88.7056 146.114 88.6396 146.172 88.5919L148.024 87.2096C148.16 87.1069 148.321 87.0409 148.486 87.0116L148.713 86.9712C148.904 86.9382 149.062 86.8062 149.124 86.6266C149.194 86.4286 149.322 86.2562 149.491 86.1316L163.244 75.8502C163.376 75.7512 163.523 75.6706 163.673 75.6082L167.71 73.9949C167.82 73.9509 167.945 73.9839 168.022 74.0756C168.095 74.1672 168.103 74.2956 168.04 74.3946L165.774 77.8816C165.639 78.0906 165.474 78.2812 165.29 78.4499L152.593 89.9302C152.45 90.0622 152.27 90.1502 152.079 90.1869L152.043 90.1942C151.859 90.2309 151.709 90.3592 151.647 90.5316L151.599 90.6636C151.54 90.8249 151.441 90.9716 151.313 91.0889L149.575 92.6619C149.524 92.7059 149.461 92.7316 149.392 92.7316ZM146.726 88.8559L149.417 92.0716L150.946 90.6892C151.009 90.6306 151.06 90.5609 151.086 90.4802L151.133 90.3482C151.262 89.9999 151.566 89.7396 151.933 89.6662L151.969 89.6589C152.065 89.6406 152.153 89.5966 152.226 89.5306L164.924 78.0502C165.074 77.9146 165.206 77.7569 165.32 77.5882L167.12 74.8199L163.875 76.1142C163.765 76.1582 163.662 76.2169 163.567 76.2866L149.813 86.5679C149.729 86.6302 149.667 86.7146 149.634 86.8136C149.505 87.1766 149.186 87.4442 148.805 87.5102L148.578 87.5506C148.493 87.5652 148.416 87.5982 148.347 87.6496L146.726 88.8596V88.8559Z" fill="black"/>
<path d="M143.254 91.2502L146.392 88.7495L149.421 92.4565L146.282 94.9572C145.707 95.4155 144.874 95.3385 144.42 94.7812L143.034 93.0872C142.579 92.5335 142.678 91.7085 143.254 91.2502Z" fill="black"/>
<path d="M145.432 95.5253C144.97 95.5253 144.515 95.331 144.207 94.9533L142.821 93.2593C142.561 92.9403 142.44 92.5333 142.484 92.1227C142.528 91.6973 142.74 91.3123 143.081 91.041L146.22 88.5403C146.337 88.4487 146.506 88.467 146.598 88.5807L149.626 92.2877C149.67 92.3427 149.692 92.416 149.685 92.4893C149.678 92.5627 149.641 92.6287 149.586 92.6727L146.447 95.1733C146.147 95.4117 145.787 95.529 145.428 95.529L145.432 95.5253ZM146.348 89.127L143.419 91.4627C143.191 91.6423 143.052 91.8953 143.023 92.1777C142.993 92.4453 143.07 92.7093 143.243 92.9147L144.629 94.6087C144.988 95.0487 145.655 95.111 146.114 94.7443L149.036 92.4123L146.352 89.127H146.348Z" fill="black"/>
<path d="M150.774 89.3068C150.697 89.3068 150.62 89.2738 150.565 89.2115L149.769 88.2655C149.674 88.1518 149.689 87.9795 149.802 87.8842C149.916 87.7888 150.088 87.8035 150.184 87.9172L150.979 88.8632C151.075 88.9768 151.06 89.1492 150.946 89.2445C150.895 89.2885 150.833 89.3068 150.77 89.3068H150.774Z" fill="black"/>
<path d="M145.432 93.8717C145.351 93.8717 145.27 93.835 145.215 93.7654C145.124 93.648 145.146 93.4757 145.267 93.384L147.008 92.0457C147.126 91.954 147.298 91.976 147.39 92.097C147.481 92.2144 147.459 92.3867 147.338 92.4784L145.597 93.8167C145.549 93.8534 145.49 93.8717 145.432 93.8717Z" fill="white"/>
<path d="M152.879 90.3301C154.422 87.5801 155.321 84.9914 155.152 85.1821C155.152 85.1821 155.134 82.8134 156.362 81.0461C157.114 79.9644 157.209 75.8944 159.347 77.4161C159.805 77.7424 160.12 77.9404 160.461 78.5491C160.648 78.8828 160.975 79.7371 161.026 80.1771C161.261 82.3221 161.07 84.1371 159.046 85.7834C158.657 86.1024 158.386 86.5424 158.283 87.0338C158.217 87.3491 157.887 88.8451 157.785 89.3034L152.886 90.3228L152.879 90.3301Z" fill="white"/>
<path d="M155.152 85.1818C155.152 85.1818 155.632 82.5748 156.362 81.0458C156.927 79.8578 157.209 75.8941 159.347 77.4158C159.805 77.7421 160.12 77.9401 160.461 78.5488C160.648 78.8825 160.975 79.7368 161.026 80.1768C161.261 82.3218 161.07 84.1368 159.046 85.7831C158.657 86.1021 158.386 86.5421 158.283 87.0335C158.225 87.3195 155.152 85.2735 155.159 85.1781L155.152 85.1818Z" fill="white"/>
<path d="M152.794 90.7662C152.75 90.7662 152.703 90.7552 152.662 90.7332C152.53 90.6599 152.486 90.4949 152.56 90.3629C153.902 87.9759 154.76 85.6915 154.884 85.2369C154.884 85.2222 154.881 85.2039 154.881 85.1892C154.881 85.0902 154.877 82.7105 156.138 80.8955C156.333 80.6169 156.494 80.0595 156.659 79.4692C156.985 78.3325 157.319 77.1555 158.133 76.8732C158.536 76.7302 158.998 76.8402 159.501 77.1995L159.592 77.2655C160.014 77.5662 160.348 77.8009 160.692 78.4242C160.894 78.7909 161.235 79.6782 161.286 80.1549C161.536 82.4429 161.279 84.3165 159.207 86.0032C158.863 86.2819 158.628 86.6705 158.536 87.0995C158.47 87.4185 158.078 89.2042 157.979 89.6479C157.946 89.7945 157.803 89.8862 157.656 89.8532C157.51 89.8202 157.418 89.6735 157.451 89.5305C157.55 89.0869 157.939 87.3049 158.005 86.9895C158.118 86.4432 158.423 85.9445 158.863 85.5852C160.751 84.0452 160.986 82.3915 160.747 80.2172C160.703 79.8285 160.392 79.0035 160.216 78.6919C159.93 78.1785 159.669 77.9915 159.273 77.7129L159.182 77.6469C158.83 77.3975 158.536 77.3095 158.305 77.3902C157.755 77.5809 157.433 78.7139 157.172 79.6232C156.993 80.2575 156.82 80.8552 156.575 81.2109C155.563 82.6665 155.434 84.5732 155.416 85.0682C155.478 85.2222 155.383 85.5962 154.804 86.9785C154.503 87.6972 153.872 89.1235 153.025 90.6342C152.974 90.7222 152.882 90.7735 152.787 90.7735L152.794 90.7662Z" fill="black"/>
<path d="M96.0454 104.857C94.1387 106.888 84.9317 116.407 85.7897 136.266C85.8007 136.515 85.7971 136.761 85.6871 136.981C85.1261 138.095 83.4357 141.751 84.3047 143.856C85.3094 146.294 88.4334 151.501 88.4114 143.654C88.4114 143.467 88.6571 143.397 88.7524 143.559C89.1301 144.175 89.7204 145.018 90.0394 144.864C90.7874 144.501 89.3537 140.457 89.6581 138.037C92.1697 118.075 101.127 113.936 103.599 112.047C103.599 112.047 96.2507 104.633 96.0454 104.857Z" fill="white"/>
<path d="M87.2894 148.087C85.7714 148.087 84.07 144.002 84.0517 143.958C83.1644 141.802 84.73 138.275 85.445 136.856C85.5294 136.687 85.5294 136.478 85.5184 136.273C85.1297 127.279 86.5927 114.511 95.7704 104.751L95.8474 104.666C95.8987 104.611 95.9794 104.578 96.0564 104.575C96.192 104.575 96.5697 104.564 103.793 111.853C103.848 111.908 103.877 111.985 103.87 112.062C103.866 112.139 103.826 112.212 103.764 112.26C103.518 112.447 103.217 112.652 102.865 112.891C99.668 115.065 92.1807 120.158 89.9294 138.066C89.7864 139.195 90.0394 140.702 90.263 142.033C90.5454 143.716 90.7287 144.827 90.1604 145.102C89.7754 145.289 89.3244 144.945 88.6827 143.947C88.6607 146.591 88.2684 147.904 87.4507 148.069C87.3957 148.08 87.3444 148.083 87.2894 148.083V148.087ZM96.1077 105.187C87.1134 114.801 85.6797 127.381 86.061 136.251C86.072 136.515 86.072 136.819 85.929 137.102C85.3974 138.154 83.729 141.747 84.554 143.753C85.335 145.652 86.6734 147.673 87.3444 147.541C87.535 147.504 88.151 147.112 88.14 143.654C88.14 143.449 88.272 143.273 88.47 143.214C88.668 143.159 88.8734 143.24 88.9834 143.416C89.5664 144.365 89.856 144.563 89.9367 144.6C90.1017 144.362 89.8744 143.023 89.7277 142.125C89.5004 140.757 89.24 139.206 89.3904 138C91.6747 119.846 99.3014 114.658 102.561 112.443C102.792 112.286 103.001 112.143 103.184 112.011C100.709 109.521 96.9327 105.796 96.104 105.183L96.1077 105.187Z" fill="black"/>
<path d="M100.068 116.928C100.332 116.664 100.574 116.455 100.775 116.294C101.098 116.041 101.571 116.231 101.637 116.635C102.062 119.271 103.078 126.535 99.7377 139.342C98.4067 144.457 124.825 146.683 125.973 140.699C126.592 137.469 125.459 138.624 125.786 131.463C125.998 126.766 126.875 123.007 129.584 117.581C129.592 117.566 129.599 117.551 129.603 117.537C129.724 117.229 131.183 113.679 136.133 111.842C136.247 111.802 136.342 111.725 136.404 111.622C136.991 110.669 139.976 105.499 140.089 98.7121C140.093 98.4738 139.939 98.2648 139.712 98.1915C138.23 97.7221 132.723 96.0721 128.88 96.0831C124.4 96.0941 126.284 96.8238 122.995 96.2371C122.541 96.1565 121.089 95.3571 120.759 95.1848C118.724 94.1178 114.965 96.7248 110.877 95.7605C110.397 95.6468 109.898 95.7091 109.454 95.9145C108.358 96.4205 106.154 97.3261 103.907 97.5828C100.878 97.9275 94.5604 100.868 91.187 107.908C91.055 108.187 97.6037 115.106 99.2904 116.921C99.4994 117.144 99.8477 117.148 100.064 116.935L100.068 116.928Z" fill="#0066EE"/>
<path d="M116.087 90.9461C115.317 91.5841 113.84 92.3321 112.743 91.7087C111.926 91.2431 111.515 90.1284 111.607 88.8781C111.218 88.8891 110.708 88.8377 110.364 88.4967C109.828 87.976 109.979 87.0704 110.034 86.4764C110.272 83.7264 108.695 83.2204 109.179 81.3724C109.561 79.9167 110.76 79.0991 110.983 78.9487C112.116 78.1751 112.839 78.4794 114.698 78.0944C117.822 77.4417 117.987 76.118 120.018 76.2134C120.135 76.2207 122.9 76.3894 123.74 78.3474C124.425 79.9387 123.439 81.783 122.467 82.729C121.21 83.9537 120.385 83.2754 119.131 84.291C116.934 86.0767 118.375 89.0577 116.087 90.9497V90.9461Z" fill="black"/>
<path d="M122.416 85.7324C121.807 85.1494 121.162 83.9981 120.96 83.1767C120.234 80.1847 117.517 79.6311 117.235 82.5424C117.162 83.3197 114.324 83.1327 114.621 83.9687C115.391 86.1394 115.438 85.5674 114.162 86.2897C114.023 86.2897 113.88 86.3117 113.744 86.3667C113.095 86.6307 112.824 87.4814 113.143 88.2697C113.337 88.7464 113.704 89.0874 114.107 89.2231L113.939 92.5854C113.876 93.8467 113.055 94.9431 111.867 95.3611L110.708 95.7681C110.708 95.7681 115.827 99.4897 121.389 95.9661L120.689 95.6067C119.457 94.9761 118.691 93.6964 118.716 92.3141L118.742 91.6577C119.101 91.7091 119.453 91.7017 119.78 91.6247C121.305 91.2617 121.892 89.5567 121.745 87.3934L122.409 86.7921C122.717 86.5097 122.724 86.0257 122.42 85.7361L122.416 85.7324Z" fill="white"/>
<path d="M116.34 97.7406C113.015 97.7406 110.58 96.0099 110.547 95.9843C110.466 95.9256 110.422 95.8266 110.437 95.7239C110.452 95.6249 110.521 95.5406 110.617 95.5076L111.775 95.1006C112.868 94.7193 113.609 93.7219 113.667 92.5669L113.829 89.3953C113.418 89.1973 113.084 88.8306 112.894 88.3649C112.52 87.4409 112.853 86.4289 113.642 86.1099C113.781 86.0513 113.931 86.0219 114.085 86.0146C114.294 85.9009 114.463 85.8203 114.602 85.7543C114.727 85.6956 114.87 85.6259 114.899 85.5929C114.91 85.5233 114.789 85.2079 114.654 84.8413C114.573 84.6286 114.478 84.3683 114.364 84.0529C114.305 83.8879 114.316 83.7266 114.393 83.5836C114.591 83.2206 115.16 83.0923 115.816 82.9456C116.183 82.8613 116.949 82.6889 116.967 82.5129C117.092 81.2223 117.697 80.4156 118.588 80.3533C119.549 80.2836 120.766 81.2113 121.224 83.1106C121.415 83.8916 122.046 85.0026 122.603 85.5343C122.801 85.7249 122.915 85.9889 122.911 86.2639C122.911 86.5389 122.79 86.8029 122.585 86.9863L122.016 87.5033C122.148 89.9306 121.36 91.5256 119.838 91.8849C119.574 91.9473 119.292 91.9693 118.995 91.9546L118.98 92.3249C118.958 93.5899 119.673 94.7889 120.806 95.3646L121.507 95.7239C121.595 95.7679 121.65 95.8559 121.653 95.9513C121.657 96.0503 121.609 96.1419 121.529 96.1933C119.706 97.3483 117.921 97.7406 116.34 97.7406ZM111.324 95.8339C112.641 96.5893 116.586 98.3969 120.825 95.9843L120.561 95.8486C119.244 95.1776 118.412 93.7879 118.438 92.3103L118.467 91.6466C118.467 91.5696 118.504 91.4999 118.562 91.4486C118.621 91.4009 118.698 91.3789 118.775 91.3899C119.116 91.4376 119.431 91.4266 119.714 91.3606C120.979 91.0599 121.62 89.6226 121.47 87.4116C121.463 87.3273 121.496 87.2466 121.558 87.1916L122.222 86.5903C122.313 86.5059 122.368 86.3886 122.368 86.2639C122.368 86.1393 122.321 86.0183 122.229 85.9339C121.587 85.3216 120.916 84.1409 120.696 83.2463C120.311 81.6549 119.343 80.8519 118.625 80.9033C118.02 80.9473 117.602 81.5706 117.503 82.5753C117.448 83.1399 116.678 83.3159 115.933 83.4846C115.603 83.5579 114.914 83.7156 114.866 83.8586C114.866 83.8586 114.866 83.8659 114.874 83.8843C114.984 84.1959 115.079 84.4526 115.16 84.6616C115.53 85.6516 115.618 85.8863 114.833 86.2566C114.69 86.3263 114.511 86.4106 114.291 86.5316C114.25 86.5536 114.203 86.5683 114.155 86.5683C114.038 86.5683 113.939 86.5866 113.843 86.6269C113.334 86.8359 113.128 87.5289 113.392 88.1743C113.546 88.5593 113.847 88.8563 114.192 88.9736C114.305 89.0139 114.382 89.1239 114.375 89.2449L114.206 92.6073C114.137 93.9823 113.253 95.1666 111.951 95.6249L111.324 95.8449V95.8339Z" fill="black"/>
<path d="M118.738 91.9286C118.738 91.9286 118.702 91.9286 118.683 91.9213C116.513 91.4739 115.611 89.7543 115.574 89.6809C115.504 89.5489 115.559 89.3839 115.691 89.3179C115.823 89.2483 115.988 89.3033 116.054 89.4353C116.069 89.4609 116.887 91.0009 118.79 91.3933C118.936 91.4226 119.032 91.5656 119.002 91.7123C118.977 91.8406 118.863 91.9286 118.738 91.9286Z" fill="black"/>
<path d="M223.187 108.539C223.033 108.003 222.784 107.494 222.454 107.043C222.285 106.812 222.091 106.595 221.863 106.423C221.629 106.247 221.357 106.122 221.108 105.968C220.316 105.488 219.7 104.707 219.414 103.816C219.19 103.116 218.919 102.346 218.937 101.609C218.952 101.07 219.443 99.4636 219.821 98.921C220.433 98.0483 221.471 97.3663 222.468 97.007C223.466 96.6476 224.588 96.633 225.585 97.007C226.872 97.4873 227.895 98.6093 228.342 99.9256C228.79 101.242 228.672 102.727 228.093 103.981C227.855 104.502 227.539 104.982 227.301 105.503C226.967 106.232 226.788 107.032 226.769 107.798C226.359 107.967 225.926 108.055 225.49 108.146C225.123 108.223 224.756 108.297 224.393 108.374C224.001 108.454 223.612 108.535 223.187 108.539Z" fill="white"/>
<path d="M222.993 108.674C224.335 108.528 225.658 108.245 226.942 107.838C227.253 108.949 227.47 109.624 227.4 110.775C227.367 111.336 227.217 111.934 226.795 112.301C226.296 112.733 225.567 112.726 224.907 112.682C224.65 112.667 224.386 112.645 224.162 112.521C223.7 112.268 223.554 111.677 223.455 111.157C223.26 110.141 223.161 109.591 222.989 108.674H222.993Z" fill="#0066EE"/>
<path d="M226.069 112.847C225.871 112.887 225.695 112.906 225.57 112.913C225.16 112.935 224.151 112.898 223.671 112.147C223.499 111.875 223.429 111.556 223.37 111.27C223.257 110.75 223.172 110.346 223.084 109.943C223 109.551 222.916 109.155 222.806 108.649C222.798 108.616 222.806 108.583 222.824 108.557C222.842 108.531 222.872 108.513 222.905 108.513C223.693 108.447 226.245 107.952 226.927 107.732C226.956 107.721 226.986 107.725 227.015 107.739C227.041 107.754 227.063 107.78 227.07 107.805C227.433 109.045 227.473 109.525 227.539 110.731C227.561 111.142 227.569 111.571 227.378 111.956C227.103 112.513 226.531 112.748 226.073 112.843L226.069 112.847ZM223.051 108.726C223.147 109.173 223.227 109.536 223.304 109.895C223.392 110.299 223.48 110.702 223.59 111.223C223.649 111.501 223.711 111.787 223.862 112.026C224.276 112.678 225.185 112.708 225.559 112.689C225.93 112.671 226.832 112.554 227.173 111.864C227.338 111.531 227.33 111.131 227.312 110.753C227.25 109.602 227.209 109.122 226.883 107.985C226.095 108.212 223.931 108.63 223.051 108.729V108.726Z" fill="black"/>
<path d="M226.711 107.981C226.711 107.981 226.7 107.981 226.692 107.981C226.63 107.981 226.579 107.937 226.575 107.875C226.513 106.727 227.059 105.686 227.591 104.681C228.082 103.746 228.588 102.782 228.592 101.744C228.592 101.187 228.306 99.8817 227.679 98.8624C227.217 98.1071 226.674 97.5791 226.062 97.3004C224.918 96.7724 223.103 96.6037 221.852 97.3004C220.657 97.9677 219.766 98.9321 219.348 100.021C218.963 101.022 218.948 102.173 219.304 103.262C219.638 104.282 220.279 105.213 221.159 105.957C221.28 106.06 221.409 106.159 221.533 106.258C221.794 106.463 222.061 106.672 222.296 106.922C222.718 107.369 223.011 107.923 223.15 108.524C223.165 108.586 223.125 108.645 223.066 108.66C223.004 108.674 222.945 108.638 222.93 108.575C222.802 108.014 222.523 107.497 222.131 107.079C221.907 106.845 221.647 106.639 221.394 106.438C221.269 106.339 221.137 106.236 221.013 106.133C220.1 105.363 219.432 104.395 219.088 103.336C218.714 102.195 218.732 100.993 219.135 99.9441C219.572 98.8074 220.499 97.8027 221.742 97.1097C223.062 96.3764 224.962 96.5487 226.157 97.0987C226.81 97.3994 227.385 97.9531 227.873 98.7487C228.522 99.8084 228.819 101.165 228.819 101.748C228.819 102.841 228.295 103.831 227.792 104.788C227.253 105.811 226.747 106.779 226.802 107.868C226.802 107.923 226.766 107.974 226.714 107.985L226.711 107.981Z" fill="black"/>
<path d="M225.622 108.15C225.559 108.161 225.501 108.124 225.49 108.062V108.044C225.273 106.984 225.086 105.866 224.929 104.729C224.863 104.234 224.808 103.779 224.852 103.328C224.522 103.303 224.199 103.16 223.968 102.958C223.939 102.932 223.906 102.903 223.876 102.877C223.854 102.954 223.832 103.031 223.81 103.108C223.653 103.611 223.425 103.9 223.11 103.996C223.022 104.025 222.93 104.032 222.839 104.029C222.985 104.311 223.11 104.597 223.22 104.868C223.667 105.965 224.001 107.112 224.217 108.278C224.228 108.337 224.188 108.396 224.129 108.41C224.067 108.421 224.008 108.381 223.997 108.319C223.785 107.167 223.451 106.034 223.011 104.953C222.883 104.637 222.74 104.311 222.564 103.992C222.516 103.981 222.472 103.97 222.428 103.959C221.959 103.838 221.368 103.64 220.98 103.2C220.807 103.006 220.749 102.797 220.822 102.628C220.903 102.437 221.123 102.364 221.299 102.39C221.471 102.415 221.61 102.511 221.728 102.606C222.142 102.936 222.457 103.35 222.71 103.794C222.828 103.812 222.941 103.816 223.044 103.783C223.282 103.71 223.462 103.468 223.594 103.042C223.631 102.921 223.664 102.8 223.693 102.676C223.466 102.386 223.293 102.008 223.161 101.532C223.062 101.169 222.952 100.626 223.154 100.142C223.22 99.9844 223.326 99.9001 223.447 99.9111C223.535 99.9184 223.601 99.9771 223.645 100.025C223.979 100.384 224.038 100.897 224.052 101.257C224.071 101.715 224.034 102.173 223.939 102.617C223.994 102.679 224.052 102.738 224.111 102.789C224.313 102.962 224.595 103.09 224.877 103.108C224.877 103.094 224.881 103.079 224.885 103.064C224.98 102.536 225.233 102.027 225.596 101.638C225.669 101.561 225.757 101.48 225.882 101.473C225.977 101.466 226.065 101.506 226.128 101.579C226.245 101.722 226.252 101.972 226.208 102.14C226.08 102.628 225.86 102.973 225.556 103.167C225.405 103.262 225.24 103.314 225.072 103.328C225.028 103.765 225.079 104.212 225.145 104.7C225.299 105.833 225.486 106.944 225.699 108.003V108.022C225.713 108.084 225.677 108.143 225.614 108.154L225.622 108.15ZM221.17 102.613C221.108 102.628 221.049 102.661 221.027 102.716C220.976 102.841 221.104 103.002 221.148 103.05C221.475 103.42 221.959 103.6 222.402 103.717C222.182 103.365 221.915 103.039 221.585 102.778C221.493 102.705 221.379 102.624 221.262 102.61C221.233 102.606 221.2 102.61 221.167 102.61L221.17 102.613ZM225.108 103.097C225.226 103.079 225.336 103.039 225.438 102.973C225.691 102.811 225.878 102.511 225.992 102.082C226.025 101.95 226.01 101.788 225.955 101.722C225.937 101.704 225.922 101.693 225.897 101.697C225.853 101.697 225.801 101.748 225.761 101.792C225.427 102.151 225.196 102.613 225.108 103.097ZM223.429 100.135C223.429 100.135 223.392 100.16 223.363 100.226C223.231 100.545 223.238 100.941 223.381 101.469C223.48 101.829 223.605 102.126 223.755 102.368C223.818 102.005 223.843 101.634 223.829 101.26C223.807 100.751 223.697 100.406 223.484 100.175C223.447 100.135 223.433 100.135 223.433 100.135H223.429Z" fill="black"/>
<path d="M228.445 97.0328C228.408 97.0401 228.368 97.0328 228.339 96.9998C228.298 96.9558 228.298 96.8861 228.339 96.8421L229.329 95.8448C229.442 95.7311 229.538 95.7678 229.574 95.7861C229.611 95.8081 229.633 95.8412 229.637 95.8815C229.644 95.9768 229.648 95.9878 228.496 97.0035C228.482 97.0182 228.463 97.0255 228.445 97.0292V97.0328Z" fill="#0066EE"/>
<path d="M220.602 96.054C220.558 96.065 220.51 96.0466 220.485 96.0063L219.619 94.6716C219.586 94.6203 219.601 94.5506 219.652 94.5176C219.704 94.4846 219.773 94.4993 219.806 94.5506L220.672 95.8853C220.705 95.9366 220.69 96.0063 220.639 96.0393C220.628 96.0466 220.613 96.054 220.602 96.054Z" fill="#0066EE"/>
<path d="M217.511 100.091C217.511 100.091 217.493 100.091 217.485 100.091L216.162 100.054C216.063 100.054 215.993 100.017 215.964 99.9477C215.945 99.9073 215.949 99.8597 215.975 99.8193C216.03 99.7423 216.059 99.702 217.504 99.8633C217.562 99.8707 217.606 99.922 217.603 99.9843C217.603 100.036 217.562 100.076 217.515 100.087L217.511 100.091Z" fill="#0066EE"/>
<path d="M217.02 106.093C216.979 106.101 216.935 106.086 216.91 106.053C216.869 106.005 216.88 105.932 216.928 105.895L218.098 104.96C218.145 104.92 218.219 104.931 218.255 104.979C218.296 105.026 218.285 105.1 218.237 105.136L217.067 106.071C217.067 106.071 217.038 106.09 217.02 106.093Z" fill="#0066EE"/>
<path d="M224.452 95.2141C224.452 95.2141 224.43 95.2141 224.415 95.2141C224.353 95.2068 224.309 95.1518 224.316 95.0894L224.489 93.6154C224.496 93.5531 224.551 93.5091 224.613 93.5164C224.676 93.5238 224.72 93.5788 224.712 93.6411L224.54 95.1151C224.533 95.1628 224.496 95.2031 224.452 95.2104V95.2141Z" fill="#0066EE"/>
<path d="M231.206 101.998C231.206 101.998 231.173 101.998 231.158 101.998L229.765 101.682C229.703 101.668 229.666 101.609 229.681 101.547C229.695 101.484 229.754 101.448 229.816 101.462L231.21 101.778C231.272 101.792 231.309 101.851 231.294 101.913C231.283 101.957 231.25 101.99 231.206 101.998Z" fill="#0066EE"/>
<path d="M231.012 140.71C231.012 140.71 230.091 151.497 231.749 162.563C232.453 167.26 234.436 172.951 234.726 175.206C235.236 179.177 234.114 184.167 235.848 191.706C237.579 199.245 238.741 207.121 238.946 210.989C239.152 214.861 244.659 213.981 244.659 213.981C244.659 213.981 243.324 195.758 243.933 188.322C244.256 184.409 244.058 176.973 244.16 170.436C244.252 164.547 245.15 143.794 244.765 142.444C243.951 139.592 231.015 140.714 231.015 140.714L231.012 140.71Z" fill="white"/>
<path d="M243.368 214.337C242.301 214.337 240.82 214.164 239.804 213.339C239.108 212.775 238.726 211.986 238.675 211C238.477 207.271 237.355 199.465 235.584 191.761C234.466 186.888 234.532 183.023 234.583 179.918C234.612 178.158 234.638 176.636 234.458 175.232C234.337 174.282 233.901 172.68 233.391 170.821C232.72 168.357 231.884 165.295 231.481 162.596C229.838 151.626 230.733 140.791 230.74 140.681C230.751 140.549 230.854 140.446 230.986 140.435C232.332 140.318 244.168 139.383 245.022 142.364C245.275 143.244 245.04 151.013 244.707 161.082C244.575 165.068 244.461 168.511 244.432 170.436C244.395 172.837 244.395 175.353 244.399 177.787C244.402 181.934 244.406 185.854 244.204 188.336C243.603 195.666 244.916 213.772 244.93 213.955C244.941 214.095 244.842 214.219 244.703 214.241C244.652 214.249 244.109 214.333 243.372 214.333L243.368 214.337ZM231.265 140.959C231.147 142.576 230.517 152.491 232.016 162.519C232.416 165.185 233.245 168.236 233.912 170.681C234.425 172.559 234.865 174.179 234.99 175.166C235.173 176.607 235.148 178.147 235.118 179.929C235.067 183.005 235.001 186.829 236.105 191.64C237.883 199.373 239.012 207.22 239.21 210.971C239.254 211.799 239.566 212.452 240.138 212.918C241.41 213.948 243.625 213.816 244.362 213.739C244.204 211.491 243.09 195.186 243.654 188.292C243.856 185.832 243.852 181.923 243.849 177.787C243.849 175.353 243.841 172.83 243.882 170.425C243.911 168.496 244.025 165.049 244.157 161.06C244.402 153.598 244.743 143.379 244.494 142.51C243.889 140.391 234.95 140.655 231.257 140.956L231.265 140.959Z" fill="black"/>
<path d="M237.67 138.576C237.67 138.576 239.606 146.166 240.123 154.728C240.552 161.83 240.45 176.409 240.318 178.198C240.05 181.935 241.421 184.622 243.258 185.869C245.095 187.115 255.74 196.788 257.65 200.356C259.56 203.923 260.935 210.879 260.935 210.879C260.935 210.879 264.69 209.302 264.745 205.727C264.8 202.152 259.161 187.042 253.98 183.452C251.101 181.458 249.833 181.047 249.561 179.624C249.323 178.385 252.542 165.306 252.858 156.693C252.905 155.417 253.298 149.488 251.71 145.499C249.616 140.244 237.67 138.576 237.67 138.576Z" fill="white"/>
<path d="M260.935 211.15C260.891 211.15 260.847 211.139 260.807 211.117C260.734 211.081 260.686 211.011 260.668 210.93C260.653 210.861 259.278 203.975 257.408 200.484C255.49 196.902 244.861 187.284 243.104 186.092C240.937 184.622 239.797 181.663 240.046 178.176C240.164 176.53 240.292 162.05 239.852 154.742C239.342 146.309 237.425 138.719 237.406 138.642C237.384 138.554 237.406 138.462 237.469 138.393C237.527 138.327 237.619 138.294 237.707 138.305C238.202 138.374 249.836 140.057 251.963 145.396C253.463 149.162 253.224 154.588 253.144 156.374L253.129 156.7C252.931 162.098 251.582 169.336 250.687 174.124C250.185 176.823 249.748 179.155 249.829 179.569C250.012 180.526 250.724 180.985 252.278 181.993C252.814 182.338 253.419 182.73 254.134 183.225C259.34 186.833 265.071 202.123 265.016 205.727C264.958 209.434 261.203 211.055 261.042 211.125C261.009 211.14 260.972 211.147 260.935 211.147V211.15ZM238.03 138.91C238.429 140.589 239.951 147.328 240.395 154.713C240.82 161.724 240.732 176.266 240.589 178.22C240.351 181.509 241.407 184.288 243.409 185.649C245.183 186.855 255.938 196.594 257.885 200.235C259.571 203.384 260.822 209.027 261.13 210.487C261.995 210.028 264.43 208.496 264.474 205.727C264.529 202.193 258.919 187.207 253.826 183.68C253.118 183.188 252.517 182.8 251.985 182.459C250.346 181.399 249.521 180.867 249.297 179.683C249.202 179.188 249.51 177.501 250.155 174.036C251.046 169.262 252.392 162.046 252.586 156.689L252.601 156.359C252.678 154.603 252.916 149.264 251.457 145.609C249.657 141.091 240.101 139.262 238.026 138.917L238.03 138.91Z" fill="black"/>
<path d="M241.729 212.174C241.608 211.77 241.37 211.301 240.901 210.953C240.178 210.417 239.188 210.421 238.429 210.898C236.548 212.082 232.5 214.894 229.362 218.392C228.254 219.628 228.577 221.296 230.777 221.601C234.099 222.063 239.672 221.311 244.89 217.604C245.488 217.179 245.722 216.478 245.799 215.745C245.891 214.869 245.587 212.72 245.392 211.998C245.392 211.99 245.389 211.983 245.385 211.976C245.121 211.037 243.816 210.934 243.365 211.8L243.119 212.273C242.815 212.856 241.935 212.812 241.733 212.185C241.733 212.181 241.733 212.174 241.729 212.17V212.174Z" fill="white"/>
<path d="M232.68 222C231.98 222 231.331 221.956 230.74 221.872C229.626 221.718 228.859 221.212 228.581 220.453C228.32 219.745 228.54 218.909 229.16 218.213C232.61 214.363 237.018 211.466 238.283 210.667C239.152 210.12 240.266 210.15 241.058 210.733C241.495 211.055 241.814 211.525 241.986 212.093L241.726 212.17L241.99 212.1C242.045 212.276 242.195 212.394 242.386 212.412C242.551 212.427 242.763 212.364 242.877 212.148L243.123 211.675C243.387 211.173 243.922 210.887 244.49 210.942C245.048 211 245.491 211.367 245.642 211.899C245.843 212.654 246.159 214.832 246.063 215.771C245.964 216.735 245.631 217.406 245.044 217.82C240.692 220.911 236.101 221.993 232.676 221.993L232.68 222ZM239.639 210.821C239.273 210.821 238.899 210.923 238.572 211.129C237.318 211.917 232.966 214.781 229.563 218.576C229.076 219.118 228.9 219.749 229.087 220.266C229.292 220.831 229.904 221.208 230.814 221.337C234.191 221.806 239.621 221.018 244.732 217.388C245.183 217.065 245.444 216.522 245.528 215.723C245.616 214.891 245.312 212.764 245.128 212.071C245.033 211.734 244.776 211.521 244.439 211.488C244.164 211.459 243.797 211.561 243.607 211.932L243.361 212.405C243.167 212.779 242.767 212.995 242.345 212.958C241.935 212.922 241.601 212.661 241.48 212.273C241.48 212.273 241.476 212.258 241.476 212.254C241.337 211.792 241.091 211.429 240.747 211.173C240.428 210.938 240.043 210.821 239.65 210.821H239.639Z" fill="black"/>
<path d="M232.94 220.555C230.726 220.555 229.963 219.661 229.904 219.591C229.809 219.474 229.831 219.305 229.948 219.21C230.066 219.118 230.234 219.136 230.326 219.25C230.363 219.29 232.999 222.183 243.284 216.357C243.412 216.284 243.581 216.328 243.654 216.46C243.728 216.592 243.684 216.757 243.552 216.83C238.345 219.782 235.008 220.559 232.94 220.559V220.555Z" fill="black"/>
<path d="M235.089 217.259C235.005 217.259 234.92 217.219 234.869 217.146L233.303 214.927C233.215 214.806 233.245 214.638 233.369 214.55C233.49 214.465 233.663 214.491 233.747 214.616L235.313 216.834C235.401 216.955 235.371 217.124 235.247 217.212C235.199 217.245 235.144 217.259 235.089 217.259Z" fill="black"/>
<path d="M236.886 216.148C236.805 216.148 236.724 216.111 236.669 216.042L234.928 213.743C234.836 213.622 234.862 213.453 234.979 213.361C235.1 213.27 235.269 213.296 235.36 213.413L237.102 215.712C237.194 215.833 237.168 216.002 237.051 216.093C237.003 216.13 236.944 216.148 236.886 216.148Z" fill="black"/>
<path d="M258.431 206.596C257.958 209.537 257.093 215.473 258.303 220.115C258.629 221.362 260.939 221.82 262.127 220.508C264.606 217.772 268.086 212.954 268.309 206.193C268.328 205.665 268.089 205.159 267.675 204.833C267.187 204.451 266.399 203.927 265.218 203.41C264.632 203.153 263.946 203.447 263.726 204.048L262.912 206.255L262.71 205.808C262.41 205.137 261.687 204.759 260.965 204.891C260.576 204.961 260.144 205.042 259.755 205.115C259.029 205.247 258.541 205.863 258.424 206.593L258.431 206.596Z" fill="white"/>
<path d="M260.268 221.567C260.033 221.567 259.795 221.538 259.56 221.483C258.772 221.289 258.204 220.805 258.042 220.185C256.763 215.283 257.782 208.943 258.163 206.556C258.306 205.669 258.915 205.001 259.711 204.855L260.921 204.631C261.713 204.484 262.497 204.862 262.886 205.551L263.473 203.956C263.605 203.601 263.88 203.307 264.232 203.161C264.587 203.01 264.976 203.01 265.328 203.164C266.564 203.703 267.378 204.257 267.843 204.624C268.324 205.001 268.599 205.595 268.58 206.208C268.408 211.433 266.303 216.309 262.329 220.695C261.819 221.259 261.056 221.571 260.268 221.571V221.567ZM258.699 206.637C258.321 208.994 257.316 215.253 258.567 220.046C258.677 220.471 259.098 220.808 259.689 220.955C260.316 221.109 261.28 221.036 261.925 220.324C265.812 216.034 267.869 211.279 268.038 206.186C268.052 205.746 267.854 205.32 267.506 205.045C267.066 204.697 266.289 204.176 265.108 203.659C264.895 203.564 264.657 203.564 264.441 203.659C264.224 203.751 264.059 203.923 263.979 204.143L263.165 206.351C263.128 206.453 263.029 206.523 262.919 206.527C262.805 206.53 262.706 206.468 262.662 206.365L262.461 205.918C262.208 205.361 261.614 205.045 261.012 205.155L259.802 205.379C259.223 205.485 258.798 205.966 258.691 206.633L258.699 206.637Z" fill="black"/>
<path d="M260.463 219.778C260.393 219.778 260.32 219.752 260.268 219.697C260.166 219.591 260.166 219.418 260.272 219.312C265.673 214.061 266.491 206.497 266.498 206.42C266.513 206.27 266.645 206.163 266.795 206.178C266.945 206.193 267.052 206.325 267.037 206.475C267.03 206.552 266.19 214.314 260.65 219.701C260.598 219.752 260.529 219.778 260.459 219.778H260.463Z" fill="black"/>
<path d="M258.204 211C258.061 211 257.94 210.886 257.932 210.743C257.925 210.593 258.039 210.468 258.189 210.461L261.078 210.322C261.221 210.314 261.353 210.428 261.361 210.578C261.368 210.729 261.254 210.853 261.104 210.861L258.215 211C258.215 211 258.207 211 258.2 211H258.204Z" fill="black"/>
<path d="M258.167 213.475C258.031 213.475 257.918 213.376 257.899 213.237C257.881 213.09 257.984 212.951 258.134 212.933L260.917 212.577C261.064 212.558 261.203 212.661 261.221 212.811C261.24 212.958 261.137 213.098 260.987 213.116L258.204 213.471C258.204 213.471 258.182 213.471 258.171 213.471L258.167 213.475Z" fill="black"/>
<path d="M233.978 80.1293C231.782 79.704 229.156 81.5007 229.23 84.8153C229.288 87.5213 232.057 88.4893 233.281 90C237.238 94.8877 232.922 99.7203 235.962 104.546C238.858 109.14 236.776 108.986 242.925 113.551C247.834 117.196 257.397 117.434 263.132 111.538C268.584 105.932 270.245 97.1647 265.218 92.6143C260.701 88.526 257.118 92.816 252.275 88.944C247.497 85.1307 249.052 81.7683 246.027 80.1183C241.891 77.8633 240.197 81.3357 233.978 80.1257V80.1293Z" fill="black"/>
<path d="M253.628 100.329C256.286 101.704 257.448 105.067 256.565 107.927C254.585 114.347 251.274 125.6 251.391 128.588C251.56 132.838 257.811 153.731 258.317 160.815C258.823 167.899 258.798 167.781 258.798 167.781C258.798 167.781 246.129 170.968 239.709 167.074C233.289 163.18 225.688 163.532 225.688 163.532C225.688 163.532 224.61 145.976 227.741 140.098C235.43 125.666 232.64 115.132 232.471 111.945C232.302 108.759 231.459 106.812 231.965 104.509C232.471 102.207 234.906 99.7059 237.157 98.5655C242.683 95.7642 249.319 98.1072 253.624 100.333L253.628 100.329Z" fill="#0066EE"/>
<path d="M248.703 169.288C245.462 169.288 242.074 168.819 239.573 167.301C233.303 163.495 225.783 163.795 225.706 163.799C225.563 163.806 225.431 163.693 225.424 163.546C225.38 162.827 224.379 145.847 227.51 139.969C234.125 127.554 232.951 118.167 232.387 113.654C232.299 112.95 232.229 112.396 232.207 111.96C232.145 110.757 231.98 109.708 231.833 108.788C231.591 107.252 231.382 105.924 231.705 104.45C232.255 101.946 234.865 99.4271 237.04 98.3235C242.591 95.5111 249.195 97.7331 253.756 100.091C256.466 101.491 257.786 104.898 256.829 108.007C254.852 114.424 251.549 125.633 251.666 128.577C251.743 130.491 253.114 136.017 254.57 141.865C256.326 148.923 258.314 156.924 258.592 160.792C258.838 164.217 258.959 165.962 259.018 166.846C259.069 167.621 259.01 168.021 258.842 168.045C258.537 168.122 253.807 169.288 248.707 169.288H248.703ZM226.142 163.249C227.902 163.249 234.345 163.495 239.852 166.835C245.645 170.351 256.821 167.957 258.515 167.565C258.486 167.095 258.387 165.596 258.046 160.829C257.771 157.005 255.791 149.03 254.038 141.993C252.513 135.863 251.197 130.564 251.12 128.595C250.999 125.57 254.317 114.295 256.304 107.846C257.173 105.03 255.941 101.832 253.499 100.571C249.052 98.2685 242.624 96.0941 237.278 98.8038C235.184 99.8635 232.724 102.309 232.225 104.564C231.925 105.935 232.126 107.215 232.357 108.7C232.504 109.635 232.673 110.695 232.739 111.927C232.761 112.345 232.83 112.891 232.915 113.584C233.487 118.153 234.671 127.657 227.976 140.222C225.123 145.579 225.823 161.049 225.941 163.249C225.996 163.249 226.062 163.249 226.135 163.249H226.142Z" fill="black"/>
<path d="M222.637 112.598C221.328 112.341 221.816 111.171 222.531 110.929C224.782 110.163 226.227 110.273 227.664 110.841C229.189 111.443 232.555 115.289 237.652 119.432C237.652 119.432 242.349 114.2 244.472 108.887C246.595 103.578 247.871 101.77 249.781 101.026C251.692 100.281 258.915 102.621 253.925 111.116C249.484 118.673 244.692 123.935 240.534 127.404C239.691 128.108 238.466 128.097 237.634 127.378C235.104 125.196 231.393 120.041 228.621 116.162C228.621 116.162 223.517 117.896 222.41 115.15C221.805 113.65 222.63 112.598 222.63 112.598H222.637Z" fill="white"/>
<path d="M239.104 128.199C238.521 128.199 237.934 127.994 237.461 127.587C235.06 125.512 231.734 120.98 228.522 116.481C227.539 116.781 223.238 117.918 222.168 115.252C221.713 114.119 221.999 113.217 222.23 112.759C221.665 112.528 221.57 112.11 221.555 111.919C221.522 111.41 221.922 110.852 222.45 110.673C224.558 109.954 226.102 109.932 227.77 110.588C228.636 110.929 230 112.202 231.884 113.958C233.439 115.406 235.36 117.199 237.626 119.055C238.484 118.061 242.371 113.423 244.226 108.784C246.338 103.508 247.666 101.561 249.69 100.773C250.779 100.347 253.298 100.831 254.764 102.555C255.982 103.985 256.865 106.654 254.163 111.256C249.268 119.586 244.146 124.749 240.71 127.613C240.241 128.005 239.672 128.199 239.1 128.199H239.104ZM228.628 115.89C228.713 115.89 228.797 115.931 228.848 116.004C231.389 119.564 235.232 124.943 237.817 127.173C238.55 127.807 239.625 127.814 240.365 127.195C243.768 124.357 248.843 119.242 253.697 110.977C256.238 106.654 255.457 104.201 254.354 102.903C253.059 101.385 250.812 100.916 249.888 101.275C248.029 101.997 246.775 103.871 244.729 108.982C242.609 114.277 237.905 119.553 237.857 119.608C237.762 119.715 237.597 119.729 237.483 119.638C235.115 117.713 233.116 115.85 231.51 114.354C229.736 112.7 228.335 111.395 227.565 111.091C226.025 110.486 224.591 110.511 222.615 111.182C222.322 111.281 222.069 111.615 222.087 111.879C222.105 112.158 222.421 112.275 222.685 112.326C222.776 112.345 222.853 112.411 222.886 112.499C222.919 112.587 222.905 112.686 222.846 112.759C222.813 112.799 222.127 113.72 222.663 115.043C223.66 117.526 228.485 115.916 228.533 115.901C228.562 115.89 228.592 115.887 228.621 115.887L228.628 115.89Z" fill="black"/>
<path d="M246.313 98.3453C246.313 98.3453 244.417 90.8103 244.388 89.9047C244.388 89.9047 245.139 89.56 245.161 88.427C245.202 86.2747 243.013 87.2243 243.013 87.2243L242.8 87.2647C241.564 87.492 240.285 87.36 239.122 86.8797L236.68 85.875C236.68 85.875 236.108 86.7623 236.622 88.559C236.864 89.417 236.757 90.3923 236.548 91.408C236.493 91.6757 236.666 91.936 236.933 91.9947L237.593 92.134C237.898 92.959 238.18 93.454 238.73 94.004C238.88 94.1543 239.082 94.2423 239.295 94.2423C239.581 94.2423 240.028 94.2057 240.538 94.026L241.091 97.9713L238.374 99.1813C238.374 99.1813 238.374 100.549 241.458 101.59C243.365 102.236 245.961 101.869 247.442 101.246C248.326 100.872 248.7 99.9037 247.897 99.3757L246.324 98.3417L246.313 98.3453Z" fill="white"/>
<path d="M243.768 102.206C242.928 102.206 242.096 102.1 241.359 101.851C238.132 100.758 238.092 99.2472 238.092 99.1849C238.092 99.0786 238.154 98.9796 238.253 98.9356L240.783 97.8063L240.303 94.3779C239.889 94.4879 239.533 94.5136 239.284 94.5136C239.005 94.5136 238.73 94.3963 238.528 94.1946C238.004 93.6666 237.692 93.1789 237.384 92.3686L236.871 92.2623C236.457 92.1743 236.193 91.7709 236.277 91.3566C236.453 90.4949 236.6 89.5012 236.358 88.6396C235.819 86.7439 236.424 85.7723 236.449 85.7319C236.519 85.6219 236.658 85.5779 236.779 85.6293L239.221 86.6339C240.34 87.0923 241.557 87.2206 242.745 87.0006L242.928 86.9676C243.123 86.8906 244.138 86.5166 244.828 86.9786C245.235 87.2536 245.436 87.7449 245.425 88.4379C245.407 89.3839 244.93 89.8606 244.666 90.0513C244.813 91.1696 246.03 96.1343 246.544 98.1839L248.029 99.1593C248.428 99.4233 248.626 99.8009 248.59 100.23C248.542 100.754 248.128 101.257 247.53 101.506C246.536 101.924 245.143 102.214 243.764 102.214L243.768 102.206ZM238.675 99.3426C238.803 99.6983 239.335 100.593 241.531 101.337C243.328 101.946 245.858 101.616 247.321 101C247.728 100.828 248.021 100.498 248.051 100.175C248.073 99.9549 247.963 99.7569 247.732 99.6066L246.159 98.5726C246.104 98.5359 246.06 98.4773 246.045 98.4113C245.968 98.1033 244.142 90.8359 244.113 89.9119C244.113 89.8019 244.171 89.7029 244.27 89.6553C244.292 89.6443 244.868 89.3546 244.886 88.4196C244.894 87.9209 244.776 87.5836 244.531 87.4223C244.113 87.1436 243.368 87.3636 243.119 87.4699C243.101 87.4773 243.079 87.4846 243.06 87.4882L242.848 87.5286C241.557 87.7669 240.233 87.6276 239.02 87.1289L236.82 86.2233C236.702 86.5606 236.548 87.3122 236.882 88.4856C237.161 89.4609 237.003 90.5389 236.812 91.4629C236.787 91.5839 236.867 91.7049 236.988 91.7306L237.648 91.8699C237.74 91.8883 237.813 91.9543 237.846 92.0423C238.147 92.8673 238.418 93.3146 238.921 93.8132C239.023 93.9159 239.159 93.9709 239.295 93.9746C239.57 93.9746 239.973 93.9416 240.446 93.7729C240.523 93.7472 240.607 93.7546 240.677 93.7949C240.747 93.8389 240.794 93.9086 240.805 93.9893L241.359 97.9346C241.377 98.0556 241.311 98.1693 241.201 98.2206L238.686 99.3426H238.675Z" fill="black"/>
<path d="M240.53 94.2971C240.424 94.2971 240.321 94.2348 240.277 94.1284C240.222 93.9891 240.288 93.8314 240.428 93.7764L240.897 93.5858C241.036 93.5308 241.194 93.5968 241.249 93.7361C241.304 93.8754 241.238 94.0331 241.099 94.0881L240.629 94.2788C240.596 94.2934 240.563 94.2971 240.527 94.2971H240.53Z" fill="black"/>
</g>
<defs>
<clipPath id="clip0_1665_13715">
<rect x="58" y="2" width="220" height="220" rx="15" fill="white"/>
</clipPath>
</defs>
</svg>
